<?xml version="1.0" standalone="no"?>
<!DOCTYPE svg PUBLIC "-//W3C//DTD SVG 1.1//EN" "http://www.w3.org/Graphics/SVG/1.1/DTD/svg11.dtd" >
<svg>
<metadata>
Created by FontForge 20090914 at Thu Apr 25 14:17:35 2013
 By www-data
MacArtist&#196;&#131; 1993
</metadata>
<defs>
<font id="Cartoon" horiz-adv-x="936" >
  <font-face 
    font-family="Cartoon"
    font-weight="5"
    font-stretch="normal"
    units-per-em="1600"
    panose-1="0 0 0 0 0 0 0 0 0 0"
    ascent="1280"
    descent="-320"
    x-height="616.001"
    cap-height="950.001"
    bbox="-223 -613.039 1582 1400"
    underline-thickness="20"
    underline-position="-123"
    unicode-range="U+0020-U+2122"
  />
<missing-glyph horiz-adv-x="1400" 
d="M87 0v1400h1226v-1400h-1226zM1226 87v1226h-1052v-1226h1052z" />
    <glyph glyph-name=".notdef" horiz-adv-x="1400" 
d="M87 0v1400h1226v-1400h-1226zM1226 87v1226h-1052v-1226h1052z" />
    <glyph glyph-name="space" unicode=" " horiz-adv-x="330" 
 />
    <glyph glyph-name="space" unicode="&#xa0;" horiz-adv-x="330" 
 />
    <glyph glyph-name="exclam" unicode="!" horiz-adv-x="547" 
d="M472 865c-1.33301 -5.33301 -5.16992 -11.1689 -11.5029 -17.502s-9.83301 -12.166 -10.5 -17.499c-3.33301 -28 -7 -52 -11 -72c-11.333 -59.333 -17.666 -93.666 -18.999 -102.999c-3.33301 -24 -7 -85.333 -11 -184s-17.833 -152.167 -41.5 -160.5
s-50.5 -12.5 -80.5 -12.5c-26.667 0 -50 3.5 -70 10.5s-30 15.833 -30 26.5c-4 44.667 -6.66699 86 -8 124s-2 77.333 -2 118c0 60.667 0.333008 113.5 1 158.5l2 129.5c0 8 -4.33301 18 -13 30s-12 22 -10 30c2 9.33301 16.333 17 43 23s58.334 9 95.001 9
c50.667 0 91.334 -5.33301 122.001 -16c38 -13.333 57 -33.333 57 -60c0 -6.66699 -0.666992 -12 -2 -16zM404.996 209.997c-6 -17.333 -9.83203 -35.167 -11.499 -53.5s-2.5 -39.833 -2.5 -64.5v-29c0 -17.333 -0.5 -30 -1.5 -38s-3.66699 -14.833 -8 -20.5
s-21.5 -8.5 -51.5 -8.5c-35.333 0 -65.333 4.66699 -90 14c-32 12 -49.667 30.333 -53 55c-0.666992 4.66699 -3.16699 20.5 -7.5 47.5s-6.5 47.167 -6.5 60.5c0 20 3.33301 37.167 10 51.5s17.5 24.333 32.5 30s33.167 8.5 54.5 8.5c33.333 0 65.166 -6 95.499 -18
s43.5 -23.667 39.5 -35z" />
    <glyph glyph-name="quotedbl" unicode="&#x22;" horiz-adv-x="585" 
d="M570 875c3.33301 -20 -11.001 -45.667 -43.001 -77c-12 -12 -27.667 -26.333 -47 -43c-5.33301 -4.66699 -14.5 -8.66699 -27.5 -12s-26.833 -5 -41.5 -5c-16 0 -28.667 2.5 -38 7.5s-13.666 13.167 -12.999 24.5c2 16.667 12.333 37.167 31 61.5
s40.667 47.166 66 68.499c14.667 11.333 31.667 17 51 17c16 0 29.833 -3.66699 41.5 -11s18.5 -17.666 20.5 -30.999zM284.999 880l-81.001 -83.998c-8.66699 -8 -21.667 -16.667 -39 -26c-10.667 -5.33301 -33.667 -8 -69 -8c-18 0 -33.167 1.5 -45.5 4.5
s-18.5 7.5 -18.5 13.5c0 3.33301 1.66699 6.66602 5 9.99902c18 25.333 35.333 47.333 52 66c19.333 22 37 38.333 53 49c8 5.33301 18.5 9.5 31.5 12.5s27.5 4.5 43.5 4.5c20.667 0 38.334 -2.5 53.001 -7.5s22 -11.833 22 -20.5c0 -4.66699 -2.33301 -9.33398 -7 -14.001z
" />
    <glyph glyph-name="numbersign" unicode="#" horiz-adv-x="650" 
d="M559 542h-131v-109h-86v103h-103v-103h-51v97h-108v80h102v85h-96v63h91v131h62v-119h114v119h63v-125h131v-51h-131v-103h143v-68zM336 621v86h-85l-6 -86h91z" />
    <glyph glyph-name="dollar" unicode="$" horiz-adv-x="780" 
d="M705 135c-19.333 -8.66699 -51.666 -17.002 -96.999 -25.002s-87 -12 -125 -12c-8.66699 0 -17.667 0.5 -27 1.5s-16 1.83301 -20 2.5c-8 1.33301 -13.5 -12.5 -16.5 -41.5s-5.5 -55.833 -7.5 -80.5c-1.33301 -5.33301 -4.66602 -8 -9.99902 -8
c-6.66699 0 -13.834 2.83301 -21.501 8.5s-12.167 12.667 -13.5 21s-2 14.5 -2 18.5c0 12.667 4 31.334 12 56.001c3.33301 10.667 4.66602 18 3.99902 22s-41.334 24.833 -122.001 62.5s-121 63.167 -121 76.5c0 2.66699 3.66699 4 11 4c12 0 44.333 -6 97 -18
s86 -18 100 -18c6 0 9.66699 1 11 3c2.66699 5.33301 4 15.666 4 30.999c0 12.667 -0.666992 23.334 -2 32.001s-3.66602 13.334 -6.99902 14.001c-100.667 19.333 -185.334 49.666 -254.001 90.999c-61.333 36.667 -92 76 -92 118c0 54 47.667 124.667 143 212
c88 80.667 162.333 131 223 151c2 0.666992 2.66699 7.83398 2 21.501s-1 31.167 -1 52.5c0 2.66699 5.66699 4 17 4c4.66699 0 12.334 -0.333008 23.001 -1s18 -1 22 -1c2.66699 0 4 -1.66699 4 -5c-0.666992 -4 -1 -7.66699 -1 -11
c0.666992 -6.66699 0.666992 -13.667 0 -21s-1.33398 -13.666 -2.00098 -18.999c0 -3.33301 8.66699 -5 26 -5h40c36.667 0 65.334 -2.66699 86.001 -8c32.667 -8 55 -23 67 -45c2 -4 3 -8 3 -12c0 -6 -4.66699 -15.667 -14 -29s-14 -24.333 -14 -33
c0 -51.333 5 -96 15 -134l37 -111c0 -8.66699 -20 -19.834 -60 -33.501s-76 -20.5 -108 -20.5c-20 0 -35.667 3.16699 -47 9.5s-17 16.5 -17 30.5c0 12.667 4.66699 44.667 14 96c4.66699 26 7 50.333 7 73c0 23.333 -2 51.666 -6 84.999c-0.666992 6 -6 9 -16 9
c-7.33301 0 -14.166 -1.83301 -20.499 -5.5s-9.16602 -8.16699 -8.49902 -13.5c2 -10 3.66699 -25.5 5 -46.5s2 -40.833 2 -59.5c0 -50.667 -1.83301 -99.667 -5.5 -147s-6.83398 -77.666 -9.50098 -90.999c-0.666992 -3.33301 33.666 -23.333 102.999 -60
c41.333 -22 72 -42.333 92 -61c31.333 -26 54.333 -45.667 69 -59c27.333 -24.667 41 -43 41 -55c0 -6.66699 -4 -12 -12 -16zM360 393.998c2 43.333 3.83496 88.832 5.50195 136.499s2.5 81.167 2.5 100.5c0 36.667 -1 59 -3 67l-8 2
c-64.667 -39.333 -118.334 -78.666 -161.001 -117.999c-46 -42.667 -69 -85 -69 -127c0 -18 27.667 -34 83 -48c47.333 -12 89.666 -18 126.999 -18c15.333 0 23 1.66699 23 5zM573.002 189.997l-20 25c-50 33.333 -88.667 50 -116 50c-6 0 -10.333 -1.33301 -13 -4
c-3.33301 -4 -6 -9.33301 -8 -16s-3 -13.667 -3 -21c0 -12 3.33301 -19.333 10 -22s24 -5.66699 52 -9s52 -5 72 -5c9.33301 0 18 0.666992 26 2z" />
    <glyph glyph-name="percent" unicode="%" horiz-adv-x="1290" 
d="M1192 340c0 -33.333 -41.3311 -77.3301 -123.998 -131.997c-78.667 -52 -142.334 -81.333 -191.001 -88c-9.33301 -1.33301 -17 -2 -23 -2c-26 0 -51.333 5 -76 15s-46.667 25.667 -66 47c-6.66699 7.33301 -11.334 14.666 -14.001 21.999s-4 15.666 -4 24.999
c0 52 41.167 109 123.5 171s153.166 93 212.499 93c5.33301 -0.666992 9.33301 -1 12 -1c42.667 -4 78.334 -19.833 107.001 -47.5s43 -61.834 43 -102.501zM615.002 705.003c-6 -52 -36.333 -94.998 -91 -128.998c-41.333 -26 -91 -44.667 -149 -56
c-21.333 -4 -42 -6 -62 -6c-51.333 0 -95 10.833 -131 32.5s-54 49.5 -54 83.5c0 12 2.33301 23.667 7 35c7.33301 18 45 63.333 113 136c71.333 76 114.833 115.333 130.5 118s29.167 4 40.5 4c54.667 0 101.167 -19.833 139.5 -59.5s57.5 -85.834 57.5 -138.501
c0 -8.66699 -0.333008 -15.334 -1 -20.001zM1192 850.005c-4 -16 -19.0029 -29.6689 -45.0029 -41.002c-18 -7.33301 -30.333 -13.666 -37 -18.999c-99.333 -74 -216.666 -181.333 -351.999 -322l-297 -322c-89.333 -97.333 -143 -146 -161 -146h-40
c-13.333 0 -26.666 -0.333008 -39.999 -1c-50 0 -87 4.66699 -111 14c-33.333 12.667 -52.333 36.667 -57 72c-1.33301 8.66699 75.667 85.334 231 230.001c160.667 150 312.667 284.667 456 404c172.667 144 276.334 216 311.001 216c36 0 67.333 -5.33301 94 -16
c33.333 -13.333 50 -32 50 -56c0 -2 -0.666992 -6.33301 -2 -13zM1042 390.003c-3.33301 6 -9.33301 9 -18 9c-26.667 0 -68.667 -26.667 -126 -80s-86 -88 -86 -104c0 -3.33301 1.66699 -5 5 -5c48 0 85.667 4.33301 113 13c34.667 10.667 64.667 31.334 90 62.001
c10.667 13.333 18.667 25.166 24 35.499s8 21.833 8 34.5c0 12 -3.33301 23.667 -10 35zM464.999 790.003c-5.33301 10 -27.6689 1.33301 -67.002 -26c-33.333 -22.667 -68.166 -51 -104.499 -85s-51.833 -53.667 -46.5 -59c20 -20 40.667 -30 62 -30
c16.667 0 34.334 6 53.001 18c12 8 38.667 32 80 72c22.667 22.667 34 46 34 70c0 12 -3.66699 25.333 -11 40z" />
    <glyph glyph-name="ampersand" unicode="&#x26;" horiz-adv-x="845" 
d="M793 154c0 -24.667 -6.33203 -49.667 -18.999 -75c-9.33301 -19.333 -32.333 -51 -69 -95c-7.33301 -8.66699 -49.333 21.333 -126 90c-40 36 -64.667 55 -74 57s-23.666 9.33301 -42.999 22c-8 5.33301 -14.333 8 -19 8c-4 0 -8 -2.33301 -12 -7
c-38 -55.333 -80.333 -97.666 -127 -126.999c-42 -26 -83 -39 -123 -39c-44 0 -80.5 14.833 -109.5 44.5s-43.5 68.834 -43.5 117.501c0 42 10.667 84.333 32 127c24 48 61 96 111 144c13.333 13.333 20 27.666 20 42.999c0 8 -1.66699 15.5 -5 22.5s-10.5 12.5 -21.5 16.5
s-17.833 9 -20.5 15c-16.667 34.667 -25 76.334 -25 125.001c0 52.667 9.66699 99.667 29 141c22.667 48 55.167 81.833 97.5 101.5s87.833 29.5 136.5 29.5c43.333 0 79.5 -8.5 108.5 -25.5s43.5 -42.833 43.5 -77.5c0 -81.333 -15.667 -141.333 -47 -180
c-18 -22 -49 -42 -93 -60c-35.333 -14.667 -55 -30.667 -59 -48c-2.66699 -12 12.333 -33.333 45 -64c36 -33.333 80.333 -68.333 133 -105c2 -1.33301 5 -2 9 -2c16.667 0 45 23.667 85 71c20 24 53.667 67.667 101 131c34.667 46.667 54 68.667 58 66
c5.33301 -3.33301 10 -7 14 -11c7.33301 -8.66699 9.66602 -17.334 6.99902 -26.001c-4 -13.333 -26 -43.333 -66 -90l-102.5 -121c-34.333 -40.667 -48.833 -64.334 -43.5 -71.001c19.333 -24 51.666 -48 96.999 -72c80.667 -42.667 121 -68 121 -76zM397.001 730
c0 30 -5.00098 54.998 -15.001 74.998c-12 24 -30 36 -54 36c-12 0 -21.5 -12.5 -28.5 -37.5s-10.5 -53.833 -10.5 -86.5c0 -33.333 3.33301 -60.166 10 -80.499s16.334 -28.166 29.001 -23.499c24 9.33301 41.5 24 52.5 44s16.5 44.333 16.5 73zM376 191.998
c2 2 2.99902 4.99707 2.99902 8.99707c0 20.667 -24 53.334 -72 98.001s-77.333 65.334 -88 62.001c-10 -2.66699 -19 -16 -27 -40s-12 -50.333 -12 -79c0 -27.333 4.16699 -50.166 12.5 -68.499s22.333 -29.833 42 -34.5s37.834 -7 54.501 -7c28 0 49 7.66699 63 23
c11.333 18.667 19.333 31 24 37z" />
    <glyph glyph-name="quotesingle" unicode="'" horiz-adv-x="300" 
d="M265 860c3.33301 -20 -11.001 -45.667 -43.001 -77c-12 -12 -27.667 -26.333 -47 -43c-5.33301 -4.66699 -14.5 -8.66699 -27.5 -12s-26.833 -5 -41.5 -5c-16 0 -28.667 2.5 -38 7.5s-13.666 13.167 -12.999 24.5c2 16.667 12.333 37.167 31 61.5
s40.667 47.166 66 68.499c14.667 11.333 31.667 17 51 17c16 0 29.833 -3.66699 41.5 -11s18.5 -17.666 20.5 -30.999z" />
    <glyph glyph-name="parenleft" unicode="(" horiz-adv-x="427" 
d="M360 20c-108 74.667 -184 142.667 -228 204c-47.333 66 -71 142 -71 228c0 26 2.33301 56.667 7 92s25.667 86.333 63 153c30.667 54 66 107.333 106 160c37.333 48.667 60 73 68 73v-8c-2.66699 -7.33301 -7 -16.333 -13 -27c-36 -64.667 -62.5 -129 -79.5 -193
s-25.5 -126 -25.5 -186c0 -86 16 -171.667 48 -257c22 -58.667 51.667 -116.667 89 -174l48 -71z" />
    <glyph glyph-name="parenright" unicode=")" horiz-adv-x="450" 
d="M360 535c4 -30 6.00098 -58.001 6.00098 -84.001c0 -86 -23.333 -161.667 -70 -227c-44 -61.333 -120.333 -129.333 -229 -204c-3.33301 -2 -6.33301 -4 -9 -6h-3l47 72c38 58 67.667 115.667 89 173c32 84.667 48 169.667 48 255c0 62.667 -7.33301 123 -22 181
c-16.667 66.667 -44 133.334 -82 200.001c-9.33301 16.667 -14 27.334 -14 32.001l58 -56c40 -50.667 77 -105.334 111 -164.001c41.333 -72 64.666 -129.333 69.999 -172z" />
    <glyph glyph-name="asterisk" unicode="*" horiz-adv-x="510" 
d="M450 720l-130 -60l70 -120l-50 -35l-80 120l-20 -110l-95 -5l55 135l-130 95l45 35l100 -45l45 140l70 -10l-50 -130l140 55z" />
    <glyph glyph-name="plus" unicode="+" horiz-adv-x="450" 
d="M269 567l141 -2l-20 -90l-116 -5l6 -110h-150l-2 104l-103 -4l5 110l96 -1l-1 76h140z" />
    <glyph glyph-name="comma" unicode="," horiz-adv-x="300" 
d="M274 190c-2.66699 -7.33301 -4.83203 -16.667 -6.49902 -28s-2.5 -25 -2.5 -41v-24c0 -33.333 -4.5 -57.333 -13.5 -72s-23.167 -28 -42.5 -40c-25.333 -16 -58 -32.333 -98 -49c-31.333 -13.333 -53.333 -20 -66 -20c-9.33301 0 -14 3.33301 -14 10
c0 4 1.33301 8.66699 4 14c13.333 26.667 23 53.5 29 80.5s9 51.833 9 74.5c0 16 -1.16699 32.667 -3.5 50l-7.5 55c0 17.333 7.5 28.833 22.5 34.5s33.167 8.5 54.5 8.5c33.333 0 65.166 -6 95.499 -18s43.5 -23.667 39.5 -35z" />
    <glyph glyph-name="hyphen" unicode="-" horiz-adv-x="485" 
d="M40 550l390 10l-15 -55l-375 -35l-20 70z" />
    <glyph glyph-name="period" unicode="." horiz-adv-x="345" 
d="M295 190c-6 -17.333 -9.83203 -35.167 -11.499 -53.5s-2.5 -39.833 -2.5 -64.5v-29c0 -17.333 -0.5 -30 -1.5 -38s-3.66699 -14.833 -8 -20.5s-21.5 -8.5 -51.5 -8.5c-35.333 0 -65.333 4.66699 -90 14c-32 12 -49.667 30.333 -53 55
c-0.666992 4.66699 -3.16699 20.5 -7.5 47.5s-6.5 47.167 -6.5 60.5c0 20 3.33301 37.167 10 51.5s17.5 24.333 32.5 30s33.167 8.5 54.5 8.5c33.333 0 65.166 -6 95.499 -18s43.5 -23.667 39.5 -35z" />
    <glyph glyph-name="slash" unicode="/" horiz-adv-x="515" 
d="M470 840l-400 -800l-45 55l370 770z" />
    <glyph glyph-name="zero" unicode="0" horiz-adv-x="1365" 
d="M1170 150c-62 -52.667 -130.999 -92 -206.999 -118c-70.667 -24 -145.334 -36 -224.001 -36c-176 0 -336 53.333 -480 160s-216 225 -216 355c0 58 16.333 112.667 49 164c36 56 90.333 106 163 150c64 38.667 129 67 195 85s131.667 27 197 27
c172.667 0 324 -57.667 454 -173c125.333 -110.667 188 -232.334 188 -365.001c0 -47.333 -9.66699 -92.166 -29 -134.499s-49.333 -80.5 -90 -114.5zM990.001 255c45.333 38.667 78.666 78.832 99.999 120.499s32 84.167 32 127.5c0 97.333 -48.167 182.833 -144.5 256.5
s-210.833 110.5 -343.5 110.5c-53.333 0 -106.833 -6.83301 -160.5 -20.5s-106.5 -35.167 -158.5 -64.5c-62.667 -35.333 -110 -78.666 -142 -129.999c-29.333 -47.333 -44 -98.333 -44 -153c0 -103.333 44.667 -196 134 -278c92.667 -85.333 202.334 -128 329.001 -128
c66.667 0 131.667 12 195 36c70 26.667 137.667 67.667 203 123z" />
    <glyph glyph-name="one" unicode="1" horiz-adv-x="607" 
d="M570 855c-3.33301 -7.33301 -12.499 -14.1699 -27.499 -20.5029s-23.5 -14.5 -25.5 -24.5c-18 -98 -33.5 -205.5 -46.5 -322.5s-19.5 -216.5 -19.5 -298.5c0 -51.333 2.16699 -93.166 6.5 -125.499s11.833 -56.833 22.5 -73.5c2 -2.66699 2 -4.66699 0 -6
s-5.66699 -2 -11 -2c-21.333 0 -61 10 -119 30s-104.667 41 -140 63c-12 6.66699 -18 29.667 -18 69c0 46 10.167 117 30.5 213l62.5 293c0 5.33301 -0.666992 8 -2 8c-4 0 -11 -9.16699 -21 -27.5s-20.667 -32.5 -32 -42.5c-14 -12.667 -28.333 -19 -43 -19
c-7.33301 0 -14.666 2 -21.999 6c-62 36 -97 57 -105 63c-20.667 15.333 -28.334 26 -23.001 32c27.333 32.667 66 67.334 116 104.001c31.333 22.667 73.333 51 126 85c48 30.667 77.167 50.834 87.5 60.501s25.833 14.5 46.5 14.5c32.667 0 68.667 -10 108 -30
s55.666 -36.333 48.999 -49z" />
    <glyph glyph-name="two" unicode="2" horiz-adv-x="900" 
d="M817 110c-37.333 -5.33301 -112.332 -19.333 -224.999 -42l-287 -55.5c-92 -17 -143.667 -24.5 -155 -22.5c-44 8 -75 16.333 -93 25c-30.667 15.333 -44.667 37 -42 65c0 1.33301 -2.16699 9.33301 -6.5 24s-6.5 26.667 -6.5 36c0 14 4.33301 24 13 30
c94.667 63.333 182 139.666 262 228.999c68 76 125 154.333 171 235c40.667 72 61 125.667 61 161c0 23.333 -9.66699 33.333 -29 30c-74.667 -13.333 -135.334 -45.333 -182.001 -96c-20 -22 -48 -66 -84 -132c-24.667 -44.667 -48 -67 -70 -67c-6 0 -14 1.66699 -24 5
l-65 24c-24.667 10.667 -37 22.667 -37 36c0 5.33301 1.33301 10.333 4 15c54 96.667 116.667 173 188 229c74 58 149 87 225 87c24.667 0 47.5 -2.66699 68.5 -8s43.167 -14.666 66.5 -27.999c32.667 -18 56.667 -42 72 -72s23 -64 23 -102
c0 -77.333 -28.333 -161.333 -85 -252c-54 -87.333 -115 -152 -183 -194c-16.667 -10 -25 -16.667 -25 -20l75 14l162 47c68.667 18 119 27 151 27c10.667 0 19.667 -1 27 -3c24 -6 43.667 -23.167 59 -51.5s23 -58.833 23 -91.5c0 -22 -4.33301 -40.5 -13 -55.5
s-21.667 -23.833 -39 -26.5z" />
    <glyph glyph-name="three" unicode="3" horiz-adv-x="1112" 
d="M1052 255c0 -85.333 -42.999 -151.663 -128.999 -198.996c-74 -40.667 -163.333 -61 -268 -61c-168.667 0 -307 19 -415 57c-89.333 31.333 -134 63.333 -134 96c0 19.333 19.667 29 59 29c3.33301 0 7.66602 -0.333008 12.999 -1s9.33301 -1 12 -1
c36.667 -4.66699 80 -8.33398 130 -11.001s93 -4 129 -4c122 0 218.667 10 290 30c94.667 26.667 142 70.667 142 132c0 14.667 -2.5 30 -7.5 46s-12.833 33.333 -23.5 52c-12.667 21.333 -29.334 36.666 -50.001 45.999s-44.667 14 -72 14
c-41.333 0 -99.166 -12.5 -173.499 -37.5s-118.5 -37.5 -132.5 -37.5c-11.333 0 -36 11 -74 33c-43.333 24.667 -65 45 -65 61c0 7.33301 4 12.666 12 15.999c70 35.333 135.667 83.333 197 144c58.667 58 88 101.333 88 130c0 8 -2.66699 13.333 -8 16
c-11.333 6 -23 9 -35 9c-29.333 0 -67.333 -18.333 -114 -55c-15.333 -12 -57 -49 -125 -111c-50.667 -46 -89.334 -75.333 -116.001 -88c-12 -6 -35.333 8 -70 42c-38.667 38 -58 74 -58 108c0.666992 4.66699 1 8 1 10c2 14.667 37 40.5 105 77.5s140.333 69.833 217 98.5
c86.667 32.667 149.334 49 188.001 49c35.333 0 68.333 -12.333 99 -37c4 -3.33301 21 -19.333 51 -48c9.33301 -8.66699 16.166 -18.334 20.499 -29.001s6.5 -22 6.5 -34c0 -20.667 -10 -54 -30 -100s-30 -80.667 -30 -104c0 -7.33301 0.833008 -14.5 2.5 -21.5
s34.834 -21.167 99.501 -42.5c76 -25.333 134.333 -54 175 -86c62 -49.333 93 -112 93 -188z" />
    <glyph glyph-name="four" unicode="4" horiz-adv-x="975" 
d="M945 305c-29.333 0 -71.1689 1.82617 -125.502 5.49316s-90.166 6.83398 -107.499 9.50098c-7.33301 1.33301 -12.833 -2.16699 -16.5 -10.5s-5.5 -20.5 -5.5 -36.5c0 -22.667 3 -54 9 -94c14 -93.333 21 -144.666 21 -153.999c0 -16 -6.66699 -24.833 -20 -26.5
s-31.333 -2.5 -54 -2.5c-59.333 0 -102.333 13 -129 39c-22 21.333 -33 51.333 -33 90c0 28.667 5.33301 60 16 94l25 66c4 10 1.16699 17 -8.5 21s-24.5 6 -44.5 6c-26 0 -58 -2 -96 -6c-100.667 -10.667 -163.667 -16 -189 -16c-16 0 -29.333 -2.5 -40 -7.5
s-19.667 -7.5 -27 -7.5c-21.333 0 -42.166 11.167 -62.499 33.5s-30.5 43.5 -30.5 63.5c0 10.667 3.33301 18.334 10 23.001c23.333 18.667 84.666 75 183.999 169l256 239c90.667 81.333 144 122 160 122c41.333 0 71 -2 89 -6c35.333 -8 53 -23 53 -45
c0 -10.667 -4.33301 -23.667 -13 -39c-0.666992 -1.33301 -4.5 -0.166016 -11.5 3.50098s-12.5 5.5 -16.5 5.5c-7.33301 0 -11 -4.66699 -11 -14c0 -39.333 -4.16699 -89.166 -12.5 -149.499s-12.5 -103.166 -12.5 -128.499c0 -31.333 3.33301 -63.666 10 -96.999
c0.666992 -4.66699 5.33398 -7 14.001 -7c1.33301 0 25.333 5 72 15c22 4.66699 40.667 7 56 7c17.333 0 32 -3.16699 44 -9.5s22.833 -13.5 32.5 -21.5s17.667 -21 24 -39s9.5 -35 9.5 -51c0 -12 -1.66699 -22.333 -5 -31s-8 -13 -14 -13zM509.997 639.993
c-4 -7.33301 -54.001 -51.667 -150.001 -133c-41.333 -34.667 -64 -58.667 -68 -72c-1.33301 -4 5.33398 -7.83301 20.001 -11.5s40 -5.5 76 -5.5c27.333 0 51.333 1.5 72 4.5s34.667 7.16699 42 12.5c10.667 8.66699 19.167 28.667 25.5 60s9.5 63 9.5 95
c0 20 -1.16699 35.5 -3.5 46.5s-5.83301 16.5 -10.5 16.5c-4 0 -8.33301 -4.33301 -13 -13z" />
    <glyph glyph-name="five" unicode="5" horiz-adv-x="1088" 
d="M1018 385c0 -122 -46.332 -218.666 -138.999 -289.999c-90 -69.333 -207.667 -104 -353 -104c-40.667 0 -83.334 3 -128.001 9s-94.334 27 -149.001 63c-45.333 29.333 -85.166 62.333 -119.499 99s-51.5 61.667 -51.5 75c0 4 2.33301 6 7 6c6 0 15.667 -4.33301 29 -13
c48 -29.333 89.667 -49.333 125 -60s70.666 -16 105.999 -16c66.667 0 137 17 211 51c88 40.667 182.667 105.667 284 195c28.667 26 43 52.667 43 80c0 24 -11.833 44 -35.5 60s-56.5 24 -98.5 24c-59.333 0 -126.333 -15.333 -201 -46c-87.333 -36 -181 -92 -281 -168
c-8 -6.66699 -16.667 -11.334 -26 -14.001s-19.666 -4 -30.999 -4c-14 1.33301 -25 2.33301 -33 3c-29.333 4 -52.333 10.333 -69 19c-22 12 -33 29 -33 51c0 49.333 5.33301 101.333 16 156c23.333 120 35 204.667 35 254c0 8 -4.16699 17.833 -12.5 29.5
s-12.5 19.5 -12.5 23.5c0 4.66699 1.83301 9.16699 5.5 13.5s8 7.5 13 9.5s17.5 5 37.5 9c4 0.666992 9.33301 1 16 1c8.66699 0 25.667 -3.33301 51 -10c15.333 -4 27 -6 35 -6c25.333 0 70.5 4.16699 135.5 12.5l200.5 26c68.667 9 115.667 13.5 141 13.5
c14 0 23 -0.666992 27 -2c24 -6.66699 57 -28 99 -64c45.333 -39.333 68 -69.333 68 -90c0 -6.66699 -3 -12 -9 -16c-3.33301 -2 -15 -3.66699 -35 -5s-42.667 -2 -68 -2c-42 0 -89.167 0.666992 -141.5 2l-175 4.5c-64.333 1.66699 -103.833 2.5 -118.5 2.5
c-56.667 0 -85 -2.33301 -85 -7c0 -8 -9.33301 -41.667 -28 -101c-8.66699 -27.333 -13 -52 -13 -74c0 -6 0.666992 -14.333 2 -25c1.33301 -4 4.66602 -6 9.99902 -6c12 0 41.333 10.333 88 31c68.667 30.667 113.334 50 134.001 58c54.667 21.333 95.667 32 123 32h10
c88.667 -7.33301 151 -15.333 187 -24c64.667 -15.333 113.667 -41.333 147 -78c40 -44 60 -106.667 60 -188z" />
    <glyph glyph-name="six" unicode="6" horiz-adv-x="1032" 
d="M845 560c46.667 -41.333 81.335 -82.665 104.002 -123.998c20.667 -37.333 31 -74 31 -110c0 -67.333 -35.333 -129.333 -106 -186c-57.333 -46.667 -131.333 -85.334 -222 -116.001c-76 -26 -139.333 -39 -190 -39c-145.333 0 -254 31.333 -326 94
c-63.333 55.333 -95 131 -95 227c0 117.333 44.333 238.666 133 363.999s189.667 210.333 303 255c28 10.667 56.667 16 86 16c35.333 0 66.333 -6.5 93 -19.5s40 -26.5 40 -40.5c0 -5.33301 -3 -10.666 -9 -15.999c-88 -64.667 -171 -144.334 -249 -239.001
c-62 -75.333 -114 -150.333 -156 -225c-35.333 -63.333 -53 -104 -53 -122c0 -2.66699 0.333008 -4 1 -4c3.33301 0 8.33301 4 15 12c30 38 70.333 79 121 123c60.667 52.667 121 95.667 181 129c72 40 134.667 60 188 60c21.333 0 41.166 -3 59.499 -9
s35.166 -16 50.499 -30zM800.001 435.001c-2 6.66699 -4.33496 13.832 -7.00195 21.499s-9 11.5 -19 11.5c-9.33301 0 -35.666 -6 -78.999 -18c-14 -4 -53 -31.833 -117 -83.5s-118 -99.167 -162 -142.5l-66 -89c12.667 -7.33301 29.334 -11 50.001 -11
c32.667 0 71.5 7.66699 116.5 23s86.833 34.666 125.5 57.999c42.667 26 80 61.333 112 106s48 81.334 48 110.001v9c-1.33301 2.66699 -2 4.33398 -2 5.00098z" />
    <glyph glyph-name="seven" unicode="7" horiz-adv-x="1072" 
d="M1010 780c-4.66699 -8 -13.335 -14.667 -26.002 -20s-21.667 -10.333 -27 -15c-138 -128.667 -243 -261.334 -315 -398.001c-45.333 -86 -77.666 -176 -96.999 -270l-30 -87c-79.333 36.667 -126 59.334 -140 68.001c-52.667 34.667 -79 74.334 -79 119.001
c0 8 0.333008 14 1 18c16 116.667 57.333 220 124 310c38 51.333 98 110.666 180 177.999c66 54 102.333 93 109 117c0.666992 2.66699 -0.666016 4.66699 -3.99902 6c-4 1.33301 -10.333 2 -19 2c-27.333 0 -80.5 -7.33301 -159.5 -22l-245 -44
c-84.333 -14.667 -146.833 -22 -187.5 -22c-16 1.33301 -25.167 22.333 -27.5 63s-10.833 68 -25.5 82l86 22c61.333 12 134.666 22.667 219.999 32c106.667 12 198.667 18 276 18c88.667 0 161.334 -6 218.001 -18c68 -14.667 116.333 -37.667 145 -69
c8 -9.33301 14.667 -18.333 20 -27s8 -17 8 -25c0 -5.33301 -1.66699 -11.333 -5 -18z" />
    <glyph glyph-name="eight" unicode="8" horiz-adv-x="1112" 
d="M1076 430c0 -4.66699 0.333984 -10.3359 1.00098 -17.0029s1 -13.667 1 -21c0 -99.333 -43 -185 -129 -257c-77.333 -64.667 -174.666 -108 -291.999 -130c-37.333 -6.66699 -75.5 -12 -114.5 -16s-79.167 -6 -120.5 -6c-115.333 0 -207.333 15.667 -276 47
c-82.667 37.333 -124 95 -124 173c0 12 0.333008 21 1 27c3.33301 30 26.666 64.333 69.999 103l138 111c0 2 -2.66699 2.83301 -8 2.5s-11 -0.833008 -17 -1.5c-25.333 -4.66699 -51 7.33301 -77 36c-28 30.667 -42 65.667 -42 105c0 18 2.83301 34.833 8.5 50.5
s15.5 31.834 29.5 48.501c26 31.333 76 66 150 104c78 40 162.667 73.333 254 100c104 30 199 45 285 45h30.5c8.33301 0 25.666 -1.66699 51.999 -5s49.166 -21.666 68.499 -54.999c17.333 -30 26 -66.667 26 -110c0 -40.667 -8.33301 -78 -25 -112
s-40.667 -56.333 -72 -67c-12 -4.66699 -18 -9 -18 -13c48.667 -19.333 92.334 -39.333 131.001 -60c42.667 -23.333 65.667 -50.666 69 -81.999zM873.001 814.998c-10 10 -27.666 15 -52.999 15c-50 0 -127.667 -17.667 -233 -53c-87.333 -29.333 -174 -63.333 -260 -102
c-82 -36.667 -122.333 -58.334 -121 -65.001c3.33301 -20.667 49.666 -36.334 138.999 -47.001c72 -8.66699 151 -13 237 -13c58.667 0 90.667 1.66699 96 5c46 28 89.333 61.333 130 100c52.667 50.667 79 92.334 79 125.001c0 12.667 -4.66699 24.334 -14 35.001z
M891.002 414.998c-19.333 13.333 -41.167 22.5 -65.5 27.5s-52.5 7.5 -84.5 7.5c-20 0 -45 -1 -75 -3c-69.333 -4.66699 -114.666 -7 -135.999 -7c-33.333 0 -91.666 -31.333 -174.999 -94s-125 -106.667 -125 -132c0 -4 1.33301 -7 4 -9
c37.333 -28 74.5 -48.167 111.5 -60.5s76.833 -18.5 119.5 -18.5c21.333 0 44.166 1.66699 68.499 5s50.166 8 77.499 14c100 24 177 61.333 231 112c43.333 40.667 65 80.667 65 120c0 18 -5.33301 30.667 -16 38z" />
    <glyph glyph-name="nine" unicode="9" horiz-adv-x="968" 
d="M857 465c-2.66699 -10.667 -5.33008 -67 -7.99707 -169s-6 -176.667 -10 -224l-27 -97c-10 10.667 -21.333 17.834 -34 21.501s-27.334 5.5 -44.001 5.5c-10 0 -20.167 -0.333008 -30.5 -1l-30.5 -2c-18 0 -33 2 -45 6s-23 12.333 -33 25c-6 8 -9 18.667 -9 32
c0 30.667 17.167 85.667 51.5 165s51.5 124 51.5 134c0 8.66699 -4 11.667 -12 9c-72 -22.667 -136.333 -39.167 -193 -49.5s-106 -15.5 -148 -15.5c-83.333 0 -147.333 20.667 -192 62c-12 11.333 -39.333 50.666 -82 117.999c-6 10 -9 22 -9 36
c0 46.667 31.833 103.834 95.5 171.501s140.5 125.167 230.5 172.5c101.333 53.333 195.666 80 282.999 80c84.667 0 146 -24.667 184 -74c31.333 -40.667 47 -98.334 47 -173.001c0 -32.667 -2.33301 -65.5 -7 -98.5s-14.334 -77.833 -29.001 -134.5zM745.004 833
c0 6.66699 -6.66699 10.166 -20 10.499s-24.5 0.833008 -33.5 1.5s-18.5 1 -28.5 1c-55.333 0 -130.333 -24 -225 -72c-82 -42 -157.5 -89.333 -226.5 -142s-101.167 -86.667 -96.5 -102c12 -36.667 38.333 -63.334 79 -80.001c34.667 -14.667 79.334 -22 134.001 -22
c75.333 0 153.666 11.833 234.999 35.5s122 42.5 122 56.5c0 12.667 10 56.334 30 131.001s30 135.334 30 182.001z" />
    <glyph glyph-name="colon" unicode=":" horiz-adv-x="412" 
d="M295 484c-6 -17.333 -9.83203 -35.167 -11.499 -53.5s-2.5 -39.833 -2.5 -64.5v-29c0 -17.333 -0.5 -30 -1.5 -38s-3.66699 -14.833 -8 -20.5s-21.5 -8.5 -51.5 -8.5c-35.333 0 -65.333 4.66699 -90 14c-32 12 -49.667 30.333 -53 55
c-0.666992 4.66699 -3.16699 20.5 -7.5 47.5s-6.5 47.167 -6.5 60.5c0 20 3.33301 37.167 10 51.5s17.5 24.333 32.5 30s33.167 8.5 54.5 8.5c33.333 0 65.166 -6 95.499 -18s43.5 -23.667 39.5 -35zM295.001 189.999c-6 -17.333 -9.83203 -35.167 -11.499 -53.5
s-2.5 -39.833 -2.5 -64.5v-29c0 -17.333 -0.5 -30 -1.5 -38s-3.66699 -14.833 -8 -20.5s-21.5 -8.5 -51.5 -8.5c-35.333 0 -65.333 4.66699 -90 14c-32 12 -49.667 30.333 -53 55c-0.666992 4.66699 -3.16699 20.5 -7.5 47.5s-6.5 47.167 -6.5 60.5
c0 20 3.33301 37.167 10 51.5s17.5 24.333 32.5 30s33.167 8.5 54.5 8.5c33.333 0 65.166 -6 95.499 -18s43.5 -23.667 39.5 -35z" />
    <glyph glyph-name="semicolon" unicode=";" horiz-adv-x="345" 
d="M274 190c-2.66699 -7.33301 -4.83203 -16.667 -6.49902 -28s-2.5 -25 -2.5 -41v-24c0 -33.333 -4.5 -57.333 -13.5 -72s-23.167 -28 -42.5 -40c-25.333 -16 -58 -32.333 -98 -49c-31.333 -13.333 -53.333 -20 -66 -20c-9.33301 0 -14 3.33301 -14 10
c0 4 1.33301 8.66699 4 14c13.333 26.667 23 53.5 29 80.5s9 51.833 9 74.5c0 16 -1.16699 32.667 -3.5 50l-7.5 55c0 17.333 7.5 28.833 22.5 34.5s33.167 8.5 54.5 8.5c33.333 0 65.166 -6 95.499 -18s43.5 -23.667 39.5 -35zM295.002 483.999
c-6 -17.333 -9.83203 -35.167 -11.499 -53.5s-2.5 -39.833 -2.5 -64.5v-29c0 -17.333 -0.5 -30 -1.5 -38s-3.66699 -14.833 -8 -20.5s-21.5 -8.5 -51.5 -8.5c-35.333 0 -65.333 4.66699 -90 14c-32 12 -49.667 30.333 -53 55c-0.666992 4.66699 -3.16699 20.5 -7.5 47.5
s-6.5 47.167 -6.5 60.5c0 20 3.33301 37.167 10 51.5s17.5 24.333 32.5 30s33.167 8.5 54.5 8.5c33.333 0 65.166 -6 95.499 -18s43.5 -23.667 39.5 -35z" />
    <glyph glyph-name="less" unicode="&#x3c;" horiz-adv-x="569" 
d="M526 101c-2.66699 -4.66699 -7.33008 -13.832 -13.9971 -27.499s-10.667 -22.834 -12 -27.501c-2 -4 -4.66699 -6 -8 -6c-4.66699 0 -16 4.33301 -34 13c-11.333 5.33301 -52.333 41.333 -123 108l-187 180l-97 96l28 62l65 154l52 123l57 156
c32.667 88 51.334 132 56.001 132h1c4 2.66699 12.333 10.334 25 23.001c3.33301 3.33301 6.66602 5.66602 9.99902 6.99902s6.66602 2 9.99902 2c6 0 11 -2 15 -6c7.33301 -2 12.666 -3.66699 15.999 -5c11.333 -5.33301 16 -12.333 14 -21
c-4 -18.667 -23.667 -77 -59 -175l-97 -266l-51 -137c6.66699 -9.33301 30.667 -39 72 -89l131 -157c49.333 -58 79.666 -92.333 90.999 -103c8 -8 18.667 -16.667 32 -26c6 -4 8.33301 -7.33301 7 -10z" />
    <glyph glyph-name="equal" unicode="=" horiz-adv-x="480" 
d="M410 475h-345l5 45h340v-45zM415 375h-345l5 45h340v-45z" />
    <glyph glyph-name="greater" unicode="&#x3e;" horiz-adv-x="600" 
d="M537 416l-95.998 -95.002l-187 -181c-70 -66 -111.333 -102 -124 -108c-17.333 -8.66699 -29 -13 -35 -13c-2.66699 0 -5 2 -7 6c-1.33301 4.66699 -5.33301 13.834 -12 27.501s-11.334 22.834 -14.001 27.501c-1.33301 2.66699 1 6 7 10c11.333 8 22.333 16.833 33 26.5
s40.334 43.5 89.001 101.5l131 157c42.667 52 67 82 73 90l-50 137l-97 265c-36.667 102 -56.667 160.667 -60 176c-2 8 2.33301 14.667 13 20c3.33301 1.33301 9 3.33301 17 6c4 4 9.33301 6 16 6s13 -3 19 -9c11.333 -11.333 18.666 -18.333 21.999 -21l4 -2
c3.33301 0 15.666 -27.333 36.999 -82l76 -206l51 -122l65 -154c9.33301 -21.333 19 -42.333 29 -63z" />
    <glyph glyph-name="question" unicode="?" horiz-adv-x="1176" 
d="M1125 665c0.666992 -4 0.999023 -6.66895 0.999023 -8.00195c0.666992 -4.66699 1 -9.66699 1 -15c0 -49.333 -33.333 -105.666 -100 -168.999c-63.333 -60 -140.5 -112.167 -231.5 -156.5s-171.167 -66.5 -240.5 -66.5c-7.33301 0 -11 -3.66699 -11 -11
c0 -5.33301 0.666992 -10.666 2 -15.999c4.66699 -19.333 7 -30 7 -32c0 -6.66699 -2 -12 -6 -16s-11.333 -6 -22 -6c-30 0 -76 13.667 -138 41l-80 50c5.33301 4.66699 9.5 14.5 12.5 29.5s8.83301 23.5 17.5 25.5c124 29.333 246.333 85.666 367 168.999
c128.667 88.667 193 168 193 238c0 28 -11.667 52.333 -35 73s-60.666 37.334 -111.999 50.001c-18.667 4.66699 -39 7 -61 7c-85.333 0 -170 -33.667 -254 -101c-80 -64 -120 -122.667 -120 -176c0 -4 -7.66699 -6 -23 -6c-45.333 0 -95.666 9.66699 -150.999 29
c-68 24 -102 52 -102 84c0 7.33301 2 15 6 23c33.333 66 109.833 121.333 229.5 166s248.5 67 386.5 67c46 0 87.5 -2.16699 124.5 -6.5s75.167 -11.5 114.5 -21.5c61.333 -15.333 110.666 -44.333 147.999 -87c35.333 -39.333 61 -92 77 -158zM636.999 -0.00195312
c-6 -6 -14.501 -10.3301 -25.501 -12.9971s-24.833 -4 -41.5 -4c-31.333 0 -65.833 5 -103.5 15s-63.167 20.667 -76.5 32c-23.333 19.333 -35 39.333 -35 60c0 5.33301 1.66699 12 5 20c7.33301 15.333 17.5 26.166 30.5 32.499s28.167 9.5 45.5 9.5
c22.667 0 50.334 -5.66699 83.001 -17c12.667 -4.66699 29.667 -11.334 51 -20.001c56 -22.667 84 -49.334 84 -80.001c0 -12 -5.66699 -23.667 -17 -35z" />
    <glyph glyph-name="at" unicode="@" horiz-adv-x="608" 
d="M554 712c0 -31.333 -13.6689 -61.002 -41.002 -89.002c-30 -30.667 -64 -46 -102 -46c-24.667 0 -41.667 6 -51 18c-5.33301 6.66699 -8 14.667 -8 24c-12.667 -13.333 -25.5 -23.666 -38.5 -30.999s-27.167 -11 -42.5 -11s-28.333 3.33301 -39 10
c-18 11.333 -27 29 -27 53c0 30.667 11.667 61.667 35 93c27.333 36 58.666 54 93.999 54c16.667 0 29.334 -2.83301 38.001 -8.5s13.667 -12.5 15 -20.5l8 23l62 -4l-59 -138l-5 -23c0 -15.333 9.33301 -23 28 -23c30 0 54.333 13.667 73 41c16.667 24 25 50.667 25 80
c0 39.333 -18 72 -54 98c-43.333 31.333 -107.666 47 -192.999 47c-50 0 -88.333 -29.333 -115 -88c-20.667 -46 -29 -86 -25 -120c7.33301 -46.667 24 -82 50 -106c31.333 -28.667 78 -43 140 -43c24.667 0 47.167 2 67.5 6s41.5 11.333 63.5 22l10 -12
c-46 -21.333 -93.667 -32 -143 -32c-81.333 0 -145.666 22 -192.999 66c-40.667 37.333 -61 79.333 -61 126c0 60.667 24.167 110.5 72.5 149.5s106.5 58.5 174.5 58.5c65.333 0 121.833 -16.667 169.5 -50s71.5 -74.666 71.5 -123.999zM378.998 727.998
c0 13.333 -3.33301 24.333 -10 33s-14.667 13 -24 13c-20 0 -39.333 -11 -58 -33c-22 -26 -33 -57.333 -33 -94c0 -16 6.33301 -25 19 -27s24.667 -3 36 -3c15.333 0 30 9 44 27c17.333 22.667 26 50.667 26 84z" />
    <glyph glyph-name="A" unicode="A" horiz-adv-x="872" 
d="M828 25c-4.66699 -2.66699 -10.001 -4.83301 -16.001 -6.5s-11.667 -2.5 -17 -2.5c-12.667 0.666992 -22.667 1 -30 1c-10 0 -23.333 -0.666992 -40 -2s-28.667 -2 -36 -2c-12.667 0 -24.5 1.5 -35.5 4.5s-21.667 7.83301 -32 14.5s-19.166 15 -26.499 25
c-4.66699 6.66699 -9 13.334 -13 20.001c-11.333 15.333 -21.333 40.666 -30 75.999c-14.667 58.667 -26 87 -34 85c-4 -0.666992 -15.167 -2 -33.5 -4s-36.166 -3.5 -53.499 -4.5s-36.5 -2.16699 -57.5 -3.5s-32.5 -6.5 -34.5 -15.5s-7.66699 -18.833 -17 -29.5
c-12.667 -14 -21 -24.333 -25 -31c-6.66699 -11.333 -13 -26.333 -19 -45s-11 -32 -15 -40l-20 -56c-5.33301 -10 -12.833 -15.833 -22.5 -17.5s-16.167 -2.5 -19.5 -2.5c-8.66699 0 -14.667 0.333008 -18 1c-11.333 3.33301 -22.333 6.33301 -33 9
c-16 2.66699 -31.833 5.5 -47.5 8.5s-29.834 10.167 -42.501 21.5l-16 12c-5.33301 5.33301 -7 10.666 -5 15.999c-3.33301 4.66699 -2.66602 10.334 2.00098 17.001c8 11.333 12.333 17.666 13 18.999l27 58c8.66699 18 20 39.667 34 65c18.667 34 30.334 55.667 35.001 65
l186 392c7.33301 12.667 17.333 32.667 30 60c18 38 37 68 57 90l51 62c18.667 20 37.167 31.5 55.5 34.5s31.833 5 40.5 6s16.667 1.5 24 1.5c13.333 0 24.666 -1.16699 33.999 -3.5s20 -7.16602 32 -14.499c5.33301 -3.33301 9.5 -7.83301 12.5 -13.5s4.5 -11.5 4.5 -17.5
c0 -5.33301 -1.83301 -17.166 -5.5 -35.499s-5.5 -30.833 -5.5 -37.5v-128c0 -20.667 1.5 -40.334 4.5 -59.001s5.5 -35 7.5 -49c4.66699 -34 9.66699 -63.333 15 -88l21 -88c7.33301 -31.333 13.666 -55.333 18.999 -72l23 -72c18.667 -57.333 38.667 -112 60 -164
l11.5 -22.5c5.66699 -11 8.5 -18.833 8.5 -23.5c0 -6 -2.66699 -10.667 -8 -14zM512.999 325.001c4 3.33301 6.00195 16.333 6.00195 39c0 27.333 -2.33301 59 -7 95s-10.667 66.333 -18 91l-31 -54c-52.667 -110.667 -86.334 -176.667 -101.001 -198
c2.66699 -1.33301 5.66699 -2.33301 9 -3c18.667 0 45.167 3.5 79.5 10.5s55.166 13.5 62.499 19.5z" />
    <glyph glyph-name="B" unicode="B" horiz-adv-x="840" 
d="M767 439c19.333 -27.333 29.002 -57 29.002 -89c0 -39.333 -14.333 -74.333 -43 -105c-0.666992 -3.33301 -2.33398 -6 -5.00098 -8l-8 -6l-29.5 -29.5c-9.66699 -9.66699 -20.834 -19.5 -33.501 -29.5l-50 -40l-99 -59c-21.333 -12.667 -37.333 -21.667 -48 -27
c-16.667 -8 -34 -15 -52 -21c-48.667 -16 -86.667 -27.333 -114 -34c-44 -11.333 -80.667 -17 -110 -17c-32.667 0 -60.834 5.66699 -84.501 17s-43.834 31 -60.501 59l-15 25l7 375l15 368l-4 2l3 -2c56.667 41.333 109.334 72.666 158.001 93.999
c56.667 24.667 111.334 37 164.001 37c48 0 97.667 -10.333 149 -31c26 -10.667 44.333 -19 55 -25c28 -15.333 50.667 -37.666 68 -66.999l4 -8c7.33301 -14 11 -29 11 -45c0 -28.667 -16 -60.667 -48 -96c-10.667 -12 -28.667 -30.333 -54 -55l-74 -71l59 1
c45.333 0 84.833 -9.16699 118.5 -27.5s64.167 -46.833 91.5 -85.5zM423.002 738c11.333 18 16.9961 38 16.9961 60c0 24.667 -9 37 -27 37c-9.33301 0 -17.166 -0.666992 -23.499 -2s-13.5 -4 -21.5 -8c-18 -4 -35.333 -11 -52 -21l-50 -30
c-17.333 -8.66699 -30.166 -21 -38.499 -37s-12.5 -34.333 -12.5 -55c0 -36 11 -71.667 33 -107l120 90c10.667 8 20.334 18.333 29.001 31c2.66699 4 10.334 16.333 23.001 37zM586.998 401c0 16 -7.00293 28.4971 -21.0029 37.4971s-30.667 13.5 -50 13.5
c-12 0 -21.833 -0.666992 -29.5 -2s-16.167 -4.66602 -25.5 -9.99902l-93 -50c-13.333 -7.33301 -24.166 -14.333 -32.499 -21s-17.833 -15.667 -28.5 -27c-28.667 -30.667 -43 -64 -43 -100c0 -6 0.166992 -12.333 0.5 -19s2.83301 -16 7.5 -28l15 -45
c2.66699 -10 5 -15.333 7 -16c4.66699 -2 9.83398 -1.5 15.501 1.5s10.167 5.16699 13.5 6.5l73 31c44.667 18.667 87.334 51.334 128.001 98.001c35.333 40.667 56 75 62 103c2 6 4 12.333 6 19c0 2.66699 -1.66699 5.33398 -5 8.00098z" />
    <glyph glyph-name="C" unicode="C" horiz-adv-x="896" 
d="M830 250c4.66699 -18.667 8.16797 -35.502 10.501 -50.502s3.5 -29.167 3.5 -42.5c0 -21.333 -3.16699 -40.333 -9.5 -57s-17.833 -32.334 -34.5 -47.001c-28.667 -25.333 -67 -40.666 -115 -45.999c-27.333 -2.66699 -53.333 -5.33398 -78 -8.00098
s-45.5 -4.66699 -62.5 -6s-35.167 -2 -54.5 -2c-58.667 0 -122.667 11.333 -192 34s-118.333 42.667 -147 60c-44 27.333 -76.333 65.666 -97 114.999c-8 18.667 -14 38.5 -18 59.5s-6 41.167 -6 60.5c0 43.333 8.33301 88.833 25 136.5s39.334 96.5 68.001 146.5
c21.333 37.333 52 84.666 92 141.999l66 96c50 66 103 99 159 99c18.667 0 33 0.333008 43 1c40 2.66699 63 4 69 4h22.5h14.5c21.333 0 39.166 -1.5 53.499 -4.5s29.666 -10.167 45.999 -21.5s24.5 -27.333 24.5 -48c0 -6.66699 -1 -17 -3 -31s-3.66699 -26.333 -5 -37
c2 -16 3 -27.333 3 -34c0 -8.66699 -2 -22.834 -6 -42.501s-6.66699 -34 -8 -43s-2 -15.167 -2 -18.5v-8c0 -6 0.666992 -15 2 -27s2 -22 2 -30v-30c0 -5.33301 0.833008 -11.666 2.5 -18.999s11.167 -23 28.5 -47c7.33301 -10 11 -18 11 -24
c0 -5.33301 -2.66699 -9.66602 -8 -12.999s-11.333 -6.16602 -18 -8.49902s-13.167 -4.5 -19.5 -6.5l-21.5 -6.5c-8 -2.33301 -16 -4 -24 -5s-16 -1.5 -24 -1.5c-14.667 0 -29 2.16699 -43 6.5s-30.333 10.833 -49 19.5c-25.333 12 -43.166 30 -53.499 54
s-15.5 52.667 -15.5 86c0 26.667 -0.5 46 -1.5 58s-1.5 18.667 -1.5 20l5 93l-6 -1c-12 -2 -22.667 -7.33301 -32 -16c-4 -3.33301 -12 -13 -24 -29c-18.667 -24 -35.334 -52.333 -50.001 -85c-6 -14.667 -14.333 -33 -25 -55c-28.667 -61.333 -47 -103.333 -55 -126
c-15.333 -41.333 -26 -86 -32 -134c-0.666992 -6.66699 -1.16699 -13.5 -1.5 -20.5s-0.5 -12.167 -0.5 -15.5c0 -33.333 8.33301 -59 25 -77c12.667 -13.333 35 -26.666 67 -39.999c25.333 -10 46.5 -17.167 63.5 -21.5s36.167 -6.5 57.5 -6.5
c11.333 0 25.666 1.16699 42.999 3.5s34.333 6.83301 51 13.5l52 24c20 8.66699 41.333 26.334 64 53.001c43.333 50 74 75 92 75c10.667 0 20.334 -2.66699 29.001 -8c9.33301 -4 18.666 -7.66699 27.999 -11c6.66699 -5.33301 13.334 -21.666 20.001 -48.999z" />
    <glyph glyph-name="D" unicode="D" horiz-adv-x="832" 
d="M760 561c0 -53.333 -2.66797 -96.4971 -8.00098 -129.497s-17 -71.833 -35 -116.5c-26 -62.667 -49.333 -110 -70 -142c-27.333 -42 -63.666 -79.333 -108.999 -112c-40 -28.667 -71 -48.667 -93 -60c-33.333 -16.667 -67.333 -25 -102 -25h-15
c-4.66699 0.666992 -8 1 -10 1c-18.667 2 -38.667 7.16699 -60 15.5s-37 14.166 -47 17.499c-26.667 8.66699 -49.667 27 -69 55c-24 34.667 -39 78 -45 130l-33 270l-9 160c0 6 0.333008 11.667 1 17c1.33301 -2.66699 2 -4.33398 2 -5.00098c1.33301 -4 2.33301 -6 3 -6
c2 0 3.5 12.5 4.5 37.5s1.5 70.5 1.5 136.5c0 26 7.5 48.333 22.5 67s35.167 29.667 60.5 33c9.33301 0.666992 17.666 0.5 24.999 -0.5s15 -1.83301 23 -2.5c5.33301 0 9.33301 0.333008 12 1c12.667 0 31.334 3.33301 56.001 10c12.667 3.33301 25.667 5.83301 39 7.5
s28.666 2.83398 45.999 3.50098s35.333 1 54 1c30.667 0 57 -2.33301 79 -7s49.667 -13.334 83 -26.001c66.667 -24 116.334 -66.667 149.001 -128c29.333 -54.667 44 -122.334 44 -203.001zM545.999 595.003c0 72.667 -4.00195 115.998 -12.002 129.998
c-2.66699 28 -7.83398 48.833 -15.501 62.5s-20.5 25.167 -38.5 34.5c-6.66699 3.33301 -13.667 5 -21 5c-24 0 -49.333 -11 -76 -33s-40 -44.333 -40 -67c-2 -1.33301 -3.33301 -9.33301 -4 -24s-1 -24.667 -1 -30c0 -11.333 0.333008 -33.666 1 -66.999s1 -59.333 1 -78
v-12c0 -10.667 -0.166992 -22 -0.5 -34s-1.33301 -27 -3 -45s-3 -34 -4 -48s-1.5 -29.667 -1.5 -47c0 -27.333 2 -46.5 6 -57.5s9.66699 -16.5 17 -16.5c6.66699 0 17.334 6 32.001 18c18.667 15.333 31.334 24.666 38.001 27.999c16 8 33 20.333 51 37s34 35.667 48 57
c10.667 16.667 17.834 32.334 21.501 47.001s5.5 31.667 5.5 51c0 9.33301 -0.666992 25.333 -2 48s-2 36.334 -2 41.001z" />
    <glyph glyph-name="E" unicode="E" horiz-adv-x="848" 
d="M802 205c-104 -24.667 -194.336 -56.0039 -271.003 -94.0039c-34.667 -17.333 -83.667 -46.666 -147 -87.999c-38.667 -25.333 -67.667 -38 -87 -38c-10.667 0 -19.667 1.66699 -27 5l-125 46c-44 19.333 -67.667 43.333 -71 72s-5.83301 58.334 -7.5 89.001
s-2.5 65.334 -2.5 104.001c0 16.667 0.333008 43.334 1 80.001s1 65.334 1 86.001c0 72 -1.66699 132.167 -5 180.5s-8.66602 99.166 -15.999 152.499c-3.33301 24.667 46 54.167 148 88.5s193 51.5 273 51.5c0.666992 0 1.33398 0.333008 2.00098 1
c46 0 94.667 -21.667 146 -65l23 -36l-241.5 -35.5c-64.333 -9.66699 -108.833 -21.167 -133.5 -34.5c-18 -9.33301 -28.333 -51 -31 -125s-4.66699 -114.167 -6 -120.5s-2 -10.166 -2 -11.499c0 -8.66699 4.33301 -13 13 -13c10 0 28 7 54 21l115 64
c8 3.33301 23.667 13.666 47 30.999c17.333 12.667 34 19 50 19c31.333 0 57.833 -8.83301 79.5 -26.5s37.834 -42.167 48.501 -73.5c3.33301 -10.667 -24.167 -25.5 -82.5 -44.5l-175.5 -55.5c-68.667 -22.667 -110.334 -42.667 -125.001 -60
c-8.66699 -10.667 -15 -22 -19 -34s-6 -24.333 -6 -37c0 -16 2.83301 -34.333 8.5 -55l16.5 -59c2 -6 6 -9 12 -9c12 0 37.333 13.333 76 40c73.333 50.667 112.333 77.334 117 80.001c50.667 32 92.334 51.667 125.001 59c10 2.66699 22 4.66699 36 6s27.333 2 40 2
c27.333 0 47 -2.66699 59 -8c28 -12.667 52.333 -41.667 73 -87c5.33301 -22.667 11 -45.334 17 -68.001z" />
    <glyph glyph-name="F" unicode="F" horiz-adv-x="832" 
d="M767 820c-23.333 -10 -73.6641 -22.666 -150.997 -37.999l-196.5 -39c-65.667 -13.333 -99.834 -24.333 -102.501 -33c-6.66699 -21.333 -11.167 -42.166 -13.5 -62.499s-3.5 -43.5 -3.5 -69.5c0 -10 0.333008 -25 1 -45s1 -34.333 1 -43s4.66699 -13 14 -13l153 57.5
c50.667 19 92 28.5 124 28.5c23.333 0 45 -4.83301 65 -14.5s38.667 -26.834 56 -51.501c17.333 -29.333 30 -50 38 -62c2 -3.33301 2.33301 -7.33301 1 -12s-4 -7.33398 -8 -8.00098c-20 -4.66699 -70.333 -12.667 -151 -24s-136.667 -21 -168 -29
c-53.333 -13.333 -81.833 -28.666 -85.5 -45.999s-5.5 -32.333 -5.5 -45c0 -40.667 12 -83.334 36 -128.001l80 -127c0 -2.66699 -2.83301 -4.66699 -8.5 -6s-14.834 -2.33301 -27.501 -3s-25.667 -1 -39 -1c-68 0 -137.333 6 -208 18s-106 25.667 -106 41
c0 49.333 0.666992 111.833 2 187.5s2.66602 156.667 3.99902 243s2 179.5 2 279.5c0 12 3.66699 20.167 11 24.5s18.333 6.5 33 6.5c10 0 20.333 -0.333008 31 -1l33 -2c12.667 0 21.667 0.666992 27 2c15.333 3.33301 115.333 37 300 101c62 21.333 107.667 32 137 32
c10.667 0 20 -1 28 -3c33.333 -8.66699 63 -35 89 -79z" />
    <glyph glyph-name="G" unicode="G" horiz-adv-x="1184" 
d="M1110 15c-18.667 -10.667 -38.0039 -16.0039 -58.0039 -16.0039c-16.667 0 -32.334 3.66699 -47.001 11l-58 33c-20.667 12 -41.5 19.5 -62.5 22.5s-34.167 4.5 -39.5 4.5h-14c-16 0 -33 -3.33301 -51 -10c-65.333 -24.667 -115.333 -41.667 -150 -51
c-50 -13.333 -98.667 -20 -146 -20c-32 0 -68.333 3.66699 -109 11c-86.667 16 -157.5 50.833 -212.5 104.5s-91.833 123.834 -110.5 210.501c-4 21.333 -6 42.333 -6 63c0 88.667 36.667 180 110 274c66.667 85.333 150 157.166 250 215.499s189.667 87.5 269 87.5
c42.667 0 87 -8.66699 133 -26s69 -34.333 69 -51c0 -18 -5.66699 -33 -17 -45s-24.666 -18 -39.999 -18c-11.333 0 -21.666 2 -30.999 6c-28 12 -45.833 18.5 -53.5 19.5s-14.167 1.5 -19.5 1.5c-25.333 0 -51.833 -6.83301 -79.5 -20.5l-81.5 -41.5
c-71.333 -32.667 -126 -65.667 -164 -99c-45.333 -40 -80.666 -92 -105.999 -156c-20 -49.333 -30 -102.333 -30 -159c0 -62.667 12.333 -115.334 37 -158.001c28 -48 68 -75.667 120 -83c4.66699 -0.666992 8.33398 -1 11.001 -1c54 0 119 22.333 195 67
c92 54 148.333 118.667 169 194c4 15.333 13.667 32.333 29 51c6.66699 8 10 14.333 10 19c0 6 -4.33301 12.833 -13 20.5s-24.667 19.167 -48 34.5c-11.333 7.33301 -23.666 11 -36.999 11c-14.667 0 -37 -8 -67 -24s-54 -24 -72 -24c-8 0 -14.333 0.666992 -19 2
c-29.333 6.66699 -53 13.334 -71 20.001c-28 10.667 -42 21 -42 31c0 4.66699 2.66699 9.33398 8 14.001c14.667 12 44 25.333 88 40c14.667 4.66699 62.667 18.334 144 41.001c57.333 16 112.333 32.333 165 49c14 4.66699 29.667 7 47 7c28.667 0 53 -6.16699 73 -18.5
s30 -30.166 30 -53.499c0 -120 5.5 -220.333 16.5 -301s28.167 -142 51.5 -184l27 -43c11.333 -18 17 -31.333 17 -40c0 -9.33301 -4.66699 -16.666 -14 -21.999z" />
    <glyph glyph-name="H" unicode="H" horiz-adv-x="824" 
d="M747 115c0.666992 -7.33301 2.00293 -17.3359 4.00293 -30.0029s3 -22 3 -28c0 -9.33301 -0.833008 -16.666 -2.5 -21.999s-6 -12.5 -13 -21.5s-14.167 -18.833 -21.5 -29.5c-8.66699 -10.667 -17.667 -16 -27 -16c-2.66699 0 -6 0.666992 -10 2l-86 19
c-23.333 6 -44.666 19.667 -63.999 41c-15.333 16.667 -28 86 -38 208c-4 48 -14 72 -30 72c-32.667 0 -66.334 8.16699 -101.001 24.5s-55.667 24.5 -63 24.5c-6 0 -11.333 -1.33301 -16 -4c-16.667 -8.66699 -25 -32 -25 -70c0 -23.333 2.16699 -46.666 6.5 -69.999
s10.5 -50 18.5 -80c2 -6.66699 6 -15 12 -25c10 -16.667 13.667 -30 11 -40c-6 -22 -17.167 -39.833 -33.5 -53.5s-35.166 -20.5 -56.499 -20.5c-8 0 -16.167 1.5 -24.5 4.5s-26.833 5 -55.5 6s-47 10.5 -55 28.5c-14.667 34 -25.834 78.5 -33.501 133.5
s-11.5 114.167 -11.5 177.5c0 122 10.833 240 32.5 354s48.167 189 79.5 225c8 8.66699 17.667 15.167 29 19.5s24.666 6.5 39.999 6.5c29.333 0 56.666 -7.83301 81.999 -23.5s38 -34.834 38 -57.501c0 -4.66699 -0.333008 -8 -1 -10c-8 -41.333 -24.333 -121 -49 -239
c-14.667 -70 -22 -114.667 -22 -134c0 -16 3.33301 -24 10 -24c3.33301 0 6 0.666992 8 2c14 7.33301 30.667 11 50 11c27.333 0 68.333 -10.333 123 -31c10 -2 20 -3.66699 30 -5c0 24.667 -0.333008 44.667 -1 60c-3.33301 76.667 -5 120 -5 130
c0 60.667 3.33301 108.667 10 144c9.33301 48.667 25.333 84 48 106l30 34c11.333 12 22.666 18 33.999 18c2 0 5.66699 -0.666992 11 -2c38 -11.333 62.667 -19.666 74 -24.999c26.667 -13.333 40 -30.666 40 -51.999c-0.666992 -3.33301 -1 -6 -1 -8
c-5.33301 -34 -9.33301 -72.833 -12 -116.5s-4 -84.5 -4 -122.5c0 -51.333 1.5 -100 4.5 -146s7.83301 -103.333 14.5 -172z" />
    <glyph glyph-name="I" unicode="I" horiz-adv-x="480" 
d="M420 20c-0.666992 -8 -2.33203 -12.332 -4.99902 -12.999c-3.33301 -1.33301 -14.333 -2 -33 -2c-65.333 0 -135.333 9.16699 -210 27.5s-112 36.166 -112 53.499c0 18 1 47.333 3 88s3 72.334 3 95.001s-0.333008 58.5 -1 107.5s-1 85.833 -1 110.5
c0 86 3.16699 158.5 9.5 217.5s18.833 108.167 37.5 147.5c21.333 46 51.666 75.333 90.999 88c19.333 6.66699 38.333 10 57 10c45.333 0 86.333 -20 123 -60c8.66699 -9.33301 16 -19 22 -29s9 -19.333 9 -28c0 -8 -2.66699 -15.667 -8 -23
c-18.667 -26.667 -32 -58.334 -40 -95.001s-12 -78.667 -12 -126c0 -56 5.5 -119 16.5 -189s22.333 -138.5 34 -205.5s17.5 -115.5 17.5 -145.5v-19c-0.666992 -4.66699 -1 -8 -1 -10z" />
    <glyph glyph-name="J" unicode="J" horiz-adv-x="792" 
d="M717 845c0 -50 1 -101.333 3 -154l6.5 -168.5c2.33301 -59.667 3.5 -102.167 3.5 -127.5c0 -100 -7.33301 -178 -22 -234c-18 -69.333 -50 -118 -96 -146c-14 -8.66699 -29.167 -15.167 -45.5 -19.5s-32.166 -6.5 -47.499 -6.5c-17.333 0 -36.833 1.83301 -58.5 5.5
s-43.5 7.16699 -65.5 10.5c-82 10 -163 62.333 -243 157c-72.667 86.667 -109 159.334 -109 218.001c0 16 4.66699 27.667 14 35c28 22 54.333 40 79 54c33.333 19.333 60.333 29 81 29c22 0 36.333 -11 43 -33c2.66699 -8.66699 4.66699 -21 6 -37s2 -29.667 2 -41
c0 -13.333 -0.666992 -36 -2 -68s-2 -49 -2 -51c0 -39.333 5 -70 15 -92c13.333 -28.667 37 -50.667 71 -66c20 -8.66699 37.667 -13 53 -13c28.667 0 49.334 17.333 62.001 52c10.667 29.333 16 73.333 16 132c0 39.333 -2.66699 88.166 -8 146.499l-16 175.5
c-5.33301 58.667 -8 108 -8 148c0 42 2.66699 76.333 8 103s14.666 47 27.999 61c7.33301 7.33301 15.166 12.5 23.499 15.5s17.833 4.5 28.5 4.5c7.33301 0 19 -0.833008 35 -2.5s27 -2.5 33 -2.5c26.667 0 52 -7.83301 76 -23.5s36 -36.167 36 -61.5z" />
    <glyph glyph-name="K" unicode="K" horiz-adv-x="856" 
d="M800 15c-14.667 -8.66699 -29.8301 -15.167 -45.4971 -19.5s-31.5 -6.5 -47.5 -6.5c-22.667 0 -48.667 4.66699 -78 14c-19.333 6 -47.333 16.667 -84 32c-50 21.333 -97 60.333 -141 117l-119 158c-6.66699 0 -12.667 -5 -18 -15
c-7.33301 -14.667 -12.5 -28.834 -15.5 -42.501s-4.5 -28.167 -4.5 -43.5c0 -12 0.833008 -29.667 2.5 -53s2.5 -38.666 2.5 -45.999c0 -8 2.33301 -23 7 -45c2.66699 -12.667 4 -21 4 -25c0 -13.333 -5.33301 -21.333 -16 -24s-19.334 -4 -26.001 -4
c-8 0 -16.667 1.16699 -26 3.5s-21.5 5.66602 -36.5 9.99902s-30.833 9.16602 -47.5 14.499c-16 7.33301 -26.333 19 -31 35c-14.667 52.667 -25.5 117.167 -32.5 193.5s-10.5 155.833 -10.5 238.5c0 108 5 204.333 15 289s20.833 129 32.5 133s20.5 6.66699 26.5 8
c13.333 3.33301 26.333 5 39 5c30.667 0 59.667 -10.667 87 -32c7.33301 -5.33301 12.333 -14.333 15 -27s4 -28.667 4 -48c0 -24.667 -3 -63.667 -9 -117s-9 -88 -9 -104c0 -24.667 4.33301 -37 13 -37c4 0 9.33301 2.66699 16 8c17.333 14 41.333 50.667 72 110l81 154.5
c28 51.667 46.667 78 56 79s16.666 1.83301 21.999 2.5s10.666 1 15.999 1c14.667 0 29.167 -1.5 43.5 -4.5s37.5 -10.5 69.5 -22.5c21.333 -7.33301 43 -14.333 65 -21c22 -9.33301 33 -24 33 -44c0 -15.333 -21.667 -46.166 -65 -92.499l-130 -139.5
c-53.333 -60 -88.333 -109.333 -105 -148c-1.33301 -4 -2 -7.33301 -2 -10c0 -25.333 35.333 -74.666 106 -147.999l190 -184z" />
    <glyph glyph-name="L" unicode="L" horiz-adv-x="840" 
d="M753 170c-81.333 -28.667 -160.333 -59.334 -237 -92.001l-149 -63c-38.667 -15.333 -68 -23 -88 -23c-6.66699 0 -13.667 1 -21 3c-65.333 18.667 -103 30.334 -113 35.001c-36.667 18 -56.667 44.667 -60 80c-8 86 -15.167 179.5 -21.5 280.5s-9.5 186.5 -9.5 256.5
c0 78 3.5 141.333 10.5 190s18.833 79.667 35.5 93c11.333 9.33301 28.666 14 51.999 14c36.667 0 72.334 -10.5 107.001 -31.5s52 -46.5 52 -76.5c0 -4.66699 -0.333008 -8.33398 -1 -11.001c-12.667 -82.667 -23.667 -163.334 -33 -242.001
c-12.667 -108 -19 -191 -19 -249c0 -29.333 1.83301 -52.333 5.5 -69s9.16699 -25 16.5 -25c24.667 0 58.667 11.167 102 33.5l126 66.5c48 24 85 36 111 36c6 0 10.667 -0.333008 14 -1c33.333 -5.33301 66.833 -26.166 100.5 -62.499s50.5 -69.5 50.5 -99.5
c0 -21.333 -10.333 -35.666 -31 -42.999z" />
    <glyph glyph-name="M" unicode="M" horiz-adv-x="1216" 
d="M1147 70c3.33301 -20.667 7 -40.999 11 -60.999c0 -7.33301 -1.16699 -13.333 -3.5 -18s-6.16602 -8 -11.499 -10s-13.333 -3 -24 -3c-38 0 -90.333 10.833 -157 32.5s-102.334 39.834 -107.001 54.501s-8 32 -10 52s-3 38.333 -3 55c0 14 0.666992 37.5 2 70.5
s2 51.167 2 54.5c0 14.667 -0.333008 28 -1 40s-1.83398 22.667 -3.50098 32s-3.5 14 -5.5 14c-5.33301 0 -19 -31.667 -41 -95c-28.667 -83.333 -50.334 -141 -65.001 -173c-27.333 -60 -50.666 -86.667 -69.999 -80l-142.5 47.5c-47 16.333 -77.167 35.5 -90.5 57.5
c-9.33301 15.333 -14.666 60.333 -15.999 135s-16 129.667 -44 165c-6 6.66699 -10.667 10 -14 10c-8 0 -12.5 -16 -13.5 -48s-1.5 -62.333 -1.5 -91v-36c0 -70.667 -1.83301 -123.667 -5.5 -159s-9.5 -65.666 -17.5 -90.999c-3.33301 -10 -9 -17.167 -17 -21.5
s-18 -6.5 -30 -6.5c-8 0 -22 1.33301 -42 4s-30.333 4 -31 4c-30 0 -61 9.33301 -93 28c-36 21.333 -54 45 -54 71c0 8 1.33301 15 4 21c10.667 27.333 23.667 97.333 39 210c18.667 138 34 236.667 46 296c22 112.667 48.667 194 80 244c6 9.33301 13.5 16.166 22.5 20.499
s18.833 6.5 29.5 6.5c11.333 0 23.5 -1.33301 36.5 -4l39.5 -8c40 -6 78.667 -49.667 116 -131c19.333 -41.333 47.666 -120 84.999 -236c30.667 -94 53.667 -150 69 -168l48 112l57 276c25.333 108.667 50.333 171 75 187c10 6.66699 21.5 11.5 34.5 14.5
s27.5 4.5 43.5 4.5c33.333 0 64.833 -6 94.5 -18s44.5 -24 44.5 -36c0 -102 1.66699 -190.333 5 -265s11.333 -154.834 24 -240.501s30.667 -158.834 54 -219.501c4 -10.667 13.667 -27 29 -49c12.667 -18 20.334 -35 23.001 -51z" />
    <glyph glyph-name="N" unicode="N" horiz-adv-x="1032" 
d="M997 870c1.33301 -9.33301 -1.67188 -20.0029 -9.00488 -32.0029s-11.666 -21.333 -12.999 -28c-12 -74 -23 -159.667 -33 -257s-17 -179.166 -21 -245.499s-6 -118.833 -6 -157.5c0 -18 2.66699 -38.667 8 -62s8 -38.333 8 -45c0 -13.333 -5.33301 -24.333 -16 -33
c-15.333 -12 -42.333 -18 -81 -18c-31.333 0 -64.666 3.83301 -99.999 11.5s-67.666 18.167 -96.999 31.5c-47.333 22 -93.666 67.333 -138.999 136c-22 32.667 -53.667 90 -95 172c-28.667 56 -48 84 -58 84c-6 0 -11 -5.66699 -15 -17c-8 -22 -13.167 -42.167 -15.5 -60.5
s-3.5 -39.166 -3.5 -62.499v-26c0 -8.66699 0.333008 -17.334 1 -26.001c0 -16.667 -0.833008 -32.167 -2.5 -46.5s-4.5 -28.833 -8.5 -43.5s-7.66699 -41.5 -11 -80.5s-17.666 -60.5 -42.999 -64.5c-11.333 -2 -23.333 -3 -36 -3c-43.333 0 -80 7.66699 -110 23
c-37.333 18.667 -56 45.334 -56 80.001c8.66699 101.333 23 203 43 305c22.667 114.667 53.334 231.334 92.001 350.001c4.66699 16 7 29.667 7 41c0 6 -0.5 12.667 -1.5 20s-1.83301 15.666 -2.5 24.999c0 8 1 14.333 3 19s5 9.66699 9 15c19.333 26 46.333 39 81 39
c16 0 33.5 -2.66699 52.5 -8s39.5 -12.333 61.5 -21c16.667 -6.66699 28 -19.334 34 -38.001c4 -13.333 6 -34 6 -62v-36c0 -9.33301 0.333008 -19.166 1 -29.499s2 -20.166 4 -29.499l36 -163.5c12 -52.333 27.5 -96.5 46.5 -132.5s48.833 -75.667 89.5 -119
c10 -10.667 18.333 -16 25 -16c17.333 0 27.833 64.667 31.5 194s6.5 203.333 8.5 222c10.667 116 34 197.667 70 245c7.33301 10 16.666 16.833 27.999 20.5s24.333 5.5 39 5.5c6 0 12.167 -0.166992 18.5 -0.5s12.833 -0.5 19.5 -0.5c40.667 0 72.334 -4.33301 95.001 -13
c31.333 -12 49.666 -32.667 54.999 -62z" />
    <glyph glyph-name="O" unicode="O" horiz-adv-x="912" 
d="M513 898c122 -77.333 212.331 -159.333 270.998 -246c52 -77.333 78 -157.333 78 -240c0 -114 -47.333 -214.667 -142 -302c-88.667 -82 -183.667 -123 -285 -123c-20 0 -39 2 -57 6c-119.333 26 -208.666 80 -267.999 162c-52 72 -78 160 -78 264
c0 112.667 28.667 220.5 86 323.5s124 168.167 200 195.5c16 6 32.833 10.833 50.5 14.5s33.5 5.5 47.5 5.5c12.667 0 23.334 -1.5 32.001 -4.5s15.5 -8.5 20.5 -16.5s11.167 -15 18.5 -21c5.33301 -4 14 -10 26 -18zM467.998 173c66 45.333 115.002 95 147.002 149
c28 47.333 42 97.333 42 150c0 77.333 -27.667 147 -83 209c-52 58 -104.667 87 -158 87c-44 0 -92 -56.833 -144 -170.5s-78 -219.167 -78 -316.5c0 -42 5.66699 -76.833 17 -104.5s29.666 -47.167 54.999 -58.5c19.333 -8 37.333 -12 54 -12
c17.333 0 36.166 4.16699 56.499 12.5s50.833 26.5 91.5 54.5z" />
    <glyph glyph-name="P" unicode="P" horiz-adv-x="816" 
d="M705 870c24.667 -18.667 43.1699 -40.334 55.5029 -65.001s18.5 -51 18.5 -79c0 -93.333 -53.667 -194 -161 -302c-102.667 -103.333 -204.667 -166.666 -306 -189.999c-4.66699 -0.666992 -7 -6.33398 -7 -17.001c0 -11.333 5.33301 -36.666 16 -75.999
s16 -66.666 16 -81.999c0 -12 -2.33301 -20 -7 -24c-29.333 -25.333 -60.333 -38 -93 -38c-19.333 0 -38 4.33301 -56 13c-59.333 27.333 -91 42.333 -95 45c-17.333 12 -26 25.333 -26 40c0 92 -1.16699 187.667 -3.5 287l-7 308c-2.33301 106 -3.5 166.333 -3.5 181
c0 11.333 37.667 25.666 113 42.999c85.333 20 169.666 30 252.999 30c59.333 0 114.166 -5.66699 164.499 -17s93.166 -30.333 128.499 -57zM535.003 621c6.66699 18.667 11.666 34.333 14.999 47s5 24.667 5 36c0 24 -8.66699 53 -26 87c-14.667 27.333 -35.667 41 -63 41
c-58 0 -104 -4 -138 -12c-54 -12.667 -81 -34.334 -81 -65.001c0 -44 5 -108 15 -192c6.66699 -55.333 14.334 -109.666 23.001 -162.999c1.33301 -4 4.33301 -6 9 -6c24.667 0 65 24 121 72c62.667 53.333 102.667 105 120 155z" />
    <glyph glyph-name="Q" unicode="Q" horiz-adv-x="920" 
d="M841 -91c0 -8 0.330078 -15.501 0.99707 -22.501l2 -21.5c0 -14.667 -4.16699 -26.167 -12.5 -34.5s-18 -14.666 -29 -18.999s-22.167 -6.5 -33.5 -6.5c-13.333 0 -29.333 2.33301 -48 7s-38.834 9.33398 -60.501 14.001s-58.5 43 -110.5 115
c-22.667 31.333 -48 47 -76 47c-150 0 -261.333 37 -334 111c-62 63.333 -93 150 -93 260c0 112.667 30.667 226.667 92 342c58.667 110.667 123.334 182.667 194.001 216c6.66699 3.33301 14.834 6 24.501 8s17.834 3 24.501 3c16.667 0 36 -4 58 -12l65 -23
c112 -35.333 201.333 -98 268 -188c64.667 -86.667 97 -182.334 97 -287.001c0 -66 -13.667 -128 -41 -186c-29.333 -62 -72.666 -116.333 -129.999 -163c-8 -6 -12 -13.333 -12 -22c0 -16 25.667 -40 77 -72s77 -54 77 -66zM587.997 231.999
c4.66699 -4 10.333 -5.99707 17 -5.99707c20.667 0 39.5 28.333 56.5 85s25.5 119.667 25.5 189c0 76.667 -11.333 138.667 -34 186c-26.667 56 -67 84 -121 84c-70.667 0 -138 -64.667 -202 -194c-60 -120.667 -90 -234 -90 -340c0 -40 6 -71.5 18 -94.5
s30.333 -34.5 55 -34.5c12 0 24.833 2.66699 38.5 8s23 14.166 28 26.499s7.5 28.5 7.5 48.5c0 26 -4.16699 54.833 -12.5 86.5s-16.833 57.167 -25.5 76.5c-2 5.33301 -3 9.66602 -3 12.999c0 15.333 18.667 27.333 56 36c18 3.33301 34.833 6.83301 50.5 10.5
s30.167 5.5 43.5 5.5c41.333 0 65 -29.333 71 -88s13 -91.334 21 -98.001z" />
    <glyph glyph-name="R" unicode="R" horiz-adv-x="968" 
d="M871 20c-6.66699 -2.66699 -12.499 -4.33398 -17.499 -5.00098s-11.167 -1 -18.5 -1c-12.667 0 -27.167 2.33301 -43.5 7l-48.5 14c-54 12 -115.333 40 -184 84c-38 24 -90 61.333 -156 112c-50 38 -79.333 57 -88 57c-5.33301 0 -7.66602 -4.33301 -6.99902 -13l51 -234
c0 -16.667 -2.83301 -29.667 -8.5 -39s-15.167 -14 -28.5 -14c-2.66699 0 -8.33398 0.833008 -17.001 2.5s-21 2.83398 -37 3.50098s-25.667 1 -29 1h-22h-15c-35.333 0 -61 3 -77 9c-23.333 8.66699 -37.333 25.667 -42 51c-8 43.333 -14.667 98.166 -20 164.499
s-8 131.833 -8 196.5c0 114 7.33301 208.667 22 284c17.333 89.333 43.5 145.5 78.5 168.5s78.833 40.333 131.5 52s108 17.5 166 17.5c118 0 221.667 -19.333 311 -58c98 -42.667 147 -96.667 147 -162c0 -48.667 -27.667 -99.667 -83 -153
c-62.667 -60.667 -158.334 -122.334 -287.001 -185.001l30 -43c48 -37.333 75.333 -59.666 82 -66.999c1.33301 -2 69 -46.333 203 -133c45.333 -29.333 68 -53 68 -71c0 -17.333 -17.667 -32.666 -53 -45.999zM533.001 845c-23.333 14.667 -48.6699 21.999 -76.0029 21.999
c-20.667 0 -41.5 -5 -62.5 -15s-39.833 -24 -56.5 -42c-20 -22.667 -34 -53.167 -42 -91.5s-12 -82.166 -12 -131.499c0 -23.333 0.833008 -47 2.5 -71s3.83398 -51 6.50098 -81c0.666992 -11.333 8.33398 -17 23.001 -17c44 0 102.333 32.667 175 98
c80 72 120 140.333 120 205c0 24 -6.16699 46.5 -18.5 67.5s-32.166 39.833 -59.499 56.5z" />
    <glyph glyph-name="S" unicode="S" 
d="M875 175c-18 -67.333 -71.6689 -121 -161.002 -161c-81.333 -36.667 -173 -55 -275 -55c-91.333 0 -166 14.667 -224 44c-64.667 32.667 -97 78 -97 136c0 16 2.16699 31.333 6.5 46s15.5 22 33.5 22c8.66699 0 18 -1.33301 28 -4
c2.66699 -0.666992 19.667 -6.66699 51 -18c13.333 -4.66699 23.5 -18.667 30.5 -42s16.167 -37.333 27.5 -42s23 -7 35 -7c34.667 0 73.667 10.833 117 32.5s65 39.834 65 54.501c0 7.33301 -6.66699 12 -20 14c-162.667 24.667 -282.667 64.667 -360 120
c-67.333 48 -101 106 -101 174c0 67.333 33 138 99 212c58.667 66 131.667 122.5 219 169.5s162.333 70.5 225 70.5c31.333 0 56.666 -7 75.999 -21l24 -14c8.66699 -6 13 -13 13 -21c0 -54.667 10 -117 30 -187c4 -14.667 22.667 -69.667 56 -165
c20 -57.333 30 -98.333 30 -123c0 -22 -5.66699 -38.333 -17 -49s-31.666 -16 -60.999 -16c-39.333 0 -69 8.66699 -89 26c-29.333 32 -59.666 61.667 -90.999 89c-38 33.333 -59.667 91.166 -65 173.499s-11.333 131.166 -18 146.499c-3.33301 6 -7.66602 9 -12.999 9
c-25.333 0 -59 -34.333 -101 -103c-44.667 -73.333 -67 -140 -67 -200c0 -14.667 0.5 -25 1.5 -31s3.5 -14.333 7.5 -25c23.333 -61.333 86.333 -99.333 189 -114l266 -16c90 -9.33301 135 -38.666 135 -87.999c0 -12.667 -1.66699 -25 -5 -37z" />
    <glyph glyph-name="T" unicode="T" horiz-adv-x="1032" 
d="M978 828l-91.002 -31.002c-72 -4 -144 -7.66699 -216 -11c-80.667 -6.66699 -121 -19.667 -121 -39c0 -62 12 -147.333 36 -256c8.66699 -40 31.334 -131.333 68.001 -274c24.667 -96.667 37 -156.334 37 -179.001c0 -12 -5.33301 -19.167 -16 -21.5
s-38.334 -9.16602 -83.001 -20.499c-70.667 -18 -121.667 -27 -153 -27c-29.333 0 -52 5 -68 15c-19.333 12 -32 31.667 -38 59c-9.33301 43.333 -15.833 89 -19.5 137s-5.5 99.667 -5.5 155c0 46.667 1.16699 97.834 3.5 153.501l7.5 179.5c0 60 -8 90 -24 90
c-56 0 -94.333 -1 -115 -3c-48 -4.66699 -77 -7 -87 -7c-16.667 0 -29.667 7.5 -39 22.5s-14 33.167 -14 54.5c0 14.667 3 30 9 46s47.667 27.333 125 34c19.333 2 93.333 5.33301 222 10s222.667 12.334 282 23.001c14 3.33301 24.667 5.5 32 6.5s15.833 2 25.5 3
s20.334 2 32.001 3s23.167 1.5 34.5 1.5c16 0 28.833 -0.833008 38.5 -2.5s22.834 -5.5 39.501 -11.5c22.667 -8.66699 43 -25.667 61 -51z" />
    <glyph glyph-name="U" unicode="U" horiz-adv-x="968" 
d="M822 868c28.667 -67.333 50.002 -132.836 64.002 -196.503s21 -124.5 21 -182.5c0 -95.333 -17.667 -181.666 -53 -258.999c-32 -70 -75.333 -127.333 -130 -172l-29 -24c-7.33301 -4 -30 -12.667 -68 -26c-16 -5.33301 -39 -10 -69 -14s-62 -6 -96 -6
c-40.667 0 -77.834 2.5 -111.501 7.5s-66.5 14.167 -98.5 27.5c-72.667 29.333 -126.334 85 -161.001 167c-29.333 69.333 -44 154.666 -44 255.999c0 110.667 16.5 214.334 49.5 311.001s64.833 142 95.5 136c13.333 -2.66699 47.333 -5.16699 102 -7.5
s82 -14.166 82 -35.499c0 -5.33301 -1.33301 -11 -4 -17c-28 -62.667 -53.667 -142 -77 -238c-28.667 -116.667 -43 -217 -43 -301c0 -67.333 9 -118.666 27 -153.999c21.333 -41.333 54.666 -62 99.999 -62c67.333 0 127 72.333 179 217c47.333 132 71 267 71 405
c0 58 -5 105.667 -15 143s-25.667 62.333 -47 75c-4 2 -6 4.33301 -6 7c0 6 8.66699 12.167 26 18.5s33 9.5 47 9.5c27.333 0 64.333 -11.333 111 -34s72.334 -39.667 77.001 -51z" />
    <glyph glyph-name="V" unicode="V" horiz-adv-x="1016" 
d="M945 865c-3.33301 -23.333 -24 -84.332 -62 -182.999c-52 -135.333 -88.667 -234.666 -110 -297.999c-42.667 -127.333 -70 -233.666 -82 -318.999c0 -4.66699 3.5 -9.33398 10.5 -14.001s11.167 -8.33398 12.5 -11.001c4.66699 -9.33301 7 -17.666 7 -24.999
c0 -12.667 -8.33301 -21.834 -25 -27.501s-39 -8.5 -67 -8.5c-33.333 0 -71.333 3 -114 9c-25.333 3.33301 -57 9 -95 17c-68 14 -134.667 92 -200 234c-49.333 107.333 -92.666 237.333 -129.999 390c-33.333 135.333 -46 205.666 -38 210.999
c10.667 8 25.5 14.167 44.5 18.5s39.5 6.5 61.5 6.5c23.333 0 43.833 -2.5 61.5 -7.5s29.5 -12.5 35.5 -22.5c10.667 -18 27 -71.333 49 -160l58 -246c22 -93.333 38.667 -153 50 -179l72 138l120 338c50 129.333 88.667 197.333 116 204
c33.333 8.66699 68.666 13 105.999 13c36 0 65 -5.16699 87 -15.5s33 -27.833 33 -52.5c-0.666992 -4 -1 -7.33301 -1 -10z" />
    <glyph glyph-name="W" unicode="W" horiz-adv-x="1536" 
d="M1477 860c0.666992 -2.66699 1.00195 -7.33691 1.00195 -14.0039c0 -30.667 -16 -81 -48 -151l-96 -209c-40.667 -92 -68 -170.667 -82 -236c-2.66699 -12.667 -4.33398 -24.834 -5.00098 -36.501s-1 -25.167 -1 -40.5v-25.5c0 -8.33301 0.333008 -16.833 1 -25.5
c0 -26.667 -2 -47.667 -6 -63s-12.667 -28.333 -26 -39c-17.333 -13.333 -36 -22 -56 -26c-26.667 -3.33301 -45.334 -6 -56.001 -8s-18.667 -3 -24 -3h-13c-60.667 0 -121.667 39 -183 117c-32 40.667 -77 113.334 -135 218.001c-43.333 78.667 -73 118 -89 118
c-6 0 -10.667 -2 -14 -6c-17.333 -19.333 -34 -68.666 -50 -147.999c-21.333 -107.333 -35.333 -172 -42 -194c-19.333 -63.333 -43.666 -92.666 -72.999 -87.999c-75.333 11.333 -141.333 55.333 -198 132c-47.333 64.667 -88 152 -122 262c-26.667 86 -50 188 -70 306
c-2 12.667 -12.667 37.667 -32 75c-8.66699 16.667 -13 29.334 -13 38.001c0 18.667 8.16699 31.667 24.5 39s38.166 11 65.499 11c18.667 0 38.167 -1.33301 58.5 -4s39 -11.667 56 -27s31.167 -36 42.5 -62c16.667 -39.333 30.667 -96.666 42 -171.999l20 -168
c6.66699 -22 13.667 -43.667 21 -65c19.333 12 46 63 80 153c50.667 132 82 210.667 94 236c39.333 81.333 77 122 113 122c6 0 10.333 -0.333008 13 -1c4.66699 -1.33301 9.83398 -2.33301 15.501 -3s14.167 -1 25.5 -1h18.5c6.33301 0 12.833 0.333008 19.5 1
c10.667 0 20.167 -0.833008 28.5 -2.5s17.833 -5.16699 28.5 -10.5s18.5 -13 23.5 -23s7.5 -21.667 7.5 -35c0 -9.33301 -1 -20.833 -3 -34.5l-7 -46.5c-3.33301 -34.667 -5 -64 -5 -88c0 -59.333 8 -112.5 24 -159.5s42.333 -91.167 79 -132.5l74 136
c57.333 136.667 102.666 234 135.999 292c62 108 119.333 162 172 162c48.667 0 83.667 -3 105 -9c35.333 -10 55.333 -30.333 60 -61z" />
    <glyph glyph-name="X" unicode="X" 
d="M890 840c-6 -9.33301 -18.1689 -17.168 -36.502 -23.501s-31.166 -13.5 -38.499 -21.5c-38 -41.333 -79 -95 -123 -161l-132 -199c-2.66699 -2.66699 -4 -8 -4 -16c0 -32.667 24 -86 72 -160c50.667 -78 100.667 -136 150 -174c7.33301 -5.33301 11 -12.333 11 -21
c0 -14 -9.66699 -28.667 -29 -44s-38.333 -23.666 -57 -24.999c-18.667 0 -41.667 3 -69 9s-54.5 14.667 -81.5 26s-55.5 46.666 -85.5 105.999s-48.667 89 -56 89c-6 0 -11.333 -6.66699 -16 -20c-16 -45.333 -39.333 -91.666 -70 -138.999
c-32.667 -50 -56.667 -73.667 -72 -71c-62.667 10 -105.667 20.333 -129 31c-44 20 -66 49.667 -66 89c0 20.667 16.667 58.667 50 114l90.5 143.5c30.333 48.333 43.5 77.5 39.5 87.5c-56 132 -84 198.333 -84 199c-40 100 -67 180.333 -81 241c-4.66699 21.333 9 36 41 44
c16.667 4 43 6 79 6c32 0 62 -26.333 90 -79c64.667 -122.667 99.667 -184.667 105 -186c16.667 -4.66699 42.334 14.666 77.001 57.999c52 64.667 88.667 106.667 110 126c52 47.333 104.667 71 158 71c30.667 0 64.667 -8.33301 102 -25c18 -8.66699 36.333 -17 55 -25
c7.33301 -4 11 -10.333 11 -19c0 -11.333 -3.66699 -21.666 -11 -30.999z" />
    <glyph glyph-name="Y" unicode="Y" horiz-adv-x="1176" 
d="M1110 855c-4 -8 -51.668 -38.668 -143.001 -92.001c-104.667 -61.333 -184.667 -118.666 -240 -171.999c-84.667 -81.333 -127 -163.333 -127 -246c0 -43.333 22.5 -94.833 67.5 -154.5s67.5 -98.167 67.5 -115.5c0 -25.333 -11.833 -45.666 -35.5 -60.999
s-51.5 -23 -83.5 -23c-32.667 0 -60.667 8 -84 24c-12 8 -33.333 17 -64 27c-47.333 15.333 -71 36.333 -71 63c0 89.333 -23.667 192.666 -71 309.999c-36 89.333 -85 186.333 -147 291l-127 204c-3.33301 6.66699 -5 11.667 -5 15c0 10 8.83301 16.833 26.5 20.5
s39.834 5.5 66.501 5.5c10.667 0 21.167 -0.166992 31.5 -0.5s20.5 -0.5 30.5 -0.5c39.333 0 80 -25.333 122 -76c33.333 -40 65.333 -92.333 96 -157c22.667 -48 40 -92 52 -132c0.666992 -4.66699 3.66699 -7 9 -7c12 0 44.667 30.333 98 91
c74.667 85.333 128 143.333 160 174c66 64 119.667 98 161 102c4 0.666992 10.333 1 19 1c44 0 89 -11 135 -33s64.667 -41.333 56 -58z" />
    <glyph glyph-name="Z" unicode="Z" horiz-adv-x="1248" 
d="M1173 132c-26.667 8.66699 -63.9971 12.998 -111.997 12.998c-80.667 0 -196.334 -13.667 -347.001 -41c-67.333 -12 -191 -37.333 -371 -76c-128 -27.333 -205.333 -41 -232 -41c-8 0 -13.667 1 -17 3c-22.667 15.333 -39.334 41 -50.001 77c-8 28 -12 59.333 -12 94
c0 10.667 0.5 21.834 1.5 33.501s2.16699 18.834 3.5 21.501c36 58 121.667 133 257 225c76 51.333 190.667 121.666 344 210.999l157 101c-7.33301 3.33301 -18.833 6 -34.5 8s-32.834 3 -51.501 3c-59.333 0 -145 -7.5 -257 -22.5l-346 -46.5
c-9.33301 0 -14.666 1 -15.999 3c-11.333 14 -17 32.333 -17 55c0 26.667 6.16699 50.667 18.5 72s27.166 32 44.499 32c90 0 188.333 7.33301 295 22l313.5 45c102.333 15.333 179.833 23 232.5 23c34 0 62.167 -1.83301 84.5 -5.5s43.833 -10.167 64.5 -19.5
c4.66699 -2 8.66699 -10 12 -24c6.66699 -28 15.334 -57.667 26.001 -89c4 -11.333 -25.333 -37.333 -88 -78l-296 -190c-166.667 -110.667 -334.667 -231.667 -504 -363c-2 -1.33301 -3.66699 -2.66602 -5 -3.99902c-0.666992 -1.33301 -1.33398 -2.33301 -2.00098 -3
l125 52c114.667 51.333 201.334 88.333 260.001 111c106 40.667 180 61 222 61c15.333 0 37.166 0.333008 65.499 1s48.833 1 61.5 1c32 0 57 -0.833008 75 -2.5s37.667 -5 59 -10s36.333 -22.333 45 -52s13 -63.167 13 -100.5c0 -29.333 -2.16699 -53.833 -6.5 -73.5
s-9.5 -28.5 -15.5 -26.5z" />
    <glyph glyph-name="bracketleft" unicode="[" horiz-adv-x="629" 
d="M537 -239h-438l-56 57v1225l56 57h388v-115h-331v-1110h381v-114z" />
    <glyph glyph-name="backslash" unicode="\" horiz-adv-x="1140" 
d="M62 848l136 75l773 -855l-150 -34z" />
    <glyph glyph-name="bracketright" unicode="]" horiz-adv-x="629" 
d="M535 -182l-56 -57h-438v114h381v1110h-331v115h388l56 -57v-1225z" />
    <glyph glyph-name="asciicircum" unicode="^" horiz-adv-x="424" 
d="M363 571l-18.002 -50.0039c-4.66699 -0.666992 -8 -1.33398 -10 -2.00098c-6.66699 -2 -13 -3.66699 -19 -5c-4.66699 35.333 -9 63.333 -13 84c-13.333 61.333 -31.333 111 -54 149l-77 -112c-46 -82.667 -69.667 -129.334 -71 -140.001c-6 2.66699 -12 5.66699 -18 9
l-30 27c2 9.33301 3.33301 17 4 23c3.33301 22.667 5 42.334 5 59.001c0 14.667 -2.33301 25 -7 31c26 46.667 47 82.667 63 108c50 76.667 93.667 127.334 131 152.001c6.66699 4 18.667 -2 36 -18c5.33301 -4.66699 13.333 -13 24 -25
c-1.33301 -5.33301 -2.66602 -9.66602 -3.99902 -12.999c-3.33301 -8.66699 -7.66602 -17 -12.999 -25c12.667 -33.333 22 -60.666 28 -81.999c19.333 -67.333 29 -126.666 29 -177.999h5c5.33301 4.66699 8.33301 7.33398 9 8.00098z" />
    <glyph glyph-name="underscore" unicode="_" horiz-adv-x="1224" 
d="M35 -45h1145v-55h-1145v55z" />
    <glyph glyph-name="grave" unicode="`" horiz-adv-x="328" 
d="M274 604l-51.001 -40.501c-18 -13.667 -33.333 -20.5 -46 -20.5c-4 0 -7 0.333008 -9 1c-23.333 10 -51.666 31.333 -84.999 64c-36.667 36.667 -55 65.334 -55 86.001c2 14 14 27 36 39c28 14.667 45.667 28 53 40c20.667 -2.66699 51.667 -23.667 93 -63
c44 -42 66 -74 66 -96c0 -4.66699 -0.666992 -8 -2 -10z" />
    <glyph glyph-name="a" unicode="a" horiz-adv-x="752" 
d="M687 47c-3.33301 -8.66699 -17.3291 -13.002 -41.9961 -13.002c-26 0 -47 3.33301 -63 10c-2.66699 1.33301 -5.33398 5 -8.00098 11s-5.66699 9 -9 9c-4 0 -9.83301 -3.83301 -17.5 -11.5s-17.5 -14.5 -29.5 -20.5c-39.333 -19.333 -92.333 -29 -159 -29
c-32.667 0 -72.667 3.33301 -120 10s-82 20 -104 40c-18 16.667 -27 39.334 -27 68.001c0 17.333 3 36.333 9 57c9.33301 27.333 16 47.333 20 60c20.667 60 59.167 107.833 115.5 143.5s116.166 53.5 179.499 53.5c34 0 66.667 -6 98 -18
c5.33301 -2 9.33301 -0.333008 12 5s4 13 4 23c0 24.667 -5.33301 50 -16 76c-12.667 30.667 -28.334 50.667 -47.001 60c-10 5.33301 -23 8 -39 8c-45.333 0 -113.333 -25.333 -204 -76l-100 -59c-6 -3.33301 -13.333 -5 -22 -5c-18.667 0 -36.834 7.83301 -54.501 23.5
s-26.5 32.167 -26.5 49.5c0 4 1.33301 9.33301 4 16c14 30.667 54.667 60 122 88c72 30 145.333 45 220 45c34 0 65.667 -3.16699 95 -9.5s57 -16.833 83 -31.5c49.333 -28 87 -87.333 113 -178c21.333 -74.667 32 -157.667 32 -249c0 -35.333 -1.66699 -66.166 -5 -92.499
s-8 -47.5 -14 -63.5zM546.004 143.998c14 20.667 26.166 44.833 36.499 72.5s15.5 53.167 15.5 76.5c0 20 -4.5 35.667 -13.5 47s-24.167 17 -45.5 17c-41.333 0 -92.666 -23.667 -153.999 -71s-99.666 -93 -114.999 -137c-6 -16.667 -9 -32.334 -9 -47.001
c0 -11.333 2 -20.333 6 -27s10.667 -10.667 20 -12c43.333 0 94.666 9.33301 153.999 28s94.333 36.334 105 53.001z" />
    <glyph glyph-name="b" unicode="b" horiz-adv-x="720" 
d="M574 530c25.333 -18.667 43.8311 -41.668 55.498 -69.001s17.5 -58 17.5 -92c0 -72.667 -24.167 -145.334 -72.5 -218.001s-103.5 -118 -165.5 -136c-13.333 -4 -29 -7 -47 -9s-35 -3 -51 -3c-54 0 -104.333 7.66699 -151 23s-74 33.833 -82 55.5s-14 54 -18 97
s-6 88.833 -6 137.5c0 72 3.33301 154.667 10 248c4.66699 61.333 10.834 132.833 18.501 214.5s11.5 125.5 11.5 131.5c0 19.333 9.16699 34 27.5 44s41.5 15 69.5 15c36.667 0 69.667 -7.66699 99 -23s44 -35.666 44 -60.999c0 -28.667 -10.333 -76 -31 -142
c-6 -19.333 -24 -70.666 -54 -153.999c-4.66699 -16.667 -9 -33 -13 -49c11.333 17.333 29 30.5 53 39.5s52.333 13.5 85 13.5c34.667 0 69.834 -5.5 105.501 -16.5s67.167 -26.5 94.5 -46.5zM340.998 429.999c-36.667 -3.33301 -65.667 -9.33301 -87 -18
c-29.333 -12 -45.5 -30 -48.5 -54s-6.16699 -53.5 -9.5 -88.5s-5 -63.167 -5 -84.5c0 -24 1.66699 -45.167 5 -63.5s9.33301 -33.833 18 -46.5s23 -19 43 -19c7.33301 0 14 0.333008 20 1s12.333 1.66699 19 3c46.667 4 87.667 33 123 87c32.667 50 49 102.667 49 158
c0 38 -8.33301 67.667 -25 89c-19.333 24.667 -48 37 -86 37c-6.66699 -0.666992 -12 -1 -16 -1z" />
    <glyph glyph-name="c" unicode="c" horiz-adv-x="736" 
d="M678 192c18.667 -2 27.998 -14.001 27.998 -36.001c0 -17.333 -4.66699 -35.833 -14 -55.5s-21 -35.5 -35 -47.5c-23.333 -20.667 -56.5 -36.5 -99.5 -47.5s-91.167 -16.5 -144.5 -16.5c-68 0 -135 8.66699 -201 26c-54 14 -96 43.167 -126 87.5s-45 96.5 -45 156.5
c0 71.333 21.333 139 64 203c47.333 71.333 114.333 126 201 164c21.333 8.66699 42.333 15.5 63 20.5s41.334 7.5 62.001 7.5c26 0 46.667 -4.66699 62 -14s23 -24.666 23 -45.999c0 -19.333 -0.166992 -38.333 -0.5 -57s-0.5 -37 -0.5 -55
c0 -58.667 2.66699 -104.667 8 -138s17 -60.666 35 -81.999c3.33301 -4.66699 2.83301 -8.33398 -1.5 -11.001s-14.833 -4 -31.5 -4c-9.33301 0 -15.666 0.333008 -18.999 1c-52 6 -92.333 11.667 -121 17c-54.667 10.667 -83.834 20.834 -87.501 30.501
s-5.5 19.167 -5.5 28.5c0 10.667 8.33301 40 25 88c8 23.333 12 43.333 12 60c0 4.66699 -0.5 11 -1.5 19s-4.16699 12 -9.5 12c-17.333 0 -42.333 -31.333 -75 -94c-35.333 -68.667 -53 -129.334 -53 -182.001c0 -28 5.16699 -51.5 15.5 -70.5s27.833 -32.5 52.5 -40.5
c16 -5.33301 35.333 -8 58 -8c42.667 0 107.334 14 194.001 42s142.667 42 168 42z" />
    <glyph glyph-name="d" unicode="d" horiz-adv-x="688" 
d="M624 890c-6.66699 -24.667 -11.498 -56.166 -14.498 -94.499s-4.5 -82.166 -4.5 -131.499c0 -52.667 1.83301 -117.334 5.5 -194.001s7.5 -151.167 11.5 -223.5s6 -126.166 6 -161.499c0 -34.667 -1.5 -60.834 -4.5 -78.501s-7.83301 -26.5 -14.5 -26.5
c-52.667 0 -89 5.33301 -109 16c-8.66699 11.333 -17 23 -25 35c-3.33301 0 -8.66602 -2 -15.999 -6c-50.667 -26 -110.334 -39 -179.001 -39c-27.333 0 -52.666 1.83301 -75.999 5.5s-48.333 9.83398 -75 18.501c-34 11.333 -58.333 28.166 -73 50.499
s-22 50.166 -22 83.499c0 69.333 30.333 150.333 91 243c55.333 84.667 101.666 134 138.999 148c13.333 4.66699 28 7 44 7c18.667 0 42.667 -4.33301 72 -13s47.666 -13 54.999 -13c16 0 24 9.66699 24 29c0 21.333 -8.16699 69.166 -24.5 143.499
s-24.5 125.833 -24.5 154.5c0 21.333 2.5 37.5 7.5 48.5s13.833 17.167 26.5 18.5c45.333 6 90.666 12.333 135.999 19c14 0 25.167 -2.16699 33.5 -6.5s12.5 -11.166 12.5 -20.499c0 -2.66699 -0.666992 -6.66699 -2 -12zM444.002 150.001
c6.66699 6.66699 11.667 16.999 15 30.999s5 29 5 45c0 48 -9 99.333 -27 154s-33 79.667 -45 75c-59.333 -22.667 -111.333 -65.167 -156 -127.5s-67 -120.166 -67 -173.499c0 -19.333 3.5 -36.166 10.5 -50.499s18.5 -26 34.5 -35s35 -13.5 57 -13.5
c30 0 61.667 10.333 95 31c24.667 15.333 50.667 36.666 78 63.999z" />
    <glyph glyph-name="e" unicode="e" horiz-adv-x="889" 
d="M818 73c-36.667 -30.667 -92.3301 -56.833 -166.997 -78.5s-150.667 -32.5 -228 -32.5c-88 0 -163 14 -225 42c-72.667 32.667 -123 82 -151 148c-5.33301 12.667 -8 27.667 -8 45c0 82.667 53.333 178.667 160 288s203 164 289 164
c85.333 0 155.666 -36.333 210.999 -109c46 -60.667 69 -121.667 69 -183c0 -28 -6.33301 -45.667 -19 -53c-8.66699 -5.33301 -24.5 -9 -47.5 -11s-52.167 -3 -87.5 -3c-28 0 -73 1 -135 3s-106.333 3 -133 3c-67.333 0 -106 -4.66699 -116 -14
c-16.667 -14.667 -30 -29.667 -40 -45s-15.5 -27.5 -16.5 -36.5s-1.5 -15.5 -1.5 -19.5v-7c0 -28 9.66699 -48.333 29 -61c16.667 -10.667 42.334 -16 77.001 -16c19.333 0 86.333 8 201 24c57.333 8 102.333 12 135 12c17.333 0 41.666 8.5 72.999 25.5s53 25.5 65 25.5
c5.33301 0 10.666 -1 15.999 -3c15.333 -6 29.666 -17.167 42.999 -33.5s20 -31.833 20 -46.5c0 -10.667 -4.33301 -20 -13 -28zM608.004 390.001c2 6 4.00098 14.335 6.00098 25.002s3 18 3 22c0 21.333 -6 38 -18 50c-16 15.333 -42.667 23 -80 23
c-8.66699 0 -17.834 -0.333008 -27.501 -1s-22 -2.33398 -37 -5.00098s-45.333 -20.834 -91 -54.501s-68.5 -56.5 -68.5 -68.5c0 -3.33301 2.66699 -5 8 -5h105c63.333 0 112 0.833008 146 2.5s52 5.5 54 11.5z" />
    <glyph glyph-name="f" unicode="f" horiz-adv-x="624" 
d="M570 490c0 -13.333 -4.99805 -19.9971 -14.998 -19.9971c-68.667 0 -118.334 15 -149.001 45c-24.667 24 -37 57 -37 99c0 25.333 4.33301 52.833 13 82.5s14 45.834 16 48.501c-33.333 -48.667 -57.333 -104.334 -72 -167.001c-5.33301 -23.333 -14 -79.333 -26 -168
c-3.33301 -23.333 8 -35 34 -35c10 0 30.333 3 61 9s54 9 70 9c12.667 0 22.667 -0.833008 30 -2.5s15 -5.16699 23 -10.5c14 -9.33301 23 -16 27 -20c14 -12.667 20 -27.667 18 -45c-2 -10 -16 -15 -42 -15c-17.333 0 -47 2.66699 -89 8s-69.667 8 -83 8
c-9.33301 0 -16.333 -0.833008 -21 -2.5s-6.33398 -4.5 -5.00098 -8.5l24 -118c10 -47.333 24.333 -96.333 43 -147c2.66699 -8 4 -15 4 -21c0 -17.333 -6.33301 -27 -19 -29c-18 -2 -51.667 4 -101 18c-55.333 16 -81.666 31.667 -78.999 47
c2 9.33301 3.33301 21.166 4 35.499s1 31.166 1 50.499c0 30 -0.666992 60.167 -2 90.5s-2.33301 58.166 -3 83.499c0 12 -6.33301 18 -19 18c-8.66699 0 -26.834 -5.16699 -54.501 -15.5s-46.834 -15.5 -57.501 -15.5c-13.333 0 -22 6 -26 18c-0.666992 2 -1 5.33301 -1 10
c0 10.667 4.66699 20.334 14 29.001c6.66699 6 17.334 13 32.001 21c6 3.33301 14 5 24 5c6 0 15.5 -1.16699 28.5 -3.5s20.833 -3.5 23.5 -3.5c12 0 19 5.66699 21 17l19 161c12 81.333 28.333 146.333 49 195c27.333 64.667 62.333 101 105 109c12 2 25.667 3 41 3
c35.333 0 71 -5.33301 107 -16s54 -21.334 54 -32.001c0 -68 1.33301 -121.333 4 -160c7.33301 -106 11 -161 11 -165z" />
    <glyph glyph-name="g" unicode="g" horiz-adv-x="760" 
d="M691 -245c-4 -20 -34.001 -47.498 -90.001 -82.498s-103.667 -52.5 -143 -52.5c-11.333 0 -20.666 1.33301 -27.999 4c-72.667 26 -147.667 56.667 -225 92c-96.667 44 -143.667 71.333 -141 82c1.33301 3.33301 4.66602 5 9.99902 5
c57.333 -16.667 110.833 -31.334 160.5 -44.001s92.5 -19 128.5 -19c10 0 18 0.333008 24 1s14.667 2 26 4c54 12 90.667 58.667 110 140c10 42.667 15 100 15 172c0 8.66699 -3.33301 13 -10 13c-33.333 -15.333 -67.666 -29 -102.999 -41s-70.666 -18 -105.999 -18
c-34 0 -69.667 5.66699 -107 17s-76.333 30.666 -117 57.999c-18.667 12 -32.334 26.833 -41.001 44.5s-13 36.834 -13 57.501c0 77.333 50.333 164 151 260c98 93.333 183.333 140 256 140c12.667 0 23.5 -1.66699 32.5 -5s18 -5.66602 27 -6.99902s17.833 -2 26.5 -2
c13.333 0 31.333 1.5 54 4.5s37 4.5 43 4.5c14 0 26.167 -2.5 36.5 -7.5s18.5 -14.667 24.5 -29s10.5 -51 13.5 -110s4.5 -133.833 4.5 -224.5c0 -100.667 -1.66699 -193.834 -5 -279.501s-8 -144.834 -14 -177.501zM493.999 198.002c13.333 13.333 23.667 32.832 31 58.499
s11 52.5 11 80.5c0 44 -7.66699 80.667 -23 110c-17.333 33.333 -42 50 -74 50c-19.333 0 -58 -37.333 -116 -112c-61.333 -79.333 -92 -140.333 -92 -183c0 -13.333 3.33301 -23.666 10 -30.999c13.333 -15.333 40.333 -23 81 -23c32 0 65.333 5 100 15
s58.667 21.667 72 35z" />
    <glyph glyph-name="h" unicode="h" horiz-adv-x="752" 
d="M655 -25c-9.33301 6.66699 -19.334 11.1689 -30.001 13.502s-23.334 3.5 -38.001 3.5c-11.333 0 -28 -1.33301 -50 -4s-37.333 -4 -46 -4c-16.667 0 -30 2.83301 -40 8.5s-17 16.5 -21 32.5c-1.33301 5.33301 -2 14.666 -2 27.999c0 29.333 10.333 88.333 31 177
s31 146.667 31 174c0 13.333 -1.5 23.333 -4.5 30s-8.16699 10 -15.5 10c-6.66699 0 -15 -3 -25 -9l-129 -70c-46.667 -25.333 -73.667 -47 -81 -65c-4.66699 -10.667 -8 -22.5 -10 -35.5s-3 -25.833 -3 -38.5c0 -30.667 6.33301 -65.667 19 -105l39 -118
c0 -8 -5 -10.667 -15 -8l-138 35c-48 17.333 -72 45.666 -72 84.999c0 160.667 1.33301 293.5 4 398.5s9.33398 193.167 20.001 264.5c13.333 90 33 142.333 59 157c6.66699 3.33301 16.334 5 29.001 5c30 0 58.667 -7.33301 86 -22c32 -17.333 46 -38.333 42 -63
c-22 -88.667 -40 -164.334 -54 -227.001s-21 -107 -21 -133c0 -29.333 10 -44 30 -44c12.667 0 47.667 13.333 105 40s104.333 40 141 40c18.667 0 36 -2.66699 52 -8s31.667 -14.666 47 -27.999c30 -25.333 54.667 -81.333 74 -168c16.667 -76 25 -153 25 -231
c0 -38.667 -2.5 -69 -7.5 -91s-12.5 -33 -22.5 -33c-2.66699 0 -5.66699 1 -9 3z" />
    <glyph glyph-name="i" unicode="i" horiz-adv-x="400" 
d="M303 811c3.33301 -15.333 -5.00098 -33.668 -25.001 -55.001s-41.667 -32 -65 -32c-27.333 0 -49.333 3 -66 9s-32 18.333 -46 37c-8 11.333 -12 23 -12 35c0 16 5.16699 30.833 15.5 44.5s22.833 23.334 37.5 29.001s30.334 8.5 47.001 8.5c26.667 0 51 -6.5 73 -19.5
s35.667 -31.833 41 -56.5zM340.999 22.998c0.666992 -2.66699 1.33398 -4.99805 2.00098 -6.99805v-5c0 -12.667 -10.667 -19 -32 -19c-13.333 0 -32.833 2.83301 -58.5 8.5s-49.167 11.167 -70.5 16.5c-54 10.667 -94 46.334 -120 107.001c-22 50.667 -33 115 -33 193
c0 69.333 7.66699 133.166 23 191.499s31.166 89.666 47.499 93.999s31.833 6.5 46.5 6.5c48.667 0 89 -22.333 121 -67c6 -8.66699 9 -20.334 9 -35.001c0 -5.33301 -1.66699 -24.166 -5 -56.499s-5 -55.5 -5 -69.5c0 -46 4.66699 -93.667 14 -143
c12 -64.667 32.333 -136.334 61 -215.001z" />
    <glyph glyph-name="j" unicode="j" horiz-adv-x="480" 
d="M456 679c0 -15.333 -6.16504 -27.833 -18.498 -37.5s-27.5 -16.667 -45.5 -21s-34 -6.5 -48 -6.5c-20.667 0 -41.334 5.66699 -62.001 17c-9.33301 6 -17 14.5 -23 25.5s-9 22.167 -9 33.5c0 20 7 35 21 45c9.33301 6.66699 22.666 10 39.999 10c28 0 59.167 -8 93.5 -24
s51.5 -30 51.5 -42zM429.002 415l-0.00195312 -82c0 -109.333 -0.5 -192.5 -1.5 -249.5s-4.33301 -113 -10 -168s-14.5 -90.833 -26.5 -107.5c-41.333 -59.333 -89 -102.666 -143 -129.999s-117.667 -41 -191 -41c-84.667 0 -155.667 31 -213 93
c-44.667 48 -67 89.667 -67 125c0 5.33301 1.33301 8 4 8s6.33398 -2.33301 11.001 -7c36 -40 72 -69.333 108 -88c32 -16.667 63 -25 93 -25c39.333 0 77 13.667 113 41c22.667 17.333 42.667 38 60 62l66 87c8.66699 21.333 13 83.666 13 186.999v32v31v29v27v25v24v21v19
v18v16v14v13v11c0 12 -0.166992 24.167 -0.5 36.5s-0.5 25.166 -0.5 38.499v11c0 10.667 3.83301 18.834 11.5 24.501s17.834 8.5 30.501 8.5c28.667 0 59.667 -11.167 93 -33.5s50 -45.833 50 -70.5z" />
    <glyph glyph-name="k" unicode="k" horiz-adv-x="872" 
d="M817 100c6.66699 -7.33301 10.0029 -16.6709 10.0029 -28.0039c0 -10 -3.16699 -19.667 -9.5 -29s-13.5 -15.166 -21.5 -17.499s-15.833 -3.83301 -23.5 -4.5s-16.834 -1 -27.501 -1c-56 0 -121.833 21 -197.5 63l-225.5 127c-8 -2 -16 -8.5 -24 -19.5
s-15.833 -18.333 -23.5 -22s-13.167 -8.5 -16.5 -14.5s-5 -13.333 -5 -22c0 -16 7.33301 -36.667 22 -62l46 -78c0 -5.33301 -4.66699 -7.66602 -14 -6.99902c-15.333 2 -57 5.33301 -125 10s-103.667 13 -107 25c-10 40.667 -17.5 89 -22.5 145s-7.5 112.333 -7.5 169
c0 70.667 2.33301 141.5 7 212.5s9.66699 141.833 15 212.5s8 122.667 8 156c0 24 12.667 36 38 36c18 0 43.667 -6.66699 77 -20c14 -5.33301 40.667 -17.333 80 -36c10 -4.66699 17.167 -14.667 21.5 -30s6.5 -35.666 6.5 -60.999c0 -39.333 -5.33301 -91 -16 -155
l-31 -165c-11.333 -59.333 -17 -97 -17 -113c0 -12.667 2.33301 -19 7 -19c2 0 4 1 6 3c18 14 55 46.333 111 97c51.333 46 89.666 78.333 114.999 97c39.333 28 69 40 89 36c34 -7.33301 62.167 -15 84.5 -23s49.166 -20.333 80.499 -37l-61 -58
c-16.667 -10.667 -67 -41 -151 -91l-80 -56c10.667 -18.667 43.667 -41 99 -67l159 -71c60.667 -29.333 102 -56.666 124 -81.999z" />
    <glyph glyph-name="l" unicode="l" horiz-adv-x="368" 
d="M320 10c-3.33301 -2.66699 -9.66699 -4.00195 -19 -4.00195c-34.667 0 -85.167 15.5 -151.5 46.5s-99.5 55.167 -99.5 72.5c0 41.333 -0.166992 83 -0.5 125s-0.5 84.333 -0.5 127c0 106 0.833008 194.833 2.5 266.5s5.16699 131.667 10.5 180s13.666 78.833 24.999 91.5
c8 8.66699 17.333 14.834 28 18.501s23.334 5.5 38.001 5.5c22.667 0 45.334 -4.83301 68.001 -14.5s36.167 -21.5 40.5 -35.5s7.66602 -36.167 9.99902 -66.5s3.5 -65.5 3.5 -105.5c0 -26.667 -0.666992 -74.167 -2 -142.5s-2 -108.5 -2 -120.5
c0 -63.333 1.83301 -122.666 5.5 -177.999s10.5 -109 20.5 -161c2 -11.333 8.33301 -26.333 19 -45s16 -31.667 16 -39c0 -8.66699 -4 -15.667 -12 -21z" />
    <glyph glyph-name="m" unicode="m" horiz-adv-x="1176" 
d="M1098 58c-8 -16 -21.833 -30.335 -41.5 -43.002s-37.834 -19 -54.501 -19c-6 0 -11 1 -15 3c-56.667 19.333 -98.334 34.666 -125.001 45.999l-34 29c21.333 24.667 40.833 77.834 58.5 159.501s26.5 156.834 26.5 225.501c0 32.667 -2.83301 59 -8.5 79
s-12.5 30.5 -20.5 31.5s-16 1.5 -24 1.5c-56.667 0 -96 -38 -118 -114c-13.333 -46 -22.833 -124.167 -28.5 -234.5s-14.5 -181.166 -26.5 -212.499c-2 -6 -16.333 -9 -43 -9c-37.333 0 -77.5 4.83301 -120.5 14.5s-62.5 20.167 -58.5 31.5c12 32.667 22 73.167 30 121.5
s12 96.166 12 143.499c0 71.333 -8.66699 129 -26 173c-20 50 -49.667 75 -89 75c-35.333 0 -66 -11.333 -92 -34c-21.333 -18.667 -41.666 -47 -60.999 -85c-10 -19.333 -15 -48.666 -15 -87.999c0 -37.333 5.16699 -86.333 15.5 -147l32.5 -185
c0 -6 -0.666992 -9.66699 -2 -11c-4.66699 -4 -21.5 -9 -50.5 -15s-55.833 -9 -80.5 -9c-28 0 -49.333 3.33301 -64 10c-18.667 8.66699 -28 22.334 -28 41.001c-0.666992 3.33301 -1.16699 14.166 -1.5 32.499s-0.5 33.166 -0.5 44.499
c0 32.667 1.16699 89.334 3.5 170.001s3.5 138.334 3.5 173.001v23c0 14.667 -1.16699 38.5 -3.5 71.5s-3.5 56.833 -3.5 71.5c0 10.667 5.33301 18.667 16 24s24.667 8 42 8c19.333 0 39 -3 59 -9s31.667 -12.667 35 -20c1.33301 -2 1 -5.66699 -1 -11
c0 -2 0.333008 -4 1 -6c34.667 10.667 66.667 18.5 96 23.5s55.666 7.5 78.999 7.5c44.667 0 83.667 -8.33301 117 -25l98 -57c2.66699 0 6.66699 0.666992 12 2c48.667 34.667 89.334 62 122.001 82s64.334 30 95.001 30c105.333 0 186.333 -49.333 243 -148
c46.667 -81.333 70 -179 70 -293c0 -34.667 -2.66699 -67.334 -8 -98.001s-13 -55.667 -23 -75z" />
    <glyph glyph-name="n" unicode="n" horiz-adv-x="763" 
d="M672 29c-1.33301 -11.333 -7.50586 -20.1709 -18.5059 -26.5039s-23.167 -9.5 -36.5 -9.5c-5.33301 0 -9.33301 0.333008 -12 1c-79.333 12 -119.666 18.333 -120.999 19c-46 13.333 -70.667 38 -74 74c-0.666992 6.66699 -1 13.667 -1 21v17
c0 50 9.16699 107.833 27.5 173.5l56.5 201.5c0 15.333 -6.33301 23 -19 23c-2.66699 0 -6.66699 -0.666992 -12 -2c-50.667 -13.333 -106.667 -41.666 -168 -84.999c-56 -40 -84 -66.333 -84 -79c0 -38.667 7.83301 -92.667 23.5 -162l48.5 -214c0 -6 -0.666992 -10 -2 -12
s-3.66602 -2.33301 -6.99902 -1c-14 6 -46.333 14.667 -97 26c-89.333 20 -134 36.333 -134 49c0 114.667 1.83301 223.834 5.5 327.501s8.83398 172.5 15.501 206.5c3.33301 16 11.833 28.167 25.5 36.5s30.167 12.5 49.5 12.5c24.667 0 47.334 -7 68.001 -21
c4.66699 -3.33301 7 -10.666 7 -21.999c-2.66699 -22 -4 -35.667 -4 -41c2 -1.33301 4.33301 -2.33301 7 -3c33.333 24 72 44.667 116 62c56.667 22.667 109 34 157 34c25.333 0 49.333 -3.16699 72 -9.5s44.334 -16.5 65.001 -30.5c26 -18.667 44.667 -40.334 56 -65.001
s17 -52.334 17 -83.001c0 -25.333 -12.333 -92.666 -37 -201.999c-12 -53.333 -18 -96.666 -18 -129.999c0 -16 0.666992 -29.167 2 -39.5s6.33301 -19.166 15 -26.499s12.334 -14 11.001 -20z" />
    <glyph glyph-name="o" unicode="o" horiz-adv-x="752" 
d="M705 361c2 -12 3 -24.333 3 -37c0 -86 -41 -164 -123 -234c-77.333 -66 -159 -99 -245 -99c-16.667 0 -31.334 1.33301 -44.001 4c-31.333 6 -55.5 11.833 -72.5 17.5s-39.833 15.167 -68.5 28.5c-38.667 18 -67.5 47.667 -86.5 89s-28.5 89 -28.5 143
c0 95.333 23 182 69 260c49.333 84 108 126 176 126c106.667 0 198 -24.667 274 -74c82.667 -54 131.334 -128.667 146.001 -224zM500 331c6.66699 20 10.002 40.999 10.002 62.999c0 42 -12.333 80.333 -37 115s-57.334 56.667 -98.001 66
c-37.333 8 -78.666 -29.167 -123.999 -111.5s-68 -158.5 -68 -228.5c0 -24 3.16699 -43.667 9.5 -59s17.166 -26.666 32.499 -33.999c10.667 -5.33301 24 -8 40 -8c43.333 0 89.166 19.833 137.499 59.5s80.833 85.5 97.5 137.5z" />
    <glyph glyph-name="p" unicode="p" horiz-adv-x="768" 
d="M722 241c-22.667 -88 -77.3311 -151.668 -163.998 -191.001c-57.333 -26 -127.5 -42 -210.5 -48s-124.5 -12.333 -124.5 -19c0 -37.333 3.66699 -86.333 11 -147s11 -99 11 -115c0 -21.333 -3.33301 -36.333 -10 -45c-16 -20 -41 -30 -75 -30
c-22.667 0 -42.167 5 -58.5 15s-24.5 23.667 -24.5 41c0 22.667 -1.33301 70 -4 142s-5.33398 148 -8.00098 228s-4 152.333 -4 217c0 80.667 2.16699 144.5 6.5 191.5s12.166 72.833 23.499 77.5c38 16.667 94.333 25 169 25c38 0 76 -2.66699 114 -8
s74.667 -14.333 110 -27c62.667 -21.333 119 -63.666 169 -126.999c47.333 -59.333 71 -112.333 71 -159c0 -9.33301 -0.666992 -16.333 -2 -21zM493.003 176.999c18 25.333 30.833 49.3311 38.5 71.998s11.5 44.334 11.5 65.001c0 54.667 -29.333 99.334 -88 134.001
c-47.333 28 -95.333 42 -144 42c-24 0 -36 -4.66699 -36 -14c0 -30 -8.5 -90.333 -25.5 -181s-25.5 -151.667 -25.5 -183c0 -12 1 -23.5 3 -34.5s14.667 -16.5 38 -16.5c32.667 0 72.334 11 119.001 33c51.333 24 87.666 51.667 108.999 83z" />
    <glyph glyph-name="q" unicode="q" horiz-adv-x="816" 
d="M769 539c0 -6 -3.50098 -13.5 -10.501 -22.5s-10.5 -16.5 -10.5 -22.5c0 -52.667 1 -108.167 3 -166.5l6.5 -189.5c2.33301 -68 3.5 -118.667 3.5 -152c0 -59.333 -1.5 -112 -4.5 -158s-8.5 -95.333 -16.5 -148c-2.66699 -16 -11.167 -28.167 -25.5 -36.5
s-31.166 -13.166 -50.499 -14.499c-25.333 0 -52.333 13.5 -81 40.5s-40.334 49.5 -35.001 67.5c10 34 19.5 74.833 28.5 122.5s13.5 86.5 13.5 116.5c0 15.333 -1.33301 27.166 -4 35.499s-7.33398 12.5 -14.001 12.5c-3.33301 0 -8.66602 -2.66699 -15.999 -8
c-14 -12 -35.833 -21 -65.5 -27s-64.5 -9 -104.5 -9c-86 0 -159.333 14 -220 42c-73.333 34 -110 81.667 -110 143c0 48 23.833 108.667 71.5 182s105.5 136 173.5 188c76 58.667 147 88 213 88c24.667 0 45.834 -3.33301 63.501 -10s54 -12.167 109 -16.5
s82.5 -23.5 82.5 -57.5zM517.999 202c10.667 13.333 18.666 32.001 23.999 56.001s8 49 8 75c0 37.333 -4.33301 73 -13 107s-18 53.333 -28 58c-8.66699 4 -36.667 -14.333 -84 -55c-51.333 -43.333 -96 -89 -134 -137c-46.667 -58.667 -70 -106 -70 -142
c0 -8.66699 1.5 -17 4.5 -25s18.5 -12 46.5 -12c42.667 0 88.334 6.66699 137.001 20c56.667 15.333 93 33.666 109 54.999z" />
    <glyph glyph-name="r" unicode="r" horiz-adv-x="712" 
d="M643 399l-13.998 -31.9971c-35.333 -35.333 -72 -53 -110 -53c-10.667 0 -20.834 26.5 -30.501 79.5s-28.167 85.5 -55.5 97.5c-18 8 -35.333 12 -52 12c-36.667 0 -70.667 -18 -102 -54c-26.667 -30.667 -47.334 -69.334 -62.001 -116.001
c-2.66699 -8 -5 -19.5 -7 -34.5s-3 -27.5 -3 -37.5c0 -47.333 9 -97.333 27 -150c15.333 -44.667 29.333 -72.667 42 -84c6.66699 -6 4.66699 -14.333 -6 -25s-20.667 -16 -30 -16c-5.33301 0 -9.33301 2.66699 -12 8s-32.334 12.166 -89.001 20.499s-85 20.166 -85 35.499
c0 34 1 76.333 3 127c4.66699 118 7 194.333 7 229v19c0 20.667 -0.333008 36.667 -1 48c-3.33301 55.333 -5 84 -5 86c0 13.333 11 23.333 33 30c16.667 4 28 6.83301 34 8.5l19 5.5c6.66699 2 13.334 3 20.001 3c4 0 7.33301 -0.333008 10 -1
c5.33301 -0.666992 11.333 -13 18 -37c2.66699 -10 7 -13.667 13 -11c36 16 69.5 27.5 100.5 34.5s60.167 10.5 87.5 10.5c62 0 114.333 -20 157 -60z" />
    <glyph glyph-name="s" unicode="s" horiz-adv-x="944" 
d="M882 73c-24 -26.667 -65.6689 -48.334 -125.002 -65.001s-124.666 -25 -195.999 -25c-100 0 -189.333 15 -268 45c-91.333 34.667 -157.666 86.334 -198.999 155.001c-4.66699 8 9 21.333 41 40s61.333 28 88 28c19.333 0 34.333 -5.66699 45 -17
c2.66699 -3.33301 4 -7.66602 4 -12.999c-0.666992 -6 -1 -10.333 -1 -13c0 -4.66699 1.66699 -8.66699 5 -12c28 -24.667 72 -45.834 132 -63.501s116 -26.5 168 -26.5c46 0 79.333 7 100 21c9.33301 6.66699 14 13.667 14 21c0 22 -55.333 50.667 -166 86l-308 92
c-110.667 36 -166 66.333 -166 91c0 3.33301 1 7 3 11c26.667 46 108.667 94.667 246 146s257.666 77 360.999 77c43.333 0 78 -5 104 -15s45 -22.333 57 -37c10 -12 15 -25.333 15 -40c0 -13.333 -3.83301 -24.833 -11.5 -34.5s-16.5 -14.5 -26.5 -14.5
c-78 0 -154.167 -2.33301 -228.5 -7s-137.5 -12.334 -189.5 -23.001c-66 -13.333 -108.667 -30.666 -128 -51.999c-4 -4.66699 -3.16699 -11 2.5 -19s11.834 -12 18.501 -12c45.333 0 118 -15.667 218 -47c108 -34 198.667 -71 272 -111c88.667 -48.667 133 -92 133 -130
c0 -14 -4.66699 -26 -14 -36z" />
    <glyph glyph-name="t" unicode="t" 
d="M872 550c-2 -3.33301 -8.00488 -5.66699 -18.0049 -7s-23 -2 -39 -2c-20 0 -44 0.666992 -72 2c-69.333 3.33301 -111.666 5 -126.999 5c-17.333 0 -32.5 -0.666992 -45.5 -2s-19.833 -5.33301 -20.5 -12s-1 -13.667 -1 -21v-16
c0 -71.333 9.83301 -160.166 29.5 -266.499s40.167 -179.833 61.5 -220.5c4 -6.66699 2 -12 -6 -16s-20.667 -6 -38 -6c-51.333 0 -104.333 12 -159 36c-66 28.667 -101 64 -105 106c-1.33301 8.66699 -2.16602 21.5 -2.49902 38.5s-0.5 30.833 -0.5 41.5c0 44 3 102 9 174
s9 114 9 126c0 5.33301 -5.66699 9.33301 -17 12s-25.666 4 -42.999 4c-16 0 -43.667 -1.33301 -83 -4s-66.666 -4 -81.999 -4h-16c-6.66699 1.33301 -11.334 2 -14.001 2c-13.333 2 -22.833 8.83301 -28.5 20.5s-8.5 25.5 -8.5 41.5c0 10.667 54.833 22.667 164.5 36
s165.334 41.5 167.001 84.5s4.83398 86.5 9.50098 130.5c8.66699 82.667 27.667 124 57 124c6 0 10.667 -0.666992 14 -2l74 -23c24 -10 42 -25.667 54 -47c2 -3.33301 3 -8.33301 3 -15c0 -13.333 -5.5 -44.333 -16.5 -93s-16.5 -82.334 -16.5 -101.001v-11
c0.666992 -9.33301 11.667 -14 33 -14c14.667 0 44 3.66699 88 11s75.333 11 94 11s32 -2.66699 40 -8c42.667 -28 64 -54.333 64 -79c0 -10.667 -4 -22.667 -12 -36z" />
    <glyph glyph-name="u" unicode="u" horiz-adv-x="784" 
d="M697 635c16 -18.667 27.501 -47.668 34.501 -87.001s10.5 -85.333 10.5 -138c0 -63.333 -4.66699 -122.666 -14 -177.999s-21 -91.333 -35 -108c-32.667 -40.667 -75.834 -73.334 -129.501 -98.001s-111.5 -37 -173.5 -37c-16 0 -28.333 0.333008 -37 1
s-21.334 2.66699 -38.001 6c-91.333 16 -161.666 77.667 -210.999 185c-40 87.333 -60 184.333 -60 291c0 47.333 4.66699 86.333 14 117s21.333 45 36 43c4 -0.666992 10.667 -1 20 -1s24 1 44 3s34 3 42 3c15.333 0 26.5 -2.33301 33.5 -7s9.5 -13.334 7.5 -26.001
c-6 -46 -9 -97 -9 -153c0 -105.333 9.66699 -192.666 29 -261.999c23.333 -82.667 56 -124 98 -124c6 0 10.333 0.333008 13 1c59.333 11.333 101.666 40 126.999 86c20.667 38 31 88.667 31 152c0 42 -5.5 97.333 -16.5 166s-16.5 109.334 -16.5 122.001
c0 24.667 5.66699 38 17 40l82.5 22.5c18.333 5 32.833 7.5 43.5 7.5s20.834 -2 30.501 -6s18.5 -11 26.5 -21z" />
    <glyph glyph-name="v" unicode="v" horiz-adv-x="784" 
d="M718 622c5.33301 -6.66699 8.00098 -17.333 8.00098 -32c0 -35.333 -11.833 -87 -35.5 -155s-51.167 -129 -82.5 -183l-94 -163c-38 -54.667 -78.333 -86.667 -121 -96c-4.66699 -1.33301 -10.334 -2.33301 -17.001 -3s-12.667 -1 -18 -1
c-59.333 0 -115.333 35.667 -168 107c-44.667 60 -81.667 137.333 -111 232c-26.667 85.333 -40 159.666 -40 222.999c0 55.333 11.333 83 34 83c2 0 6 -1 12 -3s27.833 -5.33301 65.5 -10s56.5 -19 56.5 -43c0 -41.333 10.667 -107.666 32 -198.999
c25.333 -108 51 -173 77 -195l60 90c26 62 50.333 132.833 73 212.5s33 129 31 148s3.33301 33 16 42s30.334 13.5 53.001 13.5c29.333 0 60.166 -6.5 92.499 -19.5s57.833 -29.167 76.5 -48.5z" />
    <glyph glyph-name="w" unicode="w" horiz-adv-x="1352" 
d="M1293 542c-4 -2.66699 -12.5 -5.49707 -25.5 -8.49707s-21.833 -8.16699 -26.5 -15.5c-30.667 -46.667 -53.667 -116.334 -69 -209.001c-6.66699 -40 -15 -112.333 -25 -217c-6.66699 -66.667 -15.834 -101 -27.501 -103s-27.834 -3 -48.501 -3
c-30 0 -64.333 2.66699 -103 8c-54.667 8 -110.667 43.333 -168 106c-32 35.333 -72 89.666 -120 162.999l-63 73c-14.667 -10.667 -31.667 -40.334 -51 -89.001c-10.667 -26.667 -27 -73.667 -49 -141c-19.333 -59.333 -33.666 -97.666 -42.999 -114.999
c-6 -12 -16 -18 -30 -18c-7.33301 0 -21.666 3.33301 -42.999 10s-38 9.33398 -50 8.00098c-50.667 -5.33301 -99.667 29.334 -147 104.001c-40 62.667 -73.667 143 -101 241c-24.667 88 -37 160.333 -37 217c0 32.667 5 50 15 52c22 4.66699 40.167 8 54.5 10
s29.166 3 44.499 3c21.333 0 38.166 -3.66699 50.499 -11s18.5 -19.333 18.5 -36c-0.666992 -7.33301 -1 -13 -1 -17c0 -56 15 -130.667 45 -224s55.667 -140 77 -140c6.66699 0 12 5.33301 16 16l110 271c36.667 79.333 66.334 129 89.001 149
c4 3.33301 9.66699 5.66602 17 6.99902s16 2 26 2c24.667 0 50.167 -3.33301 76.5 -10s42.5 -14.334 48.5 -23.001c10 -15.333 16 -46.166 18 -92.499s6.66699 -80.833 14 -103.5c13.333 -42.667 23.333 -72.667 30 -90c17.333 -44 43.333 -86.667 78 -128l16 70
c6 87.333 12 150.666 18 189.999c12.667 81.333 32.334 139 59.001 173c12.667 15.333 43.334 23 92.001 23c51.333 0 103.166 -7.83301 155.499 -23.5s78.5 -33.167 78.5 -52.5c0 -8.66699 -6.33301 -17.334 -19 -26.001z" />
    <glyph glyph-name="x" unicode="x" horiz-adv-x="896" 
d="M821 597c-24.667 -22.667 -67.9971 -54.665 -129.997 -95.998c-90 -60.667 -136.333 -92 -139 -94c-42 -30.667 -60.667 -50 -56 -58c20.667 -34.667 52.334 -75.667 95.001 -123l115 -123c43.333 -46 71.333 -79 84 -99c2 -2.66699 1.66699 -5 -1 -7
c-4 -3.33301 -9.33301 -4.66602 -16 -3.99902h-22c-44 0 -82 2.33301 -114 7c-53.333 8 -97.333 22.333 -132 43c-22.667 13.333 -44.667 61.666 -66 144.999c-8.66699 32.667 -19.667 47.667 -33 45c-20.667 -4 -44.334 -26.667 -71.001 -68l-63 -112
c-22 -39.333 -37 -58.333 -45 -57c-43.333 7.33301 -80 16.666 -110 27.999c-36.667 14 -54 28 -52 42c2.66699 17.333 22 47.333 58 90l108 126c41.333 47.333 64.666 77.666 69.999 90.999c5.33301 12.667 -7.66699 30.667 -39 54
c-76.667 58 -116.334 92.667 -119.001 104c-4 14 4 21.833 24 23.5s34 3 42 4s14.667 1.5 20 1.5c22.667 0 50.667 -11.667 84 -35c64.667 -45.333 99 -66.666 103 -63.999c32 50 61.167 93.667 87.5 131s59.166 65.666 98.499 84.999c13.333 6.66699 27 10 41 10
c18 0 39.333 -5.66699 64 -17l41 -20c22 -8 38.333 -14.333 49 -19c20 -8.66699 30 -16.667 30 -24c0 -2.66699 -2 -6 -6 -10z" />
    <glyph glyph-name="y" unicode="y" horiz-adv-x="912" 
d="M851 544c-105.333 -97.333 -208.331 -247.333 -308.998 -450c-56 -112 -124.333 -273.667 -205 -485c-57.333 -150 -92.333 -224 -105 -222c-38 5.33301 -65.333 11.333 -82 18c-34.667 13.333 -52 33 -52 59c0 32 14.667 77 44 135l83.5 159
c28.333 54.667 42.5 99 42.5 133c0 18 -19 70.667 -57 158c-58.667 134 -94.334 217.333 -107.001 250c-38.667 98.667 -58 168 -58 208c0 12 1.33301 21.667 4 29c7.33301 20 24 30 50 30c21.333 0 43.666 -5.83301 66.999 -17.5s40 -24.5 50 -38.5
c14 -20 28.667 -64.667 44 -134l40 -192c16.667 -73.333 33.667 -123.666 51 -150.999c2.66699 -4.66699 6 -7 10 -7c12.667 0 31 51 55 153c36.667 154 60.667 248.667 72 284c32.667 102 66 153 100 153c81.333 0 139 -1.66699 173 -5
c70 -6.66699 105 -20.334 105 -41.001c0 -7.33301 -5.33301 -16 -16 -26z" />
    <glyph glyph-name="z" unicode="z" horiz-adv-x="1080" 
d="M1024 145c-74 0 -174.333 -10.999 -301 -32.999c-80 -14 -188 -35.667 -324 -65c-127.333 -27.333 -205 -43 -233 -47c-12.667 -2 -23.834 7.33301 -33.501 28s-14.5 42.334 -14.5 65.001c0 18 3.33301 30.667 10 38c18 19.333 55.667 51.666 113 96.999l167 129
c64.667 50 111.334 88 140.001 114c4.66699 4.66699 7 8 7 10c0 2.66699 -3.33301 4 -10 4c-15.333 0 -53 -8 -113 -24l-171 -45c-68.667 -16.667 -116.667 -25 -144 -25c-10.667 0 -19 1 -25 3c-13.333 4 -23.333 11.333 -30 22s-10 22.667 -10 36
c0 20.667 6.83301 38 20.5 52s33.167 22.333 58.5 25c46 4.66699 69.667 7.33398 71 8.00098l341 85c115.333 28 215 42 299 42c30.667 0 52 -0.5 64 -1.5s26.833 -2.83301 44.5 -5.5s30.334 -11 38.001 -25s11.5 -29.667 11.5 -47c0 -24.667 -7 -40.667 -21 -48l-149 -73
c-72 -35.333 -130.333 -67.333 -175 -96c-64.667 -40.667 -122.667 -85.667 -174 -135c-5.33301 -4.66699 -8 -8.33398 -8 -11.001l77 17c81.333 27.333 139.666 45.666 174.999 54.999c80.667 22 144.667 33 192 33c11.333 0 20 -0.333008 26 -1s15.333 -2.16699 28 -4.5
s25.667 -23 39 -62s20 -71.167 20 -96.5c0 -12 -2 -18 -6 -18z" />
    <glyph glyph-name="braceleft" unicode="{" horiz-adv-x="640" 
d="M64 520l51.002 20c10 5.33301 38.333 28 85 68c30.667 26 55.334 70.333 74.001 133c12 40 23 96.333 33 169s17 116 21 130c16 54 26.667 85.333 32 94c16.667 29.333 42.667 44 78 44c8.66699 0 17.167 -0.666992 25.5 -2s19.166 -4 32.499 -8
c25.333 -7.33301 42.166 -12.833 50.499 -16.5s12.5 -7.16699 12.5 -10.5c-16 -12.667 -32.667 -28 -50 -46c-20 -20.667 -35 -44.167 -45 -70.5s-18 -65.5 -24 -117.5c-14.667 -124.667 -22.667 -189.667 -24 -195c-18.667 -73.333 -48.334 -128.666 -89.001 -165.999
c-13.333 -12 -31.666 -23.333 -54.999 -34c24 -16.667 50 -45 78 -85c32.667 -46.667 57.334 -95.667 74.001 -147l56 -312c10.667 -28 25 -51.333 43 -70l52 -47c0 -4 -8.16699 -8.83301 -24.5 -14.5s-29.166 -9.83398 -38.499 -12.501c-22 -6.66699 -41.667 -10 -59 -10
c-40 0 -68.667 21.667 -86 65c-2.66699 6 -10.334 30.333 -23.001 73c-14 114.667 -30.333 208.167 -49 280.5s-44.834 122.833 -78.501 151.5s-63.834 57 -90.501 85c-18 19.333 -38.667 36.333 -62 51z" />
    <glyph glyph-name="bar" unicode="|" horiz-adv-x="432" 
d="M120 1072h192v-1088h-200z" />
    <glyph glyph-name="braceright" unicode="}" horiz-adv-x="640" 
d="M588 520c-23.333 -14.667 -43.999 -31.667 -61.999 -51c-26.667 -28 -56.667 -56.333 -90 -85c-30.667 -26 -55.334 -70.333 -74.001 -133c-12 -40 -23 -96.333 -33 -169s-17 -116 -21 -130c-16 -54 -26.667 -85.333 -32 -94c-16.667 -29.333 -42.667 -44 -78 -44
c-8.66699 0 -17.167 0.666992 -25.5 2s-19.166 4 -32.499 8c-25.333 7.33301 -42.166 12.833 -50.499 16.5s-12.5 7.16699 -12.5 10.5c16 12.667 32.667 28 50 46c20 20.667 35.5 45.334 46.5 74.001s20.833 81.5 29.5 158.5s17 127.167 25 150.5
c17.333 52.667 41.666 101.667 72.999 147c27.333 39.333 53.666 67.666 78.999 84.999c-13.333 4.66699 -24.333 10 -33 16c-51.333 35.333 -88.333 96.666 -111 183.999c-0.666992 1.33301 -8.33398 66 -23.001 194c-6 50.667 -14.333 90 -25 118s-25 51.333 -43 70
l-52 47c0 4 7 8.33301 21 13c18.667 6.66699 32.667 11.334 42 14.001c22 6.66699 41.667 10 59 10c40 0 68.667 -21.667 86 -65c2.66699 -6 10.334 -30.333 23.001 -73c14 -114.667 30.333 -208.167 49 -280.5s45 -122.833 79 -151.5c46.667 -40 75 -62.667 85 -68
c14.667 -5.33301 31.667 -12 51 -20z" />
    <glyph glyph-name="asciitilde" unicode="~" horiz-adv-x="824" 
d="M780 465c-19.333 -13.333 -37.332 -24.168 -53.999 -32.501s-42.667 -18.5 -78 -30.5c-13.333 -4 -26 -6 -38 -6c-28 0 -66 11.333 -114 34l-162 77c-22 10 -44.333 15 -67 15c-34.667 0 -70.334 -13.667 -107.001 -41l-78 -61l-47 82c42 30 76 53 102 69
c48.667 30 94.667 45 138 45c18 0 33.833 -1.5 47.5 -4.5s30.167 -8.5 49.5 -16.5c29.333 -12.667 73.333 -36.667 132 -72c40 -24 70.333 -36 91 -36c8 0 15.667 1.33301 23 4c29.333 10 50.5 18.333 63.5 25s27.167 15.334 42.5 26.001z" />
    <glyph glyph-name="exclamdown" unicode="&#xa1;" horiz-adv-x="547" 
d="M405 756c4 -11.333 -9 -22.999 -39 -34.999s-62.333 -18 -97 -18c-18.667 0 -36 2.66699 -52 8s-27.333 15.166 -34 29.499s-10 32.166 -10 53.499c0 16.667 1.5 34.334 4.5 53.001s6.16699 36.667 9.5 54c3.33301 24.667 21 43 53 55
c25.333 9.33301 55.666 14 90.999 14c29.333 0 46.333 -2.83301 51 -8.5s7.33398 -16.5 8.00098 -32.5s1 -28.333 1 -37c0 -34 0.5 -60 1.5 -78s5.16699 -37.333 12.5 -58zM472 101.001c1.33301 -4 2.00488 -9.66602 2.00488 -16.999c0 -25.333 -19 -44.666 -57 -57.999
c-32.667 -11.333 -73.334 -17 -122.001 -17c-36 0 -67.5 3 -94.5 9s-41.5 13.667 -43.5 23c-2 8.66699 1.33301 19 10 31s13 21.667 13 29c0 58.667 -0.333008 110.834 -1 156.501l-2 134.5c0 39.333 0.666992 78 2 116s4 79 8 123c0 10.667 10 19.5 30 26.5
s43.667 10.5 71 10.5c29.333 0 55.5 -4 78.5 -12s36.833 -68.333 41.5 -181c2.66699 -72.667 6.66699 -127.334 12 -164.001c3.33301 -26.667 6.66602 -48 9.99902 -64c11.333 -56.667 17.666 -90.834 18.999 -102.501s5.16602 -20.834 11.499 -27.501
s10.166 -12 11.499 -16z" />
    <glyph glyph-name="cent" unicode="&#xa2;" horiz-adv-x="728" 
d="M218 9l-26 6c-54 14 -96 43.333 -126 88s-45 96.667 -45 156c0 66.667 18 129.667 54 189c39.333 65.333 96.666 118.333 171.999 159l8 153l120 -5l1 -104c12 2 24.333 3 37 3c25.333 0 45.5 -4.66699 60.5 -14s22.5 -24.666 22.5 -45.999
c0 -19.333 -0.166992 -38.333 -0.5 -57s-0.5 -37 -0.5 -55c0 -58.667 2.66699 -104.667 8 -138s17 -60.666 35 -81.999c3.33301 -4.66699 2.83301 -8.33398 -1.5 -11.001s-14.833 -4 -31.5 -4c-9.33301 0 -20 0.666992 -32 2s-28 3.33301 -48 6c-21.333 4 -37 6.66699 -47 8
l1 -143c15.333 4 66.333 19 153 45c59.333 18 101.333 27 126 27c18.667 -2 28 -14 28 -36c0 -17.333 -4.66699 -35.833 -14 -55.5s-21 -35.5 -35 -47.5c-24 -22 -58.667 -38.167 -104 -48.5s-96.666 -15.5 -153.999 -15.5l1 -134
c-28.667 -2.66699 -65 -6.33398 -109 -11.001l-61 -4zM239 435c-19.333 -32.667 -34.999 -66.334 -46.999 -101.001c-14.667 -41.333 -22 -78 -22 -110c0 -24 4.16699 -44.667 12.5 -62s22.166 -30.666 41.499 -39.999z" />
    <glyph glyph-name="sterling" unicode="&#xa3;" horiz-adv-x="840" 
d="M280 240c4.66699 -1.33301 10.333 -2.33496 17 -3.00195s12.667 -1 18 -1c42.667 0 98.334 23.333 167.001 70s115.334 70 140.001 70c4.66699 0 8.33398 -0.333008 11.001 -1c33.333 -5.33301 66.833 -26.166 100.5 -62.499s50.5 -69.5 50.5 -99.5
c0 -21.333 -10.333 -35.666 -31 -42.999l-290 -99l-213 -67l-118 -37c-11.333 -3.33301 -24.5 -7.5 -39.5 -12.5s-27.5 -7.5 -37.5 -7.5c-14.667 0 -26.667 6 -36 18s-20 34.667 -32 68c-3.33301 11.333 -5 20 -5 26c0 19.333 11.667 35.333 35 48l67 33
c8.66699 5.33301 18 10.333 28 15l49 20c-7.33301 46 -14.333 83.333 -21 112c-14.667 66 -22 108 -22 126c0 12 -6.33301 18 -19 18c-8.66699 0 -26.834 -5.16699 -54.501 -15.5s-46.834 -15.5 -57.501 -15.5c-13.333 0 -22 6 -26 18c-0.666992 2 -1 5.33301 -1 10
c0 10.667 4.66699 20.334 14 29.001c6.66699 6 17.334 13 32.001 21c6 3.33301 14 5 24 5c6 0 15.5 -1.16699 28.5 -3.5s20.833 -3.5 23.5 -3.5c12 0 19 5.66699 21 17l19 161c12 81.333 28.333 146.333 49 195c27.333 64.667 62.333 101 105 109c12 2 25.667 3 41 3
c35.333 0 71 -5.33301 107 -16s54 -21.334 54 -32.001c0 -68.667 1.5 -126.5 4.5 -173.5s6.5 -97.5 10.5 -151.5c0 -13.333 -5 -20 -15 -20c-68.667 0 -118.334 15 -149.001 45c-24.667 24 -37 57 -37 99c0 25.333 4.33301 52.833 13 82.5s14 45.834 16 48.501
c-33.333 -48.667 -57.333 -104.334 -72 -167.001c-5.33301 -23.333 -14 -79.333 -26 -168c-3.33301 -23.333 8 -35 34 -35c10 0 30.333 3 61 9s54 9 70 9c12.667 0 22.667 -0.833008 30 -2.5s15 -5.16699 23 -10.5c14 -9.33301 23 -16 27 -20c14 -12.667 20 -27.667 18 -45
c-2 -10 -16 -15 -42 -15c-17.333 0 -47 2.66699 -89 8s-69.667 8 -83 8c-9.33301 0 -16.333 -0.833008 -21 -2.5s-6.33398 -4.5 -5.00098 -8.5c-2 -9.33301 -3 -18.333 -3 -27c0 -26 6 -56.333 18 -91c4 -11.333 10.333 -26.333 19 -45z" />
    <glyph glyph-name="yen" unicode="&#xa5;" horiz-adv-x="1176" 
d="M601 370l-1 -24.999l3 -30h183v-45h-169c2.66699 -6.66699 32.667 -50.334 90 -131.001c18.667 -26.667 28 -48 28 -64c0 -25.333 -11.833 -45.666 -35.5 -60.999s-51.5 -23 -83.5 -23c-32.667 0 -60.667 8 -84 24c-12 8 -33.333 17 -64 27
c-47.333 15.333 -71 36.333 -71 63c0 25.333 -2.33301 50.166 -7 74.499s-12 54.5 -22 90.5h-228l5 45h210l-19 55h-201l5 45h179c-26 65.333 -57.333 132.333 -94 201c-26 50 -58.667 107.333 -98 172l-75 122c-3.33301 6.66699 -5 11.667 -5 15
c0 10 8.83301 16.833 26.5 20.5s39.834 5.5 66.501 5.5c10.667 0 21.167 -0.166992 31.5 -0.5s20.5 -0.5 30.5 -0.5c39.333 0 80 -25.333 122 -76c33.333 -40 65.333 -92.333 96 -157c22.667 -48 40 -92 52 -132c0.666992 -4.66699 3.66699 -7 9 -7
c12 0 44.667 30.333 98 91c74.667 85.333 128 143.333 160 174c66 64 119.667 98 161 102c4 0.666992 10.333 1 19 1c44 0 89 -11 135 -33s64.667 -41.333 56 -58c-4.66699 -8.66699 -46.334 -35.667 -125.001 -81c-94 -54 -167.333 -103.333 -220 -148
c-83.333 -70 -135 -140.333 -155 -211h171v-45h-180z" />
    <glyph glyph-name="section" unicode="&#xa7;" 
d="M101 500c23.333 -62 102.999 -105.667 238.999 -131l355 -48c122.667 -22 184 -60.667 184 -116c0 -10 -1.33301 -20 -4 -30c-18 -67.333 -71.667 -121 -161 -161c-81.333 -36.667 -173 -55 -275 -55c-91.333 0 -166 14.667 -224 44c-64.667 32.667 -97 78 -97 136
c0 16 2.16699 31.333 6.5 46s15.5 22 33.5 22c8.66699 0 18 -1.33301 28 -4c2.66699 -0.666992 19.667 -6.66699 51 -18c13.333 -4.66699 23.5 -18.667 30.5 -42s16.5 -37.333 28.5 -42s24.667 -7 38 -7c36.667 0 75.334 9.66699 116.001 29s61 37.333 61 54
c0 8.66699 -6.33301 14.667 -19 18c-58 15.333 -98.333 26.333 -121 33c-38 11.333 -73 28.666 -105 51.999c-44 31.333 -82 64.333 -114 99c-38.667 41.333 -58 74 -58 98c0 8.66699 2.33301 16.334 7 23.001zM783.999 350c-36 10.667 -83.002 17.167 -141.002 19.5
s-94.333 4.83301 -109 7.5c-162.667 24.667 -282.667 64.667 -360 120c-67.333 48 -101 106 -101 174c0 67.333 33 138 99 212c58.667 66 131.667 122.5 219 169.5s162.333 70.5 225 70.5c31.333 0 56.666 -7 75.999 -21l24 -14c8.66699 -6 13 -13 13 -21
c0 -54.667 10 -117 30 -187c4 -14.667 22.667 -69.667 56 -165c20 -57.333 30 -98.333 30 -123c0 -22 -5.66699 -38.333 -17 -49s-31.666 -16 -60.999 -16c-39.333 0 -69 8.66699 -89 26c-29.333 32 -59.666 61.667 -90.999 89c-38 33.333 -59.667 91.166 -65 173.499
s-11.333 131.166 -18 146.499c-3.33301 6 -7.66602 9 -12.999 9c-25.333 0 -59 -34.333 -101 -103c-44.667 -73.333 -67 -140 -67 -200c0 -14.667 0.5 -25 1.5 -31s3.5 -14.333 7.5 -25c23.333 -61.333 86 -103.666 188 -126.999l262 -41
c88.667 -18.667 133 -53.667 133 -105c0 -13.333 -1.66699 -26 -5 -38c-24 14.667 -45.667 25.334 -65 32.001z" />
    <glyph glyph-name="dieresis" unicode="&#xa8;" horiz-adv-x="600" 
d="M279 869l-51.001 -40.501c-18 -13.667 -33.333 -20.5 -46 -20.5c-4 0 -7 0.333008 -9 1c-23.333 10 -51.666 31.333 -84.999 64c-36.667 36.667 -55 65.334 -55 86.001c2 14 14 27 36 39c28 14.667 45.667 28 53 40c20.667 -2.66699 51.667 -23.667 93 -63
c44 -42 66 -74 66 -96c0 -4.66699 -0.666992 -8 -2 -10zM553.999 903.999l-51.001 -40.501c-18 -13.667 -33.333 -20.5 -46 -20.5c-4 0 -7 0.333008 -9 1c-23.333 10 -51.666 31.333 -84.999 64c-36.667 36.667 -55 65.334 -55 86.001c2 14 14 27 36 39
c28 14.667 45.667 28 53 40c20.667 -2.66699 51.667 -23.667 93 -63c44 -42 66 -74 66 -96c0 -4.66699 -0.666992 -8 -2 -10z" />
    <glyph glyph-name="copyright" unicode="&#xa9;" horiz-adv-x="513" 
d="M468 863c0 -55.333 -20 -103 -60 -143s-87.667 -60 -143 -60c-56 0 -104 19.667 -144 59s-60 87.333 -60 144c0 56 20 103.667 60 143s88 59 144 59c55.333 0 103 -19.667 143 -59s60 -87 60 -143zM426 865c0 44 -15.667 81.666 -47 112.999s-69.333 47 -114 47
c-44 0 -81.833 -15.833 -113.5 -47.5s-47.5 -69.167 -47.5 -112.5c0 -44 15.667 -81 47 -111s69.333 -45 114 -45c45.333 0 83.5 14.833 114.5 44.5s46.5 66.834 46.5 111.501zM390 826.999c0 -4.66699 -21.167 -13.332 -63.5 -25.999s-80.166 -19 -113.499 -19
c-24.667 0 -43.334 2 -56.001 6c-24 8 -36 22.333 -36 43c0 29.333 14.667 58.666 44 87.999c36.667 36.667 82.334 55 137.001 55c14 0 27.5 -1.66699 40.5 -5s19.5 -9.33301 19.5 -18c-4 -5.33301 -6.66699 -8 -8 -8l-6 4c-2.66699 2.66699 -7 5 -13 7
c-10.667 4 -24.334 6 -41.001 6c-40.667 0 -74 -16 -100 -48c-21.333 -26 -32 -50.333 -32 -73c0 -13.333 8.33301 -23.333 25 -30s35.667 -10 57 -10c36 0 69 7.33301 99 22l37 22z" />
    <glyph glyph-name="ordfeminine" unicode="&#xaa;" horiz-adv-x="450" 
d="M412 525c-2 -5.33301 -10.666 -7.99707 -25.999 -7.99707c-6 0 -12.833 0.666992 -20.5 2s-13.167 2.66602 -16.5 3.99902c-1.33301 0.666992 -3 2.66699 -5 6c-2 4 -4 6 -6 6s-5.66699 -2.66699 -11 -8c-7.33301 -8.66699 -21.333 -15.667 -42 -21
s-43.334 -8 -68.001 -8c-20 0 -44.5 2 -73.5 6s-49.5 11.5 -61.5 22.5s-18 25.167 -18 42.5c0 9.33301 2 20.666 6 33.999c2 6.66699 6 18.667 12 36c12.667 36 35.834 64.667 69.501 86s69.5 32 107.5 32c22 0 41.667 -3.33301 59 -10
c3.33301 -1.33301 5.66602 -0.666016 6.99902 2.00098s2 7.33398 2 14.001c0 14.667 -3.5 30.667 -10.5 48s-15.333 28.166 -25 32.499s-18.167 6.5 -25.5 6.5c-22 0 -54.333 -11 -97 -33l-85 -48c-4 -2 -8.66699 -3 -14 -3c-12 0 -23 4.66699 -33 14s-15 19.333 -15 30
c0 2 0.666992 5 2 9c8.66699 18 33 35.333 73 52c44.667 18.667 89 28 133 28c41.333 0 76.833 -8.33301 106.5 -25s52.167 -52.334 67.5 -107.001c12.667 -44.667 19 -94.334 19 -149.001c0 -44 -3.66699 -75 -11 -93zM327.001 583.003
c8.66699 13.333 16.001 28.001 22.001 44.001s9 31.333 9 46c0 12 -2.66699 21.333 -8 28s-14.333 10 -27 10c-24.667 0 -55.334 -14.333 -92.001 -43s-59.667 -56 -69 -82c-4 -12 -6 -21.667 -6 -29c0 -14.667 5.33301 -22.334 16 -23.001c26.667 0 57.5 5.66699 92.5 17
s55.833 22 62.5 32zM45.002 435.004h370v-60h-365z" />
    <glyph glyph-name="guillemotleft" unicode="&#xab;" horiz-adv-x="896" 
d="M526 101c-2.66699 -4.66699 -7.33008 -13.832 -13.9971 -27.499s-10.667 -22.834 -12 -27.501c-2 -4 -4.66699 -6 -8 -6c-4.66699 0 -16 4.33301 -34 13c-11.333 5.33301 -52.333 41.333 -123 108l-187 180l-97 96l28 62l65 154l52 123l57 156
c32.667 88 51.334 132 56.001 132h1c4 2.66699 12.333 10.334 25 23.001c3.33301 3.33301 6.66602 5.66602 9.99902 6.99902s6.66602 2 9.99902 2c6 0 11 -2 15 -6c7.33301 -2 12.666 -3.66699 15.999 -5c11.333 -5.33301 16 -12.333 14 -21
c-4 -18.667 -23.667 -77 -59 -175l-97 -266l-51 -137c6.66699 -9.33301 30.667 -39 72 -89l131 -157c49.333 -58 79.666 -92.333 90.999 -103c8 -8 18.667 -16.667 32 -26c6 -4 8.33301 -7.33301 7 -10zM813.004 129.002
c-2.66699 -4.66699 -7.33008 -13.832 -13.9971 -27.499s-10.667 -22.834 -12 -27.501c-2 -4 -4.66699 -6 -8 -6c-4.66699 0 -16 4.33301 -34 13c-11.333 5.33301 -52.333 41.333 -123 108l-187 180l-97 96l28 62l65 154l52 123l57 156c32.667 88 51.334 132 56.001 132h1
c4 2.66699 12.333 10.334 25 23.001c3.33301 3.33301 6.66602 5.66602 9.99902 6.99902s6.66602 2 9.99902 2c6 0 11 -2 15 -6c7.33301 -2 12.666 -3.66699 15.999 -5c11.333 -5.33301 16 -12.333 14 -21c-4 -18.667 -23.667 -77 -59 -175l-97 -266l-51 -137
c6.66699 -9.33301 30.667 -39 72 -89l131 -157c49.333 -58 79.666 -92.333 90.999 -103c8 -7.33301 18.667 -16 32 -26c6 -4 8.33301 -7.33301 7 -10z" />
    <glyph glyph-name="registered" unicode="&#xae;" horiz-adv-x="513" 
d="M468 863c0 -55.333 -20 -103 -60 -143s-87.667 -60 -143 -60c-56 0 -104 19.667 -144 59s-60 87.333 -60 144c0 56 20 103.667 60 143s88 59 144 59c55.333 0 103 -19.667 143 -59s60 -87 60 -143zM426 865c0 44 -15.667 81.666 -47 112.999s-69.333 47 -114 47
c-44 0 -81.833 -15.833 -113.5 -47.5s-47.5 -69.167 -47.5 -112.5c0 -44 15.667 -81 47 -111s69.333 -45 114 -45c45.333 0 83.5 14.833 114.5 44.5s46.5 66.834 46.5 111.501zM390 775.999c-4.66699 -4.66699 -8.33398 -8 -11.001 -10c-8.66699 -6.66699 -15 -10 -19 -10
c-6 2 -10.667 3.33301 -14 4c-10.667 3.33301 -18.667 7.33301 -24 12l-97 84c-3.33301 2 -5.33301 3.66699 -6 5c-0.666992 0 -1 0.333008 -1 1l4 4c4 3.33301 7.33301 5 10 5l15 -2.5c6 -1 12 -1.5 18 -1.5c46 0 69 12.333 69 37c0 2.66699 -0.666992 8 -2 16
c-3.33301 12 -9.66602 19.667 -18.999 23s-22.333 5 -39 5c-10 0 -21.333 -1 -34 -3s-22.667 -3.33301 -30 -4c0 -12 -0.666992 -22.333 -2 -31c-4.66699 -30.667 -7 -47.334 -7 -50.001c0 -15.333 2.5 -30.5 7.5 -45.5s10.167 -29.167 15.5 -42.5c0 -2.66699 -2 -4 -6 -4
c-8 0 -16.167 2.83301 -24.5 8.5s-12.5 9.83398 -12.5 12.501l1 12l8 138c-10.667 -2.66699 -19.5 -6.83398 -26.5 -12.501s-11.167 -8.5 -12.5 -8.5c-2 1.33301 -3.33301 2.33301 -4 3c-6 6 -9 10.333 -9 13c0 3.33301 2.83301 5.83301 8.5 7.5
s20.167 3.83398 43.5 6.50098v10l4 3c4 -0.666992 6.66699 -1.33398 8 -2.00098c5.33301 -2 8.33301 -5 9 -9c10.667 1.33301 18.667 2 24 2c22.667 2 39 3 49 3c63.333 0 95 -11.667 95 -35c0 -24.667 -8 -42 -24 -52c-12 -7.33301 -29 -11 -51 -11
c-13.333 0 -24 0.333008 -32 1s-14.333 1.33398 -19 2.00098l43 -30c26 -18.667 46 -32 60 -40s23.333 -12 28 -12c2.66699 0 4.66699 -0.666992 6 -2z" />
    <glyph glyph-name="macron" unicode="&#xaf;" horiz-adv-x="297" 
d="M301 657h-305v70h305v-70z" />
    <glyph glyph-name="degree" unicode="&#xb0;" horiz-adv-x="296" 
d="M63 875c24 32 55.668 47.998 95.001 47.998c23.333 0 45.333 -7.33301 66 -22c31.333 -23.333 47 -54.666 47 -93.999c0 -24 -7 -46 -21 -66c-10.667 -15.333 -24.334 -27.166 -41.001 -35.499s-34.667 -12.5 -54 -12.5c-24 0 -46 7 -66 21c-32 24 -48 55.667 -48 95
c0 23.333 7.33301 45.333 22 66zM89.001 845.998c14.667 24.667 37 36.999 67 36.999c14.667 0 28 -3.66699 40 -11c25.333 -15.333 38 -37.666 38 -66.999c0 -15.333 -3.66699 -29 -11 -41c-14.667 -24.667 -37 -37 -67 -37c-14 0 -27.667 4 -41 12
c-25.333 14 -38 36 -38 66c0 14 4 27.667 12 41z" />
    <glyph glyph-name="plusminus" unicode="&#xb1;" horiz-adv-x="480" 
d="M415 375h-345l5 45h340v-45zM311 686l141 -2l-20 -90l-116 -5l6 -110h-150l-2 104l-103 -4l5 110l96 -1l-1 76h140z" />
    <glyph glyph-name="acute" unicode="&#xb4;" horiz-adv-x="312" 
d="M279 1009c0 -21.333 -18 -50.002 -54 -86.002c-32.667 -32.667 -61.334 -54 -86.001 -64c-12 -3.33301 -25 -1 -39 7c-4.66699 2.66699 -27 20.334 -67 53.001c-1.33301 2 -2 5.33301 -2 10c0 22 21.333 53.333 64 94s74.334 62.334 95.001 65.001
c8 -12.667 25.333 -26 52 -40c22.667 -12 35 -25 37 -39z" />
    <glyph glyph-name="cedilla" unicode="&#xb8;" horiz-adv-x="264" 
d="M85 -91l40.0029 91h40l-30 -61c8.66699 3.33301 20.334 5 35.001 5c20.667 0 37 -4.66699 49 -14c16 -12.667 24 -31.667 24 -57c0 -26 -12.667 -46.333 -38 -61c-21.333 -12 -45 -18 -71 -18c-18.667 0 -35.334 1.16699 -50.001 3.5s-29.334 6.5 -44.001 12.5l15 34
c7.33301 -2.66699 15.666 -5.16699 24.999 -7.5s22.666 -3.5 39.999 -3.5c16 0 29.167 2.66699 39.5 8s15.5 15.333 15.5 30c0 11.333 -4.5 19.833 -13.5 25.5s-19.5 8.5 -31.5 8.5c-14.667 0 -26 -1.33301 -34 -4z" />
    <glyph glyph-name="ordmasculine" unicode="&#xba;" horiz-adv-x="455" 
d="M45 475h370v-60h-365zM428 737c1.33301 -9.33301 2 -16.667 2 -22c0 -52.667 -23.833 -99.167 -71.5 -139.5s-97.5 -60.5 -149.5 -60.5c-12 0 -20.667 0.666992 -26 2c-16 3.33301 -30.167 7 -42.5 11s-26.5 9.66699 -42.5 17c-22.667 10.667 -39.667 28.334 -51 53.001
s-17 53.334 -17 86.001c0 57.333 14.167 110.166 42.5 158.499s62.833 72.5 103.5 72.5c64 0 118.667 -14.667 164 -44c50 -32.667 79.333 -77.334 88 -134.001zM305 718.999c4 12 6.00098 24.6689 6.00098 38.002c0 26 -7.33301 49.167 -22 69.5
s-34.334 33.166 -59.001 38.499c-22 5.33301 -46.667 -17 -74 -67s-41 -95.667 -41 -137c0 -28.667 8.33301 -47.334 25 -56.001c8 -3.33301 16 -5 24 -5c25.333 0 52.5 12 81.5 36s48.833 51.667 59.5 83z" />
    <glyph glyph-name="guillemotright" unicode="&#xbb;" horiz-adv-x="896" 
d="M854 416l-95.998 -95.002l-187 -181c-70 -66 -111.333 -102 -124 -108c-17.333 -8.66699 -29 -13 -35 -13c-2.66699 0 -5 2 -7 6c-1.33301 4.66699 -5.33301 13.834 -12 27.501s-11.334 22.834 -14.001 27.501c-1.33301 2.66699 1 6 7 10c11.333 8 22.333 16.833 33 26.5
s40.334 43.5 89.001 101.5l131 157c42.667 52 67 82 73 90l-50 137l-97 265c-36.667 102 -56.667 160.667 -60 176c-2 8 2.33301 14.667 13 20c3.33301 1.33301 9 3.33301 17 6c4 4 9.33301 6 16 6s13 -3 19 -9c11.333 -11.333 18.666 -18.333 21.999 -21l4 -2
c3.33301 0 15.666 -27.333 36.999 -82l76 -206l51 -122l65 -154c9.33301 -21.333 19 -42.333 29 -63zM567.002 443.998l-95.998 -95.002l-187 -181c-70 -66 -111.333 -102 -124 -108c-17.333 -8.66699 -29 -13 -35 -13c-2.66699 0 -5 2 -7 6
c-1.33301 4.66699 -5.33301 13.834 -12 27.501s-11.334 22.834 -14.001 27.501c-1.33301 2.66699 1 6 7 10c11.333 8 22.333 16.833 33 26.5s40.334 43.5 89.001 101.5l131 157c42.667 52 67 82 73 90l-50 137l-97 265c-36.667 102 -56.667 160.667 -60 176
c-2 8 2.33301 14.667 13 20c3.33301 1.33301 9 3.33301 17 6c4 4 9.33301 6 16 6s13 -3 19 -9c11.333 -11.333 18.666 -18.333 21.999 -21l4 -2c3.33301 0 15.666 -27.333 36.999 -82l76 -206l51 -122l65 -154c9.33301 -21.333 19 -42.333 29 -63z" />
    <glyph glyph-name="questiondown" unicode="&#xbf;" horiz-adv-x="1147" 
d="M807 822c-7.33301 -15.333 -17.499 -26.1689 -30.499 -32.502s-28.167 -9.5 -45.5 -9.5c-22.667 0 -50.334 5.66699 -83.001 17c-12.667 4.66699 -29.667 11.334 -51 20.001c-56 22.667 -84 49.334 -84 80.001c0 12 5.66699 23.667 17 35c6 6 14.5 10.333 25.5 13
s24.833 4 41.5 4c31.333 0 65.833 -5 103.5 -15s63.167 -20.667 76.5 -32c23.333 -19.333 35 -39.333 35 -60c0 -5.33301 -1.66699 -12 -5 -20zM1122 226.997c-33.333 -66 -109.83 -121.331 -229.497 -165.998s-248.5 -67 -386.5 -67c-46 0 -87.5 2.16699 -124.5 6.5
s-75.167 11.5 -114.5 21.5c-61.333 15.333 -110.166 43.5 -146.499 84.5s-62.5 94.5 -78.5 160.5c-0.666992 3.33301 -1.33398 7 -2.00098 11v12c0 49.333 33.333 105.666 100 168.999c63.333 60 139.333 111.667 228 155c93.333 45.333 174.666 68 243.999 68
c7.33301 0 11 3.66699 11 11c0 5.33301 -0.666992 10.666 -2 15.999c-4.66699 19.333 -7 30 -7 32c0 6.66699 2 12 6 16s11.333 6 22 6c30 0 76 -13.667 138 -41l80 -50c-5.33301 -4.66699 -9.5 -14.5 -12.5 -29.5s-8.83301 -23.5 -17.5 -25.5
c-124 -29.333 -246.333 -85.666 -367 -168.999c-128.667 -88.667 -193 -168 -193 -238c0 -28 11.667 -52.333 35 -73s60.666 -37.334 111.999 -50.001c18.667 -4.66699 39 -7 61 -7c85.333 0 170 33.667 254 101c80 64 120 122.667 120 176c0 4 7.66699 6 23 6
c45.333 0 95.666 -9.66699 150.999 -29c68 -24 102 -52 102 -84c0 -7.33301 -2 -15 -6 -23z" />
    <glyph glyph-name="Agrave" unicode="&#xc0;" horiz-adv-x="912" 
d="M848 25c-4.66699 -2.66699 -10.001 -4.83301 -16.001 -6.5s-11.667 -2.5 -17 -2.5c-12.667 0.666992 -22.667 1 -30 1c-10 0 -23.333 -0.666992 -40 -2s-28.667 -2 -36 -2c-12.667 0 -24.5 1.5 -35.5 4.5s-21.667 7.83301 -32 14.5s-19.166 15 -26.499 25
c-4.66699 6.66699 -9 13.334 -13 20.001c-11.333 15.333 -21.333 40.666 -30 75.999c-14.667 58.667 -26 87 -34 85c-4 -0.666992 -15.167 -2 -33.5 -4s-36.166 -3.5 -53.499 -4.5s-36.5 -2.16699 -57.5 -3.5s-32.5 -6.5 -34.5 -15.5s-7.66699 -18.833 -17 -29.5
c-12.667 -14 -21 -24.333 -25 -31c-6.66699 -11.333 -13 -26.333 -19 -45s-11 -32 -15 -40l-20 -56c-5.33301 -10 -12.833 -15.833 -22.5 -17.5s-16.167 -2.5 -19.5 -2.5c-8.66699 0 -14.667 0.333008 -18 1c-11.333 3.33301 -22.333 6.33301 -33 9
c-16 2.66699 -31.833 5.5 -47.5 8.5s-29.834 10.167 -42.501 21.5l-16 12c-5.33301 5.33301 -7 10.666 -5 15.999c-3.33301 4.66699 -2.66602 10.334 2.00098 17.001c8 11.333 12.333 17.666 13 18.999l27 58c8.66699 18 20 39.667 34 65c18.667 34 30.334 55.667 35.001 65
l186 392c7.33301 12.667 17.333 32.667 30 60c18 38 37 68 57 90l51 62c18.667 20 37.167 31.5 55.5 34.5s31.833 5 40.5 6s16.667 1.5 24 1.5c13.333 0 24.666 -1.16699 33.999 -3.5s20 -7.16602 32 -14.499c5.33301 -3.33301 9.5 -7.83301 12.5 -13.5s4.5 -11.5 4.5 -17.5
c0 -5.33301 -1.83301 -17.166 -5.5 -35.499s-5.5 -30.833 -5.5 -37.5v-128c0 -20.667 1.5 -40.334 4.5 -59.001s5.5 -35 7.5 -49c4.66699 -34 9.66699 -63.333 15 -88l21 -88c7.33301 -31.333 13.666 -55.333 18.999 -72l23 -72c18.667 -57.333 38.667 -112 60 -164
l11.5 -22.5c5.66699 -11 8.5 -18.833 8.5 -23.5c0 -6 -2.66699 -10.667 -8 -14zM532.999 325.001c4 3.33301 6.00195 16.333 6.00195 39c0 27.333 -2.33301 59 -7 95s-10.667 66.333 -18 91l-31 -54c-52.667 -110.667 -86.334 -176.667 -101.001 -198
c2.66699 -1.33301 5.66699 -2.33301 9 -3c18.667 0 45.167 3.5 79.5 10.5s55.166 13.5 62.499 19.5zM636.001 1066c0 -12.667 -4.66895 -21.666 -14.002 -26.999s-21.666 -8 -36.999 -8c-14 0 -27.667 1.66699 -41 5s-22.666 7.33301 -27.999 12
c-30.667 26.667 -51 45.667 -61 57c-22 24.667 -31.667 45.667 -29 63c2 13.333 9 23.666 21 30.999s26 11 42 11c20 0 36.667 -5.66699 50 -17c28 -23.333 51.167 -46.333 69.5 -69s27.5 -42 27.5 -58z" />
    <glyph glyph-name="Aacute" unicode="&#xc1;" horiz-adv-x="928" 
d="M848 25c-4.66699 -2.66699 -10.001 -4.83301 -16.001 -6.5s-11.667 -2.5 -17 -2.5c-12.667 0.666992 -22.667 1 -30 1c-10 0 -23.333 -0.666992 -40 -2s-28.667 -2 -36 -2c-12.667 0 -24.5 1.5 -35.5 4.5s-21.667 7.83301 -32 14.5s-19.166 15 -26.499 25
c-4.66699 6.66699 -9 13.334 -13 20.001c-11.333 15.333 -21.333 40.666 -30 75.999c-14.667 58.667 -26 87 -34 85c-4 -0.666992 -15.167 -2 -33.5 -4s-36.166 -3.5 -53.499 -4.5s-36.5 -2.16699 -57.5 -3.5s-32.5 -6.5 -34.5 -15.5s-7.66699 -18.833 -17 -29.5
c-12.667 -14 -21 -24.333 -25 -31c-6.66699 -11.333 -13 -26.333 -19 -45s-11 -32 -15 -40l-20 -56c-5.33301 -10 -12.833 -15.833 -22.5 -17.5s-16.167 -2.5 -19.5 -2.5c-8.66699 0 -14.667 0.333008 -18 1c-11.333 3.33301 -22.333 6.33301 -33 9
c-16 2.66699 -31.833 5.5 -47.5 8.5s-29.834 10.167 -42.501 21.5l-16 12c-5.33301 5.33301 -7 10.666 -5 15.999c-3.33301 4.66699 -2.66602 10.334 2.00098 17.001c8 11.333 12.333 17.666 13 18.999l27 58c8.66699 18 20 39.667 34 65c18.667 34 30.334 55.667 35.001 65
l186 392c7.33301 12.667 17.333 32.667 30 60c18 38 37 68 57 90l51 62c18.667 20 37.167 31.5 55.5 34.5s31.833 5 40.5 6s16.667 1.5 24 1.5c13.333 0 24.666 -1.16699 33.999 -3.5s20 -7.16602 32 -14.499c5.33301 -3.33301 9.5 -7.83301 12.5 -13.5s4.5 -11.5 4.5 -17.5
c0 -5.33301 -1.83301 -17.166 -5.5 -35.499s-5.5 -30.833 -5.5 -37.5v-128c0 -20.667 1.5 -40.334 4.5 -59.001s5.5 -35 7.5 -49c4.66699 -34 9.66699 -63.333 15 -88l21 -88c7.33301 -31.333 13.666 -55.333 18.999 -72l23 -72c18.667 -57.333 38.667 -112 60 -164
l11.5 -22.5c5.66699 -11 8.5 -18.833 8.5 -23.5c0 -6 -2.66699 -10.667 -8 -14zM532.999 325.001c4 3.33301 6.00195 16.333 6.00195 39c0 27.333 -2.33301 59 -7 95s-10.667 66.333 -18 91l-31 -54c-52.667 -110.667 -86.334 -176.667 -101.001 -198
c2.66699 -1.33301 5.66699 -2.33301 9 -3c18.667 0 45.167 3.5 79.5 10.5s55.166 13.5 62.499 19.5zM667.001 1164c2.66699 -16 -8.33398 -33.332 -33.001 -51.999l-67 -48c-8 -6.66699 -20.333 -14.334 -37 -23.001s-30.334 -13 -41.001 -13c-11.333 0 -17 6 -17 18
c0 18 9.66699 39.667 29 65c16.667 22 39.334 44.667 68.001 68c16.667 13.333 34.667 20 54 20c26.667 0 41.334 -11.667 44.001 -35z" />
    <glyph glyph-name="Acircumflex" unicode="&#xc2;" horiz-adv-x="928" 
d="M848 25c-4.66699 -2.66699 -10.001 -4.83301 -16.001 -6.5s-11.667 -2.5 -17 -2.5c-12.667 0.666992 -22.667 1 -30 1c-10 0 -23.333 -0.666992 -40 -2s-28.667 -2 -36 -2c-12.667 0 -24.5 1.5 -35.5 4.5s-21.667 7.83301 -32 14.5s-19.166 15 -26.499 25
c-4.66699 6.66699 -9 13.334 -13 20.001c-11.333 15.333 -21.333 40.666 -30 75.999c-14.667 58.667 -26 87 -34 85c-4 -0.666992 -15.167 -2 -33.5 -4s-36.166 -3.5 -53.499 -4.5s-36.5 -2.16699 -57.5 -3.5s-32.5 -6.5 -34.5 -15.5s-7.66699 -18.833 -17 -29.5
c-12.667 -14 -21 -24.333 -25 -31c-6.66699 -11.333 -13 -26.333 -19 -45s-11 -32 -15 -40l-20 -56c-5.33301 -10 -12.833 -15.833 -22.5 -17.5s-16.167 -2.5 -19.5 -2.5c-8.66699 0 -14.667 0.333008 -18 1c-11.333 3.33301 -22.333 6.33301 -33 9
c-16 2.66699 -31.833 5.5 -47.5 8.5s-29.834 10.167 -42.501 21.5l-16 12c-5.33301 5.33301 -7 10.666 -5 15.999c-3.33301 4.66699 -2.66602 10.334 2.00098 17.001c8 11.333 12.333 17.666 13 18.999l27 58c8.66699 18 20 39.667 34 65c18.667 34 30.334 55.667 35.001 65
l186 392c7.33301 12.667 17.333 32.667 30 60c18 38 37 68 57 90l51 62c18.667 20 37.167 31.5 55.5 34.5s31.833 5 40.5 6s16.667 1.5 24 1.5c13.333 0 24.666 -1.16699 33.999 -3.5s20 -7.16602 32 -14.499c5.33301 -3.33301 9.5 -7.83301 12.5 -13.5s4.5 -11.5 4.5 -17.5
c0 -5.33301 -1.83301 -17.166 -5.5 -35.499s-5.5 -30.833 -5.5 -37.5v-128c0 -20.667 1.5 -40.334 4.5 -59.001s5.5 -35 7.5 -49c4.66699 -34 9.66699 -63.333 15 -88l21 -88c7.33301 -31.333 13.666 -55.333 18.999 -72l23 -72c18.667 -57.333 38.667 -112 60 -164
l11.5 -22.5c5.66699 -11 8.5 -18.833 8.5 -23.5c0 -6 -2.66699 -10.667 -8 -14zM532.999 325.001c4 3.33301 6.00195 16.333 6.00195 39c0 27.333 -2.33301 59 -7 95s-10.667 66.333 -18 91l-31 -54c-52.667 -110.667 -86.334 -176.667 -101.001 -198
c2.66699 -1.33301 5.66699 -2.33301 9 -3c18.667 0 45.167 3.5 79.5 10.5s55.166 13.5 62.499 19.5zM645.001 1098l-14.001 -29.0039l-19 -4c-1.33301 12 -2.66602 21.667 -3.99902 29c-9.33301 44.667 -23.333 80.334 -42 107.001l-55 -65
c-32 -47.333 -48.667 -74.666 -50 -81.999c-4.66699 2 -9 4 -13 6c-7.33301 4.66699 -14.333 9.66699 -21 15c1.33301 6 2.83301 13.333 4.5 22s2.5 17.334 2.5 26.001c0 7.33301 -1.33301 13.333 -4 18c18 27.333 32.667 48.333 44 63c35.333 45.333 66 75 92 89
c4 2 12 -1.66699 24 -11c4 -2.66699 9.66699 -7.66699 17 -15c-1.33301 -3.33301 -2.33301 -5.66602 -3 -6.99902c-3.33301 -6.66699 -6.33301 -11.667 -9 -15c9.33301 -19.333 16 -35.333 20 -48c13.333 -38 20 -72.333 20 -103z" />
    <glyph glyph-name="Atilde" unicode="&#xc3;" horiz-adv-x="928" 
d="M848 25c-4.66699 -2.66699 -10.001 -4.83301 -16.001 -6.5s-11.667 -2.5 -17 -2.5c-12.667 0.666992 -22.667 1 -30 1c-10 0 -23.333 -0.666992 -40 -2s-28.667 -2 -36 -2c-12.667 0 -24.5 1.5 -35.5 4.5s-21.667 7.83301 -32 14.5s-19.166 15 -26.499 25
c-4.66699 6.66699 -9 13.334 -13 20.001c-11.333 15.333 -21.333 40.666 -30 75.999c-14.667 58.667 -26 87 -34 85c-4 -0.666992 -15.167 -2 -33.5 -4s-36.166 -3.5 -53.499 -4.5s-36.5 -2.16699 -57.5 -3.5s-32.5 -6.5 -34.5 -15.5s-7.66699 -18.833 -17 -29.5
c-12.667 -14 -21 -24.333 -25 -31c-6.66699 -11.333 -13 -26.333 -19 -45s-11 -32 -15 -40l-20 -56c-5.33301 -10 -12.833 -15.833 -22.5 -17.5s-16.167 -2.5 -19.5 -2.5c-8.66699 0 -14.667 0.333008 -18 1c-11.333 3.33301 -22.333 6.33301 -33 9
c-16 2.66699 -31.833 5.5 -47.5 8.5s-29.834 10.167 -42.501 21.5l-16 12c-5.33301 5.33301 -7 10.666 -5 15.999c-3.33301 4.66699 -2.66602 10.334 2.00098 17.001c8 11.333 12.333 17.666 13 18.999l27 58c8.66699 18 20 39.667 34 65c18.667 34 30.334 55.667 35.001 65
l186 392c7.33301 12.667 17.333 32.667 30 60c18 38 37 68 57 90l51 62c18.667 20 37.167 31.5 55.5 34.5s31.833 5 40.5 6s16.667 1.5 24 1.5c13.333 0 24.666 -1.16699 33.999 -3.5s20 -7.16602 32 -14.499c5.33301 -3.33301 9.5 -7.83301 12.5 -13.5s4.5 -11.5 4.5 -17.5
c0 -5.33301 -1.83301 -17.166 -5.5 -35.499s-5.5 -30.833 -5.5 -37.5v-128c0 -20.667 1.5 -40.334 4.5 -59.001s5.5 -35 7.5 -49c4.66699 -34 9.66699 -63.333 15 -88l21 -88c7.33301 -31.333 13.666 -55.333 18.999 -72l23 -72c18.667 -57.333 38.667 -112 60 -164
l11.5 -22.5c5.66699 -11 8.5 -18.833 8.5 -23.5c0 -6 -2.66699 -10.667 -8 -14zM532.999 325.001c4 3.33301 6.00195 16.333 6.00195 39c0 27.333 -2.33301 59 -7 95s-10.667 66.333 -18 91l-31 -54c-52.667 -110.667 -86.334 -176.667 -101.001 -198
c2.66699 -1.33301 5.66699 -2.33301 9 -3c18.667 0 45.167 3.5 79.5 10.5s55.166 13.5 62.499 19.5zM378.001 1122c23.333 21.333 43.832 36.333 61.499 45s33.5 13 47.5 13c10.667 0 20.667 -2 30 -6l28 -12l57 -25.5c11.333 -5 21.666 -7.5 30.999 -7.5
c30.667 0 55 2.33301 73 7c34.667 9.33301 56 26.333 64 51c-4 -19.333 -8.33301 -34.333 -13 -45c-15.333 -32 -39.666 -53.667 -72.999 -65c-14.667 -4.66699 -30 -7 -46 -7c-24 0 -49.667 6.33301 -77 19c-16 8 -31.667 16.333 -47 25c-8 3.33301 -19.667 6.5 -35 9.5
s-31.666 4.5 -48.999 4.5c-16.667 0 -34 -2 -52 -6z" />
    <glyph glyph-name="Adieresis" unicode="&#xc4;" 
d="M858 25c-4.66699 -2.66699 -10.001 -4.83301 -16.001 -6.5s-11.667 -2.5 -17 -2.5c-12.667 0.666992 -22.667 1 -30 1c-10 0 -23.333 -0.666992 -40 -2s-28.667 -2 -36 -2c-12.667 0 -24.5 1.5 -35.5 4.5s-21.667 7.83301 -32 14.5s-19.166 15 -26.499 25
c-4.66699 6.66699 -9 13.334 -13 20.001c-11.333 15.333 -21.333 40.666 -30 75.999c-14.667 58.667 -26 87 -34 85c-4 -0.666992 -15.167 -2 -33.5 -4s-36.166 -3.5 -53.499 -4.5s-36.5 -2.16699 -57.5 -3.5s-32.5 -6.5 -34.5 -15.5s-7.66699 -18.833 -17 -29.5
c-12.667 -14 -21 -24.333 -25 -31c-6.66699 -11.333 -13 -26.333 -19 -45s-11 -32 -15 -40l-20 -56c-5.33301 -10 -12.833 -15.833 -22.5 -17.5s-16.167 -2.5 -19.5 -2.5c-8.66699 0 -14.667 0.333008 -18 1c-11.333 3.33301 -22.333 6.33301 -33 9
c-16 2.66699 -31.833 5.5 -47.5 8.5s-29.834 10.167 -42.501 21.5l-16 12c-5.33301 5.33301 -7 10.666 -5 15.999c-3.33301 4.66699 -2.66602 10.334 2.00098 17.001c8 11.333 12.333 17.666 13 18.999l27 58c8.66699 18 20 39.667 34 65c18.667 34 30.334 55.667 35.001 65
l186 392c7.33301 12.667 17.333 32.667 30 60c18 38 37 68 57 90l51 62c18.667 20 37.167 31.5 55.5 34.5s31.833 5 40.5 6s16.667 1.5 24 1.5c13.333 0 24.666 -1.16699 33.999 -3.5s20 -7.16602 32 -14.499c5.33301 -3.33301 9.5 -7.83301 12.5 -13.5s4.5 -11.5 4.5 -17.5
c0 -5.33301 -1.83301 -17.166 -5.5 -35.499s-5.5 -30.833 -5.5 -37.5v-128c0 -20.667 1.5 -40.334 4.5 -59.001s5.5 -35 7.5 -49c4.66699 -34 9.66699 -63.333 15 -88l21 -88c7.33301 -31.333 13.666 -55.333 18.999 -72l23 -72c18.667 -57.333 38.667 -112 60 -164
l11.5 -22.5c5.66699 -11 8.5 -18.833 8.5 -23.5c0 -6 -2.66699 -10.667 -8 -14zM542.999 325.001c4 3.33301 6.00195 16.333 6.00195 39c0 27.333 -2.33301 59 -7 95s-10.667 66.333 -18 91l-31 -54c-52.667 -110.667 -86.334 -176.667 -101.001 -198
c2.66699 -1.33301 5.66699 -2.33301 9 -3c18.667 0 45.167 3.5 79.5 10.5s55.166 13.5 62.499 19.5zM504.001 1168c3.33301 -20 -11.001 -45.667 -43.001 -77c-12 -12 -27.667 -26.333 -47 -43c-5.33301 -4.66699 -14.5 -8.66699 -27.5 -12s-26.833 -5 -41.5 -5
c-16 0 -28.667 2.5 -38 7.5s-13.666 13.167 -12.999 24.5c2 16.667 12.333 37.167 31 61.5s40.667 47.166 66 68.499c14.667 11.333 31.667 17 51 17c16 0 29.833 -3.66699 41.5 -11s18.5 -17.666 20.5 -30.999zM763 1161c3.33301 -20 -11.001 -45.667 -43.001 -77
c-12 -12 -27.667 -26.333 -47 -43c-5.33301 -4.66699 -14.5 -8.66699 -27.5 -12s-26.833 -5 -41.5 -5c-16 0 -28.667 2.5 -38 7.5s-13.666 13.167 -12.999 24.5c2 16.667 12.333 37.167 31 61.5s40.667 47.166 66 68.499c14.667 11.333 31.667 17 51 17
c16 0 29.833 -3.66699 41.5 -11s18.5 -17.666 20.5 -30.999z" />
    <glyph glyph-name="Aring" unicode="&#xc5;" horiz-adv-x="888" 
d="M838 25c-4.66699 -2.66699 -10.001 -4.83301 -16.001 -6.5s-11.667 -2.5 -17 -2.5c-12.667 0.666992 -22.667 1 -30 1c-10 0 -23.333 -0.666992 -40 -2s-28.667 -2 -36 -2c-12.667 0 -24.5 1.5 -35.5 4.5s-21.667 7.83301 -32 14.5s-19.166 15 -26.499 25
c-4.66699 6.66699 -9 13.334 -13 20.001c-11.333 15.333 -21.333 40.666 -30 75.999c-14.667 58.667 -26 87 -34 85c-4 -0.666992 -15.167 -2 -33.5 -4s-36.166 -3.5 -53.499 -4.5s-36.5 -2.16699 -57.5 -3.5s-32.5 -6.5 -34.5 -15.5s-7.66699 -18.833 -17 -29.5
c-12.667 -14 -21 -24.333 -25 -31c-6.66699 -11.333 -13 -26.333 -19 -45s-11 -32 -15 -40l-20 -56c-5.33301 -10 -12.833 -15.833 -22.5 -17.5s-16.167 -2.5 -19.5 -2.5c-8.66699 0 -14.667 0.333008 -18 1c-11.333 3.33301 -22.333 6.33301 -33 9
c-16 2.66699 -31.833 5.5 -47.5 8.5s-29.834 10.167 -42.501 21.5l-16 12c-5.33301 5.33301 -7 10.666 -5 15.999c-3.33301 4.66699 -2.66602 10.334 2.00098 17.001c8 11.333 12.333 17.666 13 18.999l27 58c8.66699 18 20 39.667 34 65c18.667 34 30.334 55.667 35.001 65
l186 392c7.33301 12.667 17.333 32.667 30 60c18 38 37 68 57 90l51 62c18.667 20 37.167 31.5 55.5 34.5s31.833 5 40.5 6s16.667 1.5 24 1.5c13.333 0 24.666 -1.16699 33.999 -3.5s20 -7.16602 32 -14.499c5.33301 -3.33301 9.5 -7.83301 12.5 -13.5s4.5 -11.5 4.5 -17.5
c0 -5.33301 -1.83301 -17.166 -5.5 -35.499s-5.5 -30.833 -5.5 -37.5v-128c0 -20.667 1.5 -40.334 4.5 -59.001s5.5 -35 7.5 -49c4.66699 -34 9.66699 -63.333 15 -88l21 -88c7.33301 -31.333 13.666 -55.333 18.999 -72l23 -72c18.667 -57.333 38.667 -112 60 -164
l11.5 -22.5c5.66699 -11 8.5 -18.833 8.5 -23.5c0 -6 -2.66699 -10.667 -8 -14zM522.999 325.001c4 3.33301 6.00195 16.333 6.00195 39c0 27.333 -2.33301 59 -7 95s-10.667 66.333 -18 91l-31 -54c-52.667 -110.667 -86.334 -176.667 -101.001 -198
c2.66699 -1.33301 5.66699 -2.33301 9 -3c18.667 0 45.167 3.5 79.5 10.5s55.166 13.5 62.499 19.5zM568.001 1253c28 0 51.333 -9.33301 70 -28s28 -42 28 -70s-9.33301 -51.333 -28 -70s-42 -28 -70 -28s-51.333 9.33301 -70 28s-28 42 -28 70s9.33301 51.333 28 70
s42 28 70 28zM568.001 1214c-17.333 0 -31.5 -5.5 -42.5 -16.5s-16.5 -25.167 -16.5 -42.5c0 -16.667 5.66699 -30.667 17 -42s25.333 -17 42 -17s30.667 5.66699 42 17s17 25.333 17 42c0 17.333 -5.5 31.5 -16.5 42.5s-25.167 16.5 -42.5 16.5z" />
    <glyph glyph-name="AE" unicode="&#xc6;" horiz-adv-x="1560" 
d="M543 325c4 3.33301 6.00195 16.333 6.00195 39c0 27.333 -2.33301 59 -7 95s-10.667 66.333 -18 91l-31 -54c-52.667 -110.667 -86.334 -176.667 -101.001 -198c2.66699 -1.33301 5.66699 -2.33301 9 -3c18.667 0 45.167 3.5 79.5 10.5s55.166 13.5 62.499 19.5z
M750.002 370l-0.00488281 59c0 20 0.333008 40.333 1 61c0 73.333 -1.66699 134.666 -5 183.999s-8.66602 101.333 -15.999 156c-3.33301 24.667 46 54.167 148 88.5s193 51.5 273 51.5c0.666992 0 1.33398 0.333008 2.00098 1c46 0 94.667 -21.667 146 -65l23 -36
l-241.5 -35.5c-64.333 -9.66699 -108.833 -21.167 -133.5 -34.5c-18 -9.33301 -28.333 -51 -31 -125s-4.66699 -114.167 -6 -120.5s-2 -10.166 -2 -11.499c0 -8.66699 4.33301 -13 13 -13c10 0 28 7 54 21l115 64c8 3.33301 23.667 13.666 47 30.999
c17.333 12.667 34 19 50 19c31.333 0 57.833 -8.83301 79.5 -26.5s37.834 -42.167 48.501 -73.5c3.33301 -10.667 -24.167 -25.5 -82.5 -44.5l-175.5 -55.5c-68.667 -22.667 -110.334 -42.667 -125.001 -60c-8.66699 -10.667 -15 -22 -19 -34s-6 -24.333 -6 -37
c0 -16 2.83301 -34.333 8.5 -55l16.5 -59c2 -6 6 -9 12 -9c12 0 37.333 13.333 76 40c73.333 50.667 112.333 77.334 117 80.001c50.667 32 92.334 51.667 125.001 59c10 2.66699 22 4.66699 36 6s27.333 2 40 2c27.333 0 47 -2.66699 59 -8
c28 -12.667 52.333 -41.667 73 -87c5.33301 -22.667 11 -45.334 17 -68.001c-104 -24.667 -194.333 -56 -271 -94c-34.667 -17.333 -83.667 -46.666 -147 -87.999c-38.667 -25.333 -67.667 -38 -87 -38c-10.667 0 -19.667 1.66699 -27 5l-93 33
c2.66699 -6.66699 4 -11.667 4 -15c0 -5.33301 -2.5 -9.5 -7.5 -12.5s-10.5 -5.33301 -16.5 -7s-11.667 -2.5 -17 -2.5c-12.667 0.666992 -22.667 1 -30 1c-10 0 -23.333 -0.666992 -40 -2s-28.667 -2 -36 -2c-12.667 0 -24.5 1.5 -35.5 4.5s-21.667 7.83301 -32 14.5
s-19.166 15 -26.499 25c-4.66699 6.66699 -9 13.334 -13 20.001c-11.333 15.333 -21.333 40.666 -30 75.999c-14.667 58.667 -26 87 -34 85c-4 -0.666992 -15.167 -2 -33.5 -4s-36.166 -3.5 -53.499 -4.5s-36.5 -2.16699 -57.5 -3.5s-32.5 -6.5 -34.5 -15.5
s-7.66699 -18.833 -17 -29.5c-12.667 -14 -21 -24.333 -25 -31c-6.66699 -11.333 -13 -26.333 -19 -45s-11 -32 -15 -40l-20 -56c-5.33301 -10 -12.833 -15.833 -22.5 -17.5s-16.167 -2.5 -19.5 -2.5c-8.66699 0 -14.667 0.333008 -18 1
c-11.333 3.33301 -22.333 6.33301 -33 9c-16 2.66699 -31.833 5.5 -47.5 8.5s-29.834 10.167 -42.501 21.5l-16 12c-5.33301 5.33301 -7 10.666 -5 15.999c-3.33301 4.66699 -2.66602 10.334 2.00098 17.001c8 11.333 12.333 17.666 13 18.999l27 58
c8.66699 18 20 39.667 34 65c18.667 34 30.334 55.667 35.001 65l186 392c7.33301 12.667 17.333 32.667 30 60c18 38 37 68 57 90l51 62c18.667 20 37.167 31.5 55.5 34.5s31.833 5 40.5 6s16.667 1.5 24 1.5c13.333 0 24.666 -1.16699 33.999 -3.5s20 -7.16602 32 -14.499
c5.33301 -3.33301 9.5 -7.83301 12.5 -13.5s4.5 -11.5 4.5 -17.5c0 -5.33301 -1.83301 -17.166 -5.5 -35.499s-5.5 -30.833 -5.5 -37.5v-128c0 -20.667 1.5 -40.334 4.5 -59.001s5.5 -35 7.5 -49c4.66699 -34 9.66699 -63.333 15 -88l21 -88z" />
    <glyph glyph-name="Ccedilla" unicode="&#xc7;" horiz-adv-x="904" 
d="M383 4c-23.333 4.66699 -48.665 11.6621 -75.998 20.9951c-68.667 22.667 -117.334 42.667 -146.001 60c-44 27.333 -76.333 65.666 -97 114.999c-8 18.667 -14 38.5 -18 59.5s-6 41.167 -6 60.5c0 43.333 8.33301 88.833 25 136.5s39.334 96.5 68.001 146.5
c21.333 37.333 52 84.666 92 141.999l66 96c50 66 103 99 159 99c18.667 0 33 0.333008 43 1c40 2.66699 63 4 69 4h22.5h14.5c21.333 0 39.166 -1.5 53.499 -4.5s29.666 -10.167 45.999 -21.5s24.5 -27.333 24.5 -48c0 -6.66699 -1 -17 -3 -31s-3.66699 -26.333 -5 -37
c2 -16 3 -27.333 3 -34c0 -8.66699 -2 -22.834 -6 -42.501s-6.66699 -34 -8 -43s-2 -15.167 -2 -18.5v-8c0 -6 0.666992 -15 2 -27s2 -22 2 -30v-30c0 -5.33301 0.833008 -11.666 2.5 -18.999s11.167 -23 28.5 -47c7.33301 -10 11 -18 11 -24
c0 -5.33301 -2.66699 -9.66602 -8 -12.999s-11.333 -6.16602 -18 -8.49902s-13.167 -4.5 -19.5 -6.5l-21.5 -6.5c-8 -2.33301 -16 -4 -24 -5s-16 -1.5 -24 -1.5c-14.667 0 -29 2.16699 -43 6.5s-30.333 10.833 -49 19.5c-25.333 12 -43.166 30 -53.499 54
s-15.5 52.667 -15.5 86c0 26.667 -0.5 46 -1.5 58s-1.5 18.667 -1.5 20l5 93l-6 -1c-12 -2 -22.667 -7.33301 -32 -16c-4 -3.33301 -12 -13 -24 -29c-18.667 -24 -35.334 -52.333 -50.001 -85c-6 -14.667 -14.333 -33 -25 -55c-28.667 -61.333 -47 -103.333 -55 -126
c-15.333 -41.333 -26 -86 -32 -134c-0.666992 -6.66699 -1.16699 -13.5 -1.5 -20.5s-0.5 -12.167 -0.5 -15.5c0 -33.333 8.33301 -59 25 -77c12.667 -13.333 35 -26.666 67 -39.999c25.333 -10 46.5 -17.167 63.5 -21.5s36.167 -6.5 57.5 -6.5
c11.333 0 25.666 1.16699 42.999 3.5s34.333 6.83301 51 13.5l52 24c20 8.66699 41.333 26.334 64 53.001c43.333 50 74 75 92 75c10.667 0 20.334 -2.66699 29.001 -8c9.33301 -4 18.666 -7.66699 27.999 -11c6.66699 -5.33301 13.334 -21.666 20.001 -48.999
c4.66699 -18.667 8.16699 -35.5 10.5 -50.5s3.5 -29.167 3.5 -42.5c0 -21.333 -3.16699 -40.333 -9.5 -57s-17.833 -32.334 -34.5 -47.001c-28.667 -25.333 -67 -40.666 -115 -45.999l-74 -7.5c-22 -2.33301 -41 -4.16602 -57 -5.49902s-31 -2 -45 -2
c0 -20 -15 -44.333 -45 -73c-8 -8 -23 -21.333 -45 -40c-5.33301 -4.66699 -14.5 -8.66699 -27.5 -12s-26.833 -5 -41.5 -5c-16 0 -28.5 2.33301 -37.5 7s-13.5 12.334 -13.5 23.001c0 14.667 7 32 21 52s31.667 40 53 60z" />
    <glyph glyph-name="Egrave" unicode="&#xc8;" horiz-adv-x="872" 
d="M545 1017c0 -16 -5.66602 -24.001 -16.999 -24.001c-10.667 0 -24.334 4.33301 -41.001 13s-29 16.334 -37 23.001l-67 48c-24.667 18.667 -35.667 36 -33 52c1.33301 12 6 20.833 14 26.5s18 8.5 30 8.5c20.667 0 38.667 -6.66699 54 -20
c28 -23.333 51.167 -46.333 69.5 -69s27.5 -42 27.5 -58zM812.001 204.999c-104 -24.667 -194.336 -56.0039 -271.003 -94.0039c-34.667 -17.333 -83.667 -46.666 -147 -87.999c-38.667 -25.333 -67.667 -38 -87 -38c-10.667 0 -19.667 1.66699 -27 5l-125 46
c-44 19.333 -67.667 43.333 -71 72s-5.83301 58.334 -7.5 89.001s-2.5 65.334 -2.5 104.001c0 16.667 0.333008 43.334 1 80.001s1 65.334 1 86.001c0 72 -1.66699 132.167 -5 180.5s-8.66602 99.166 -15.999 152.499c-3.33301 24.667 46 54.167 148 88.5s193 51.5 273 51.5
c0.666992 0 1.33398 0.333008 2.00098 1c46 0 94.667 -21.667 146 -65l23 -36l-241.5 -35.5c-64.333 -9.66699 -108.833 -21.167 -133.5 -34.5c-18 -9.33301 -28.333 -51 -31 -125s-4.66699 -114.167 -6 -120.5s-2 -10.166 -2 -11.499c0 -8.66699 4.33301 -13 13 -13
c10 0 28 7 54 21l115 64c8 3.33301 23.667 13.666 47 30.999c17.333 12.667 34 19 50 19c31.333 0 57.833 -8.83301 79.5 -26.5s37.834 -42.167 48.501 -73.5c3.33301 -10.667 -24.167 -25.5 -82.5 -44.5l-175.5 -55.5c-68.667 -22.667 -110.334 -42.667 -125.001 -60
c-8.66699 -10.667 -15 -22 -19 -34s-6 -24.333 -6 -37c0 -16 2.83301 -34.333 8.5 -55l16.5 -59c2 -6 6 -9 12 -9c12 0 37.333 13.333 76 40c73.333 50.667 112.333 77.334 117 80.001c50.667 32 92.334 51.667 125.001 59c10 2.66699 22 4.66699 36 6s27.333 2 40 2
c27.333 0 47 -2.66699 59 -8c28 -12.667 52.333 -41.667 73 -87c5.33301 -22.667 11 -45.334 17 -68.001z" />
    <glyph glyph-name="Eacute" unicode="&#xc9;" horiz-adv-x="864" 
d="M802 205c-104 -24.667 -194.336 -56.0039 -271.003 -94.0039c-34.667 -17.333 -83.667 -46.666 -147 -87.999c-38.667 -25.333 -67.667 -38 -87 -38c-10.667 0 -19.667 1.66699 -27 5l-125 46c-44 19.333 -67.667 43.333 -71 72s-5.83301 58.334 -7.5 89.001
s-2.5 65.334 -2.5 104.001c0 16.667 0.333008 43.334 1 80.001s1 65.334 1 86.001c0 72 -1.66699 132.167 -5 180.5s-8.66602 99.166 -15.999 152.499c-3.33301 24.667 46 54.167 148 88.5s193 51.5 273 51.5c0.666992 0 1.33398 0.333008 2.00098 1
c46 0 94.667 -21.667 146 -65l23 -36l-241.5 -35.5c-64.333 -9.66699 -108.833 -21.167 -133.5 -34.5c-18 -9.33301 -28.333 -51 -31 -125s-4.66699 -114.167 -6 -120.5s-2 -10.166 -2 -11.499c0 -8.66699 4.33301 -13 13 -13c10 0 28 7 54 21l115 64
c8 3.33301 23.667 13.666 47 30.999c17.333 12.667 34 19 50 19c31.333 0 57.833 -8.83301 79.5 -26.5s37.834 -42.167 48.501 -73.5c3.33301 -10.667 -24.167 -25.5 -82.5 -44.5l-175.5 -55.5c-68.667 -22.667 -110.334 -42.667 -125.001 -60
c-8.66699 -10.667 -15 -22 -19 -34s-6 -24.333 -6 -37c0 -16 2.83301 -34.333 8.5 -55l16.5 -59c2 -6 6 -9 12 -9c12 0 37.333 13.333 76 40c73.333 50.667 112.333 77.334 117 80.001c50.667 32 92.334 51.667 125.001 59c10 2.66699 22 4.66699 36 6s27.333 2 40 2
c27.333 0 47 -2.66699 59 -8c28 -12.667 52.333 -41.667 73 -87c5.33301 -22.667 11 -45.334 17 -68.001zM546.997 1175c3.33301 -20 -11.001 -45.667 -43.001 -77c-12 -12 -27.667 -26.333 -47 -43c-5.33301 -4.66699 -14.5 -8.66699 -27.5 -12s-26.833 -5 -41.5 -5
c-16 0 -28.667 2.5 -38 7.5s-13.666 13.167 -12.999 24.5c2 16.667 12.333 37.167 31 61.5s40.667 47.166 66 68.499c14.667 11.333 31.667 17 51 17c16 0 29.833 -3.66699 41.5 -11s18.5 -17.666 20.5 -30.999z" />
    <glyph glyph-name="Ecircumflex" unicode="&#xca;" horiz-adv-x="920" 
d="M832 205c-104 -24.667 -194.336 -56.0039 -271.003 -94.0039c-34.667 -17.333 -83.667 -46.666 -147 -87.999c-38.667 -25.333 -67.667 -38 -87 -38c-10.667 0 -19.667 1.66699 -27 5l-125 46c-44 19.333 -67.667 43.333 -71 72s-5.83301 58.334 -7.5 89.001
s-2.5 65.334 -2.5 104.001c0 16.667 0.333008 43.334 1 80.001s1 65.334 1 86.001c0 72 -1.66699 132.167 -5 180.5s-8.66602 99.166 -15.999 152.499c-3.33301 24.667 46 54.167 148 88.5s193 51.5 273 51.5c0.666992 0 1.33398 0.333008 2.00098 1
c46 0 94.667 -21.667 146 -65l23 -36l-241.5 -35.5c-64.333 -9.66699 -108.833 -21.167 -133.5 -34.5c-18 -9.33301 -28.333 -51 -31 -125s-4.66699 -114.167 -6 -120.5s-2 -10.166 -2 -11.499c0 -8.66699 4.33301 -13 13 -13c10 0 28 7 54 21l115 64
c8 3.33301 23.667 13.666 47 30.999c17.333 12.667 34 19 50 19c31.333 0 57.833 -8.83301 79.5 -26.5s37.834 -42.167 48.501 -73.5c3.33301 -10.667 -24.167 -25.5 -82.5 -44.5l-175.5 -55.5c-68.667 -22.667 -110.334 -42.667 -125.001 -60
c-8.66699 -10.667 -15 -22 -19 -34s-6 -24.333 -6 -37c0 -16 2.83301 -34.333 8.5 -55l16.5 -59c2 -6 6 -9 12 -9c12 0 37.333 13.333 76 40c73.333 50.667 112.333 77.334 117 80.001c50.667 32 92.334 51.667 125.001 59c10 2.66699 22 4.66699 36 6s27.333 2 40 2
c27.333 0 47 -2.66699 59 -8c28 -12.667 52.333 -41.667 73 -87c5.33301 -22.667 11 -45.334 17 -68.001zM531.997 1056l-14.001 -29.0039l-19 -4c-1.33301 12 -2.66602 21.667 -3.99902 29c-9.33301 44.667 -23.333 80.334 -42 107.001l-55 -65
c-32 -47.333 -48.667 -74.666 -50 -81.999c-4.66699 2 -9 4 -13 6c-7.33301 4.66699 -14.333 9.66699 -21 15c1.33301 6 2.83301 13.333 4.5 22s2.5 17.334 2.5 26.001c0 7.33301 -1.33301 13.333 -4 18c18 27.333 32.667 48.333 44 63c35.333 45.333 66 75 92 89
c4 2 12 -1.66699 24 -11c4 -2.66699 9.66699 -7.66699 17 -15c-1.33301 -3.33301 -2.33301 -5.66602 -3 -6.99902c-3.33301 -6.66699 -6.33301 -11.667 -9 -15c9.33301 -19.333 16 -35.333 20 -48c13.333 -38 20 -72.333 20 -103z" />
    <glyph glyph-name="Edieresis" unicode="&#xcb;" horiz-adv-x="912" 
d="M822 205c-104 -24.667 -194.336 -56.0039 -271.003 -94.0039c-34.667 -17.333 -83.667 -46.666 -147 -87.999c-38.667 -25.333 -67.667 -38 -87 -38c-10.667 0 -19.667 1.66699 -27 5l-125 46c-44 19.333 -67.667 43.333 -71 72s-5.83301 58.334 -7.5 89.001
s-2.5 65.334 -2.5 104.001c0 16.667 0.333008 43.334 1 80.001s1 65.334 1 86.001c0 72 -1.66699 132.167 -5 180.5s-8.66602 99.166 -15.999 152.499c-3.33301 24.667 46 54.167 148 88.5s193 51.5 273 51.5c0.666992 0 1.33398 0.333008 2.00098 1
c46 0 94.667 -21.667 146 -65l23 -36l-241.5 -35.5c-64.333 -9.66699 -108.833 -21.167 -133.5 -34.5c-18 -9.33301 -28.333 -51 -31 -125s-4.66699 -114.167 -6 -120.5s-2 -10.166 -2 -11.499c0 -8.66699 4.33301 -13 13 -13c10 0 28 7 54 21l115 64
c8 3.33301 23.667 13.666 47 30.999c17.333 12.667 34 19 50 19c31.333 0 57.833 -8.83301 79.5 -26.5s37.834 -42.167 48.501 -73.5c3.33301 -10.667 -24.167 -25.5 -82.5 -44.5l-175.5 -55.5c-68.667 -22.667 -110.334 -42.667 -125.001 -60
c-8.66699 -10.667 -15 -22 -19 -34s-6 -24.333 -6 -37c0 -16 2.83301 -34.333 8.5 -55l16.5 -59c2 -6 6 -9 12 -9c12 0 37.333 13.333 76 40c73.333 50.667 112.333 77.334 117 80.001c50.667 32 92.334 51.667 125.001 59c10 2.66699 22 4.66699 36 6s27.333 2 40 2
c27.333 0 47 -2.66699 59 -8c28 -12.667 52.333 -41.667 73 -87c5.33301 -22.667 11 -45.334 17 -68.001zM410.997 1213c2.66699 -16 -8.33398 -33.332 -33.001 -51.999l-67 -48c-8 -6.66699 -20.333 -14.334 -37 -23.001s-30.334 -13 -41.001 -13c-11.333 0 -17 6 -17 18
c0 18 9.66699 39.667 29 65c16.667 22 39.334 44.667 68.001 68c16.667 13.333 34.667 20 54 20c26.667 0 41.334 -11.667 44.001 -35zM634.996 1192c2.66699 -16 -8.33398 -33.332 -33.001 -51.999l-67 -48c-8 -6.66699 -20.333 -14.334 -37 -23.001
s-30.334 -13 -41.001 -13c-11.333 0 -17 6 -17 18c0 18 9.66699 39.667 29 65c16.667 22 39.334 44.667 68.001 68c16.667 13.333 34.667 20 54 20c26.667 0 41.334 -11.667 44.001 -35z" />
    <glyph glyph-name="Igrave" unicode="&#xcc;" horiz-adv-x="469" 
d="M395 1087c0 -16 -5.66602 -24.001 -16.999 -24.001c-10.667 0 -24.334 4.33301 -41.001 13s-29 16.334 -37 23.001l-67 48c-24.667 18.667 -35.667 36 -33 52c1.33301 12 6 20.833 14 26.5s18 8.5 30 8.5c20.667 0 38.667 -6.66699 54 -20
c28 -23.333 51.167 -46.333 69.5 -69s27.5 -42 27.5 -58zM420.001 19.999c-0.666992 -8 -2.33203 -12.332 -4.99902 -12.999c-3.33301 -1.33301 -14.333 -2 -33 -2c-65.333 0 -135.333 9.16699 -210 27.5s-112 36.166 -112 53.499c0 18 1 47.333 3 88s3 72.334 3 95.001
s-0.333008 58.5 -1 107.5s-1 85.833 -1 110.5c0 86 3.16699 158.5 9.5 217.5s18.833 108.167 37.5 147.5c21.333 46 51.666 75.333 90.999 88c19.333 6.66699 38.333 10 57 10c45.333 0 86.333 -20 123 -60c8.66699 -9.33301 16 -19 22 -29s9 -19.333 9 -28
c0 -8 -2.66699 -15.667 -8 -23c-18.667 -26.667 -32 -58.334 -40 -95.001s-12 -78.667 -12 -126c0 -56 5.5 -119 16.5 -189s22.333 -138.5 34 -205.5s17.5 -115.5 17.5 -145.5v-19c-0.666992 -4.66699 -1 -8 -1 -10z" />
    <glyph glyph-name="Iacute" unicode="&#xcd;" horiz-adv-x="483" 
d="M420 20c-0.666992 -8 -2.33203 -12.332 -4.99902 -12.999c-3.33301 -1.33301 -14.333 -2 -33 -2c-65.333 0 -135.333 9.16699 -210 27.5s-112 36.166 -112 53.499c0 18 1 47.333 3 88s3 72.334 3 95.001s-0.333008 58.5 -1 107.5s-1 85.833 -1 110.5
c0 86 3.16699 158.5 9.5 217.5s18.833 108.167 37.5 147.5c21.333 46 51.666 75.333 90.999 88c19.333 6.66699 38.333 10 57 10c45.333 0 86.333 -20 123 -60c8.66699 -9.33301 16 -19 22 -29s9 -19.333 9 -28c0 -8 -2.66699 -15.667 -8 -23
c-18.667 -26.667 -32 -58.334 -40 -95.001s-12 -78.667 -12 -126c0 -56 5.5 -119 16.5 -189s22.333 -138.5 34 -205.5s17.5 -115.5 17.5 -145.5v-19c-0.666992 -4.66699 -1 -8 -1 -10zM398.002 1199c2.66699 -16 -8.33398 -33.332 -33.001 -51.999l-67 -48
c-8 -6.66699 -20.333 -14.334 -37 -23.001s-30.334 -13 -41.001 -13c-11.333 0 -17 6 -17 18c0 18 9.66699 39.667 29 65c16.667 22 39.334 44.667 68.001 68c16.667 13.333 34.667 20 54 20c26.667 0 41.334 -11.667 44.001 -35z" />
    <glyph glyph-name="Icircumflex" unicode="&#xce;" horiz-adv-x="504" 
d="M430 20c-0.666992 -8 -2.33203 -12.332 -4.99902 -12.999c-3.33301 -1.33301 -14.333 -2 -33 -2c-65.333 0 -135.333 9.16699 -210 27.5s-112 36.166 -112 53.499c0 18 1 47.333 3 88s3 72.334 3 95.001s-0.333008 58.5 -1 107.5s-1 85.833 -1 110.5
c0 86 3.16699 158.5 9.5 217.5s18.833 108.167 37.5 147.5c21.333 46 51.666 75.333 90.999 88c19.333 6.66699 38.333 10 57 10c45.333 0 86.333 -20 123 -60c8.66699 -9.33301 16 -19 22 -29s9 -19.333 9 -28c0 -8 -2.66699 -15.667 -8 -23
c-18.667 -26.667 -32 -58.334 -40 -95.001s-12 -78.667 -12 -126c0 -56 5.5 -119 16.5 -189s22.333 -138.5 34 -205.5s17.5 -115.5 17.5 -145.5v-19c-0.666992 -4.66699 -1 -8 -1 -10zM402.002 1091l-14.001 -29.0039l-19 -4c-1.33301 12 -2.66602 21.667 -3.99902 29
c-9.33301 44.667 -23.333 80.334 -42 107.001l-55 -65c-32 -47.333 -48.667 -74.666 -50 -81.999c-4.66699 2 -9 4 -13 6c-7.33301 4.66699 -14.333 9.66699 -21 15c1.33301 6 2.83301 13.333 4.5 22s2.5 17.334 2.5 26.001c0 7.33301 -1.33301 13.333 -4 18
c18 27.333 32.667 48.333 44 63c35.333 45.333 66 75 92 89c4 2 12 -1.66699 24 -11c4 -2.66699 9.66699 -7.66699 17 -15c-1.33301 -3.33301 -2.33301 -5.66602 -3 -6.99902c-3.33301 -6.66699 -6.33301 -11.667 -9 -15c9.33301 -19.333 16 -35.333 20 -48
c13.333 -38 20 -72.333 20 -103z" />
    <glyph glyph-name="Idieresis" unicode="&#xcf;" horiz-adv-x="476" 
d="M430 20c-0.666992 -8 -2.33203 -12.332 -4.99902 -12.999c-3.33301 -1.33301 -14.333 -2 -33 -2c-65.333 0 -135.333 9.16699 -210 27.5s-112 36.166 -112 53.499c0 18 1 47.333 3 88s3 72.334 3 95.001s-0.333008 58.5 -1 107.5s-1 85.833 -1 110.5
c0 86 3.16699 158.5 9.5 217.5s18.833 108.167 37.5 147.5c21.333 46 51.666 75.333 90.999 88c19.333 6.66699 38.333 10 57 10c45.333 0 86.333 -20 123 -60c8.66699 -9.33301 16 -19 22 -29s9 -19.333 9 -28c0 -8 -2.66699 -15.667 -8 -23
c-18.667 -26.667 -32 -58.334 -40 -95.001s-12 -78.667 -12 -126c0 -56 5.5 -119 16.5 -189s22.333 -138.5 34 -205.5s17.5 -115.5 17.5 -145.5v-19c-0.666992 -4.66699 -1 -8 -1 -10zM254.002 1206c2.66699 -16 -8.33398 -33.332 -33.001 -51.999l-67 -48
c-8 -6.66699 -20.333 -14.334 -37 -23.001s-30.334 -13 -41.001 -13c-11.333 0 -17 6 -17 18c0 18 9.66699 39.667 29 65c16.667 22 39.334 44.667 68.001 68c16.667 13.333 34.667 20 54 20c26.667 0 41.334 -11.667 44.001 -35zM429.001 1171
c2.66699 -16 -8.33398 -33.332 -33.001 -51.999l-67 -48c-8 -6.66699 -20.333 -14.334 -37 -23.001s-30.334 -13 -41.001 -13c-11.333 0 -17 6 -17 18c0 18 9.66699 39.667 29 65c16.667 22 39.334 44.667 68.001 68c16.667 13.333 34.667 20 54 20
c26.667 0 41.334 -11.667 44.001 -35z" />
    <glyph glyph-name="Ntilde" unicode="&#xd1;" horiz-adv-x="1032" 
d="M987 870c1.33301 -9.33301 -1.67188 -20.0029 -9.00488 -32.0029s-11.666 -21.333 -12.999 -28c-12 -74 -23 -159.667 -33 -257s-17 -179.166 -21 -245.499s-6 -118.833 -6 -157.5c0 -18 2.66699 -38.667 8 -62s8 -38.333 8 -45c0 -13.333 -5.33301 -24.333 -16 -33
c-15.333 -12 -42.333 -18 -81 -18c-31.333 0 -64.666 3.83301 -99.999 11.5s-67.666 18.167 -96.999 31.5c-47.333 22 -93.666 67.333 -138.999 136c-22 32.667 -53.667 90 -95 172c-28.667 56 -48 84 -58 84c-6 0 -11 -5.66699 -15 -17c-8 -22 -13.167 -42.167 -15.5 -60.5
s-3.5 -39.166 -3.5 -62.499v-26c0 -8.66699 0.333008 -17.334 1 -26.001c0 -16.667 -0.833008 -32.167 -2.5 -46.5s-4.5 -28.833 -8.5 -43.5s-7.66699 -41.5 -11 -80.5s-17.666 -60.5 -42.999 -64.5c-11.333 -2 -23.333 -3 -36 -3c-43.333 0 -80 7.66699 -110 23
c-37.333 18.667 -56 45.334 -56 80.001c8.66699 101.333 23 203 43 305c22.667 114.667 53.334 231.334 92.001 350.001c4.66699 16 7 29.667 7 41c0 6 -0.5 12.667 -1.5 20s-1.83301 15.666 -2.5 24.999c0 8 1 14.333 3 19s5 9.66699 9 15c19.333 26 46.333 39 81 39
c16 0 33.5 -2.66699 52.5 -8s39.5 -12.333 61.5 -21c16.667 -6.66699 28 -19.334 34 -38.001c4 -13.333 6 -34 6 -62v-36c0 -9.33301 0.333008 -19.166 1 -29.499s2 -20.166 4 -29.499l36 -163.5c12 -52.333 27.5 -96.5 46.5 -132.5s48.833 -75.667 89.5 -119
c10 -10.667 18.333 -16 25 -16c17.333 0 27.833 64.667 31.5 194s6.5 203.333 8.5 222c10.667 116 34 197.667 70 245c7.33301 10 16.666 16.833 27.999 20.5s24.333 5.5 39 5.5c6 0 12.167 -0.166992 18.5 -0.5s12.833 -0.5 19.5 -0.5c40.667 0 72.334 -4.33301 95.001 -13
c31.333 -12 49.666 -32.667 54.999 -62zM357.995 1122c23.333 21.333 43.832 36.333 61.499 45s33.5 13 47.5 13c10.667 0 20.667 -2 30 -6l28 -12l57 -25.5c11.333 -5 21.666 -7.5 30.999 -7.5c30.667 0 55 2.33301 73 7c34.667 9.33301 56 26.333 64 51
c-4 -19.333 -8.33301 -34.333 -13 -45c-15.333 -32 -39.666 -53.667 -72.999 -65c-14.667 -4.66699 -30 -7 -46 -7c-24 0 -49.667 6.33301 -77 19c-16 8 -31.667 16.333 -47 25c-8 3.33301 -19.667 6.5 -35 9.5s-31.666 4.5 -48.999 4.5c-16.667 0 -34 -2 -52 -6z" />
    <glyph glyph-name="Ograve" unicode="&#xd2;" horiz-adv-x="917" 
d="M523 898c122 -77.333 212.331 -159.333 270.998 -246c52 -77.333 78 -157.333 78 -240c0 -114 -47.333 -214.667 -142 -302c-88.667 -82 -183.667 -123 -285 -123c-20 0 -39 2 -57 6c-119.333 26 -208.666 80 -267.999 162c-52 72 -78 160 -78 264
c0 112.667 28.667 220.5 86 323.5s124 168.167 200 195.5c16 6 32.833 10.833 50.5 14.5s33.5 5.5 47.5 5.5c12.667 0 23.334 -1.5 32.001 -4.5s15.5 -8.5 20.5 -16.5s11.167 -15 18.5 -21c5.33301 -4 14 -10 26 -18zM477.998 173c66 45.333 115.002 95 147.002 149
c28 47.333 42 97.333 42 150c0 77.333 -27.667 147 -83 209c-52 58 -104.667 87 -158 87c-44 0 -92 -56.833 -144 -170.5s-78 -219.167 -78 -316.5c0 -42 5.66699 -76.833 17 -104.5s29.666 -47.167 54.999 -58.5c19.333 -8 37.333 -12 54 -12
c17.333 0 36.166 4.16699 56.499 12.5s50.833 26.5 91.5 54.5zM549 1052c0 -16 -5.66602 -24.001 -16.999 -24.001c-10.667 0 -24.334 4.33301 -41.001 13s-29 16.334 -37 23.001l-67 48c-24.667 18.667 -35.667 36 -33 52c1.33301 12 6 20.833 14 26.5s18 8.5 30 8.5
c20.667 0 38.667 -6.66699 54 -20c28 -23.333 51.167 -46.333 69.5 -69s27.5 -42 27.5 -58z" />
    <glyph glyph-name="Oacute" unicode="&#xd3;" horiz-adv-x="910" 
d="M513 898c122 -77.333 212.331 -159.333 270.998 -246c52 -77.333 78 -157.333 78 -240c0 -114 -47.333 -214.667 -142 -302c-88.667 -82 -183.667 -123 -285 -123c-20 0 -39 2 -57 6c-119.333 26 -208.666 80 -267.999 162c-52 72 -78 160 -78 264
c0 112.667 28.667 220.5 86 323.5s124 168.167 200 195.5c16 6 32.833 10.833 50.5 14.5s33.5 5.5 47.5 5.5c12.667 0 23.334 -1.5 32.001 -4.5s15.5 -8.5 20.5 -16.5s11.167 -15 18.5 -21c5.33301 -4 14 -10 26 -18zM467.998 173c66 45.333 115.002 95 147.002 149
c28 47.333 42 97.333 42 150c0 77.333 -27.667 147 -83 209c-52 58 -104.667 87 -158 87c-44 0 -92 -56.833 -144 -170.5s-78 -219.167 -78 -316.5c0 -42 5.66699 -76.833 17 -104.5s29.666 -47.167 54.999 -58.5c19.333 -8 37.333 -12 54 -12
c17.333 0 36.166 4.16699 56.499 12.5s50.833 26.5 91.5 54.5zM528 1199c2.66699 -16 -8.33398 -33.332 -33.001 -51.999l-67 -48c-8 -6.66699 -20.333 -14.334 -37 -23.001s-30.334 -13 -41.001 -13c-11.333 0 -17 6 -17 18c0 18 9.66699 39.667 29 65
c16.667 22 39.334 44.667 68.001 68c16.667 13.333 34.667 20 54 20c26.667 0 41.334 -11.667 44.001 -35z" />
    <glyph glyph-name="Ocircumflex" unicode="&#xd4;" horiz-adv-x="924" 
d="M533 898c122 -77.333 212.331 -159.333 270.998 -246c52 -77.333 78 -157.333 78 -240c0 -114 -47.333 -214.667 -142 -302c-88.667 -82 -183.667 -123 -285 -123c-20 0 -39 2 -57 6c-119.333 26 -208.666 80 -267.999 162c-52 72 -78 160 -78 264
c0 112.667 28.667 220.5 86 323.5s124 168.167 200 195.5c16 6 32.833 10.833 50.5 14.5s33.5 5.5 47.5 5.5c12.667 0 23.334 -1.5 32.001 -4.5s15.5 -8.5 20.5 -16.5s11.167 -15 18.5 -21c5.33301 -4 14 -10 26 -18zM487.998 173c66 45.333 115.002 95 147.002 149
c28 47.333 42 97.333 42 150c0 77.333 -27.667 147 -83 209c-52 58 -104.667 87 -158 87c-44 0 -92 -56.833 -144 -170.5s-78 -219.167 -78 -316.5c0 -42 5.66699 -76.833 17 -104.5s29.666 -47.167 54.999 -58.5c19.333 -8 37.333 -12 54 -12
c17.333 0 36.166 4.16699 56.499 12.5s50.833 26.5 91.5 54.5zM554 1084l-14.001 -29.0039l-19 -4c-1.33301 12 -2.66602 21.667 -3.99902 29c-9.33301 44.667 -23.333 80.334 -42 107.001l-55 -65c-32 -47.333 -48.667 -74.666 -50 -81.999c-4.66699 2 -9 4 -13 6
c-7.33301 4.66699 -14.333 9.66699 -21 15c1.33301 6 2.83301 13.333 4.5 22s2.5 17.334 2.5 26.001c0 7.33301 -1.33301 13.333 -4 18c18 27.333 32.667 48.333 44 63c35.333 45.333 66 75 92 89c4 2 12 -1.66699 24 -11c4 -2.66699 9.66699 -7.66699 17 -15
c-1.33301 -3.33301 -2.33301 -5.66602 -3 -6.99902c-3.33301 -6.66699 -6.33301 -11.667 -9 -15c9.33301 -19.333 16 -35.333 20 -48c13.333 -38 20 -72.333 20 -103z" />
    <glyph glyph-name="Otilde" unicode="&#xd5;" 
d="M543 898c122 -77.333 212.331 -159.333 270.998 -246c52 -77.333 78 -157.333 78 -240c0 -114 -47.333 -214.667 -142 -302c-88.667 -82 -183.667 -123 -285 -123c-20 0 -39 2 -57 6c-119.333 26 -208.666 80 -267.999 162c-52 72 -78 160 -78 264
c0 112.667 28.667 220.5 86 323.5s124 168.167 200 195.5c16 6 32.833 10.833 50.5 14.5s33.5 5.5 47.5 5.5c12.667 0 23.334 -1.5 32.001 -4.5s15.5 -8.5 20.5 -16.5s11.167 -15 18.5 -21c5.33301 -4 14 -10 26 -18zM497.998 173c66 45.333 115.002 95 147.002 149
c28 47.333 42 97.333 42 150c0 77.333 -27.667 147 -83 209c-52 58 -104.667 87 -158 87c-44 0 -92 -56.833 -144 -170.5s-78 -219.167 -78 -316.5c0 -42 5.66699 -76.833 17 -104.5s29.666 -47.167 54.999 -58.5c19.333 -8 37.333 -12 54 -12
c17.333 0 36.166 4.16699 56.499 12.5s50.833 26.5 91.5 54.5zM388 1122c23.333 21.333 43.832 36.333 61.499 45s33.5 13 47.5 13c10.667 0 20.667 -2 30 -6l28 -12l57 -25.5c11.333 -5 21.666 -7.5 30.999 -7.5c30.667 0 55 2.33301 73 7c34.667 9.33301 56 26.333 64 51
c-4 -19.333 -8.33301 -34.333 -13 -45c-15.333 -32 -39.666 -53.667 -72.999 -65c-14.667 -4.66699 -30 -7 -46 -7c-24 0 -49.667 6.33301 -77 19c-16 8 -31.667 16.333 -47 25c-8 3.33301 -19.667 6.5 -35 9.5s-31.666 4.5 -48.999 4.5c-16.667 0 -34 -2 -52 -6z" />
    <glyph glyph-name="Odieresis" unicode="&#xd6;" 
d="M523 898c122 -77.333 212.331 -159.333 270.998 -246c52 -77.333 78 -157.333 78 -240c0 -114 -47.333 -214.667 -142 -302c-88.667 -82 -183.667 -123 -285 -123c-20 0 -39 2 -57 6c-119.333 26 -208.666 80 -267.999 162c-52 72 -78 160 -78 264
c0 112.667 28.667 220.5 86 323.5s124 168.167 200 195.5c16 6 32.833 10.833 50.5 14.5s33.5 5.5 47.5 5.5c12.667 0 23.334 -1.5 32.001 -4.5s15.5 -8.5 20.5 -16.5s11.167 -15 18.5 -21c5.33301 -4 14 -10 26 -18zM477.998 173c66 45.333 115.002 95 147.002 149
c28 47.333 42 97.333 42 150c0 77.333 -27.667 147 -83 209c-52 58 -104.667 87 -158 87c-44 0 -92 -56.833 -144 -170.5s-78 -219.167 -78 -316.5c0 -42 5.66699 -76.833 17 -104.5s29.666 -47.167 54.999 -58.5c19.333 -8 37.333 -12 54 -12
c17.333 0 36.166 4.16699 56.499 12.5s50.833 26.5 91.5 54.5zM484 1168c3.33301 -20 -11.001 -45.667 -43.001 -77c-12 -12 -27.667 -26.333 -47 -43c-5.33301 -4.66699 -14.5 -8.66699 -27.5 -12s-26.833 -5 -41.5 -5c-16 0 -28.667 2.5 -38 7.5
s-13.666 13.167 -12.999 24.5c2 16.667 12.333 37.167 31 61.5s40.667 47.166 66 68.499c14.667 11.333 31.667 17 51 17c16 0 29.833 -3.66699 41.5 -11s18.5 -17.666 20.5 -30.999zM742.999 1161c3.33301 -20 -11.001 -45.667 -43.001 -77
c-12 -12 -27.667 -26.333 -47 -43c-5.33301 -4.66699 -14.5 -8.66699 -27.5 -12s-26.833 -5 -41.5 -5c-16 0 -28.667 2.5 -38 7.5s-13.666 13.167 -12.999 24.5c2 16.667 12.333 37.167 31 61.5s40.667 47.166 66 68.499c14.667 11.333 31.667 17 51 17
c16 0 29.833 -3.66699 41.5 -11s18.5 -17.666 20.5 -30.999z" />
    <glyph glyph-name=".null" unicode="&#xd7;" horiz-adv-x="0" 
 />
    <glyph glyph-name=".null" unicode="&#x141;" horiz-adv-x="0" 
 />
    <glyph glyph-name="Oslash" unicode="&#xd8;" horiz-adv-x="912" 
d="M603 643l-323.999 -530.001c13.333 -4.66699 27.333 -7 42 -7c26.667 0 57 10 91 30c10 6 28.667 18.333 56 37c66.667 45.333 115.667 95 147 149c28 48 42 98.333 42 151c0 30.667 -4.83301 60.334 -14.5 89.001s-22.834 55.667 -39.501 81zM223.001 153.999l329 549
c-45.333 43.333 -90.666 65 -135.999 65c-44.667 0 -92.834 -56.833 -144.501 -170.5s-77.5 -219.167 -77.5 -316.5c0 -26 2.33301 -49.833 7 -71.5s12 -40.167 22 -55.5zM681.001 770.999c62.667 -58.667 109.331 -120.331 139.998 -184.998
c28 -58.667 42 -117.334 42 -176.001c0 -114 -47.333 -214.333 -142 -301c-89.333 -81.333 -184.666 -122 -285.999 -122c-20 0 -39 2 -57 6c-54 12 -101 29 -141 51l-97 -158l-45 55l85 141c-50.667 40 -88.667 90 -114 150c-22.667 54.667 -34 116 -34 184
c0 113.333 28.667 221.833 86 325.5s124 169.167 200 196.5c16 6 32.833 10.833 50.5 14.5s33.5 5.5 47.5 5.5c12.667 0 23.334 -1.5 32.001 -4.5s15.5 -8.5 20.5 -16.5s11.167 -15 18.5 -21c5.33301 -4 14 -10 26 -18c42 -26.667 78.667 -52.334 110 -77.001l73 121l75 -25
z" />
    <glyph glyph-name="Ugrave" unicode="&#xd9;" horiz-adv-x="952" 
d="M527 1017c0 -16 -6.33496 -24.001 -19.002 -24.001c-11.333 0 -26.166 4.33301 -44.499 13s-31.166 16.334 -38.499 23.001l-76 60c-13.333 14 -19 27.333 -17 40c1.33301 12 6 20.833 14 26.5s18 8.5 30 8.5c20.667 0 38.667 -6.66699 54 -20
c28 -23.333 51.167 -46.333 69.5 -69s27.5 -42 27.5 -58zM811.998 867.999c28.667 -67.333 50.002 -132.836 64.002 -196.503s21 -124.5 21 -182.5c0 -95.333 -17.667 -181.666 -53 -258.999c-32 -70 -75.333 -127.333 -130 -172l-29 -24c-7.33301 -4 -30 -12.667 -68 -26
c-16 -5.33301 -39 -10 -69 -14s-62 -6 -96 -6c-40.667 0 -77.834 2.5 -111.501 7.5s-66.5 14.167 -98.5 27.5c-72.667 29.333 -126.334 85 -161.001 167c-29.333 69.333 -44 154.666 -44 255.999c0 110.667 16.5 214.334 49.5 311.001s64.833 142 95.5 136
c13.333 -2.66699 47.333 -5.16699 102 -7.5s82 -14.166 82 -35.499c0 -5.33301 -1.33301 -11 -4 -17c-28 -62.667 -53.667 -142 -77 -238c-28.667 -116.667 -43 -217 -43 -301c0 -67.333 9 -118.666 27 -153.999c21.333 -41.333 54.666 -62 99.999 -62
c67.333 0 127 72.333 179 217c47.333 132 71 267 71 405c0 58 -5 105.667 -15 143s-25.667 62.333 -47 75c-4 2 -6 4.33301 -6 7c0 6 8.66699 12.167 26 18.5s33 9.5 47 9.5c27.333 0 64.333 -11.333 111 -34s72.334 -39.667 77.001 -51z" />
    <glyph glyph-name="Uacute" unicode="&#xda;" horiz-adv-x="952" 
d="M526 1129c2.66699 -16.667 -7.00195 -34.001 -29.002 -52.001l-64 -48c-8.66699 -7.33301 -21.667 -15.166 -39 -23.499s-32 -12.5 -44 -12.5c-12.667 0 -19 6 -19 18c0 18 9.66699 39.667 29 65c16.667 22 39.334 44.667 68.001 68c16.667 13.333 34.667 20 54 20
c26.667 0 41.334 -11.667 44.001 -35zM811.998 867.999c28.667 -67.333 50.002 -132.836 64.002 -196.503s21 -124.5 21 -182.5c0 -95.333 -17.667 -181.666 -53 -258.999c-32 -70 -75.333 -127.333 -130 -172l-29 -24c-7.33301 -4 -30 -12.667 -68 -26
c-16 -5.33301 -39 -10 -69 -14s-62 -6 -96 -6c-40.667 0 -77.834 2.5 -111.501 7.5s-66.5 14.167 -98.5 27.5c-72.667 29.333 -126.334 85 -161.001 167c-29.333 69.333 -44 154.666 -44 255.999c0 110.667 16.5 214.334 49.5 311.001s64.833 142 95.5 136
c13.333 -2.66699 47.333 -5.16699 102 -7.5s82 -14.166 82 -35.499c0 -5.33301 -1.33301 -11 -4 -17c-28 -62.667 -53.667 -142 -77 -238c-28.667 -116.667 -43 -217 -43 -301c0 -67.333 9 -118.666 27 -153.999c21.333 -41.333 54.666 -62 99.999 -62
c67.333 0 127 72.333 179 217c47.333 132 71 267 71 405c0 58 -5 105.667 -15 143s-25.667 62.333 -47 75c-4 2 -6 4.33301 -6 7c0 6 8.66699 12.167 26 18.5s33 9.5 47 9.5c27.333 0 64.333 -11.333 111 -34s72.334 -39.667 77.001 -51z" />
    <glyph glyph-name="Ucircumflex" unicode="&#xdb;" horiz-adv-x="952" 
d="M812 868c28.667 -67.333 50.002 -132.836 64.002 -196.503s21 -124.5 21 -182.5c0 -95.333 -17.667 -181.666 -53 -258.999c-32 -70 -75.333 -127.333 -130 -172l-29 -24c-7.33301 -4 -30 -12.667 -68 -26c-16 -5.33301 -39 -10 -69 -14s-62 -6 -96 -6
c-40.667 0 -77.834 2.5 -111.501 7.5s-66.5 14.167 -98.5 27.5c-72.667 29.333 -126.334 85 -161.001 167c-29.333 69.333 -44 154.666 -44 255.999c0 110.667 16.5 214.334 49.5 311.001s64.833 142 95.5 136c13.333 -2.66699 47.333 -5.16699 102 -7.5
s82 -14.166 82 -35.499c0 -5.33301 -1.33301 -11 -4 -17c-28 -62.667 -53.667 -142 -77 -238c-28.667 -116.667 -43 -217 -43 -301c0 -67.333 9 -118.666 27 -153.999c21.333 -41.333 54.666 -62 99.999 -62c67.333 0 127 72.333 179 217c47.333 132 71 267 71 405
c0 58 -5 105.667 -15 143s-25.667 62.333 -47 75c-4 2 -6 4.33301 -6 7c0 6 8.66699 12.167 26 18.5s33 9.5 47 9.5c27.333 0 64.333 -11.333 111 -34s72.334 -39.667 77.001 -51zM583.002 1119l-14.001 -29.0039l-19 -4c-1.33301 12 -2.66602 21.667 -3.99902 29
c-9.33301 44.667 -23.333 80.334 -42 107.001l-55 -65c-32 -47.333 -48.667 -74.666 -50 -81.999c-4.66699 2 -9 4 -13 6c-7.33301 4.66699 -14.333 9.66699 -21 15c1.33301 6 2.83301 13.333 4.5 22s2.5 17.334 2.5 26.001c0 7.33301 -1.33301 13.333 -4 18
c18 27.333 32.667 48.333 44 63c35.333 45.333 66 75 92 89c4 2 12 -1.66699 24 -11c4 -2.66699 9.66699 -7.66699 17 -15c-1.33301 -3.33301 -2.33301 -5.66602 -3 -6.99902c-3.33301 -6.66699 -6.33301 -11.667 -9 -15c9.33301 -19.333 16 -35.333 20 -48
c13.333 -38 20 -72.333 20 -103z" />
    <glyph glyph-name="Udieresis" unicode="&#xdc;" horiz-adv-x="952" 
d="M822 868c28.667 -67.333 50.002 -132.836 64.002 -196.503s21 -124.5 21 -182.5c0 -95.333 -17.667 -181.666 -53 -258.999c-32 -70 -75.333 -127.333 -130 -172l-29 -24c-7.33301 -4 -30 -12.667 -68 -26c-16 -5.33301 -39 -10 -69 -14s-62 -6 -96 -6
c-40.667 0 -77.834 2.5 -111.501 7.5s-66.5 14.167 -98.5 27.5c-72.667 29.333 -126.334 85 -161.001 167c-29.333 69.333 -44 154.666 -44 255.999c0 110.667 16.5 214.334 49.5 311.001s64.833 142 95.5 136c13.333 -2.66699 47.333 -5.16699 102 -7.5
s82 -14.166 82 -35.499c0 -5.33301 -1.33301 -11 -4 -17c-28 -62.667 -53.667 -142 -77 -238c-28.667 -116.667 -43 -217 -43 -301c0 -67.333 9 -118.666 27 -153.999c21.333 -41.333 54.666 -62 99.999 -62c67.333 0 127 72.333 179 217c47.333 132 71 267 71 405
c0 58 -5 105.667 -15 143s-25.667 62.333 -47 75c-4 2 -6 4.33301 -6 7c0 6 8.66699 12.167 26 18.5s33 9.5 47 9.5c27.333 0 64.333 -11.333 111 -34s72.334 -39.667 77.001 -51zM484.002 1168c3.33301 -20 -11.001 -45.667 -43.001 -77c-12 -12 -27.667 -26.333 -47 -43
c-5.33301 -4.66699 -14.5 -8.66699 -27.5 -12s-26.833 -5 -41.5 -5c-16 0 -28.667 2.5 -38 7.5s-13.666 13.167 -12.999 24.5c2 16.667 12.333 37.167 31 61.5s40.667 47.166 66 68.499c14.667 11.333 31.667 17 51 17c16 0 29.833 -3.66699 41.5 -11
s18.5 -17.666 20.5 -30.999zM743.001 1161c3.33301 -20 -11.001 -45.667 -43.001 -77c-12 -12 -27.667 -26.333 -47 -43c-5.33301 -4.66699 -14.5 -8.66699 -27.5 -12s-26.833 -5 -41.5 -5c-16 0 -28.667 2.5 -38 7.5s-13.666 13.167 -12.999 24.5
c2 16.667 12.333 37.167 31 61.5s40.667 47.166 66 68.499c14.667 11.333 31.667 17 51 17c16 0 29.833 -3.66699 41.5 -11s18.5 -17.666 20.5 -30.999z" />
    <glyph glyph-name="Yacute" unicode="&#xdd;" horiz-adv-x="1184" 
d="M1120 855c-4 -8 -51.668 -38.668 -143.001 -92.001c-104.667 -61.333 -184.667 -118.666 -240 -171.999c-84.667 -81.333 -127 -163.333 -127 -246c0 -43.333 22.5 -94.833 67.5 -154.5s67.5 -98.167 67.5 -115.5c0 -25.333 -11.833 -45.666 -35.5 -60.999
s-51.5 -23 -83.5 -23c-32.667 0 -60.667 8 -84 24c-12 8 -33.333 17 -64 27c-47.333 15.333 -71 36.333 -71 63c0 89.333 -23.667 192.666 -71 309.999c-36 89.333 -85 186.333 -147 291l-127 204c-3.33301 6.66699 -5 11.667 -5 15c0 10 8.83301 16.833 26.5 20.5
s39.834 5.5 66.501 5.5c10.667 0 21.167 -0.166992 31.5 -0.5s20.5 -0.5 30.5 -0.5c39.333 0 80 -25.333 122 -76c33.333 -40 65.333 -92.333 96 -157c22.667 -48 40 -92 52 -132c0.666992 -4.66699 3.66699 -7 9 -7c12 0 44.667 30.333 98 91
c74.667 85.333 128 143.333 160 174c66 64 119.667 98 161 102c4 0.666992 10.333 1 19 1c44 0 89 -11 135 -33s64.667 -41.333 56 -58zM745.999 1189c3.33301 -20 -11.001 -45.667 -43.001 -77c-12 -12 -27.667 -26.333 -47 -43
c-5.33301 -4.66699 -14.5 -8.66699 -27.5 -12s-26.833 -5 -41.5 -5c-16 0 -28.667 2.5 -38 7.5s-13.666 13.167 -12.999 24.5c2 16.667 12.333 37.167 31 61.5s40.667 47.166 66 68.499c14.667 11.333 31.667 17 51 17c16 0 29.833 -3.66699 41.5 -11
s18.5 -17.666 20.5 -30.999z" />
    <glyph glyph-name="germandbls" unicode="&#xdf;" horiz-adv-x="840" 
d="M420 733l3 5c11.333 18 17 38 17 60c0 24.667 -9 37 -27 37c-9.33301 0 -17.166 -0.666992 -23.499 -2s-13.5 -4 -21.5 -8c-18 -4 -35.333 -11 -52 -21l-50 -30c-20 -10 -34.833 -32.5 -44.5 -67.5s-14.5 -76.833 -14.5 -125.5c0 -59.333 6.16699 -124.5 18.5 -195.5
s27.833 -134.5 46.5 -190.5l15 -45c2.66699 -10 5 -15.333 7 -16l-45 -79l-53 -76c-7.33301 4 -15.666 6 -24.999 6c-3.33301 0 -11.333 -1.66699 -24 -5c-4.66699 -1.33301 -9.33398 -2 -14.001 -2c-10.667 0 -20.667 4.33301 -30 13c-12.667 11.333 -27.334 31 -44.001 59
l-15 25l7 375l15 368l-4 2l3 -2c56.667 41.333 109.334 72.666 158.001 93.999c56.667 24.667 111.334 37 164.001 37c48 0 97.667 -10.333 149 -31c26 -10.667 44.333 -19 55 -25c28 -15.333 50.667 -37.666 68 -66.999l4 -8c7.33301 -14 11 -29 11 -45
c0 -28.667 -16 -60.667 -48 -96c-10.667 -12 -28.667 -30.333 -54 -55l-74 -71l59 1c45.333 0 84.833 -9.16699 118.5 -27.5s64.167 -46.833 91.5 -85.5c19.333 -27.333 29 -57 29 -89c0 -39.333 -14.333 -74.333 -43 -105c-0.666992 -3.33301 -2.33398 -6 -5.00098 -8
l-8 -6l-29.5 -29.5c-9.66699 -9.66699 -20.834 -19.5 -33.501 -29.5l-50 -40l-99 -59c-14.667 -8.66699 -39.667 -15.334 -75 -20.001c-11.333 -1.33301 -27 -2.66602 -47 -3.99902c-4.66699 15.333 -8.16699 30.333 -10.5 45s-3.5 28 -3.5 40c0 9.33301 0.333008 17 1 23
s1.66699 11.333 3 16c0 33.333 19 65.666 57 96.999l133 104c2 6 4 12.333 6 19c0 2.66699 -1.66699 5.33398 -5 8.00098c0 16 -7 28.5 -21 37.5s-30.667 13.5 -50 13.5c-6.66699 0 -15 -2.5 -25 -7.5s-16.667 -7.5 -20 -7.5s-6.66602 1 -9.99902 3
c-20 5.33301 -35.667 10.333 -47 15c-34.667 14 -57.834 29.5 -69.501 46.5s-17.5 33.5 -17.5 49.5c0 18.667 7.33301 40 22 64c46 74.667 69.667 114 71 118z" />
    <glyph glyph-name="agrave" unicode="&#xe0;" horiz-adv-x="752" 
d="M504 779c0 -12.667 -4.66895 -21.666 -14.002 -26.999s-21.666 -8 -36.999 -8c-14 0 -27.667 1.66699 -41 5s-22.666 7.33301 -27.999 12c-30.667 26.667 -51 45.667 -61 57c-22 24.667 -31.667 45.667 -29 63c2 13.333 9 23.666 21 30.999s26 11 42 11
c20 0 36.667 -5.66699 50 -17c28 -23.333 51.167 -46.333 69.5 -69s27.5 -42 27.5 -58zM686.998 47.001c-3.33301 -8.66699 -17.3291 -13.002 -41.9961 -13.002c-26 0 -47 3.33301 -63 10c-2.66699 1.33301 -5.33398 5 -8.00098 11s-5.66699 9 -9 9
c-4 0 -9.83301 -3.83301 -17.5 -11.5s-17.5 -14.5 -29.5 -20.5c-39.333 -19.333 -92.333 -29 -159 -29c-32.667 0 -72.667 3.33301 -120 10s-82 20 -104 40c-18 16.667 -27 39.334 -27 68.001c0 17.333 3 36.333 9 57c9.33301 27.333 16 47.333 20 60
c20.667 60 59.167 107.833 115.5 143.5s116.166 53.5 179.499 53.5c34 0 66.667 -6 98 -18c5.33301 -2 9.33301 -0.333008 12 5s4 13 4 23c0 24.667 -5.33301 50 -16 76c-12.667 30.667 -28.334 50.667 -47.001 60c-10 5.33301 -23 8 -39 8
c-45.333 0 -113.333 -25.333 -204 -76l-100 -59c-6 -3.33301 -13.333 -5 -22 -5c-18.667 0 -36.834 7.83301 -54.501 23.5s-26.5 32.167 -26.5 49.5c0 4 1.33301 9.33301 4 16c14 30.667 54.667 60 122 88c72 30 145.333 45 220 45c34 0 65.667 -3.16699 95 -9.5
s57 -16.833 83 -31.5c49.333 -28 87 -87.333 113 -178c21.333 -74.667 32 -157.667 32 -249c0 -35.333 -1.66699 -66.166 -5 -92.499s-8 -47.5 -14 -63.5zM546.002 143.999c14 20.667 26.166 44.833 36.499 72.5s15.5 53.167 15.5 76.5c0 20 -4.5 35.667 -13.5 47
s-24.167 17 -45.5 17c-41.333 0 -92.666 -23.667 -153.999 -71s-99.666 -93 -114.999 -137c-6 -16.667 -9 -32.334 -9 -47.001c0 -11.333 2 -20.333 6 -27s10.667 -10.667 20 -12c43.333 0 94.666 9.33301 153.999 28s94.333 36.334 105 53.001z" />
    <glyph glyph-name="aacute" unicode="&#xe1;" horiz-adv-x="752" 
d="M687 47c-3.33301 -8.66699 -17.3291 -13.002 -41.9961 -13.002c-26 0 -47 3.33301 -63 10c-2.66699 1.33301 -5.33398 5 -8.00098 11s-5.66699 9 -9 9c-4 0 -9.83301 -3.83301 -17.5 -11.5s-17.5 -14.5 -29.5 -20.5c-39.333 -19.333 -92.333 -29 -159 -29
c-32.667 0 -72.667 3.33301 -120 10s-82 20 -104 40c-18 16.667 -27 39.334 -27 68.001c0 17.333 3 36.333 9 57c9.33301 27.333 16 47.333 20 60c20.667 60 59.167 107.833 115.5 143.5s116.166 53.5 179.499 53.5c34 0 66.667 -6 98 -18
c5.33301 -2 9.33301 -0.333008 12 5s4 13 4 23c0 24.667 -5.33301 50 -16 76c-12.667 30.667 -28.334 50.667 -47.001 60c-10 5.33301 -23 8 -39 8c-45.333 0 -113.333 -25.333 -204 -76l-100 -59c-6 -3.33301 -13.333 -5 -22 -5c-18.667 0 -36.834 7.83301 -54.501 23.5
s-26.5 32.167 -26.5 49.5c0 4 1.33301 9.33301 4 16c14 30.667 54.667 60 122 88c72 30 145.333 45 220 45c34 0 65.667 -3.16699 95 -9.5s57 -16.833 83 -31.5c49.333 -28 87 -87.333 113 -178c21.333 -74.667 32 -157.667 32 -249c0 -35.333 -1.66699 -66.166 -5 -92.499
s-8 -47.5 -14 -63.5zM546.004 143.998c14 20.667 26.166 44.833 36.499 72.5s15.5 53.167 15.5 76.5c0 20 -4.5 35.667 -13.5 47s-24.167 17 -45.5 17c-41.333 0 -92.666 -23.667 -153.999 -71s-99.666 -93 -114.999 -137c-6 -16.667 -9 -32.334 -9 -47.001
c0 -11.333 2 -20.333 6 -27s10.667 -10.667 20 -12c43.333 0 94.666 9.33301 153.999 28s94.333 36.334 105 53.001zM537.003 943.997c3.33301 -20 -11.001 -45.667 -43.001 -77c-12 -12 -27.667 -26.333 -47 -43c-5.33301 -4.66699 -14.5 -8.66699 -27.5 -12
s-26.833 -5 -41.5 -5c-16 0 -28.667 2.5 -38 7.5s-13.666 13.167 -12.999 24.5c2 16.667 12.333 37.167 31 61.5s40.667 47.166 66 68.499c14.667 11.333 31.667 17 51 17c16 0 29.833 -3.66699 41.5 -11s18.5 -17.666 20.5 -30.999z" />
    <glyph glyph-name="acircumflex" unicode="&#xe2;" horiz-adv-x="760" 
d="M697 47c-3.33301 -8.66699 -17.3291 -13.002 -41.9961 -13.002c-26 0 -47 3.33301 -63 10c-2.66699 1.33301 -5.33398 5 -8.00098 11s-5.66699 9 -9 9c-4 0 -9.83301 -3.83301 -17.5 -11.5s-17.5 -14.5 -29.5 -20.5c-39.333 -19.333 -92.333 -29 -159 -29
c-32.667 0 -72.667 3.33301 -120 10s-82 20 -104 40c-18 16.667 -27 39.334 -27 68.001c0 17.333 3 36.333 9 57c9.33301 27.333 16 47.333 20 60c20.667 60 59.167 107.833 115.5 143.5s116.166 53.5 179.499 53.5c34 0 66.667 -6 98 -18
c5.33301 -2 9.33301 -0.333008 12 5s4 13 4 23c0 24.667 -5.33301 50 -16 76c-12.667 30.667 -28.334 50.667 -47.001 60c-10 5.33301 -23 8 -39 8c-45.333 0 -113.333 -25.333 -204 -76l-100 -59c-6 -3.33301 -13.333 -5 -22 -5c-18.667 0 -36.834 7.83301 -54.501 23.5
s-26.5 32.167 -26.5 49.5c0 4 1.33301 9.33301 4 16c14 30.667 54.667 60 122 88c72 30 145.333 45 220 45c34 0 65.667 -3.16699 95 -9.5s57 -16.833 83 -31.5c49.333 -28 87 -87.333 113 -178c21.333 -74.667 32 -157.667 32 -249c0 -35.333 -1.66699 -66.166 -5 -92.499
s-8 -47.5 -14 -63.5zM556.004 143.998c14 20.667 26.166 44.833 36.499 72.5s15.5 53.167 15.5 76.5c0 20 -4.5 35.667 -13.5 47s-24.167 17 -45.5 17c-41.333 0 -92.666 -23.667 -153.999 -71s-99.666 -93 -114.999 -137c-6 -16.667 -9 -32.334 -9 -47.001
c0 -11.333 2 -20.333 6 -27s10.667 -10.667 20 -12c43.333 0 94.666 9.33301 153.999 28s94.333 36.334 105 53.001zM481.003 782.997l-14.001 -29.0039l-19 -4c-1.33301 12 -2.66602 21.667 -3.99902 29c-9.33301 44.667 -23.333 80.334 -42 107.001l-55 -65
c-32 -47.333 -48.667 -74.666 -50 -81.999c-4.66699 2 -9 4 -13 6c-7.33301 4.66699 -14.333 9.66699 -21 15c1.33301 6 2.83301 13.333 4.5 22s2.5 17.334 2.5 26.001c0 7.33301 -1.33301 13.333 -4 18c18 27.333 32.667 48.333 44 63c35.333 45.333 66 75 92 89
c4 2 12 -1.66699 24 -11c4 -2.66699 9.66699 -7.66699 17 -15c-1.33301 -3.33301 -2.33301 -5.66602 -3 -6.99902c-3.33301 -6.66699 -6.33301 -11.667 -9 -15c9.33301 -19.333 16 -35.333 20 -48c13.333 -38 20 -72.333 20 -103z" />
    <glyph glyph-name="atilde" unicode="&#xe3;" horiz-adv-x="768" 
d="M697 47c-3.33301 -8.66699 -17.3291 -13.002 -41.9961 -13.002c-26 0 -47 3.33301 -63 10c-2.66699 1.33301 -5.33398 5 -8.00098 11s-5.66699 9 -9 9c-4 0 -9.83301 -3.83301 -17.5 -11.5s-17.5 -14.5 -29.5 -20.5c-39.333 -19.333 -92.333 -29 -159 -29
c-32.667 0 -72.667 3.33301 -120 10s-82 20 -104 40c-18 16.667 -27 39.334 -27 68.001c0 17.333 3 36.333 9 57c9.33301 27.333 16 47.333 20 60c20.667 60 59.167 107.833 115.5 143.5s116.166 53.5 179.499 53.5c34 0 66.667 -6 98 -18
c5.33301 -2 9.33301 -0.333008 12 5s4 13 4 23c0 24.667 -5.33301 50 -16 76c-12.667 30.667 -28.334 50.667 -47.001 60c-10 5.33301 -23 8 -39 8c-45.333 0 -113.333 -25.333 -204 -76l-100 -59c-6 -3.33301 -13.333 -5 -22 -5c-18.667 0 -36.834 7.83301 -54.501 23.5
s-26.5 32.167 -26.5 49.5c0 4 1.33301 9.33301 4 16c14 30.667 54.667 60 122 88c72 30 145.333 45 220 45c34 0 65.667 -3.16699 95 -9.5s57 -16.833 83 -31.5c49.333 -28 87 -87.333 113 -178c21.333 -74.667 32 -157.667 32 -249c0 -35.333 -1.66699 -66.166 -5 -92.499
s-8 -47.5 -14 -63.5zM556.004 143.998c14 20.667 26.166 44.833 36.499 72.5s15.5 53.167 15.5 76.5c0 20 -4.5 35.667 -13.5 47s-24.167 17 -45.5 17c-41.333 0 -92.666 -23.667 -153.999 -71s-99.666 -93 -114.999 -137c-6 -16.667 -9 -32.334 -9 -47.001
c0 -11.333 2 -20.333 6 -27s10.667 -10.667 20 -12c43.333 0 94.666 9.33301 153.999 28s94.333 36.334 105 53.001zM193.003 862.997c23.333 21.333 43.832 36.333 61.499 45s33.5 13 47.5 13c10.667 0 20.667 -2 30 -6l28 -12l57 -25.5c11.333 -5 21.666 -7.5 30.999 -7.5
c30.667 0 55 2.33301 73 7c34.667 9.33301 56 26.333 64 51c-4 -19.333 -8.33301 -34.333 -13 -45c-15.333 -32 -39.666 -53.667 -72.999 -65c-14.667 -4.66699 -30 -7 -46 -7c-24 0 -49.667 6.33301 -77 19c-16 8 -31.667 16.333 -47 25c-8 3.33301 -19.667 6.5 -35 9.5
s-31.666 4.5 -48.999 4.5c-16.667 0 -34 -2 -52 -6z" />
    <glyph glyph-name="adieresis" unicode="&#xe4;" horiz-adv-x="728" 
d="M687 47c-3.33301 -8.66699 -17.3291 -13.002 -41.9961 -13.002c-26 0 -47 3.33301 -63 10c-2.66699 1.33301 -5.33398 5 -8.00098 11s-5.66699 9 -9 9c-4 0 -9.83301 -3.83301 -17.5 -11.5s-17.5 -14.5 -29.5 -20.5c-39.333 -19.333 -92.333 -29 -159 -29
c-32.667 0 -72.667 3.33301 -120 10s-82 20 -104 40c-18 16.667 -27 39.334 -27 68.001c0 17.333 3 36.333 9 57c9.33301 27.333 16 47.333 20 60c20.667 60 59.167 107.833 115.5 143.5s116.166 53.5 179.499 53.5c34 0 66.667 -6 98 -18
c5.33301 -2 9.33301 -0.333008 12 5s4 13 4 23c0 24.667 -5.33301 50 -16 76c-12.667 30.667 -28.334 50.667 -47.001 60c-10 5.33301 -23 8 -39 8c-45.333 0 -113.333 -25.333 -204 -76l-100 -59c-6 -3.33301 -13.333 -5 -22 -5c-18.667 0 -36.834 7.83301 -54.501 23.5
s-26.5 32.167 -26.5 49.5c0 4 1.33301 9.33301 4 16c14 30.667 54.667 60 122 88c72 30 145.333 45 220 45c34 0 65.667 -3.16699 95 -9.5s57 -16.833 83 -31.5c49.333 -28 87 -87.333 113 -178c21.333 -74.667 32 -157.667 32 -249c0 -35.333 -1.66699 -66.166 -5 -92.499
s-8 -47.5 -14 -63.5zM546.004 143.998c14 20.667 26.166 44.833 36.499 72.5s15.5 53.167 15.5 76.5c0 20 -4.5 35.667 -13.5 47s-24.167 17 -45.5 17c-41.333 0 -92.666 -23.667 -153.999 -71s-99.666 -93 -114.999 -137c-6 -16.667 -9 -32.334 -9 -47.001
c0 -11.333 2 -20.333 6 -27s10.667 -10.667 20 -12c43.333 0 94.666 9.33301 153.999 28s94.333 36.334 105 53.001zM376.003 943.997c3.33301 -20 -11.001 -45.667 -43.001 -77c-12 -12 -27.667 -26.333 -47 -43c-5.33301 -4.66699 -14.5 -8.66699 -27.5 -12
s-26.833 -5 -41.5 -5c-16 0 -28.667 2.5 -38 7.5s-13.666 13.167 -12.999 24.5c2 16.667 12.333 37.167 31 61.5s40.667 47.166 66 68.499c14.667 11.333 31.667 17 51 17c16 0 29.833 -3.66699 41.5 -11s18.5 -17.666 20.5 -30.999zM635.002 936.997
c3.33301 -20 -11.001 -45.667 -43.001 -77c-12 -12 -27.667 -26.333 -47 -43c-5.33301 -4.66699 -14.5 -8.66699 -27.5 -12s-26.833 -5 -41.5 -5c-16 0 -28.667 2.5 -38 7.5s-13.666 13.167 -12.999 24.5c2 16.667 12.333 37.167 31 61.5s40.667 47.166 66 68.499
c14.667 11.333 31.667 17 51 17c16 0 29.833 -3.66699 41.5 -11s18.5 -17.666 20.5 -30.999z" />
    <glyph glyph-name="aring" unicode="&#xe5;" horiz-adv-x="760" 
d="M687 47c-3.33301 -8.66699 -17.3291 -13.002 -41.9961 -13.002c-26 0 -47 3.33301 -63 10c-2.66699 1.33301 -5.33398 5 -8.00098 11s-5.66699 9 -9 9c-4 0 -9.83301 -3.83301 -17.5 -11.5s-17.5 -14.5 -29.5 -20.5c-39.333 -19.333 -92.333 -29 -159 -29
c-32.667 0 -72.667 3.33301 -120 10s-82 20 -104 40c-18 16.667 -27 39.334 -27 68.001c0 17.333 3 36.333 9 57c9.33301 27.333 16 47.333 20 60c20.667 60 59.167 107.833 115.5 143.5s116.166 53.5 179.499 53.5c34 0 66.667 -6 98 -18
c5.33301 -2 9.33301 -0.333008 12 5s4 13 4 23c0 24.667 -5.33301 50 -16 76c-12.667 30.667 -28.334 50.667 -47.001 60c-10 5.33301 -23 8 -39 8c-45.333 0 -113.333 -25.333 -204 -76l-100 -59c-6 -3.33301 -13.333 -5 -22 -5c-18.667 0 -36.834 7.83301 -54.501 23.5
s-26.5 32.167 -26.5 49.5c0 4 1.33301 9.33301 4 16c14 30.667 54.667 60 122 88c72 30 145.333 45 220 45c34 0 65.667 -3.16699 95 -9.5s57 -16.833 83 -31.5c49.333 -28 87 -87.333 113 -178c21.333 -74.667 32 -157.667 32 -249c0 -35.333 -1.66699 -66.166 -5 -92.499
s-8 -47.5 -14 -63.5zM546.004 143.998c14 20.667 26.166 44.833 36.499 72.5s15.5 53.167 15.5 76.5c0 20 -4.5 35.667 -13.5 47s-24.167 17 -45.5 17c-41.333 0 -92.666 -23.667 -153.999 -71s-99.666 -93 -114.999 -137c-6 -16.667 -9 -32.334 -9 -47.001
c0 -11.333 2 -20.333 6 -27s10.667 -10.667 20 -12c43.333 0 94.666 9.33301 153.999 28s94.333 36.334 105 53.001zM397.003 937.997c28 0 51.333 -9.33301 70 -28s28 -42 28 -70s-9.33301 -51.333 -28 -70s-42 -28 -70 -28s-51.333 9.33301 -70 28s-28 42 -28 70
s9.33301 51.333 28 70s42 28 70 28zM397.003 898.997c-17.333 0 -31.5 -5.5 -42.5 -16.5s-16.5 -25.167 -16.5 -42.5c0 -16.667 5.66699 -30.667 17 -42s25.333 -17 42 -17s30.667 5.66699 42 17s17 25.333 17 42c0 17.333 -5.5 31.5 -16.5 42.5s-25.167 16.5 -42.5 16.5z
" />
    <glyph glyph-name="ae" unicode="&#xe6;" horiz-adv-x="1496" 
d="M1218 430c2 6 4.00098 14.335 6.00098 25.002s3 18 3 22c0 21.333 -6 38 -18 50c-16 15.333 -42.667 23 -80 23c-8.66699 0 -17.834 -0.333008 -27.501 -1s-22 -2.33398 -37 -5.00098s-45.333 -20.834 -91 -54.501s-68.5 -56.5 -68.5 -68.5c0 -3.33301 2.66699 -5 8 -5
h105c63.333 0 112 0.833008 146 2.5s52 5.5 54 11.5zM566.001 144.002c14 20.667 26.166 44.833 36.499 72.5s15.5 53.167 15.5 76.5c0 20 -4.5 35.667 -13.5 47s-24.167 17 -45.5 17c-41.333 0 -92.666 -23.667 -153.999 -71s-99.666 -93 -114.999 -137
c-6 -16.667 -9 -32.334 -9 -47.001c0 -11.333 2 -20.333 6 -27s10.667 -10.667 20 -12c43.333 0 94.666 9.33301 153.999 28s94.333 36.334 105 53.001zM720 102.001c-2 -10.667 -3.99414 -20.668 -5.99414 -30.001s-4.5 -18 -7.5 -26s-16.833 -12 -41.5 -12
c-26 0 -47 3.33301 -63 10c-2.66699 1.33301 -5.33398 5 -8.00098 11s-5.66699 9 -9 9c-4 0 -9.83301 -3.83301 -17.5 -11.5s-17.5 -14.5 -29.5 -20.5c-39.333 -19.333 -92.333 -29 -159 -29c-32.667 0 -72.667 3.33301 -120 10s-82 20 -104 40
c-18 16.667 -27 39.334 -27 68.001c0 17.333 3 36.333 9 57c9.33301 27.333 16 47.333 20 60c20.667 60 59.167 107.833 115.5 143.5s116.166 53.5 179.499 53.5c34 0 66.667 -6 98 -18c5.33301 -2 9.33301 -0.333008 12 5s4 13 4 23c0 24.667 -5.33301 50 -16 76
c-12.667 30.667 -28.334 50.667 -47.001 60c-10 5.33301 -23 8 -39 8c-45.333 0 -113.333 -25.333 -204 -76l-100 -59c-6 -3.33301 -13.333 -5 -22 -5c-18.667 0 -36.834 7.83301 -54.501 23.5s-26.5 32.167 -26.5 49.5c0 4 1.33301 9.33301 4 16
c14 30.667 54.667 60 122 88c72 30 145.333 45 220 45c34 0 65.667 -3.16699 95 -9.5s57 -16.833 83 -31.5c32 -18 59 -48.667 81 -92c18.667 -37.333 34 -84.666 46 -141.999c48 76 108.667 142.667 182 200c78.667 62 148 93 208 93
c85.333 0 155.666 -36.333 210.999 -109c46 -60.667 69 -121.667 69 -183c0 -28 -6.33301 -45.667 -19 -53c-8.66699 -5.33301 -24.5 -9 -47.5 -11s-52.167 -3 -87.5 -3c-28 0 -73 1 -135 3s-106.333 3 -133 3c-67.333 0 -106 -4.66699 -116 -14
c-16.667 -14.667 -30 -29.667 -40 -45s-15.5 -27.5 -16.5 -36.5s-1.5 -15.5 -1.5 -19.5v-7c0 -28 9.66699 -48.333 29 -61c16.667 -10.667 42.334 -16 77.001 -16c19.333 0 86.333 8 201 24c57.333 8 102.333 12 135 12c17.333 0 41.666 8.5 72.999 25.5s53 25.5 65 25.5
c5.33301 0 10.666 -1 15.999 -3c15.333 -6 29.666 -17.167 42.999 -33.5s20 -31.833 20 -46.5c0 -10.667 -4.33301 -20 -13 -28c-36 -30.667 -91.167 -56.834 -165.5 -78.501s-150.166 -32.5 -227.499 -32.5c-66 0 -124 7.33301 -174 22
c-56.667 16.667 -103.667 42.667 -141 78z" />
    <glyph glyph-name="ccedilla" unicode="&#xe7;" horiz-adv-x="760" 
d="M309 -4c-35.333 5.33301 -67.668 11.666 -97.001 18.999c-54 14 -96 43.167 -126 87.5s-45 96.5 -45 156.5c0 71.333 21.333 139 64 203c47.333 71.333 114.333 126 201 164c21.333 8.66699 42.333 15.5 63 20.5s41.334 7.5 62.001 7.5c26 0 46.667 -4.66699 62 -14
s23 -24.666 23 -45.999c0 -19.333 -0.166992 -38.333 -0.5 -57s-0.5 -37 -0.5 -55c0 -58.667 2.66699 -104.667 8 -138s17 -60.666 35 -81.999c3.33301 -4.66699 2.83301 -8.33398 -1.5 -11.001s-14.833 -4 -31.5 -4c-9.33301 0 -15.666 0.333008 -18.999 1
c-52 6 -92.333 11.667 -121 17c-54.667 10.667 -83.834 20.834 -87.501 30.501s-5.5 19.167 -5.5 28.5c0 10.667 8.33301 40 25 88c8 23.333 12 43.333 12 60c0 4.66699 -0.5 11 -1.5 19s-4.16699 12 -9.5 12c-17.333 0 -42.333 -31.333 -75 -94
c-35.333 -68.667 -53 -129.334 -53 -182.001c0 -28 5.16699 -51.5 15.5 -70.5s27.833 -32.5 52.5 -40.5c16 -5.33301 35.333 -8 58 -8c42.667 0 107.334 14 194.001 42s142.667 42 168 42c18.667 -2 28 -14 28 -36c0 -17.333 -4.66699 -35.833 -14 -55.5
s-21 -35.5 -35 -47.5c-20.667 -18 -48.834 -32.833 -84.501 -44.5s-73.5 -17.5 -113.5 -17.5c-3.33301 -18 -19.333 -40.667 -48 -68l-41 -37c-5.33301 -4.66699 -14.5 -8.66699 -27.5 -12s-26.833 -5 -41.5 -5c-16 0 -28.5 2.33301 -37.5 7s-13.5 12.334 -13.5 23.001
c0 13.333 5.66699 28.666 17 45.999c8.66699 13.333 22.667 30.333 42 51z" />
    <glyph glyph-name="egrave" unicode="&#xe8;" horiz-adv-x="888" 
d="M567 786c0 -12.667 -4.66895 -21.666 -14.002 -26.999s-21.666 -8 -36.999 -8c-14 0 -27.667 1.66699 -41 5s-22.666 7.33301 -27.999 12c-30.667 26.667 -51 45.667 -61 57c-22 24.667 -31.667 45.667 -29 63c2 13.333 9 23.666 21 30.999s26 11 42 11
c20 0 36.667 -5.66699 50 -17c28 -23.333 51.167 -46.333 69.5 -69s27.5 -42 27.5 -58zM817.998 73.001c-36.667 -30.667 -92.3301 -56.833 -166.997 -78.5s-150.667 -32.5 -228 -32.5c-88 0 -163 14 -225 42c-72.667 32.667 -123 82 -151 148
c-5.33301 12.667 -8 27.667 -8 45c0 82.667 53.333 178.667 160 288s203 164 289 164c85.333 0 155.666 -36.333 210.999 -109c46 -60.667 69 -121.667 69 -183c0 -28 -6.33301 -45.667 -19 -53c-8.66699 -5.33301 -24.5 -9 -47.5 -11s-52.167 -3 -87.5 -3
c-28 0 -73 1 -135 3s-106.333 3 -133 3c-67.333 0 -106 -4.66699 -116 -14c-16.667 -14.667 -30 -29.667 -40 -45s-15.5 -27.5 -16.5 -36.5s-1.5 -15.5 -1.5 -19.5v-7c0 -28 9.66699 -48.333 29 -61c16.667 -10.667 42.334 -16 77.001 -16c19.333 0 86.333 8 201 24
c57.333 8 102.333 12 135 12c17.333 0 41.666 8.5 72.999 25.5s53 25.5 65 25.5c5.33301 0 10.666 -1 15.999 -3c15.333 -6 29.666 -17.167 42.999 -33.5s20 -31.833 20 -46.5c0 -10.667 -4.33301 -20 -13 -28zM608.002 390.002c2 6 4.00098 14.335 6.00098 25.002
s3 18 3 22c0 21.333 -6 38 -18 50c-16 15.333 -42.667 23 -80 23c-8.66699 0 -17.834 -0.333008 -27.501 -1s-22 -2.33398 -37 -5.00098s-45.333 -20.834 -91 -54.501s-68.5 -56.5 -68.5 -68.5c0 -3.33301 2.66699 -5 8 -5h105c63.333 0 112 0.833008 146 2.5
s52 5.5 54 11.5z" />
    <glyph glyph-name="eacute" unicode="&#xe9;" horiz-adv-x="872" 
d="M818 73c-36.667 -30.667 -92.3301 -56.833 -166.997 -78.5s-150.667 -32.5 -228 -32.5c-88 0 -163 14 -225 42c-72.667 32.667 -123 82 -151 148c-5.33301 12.667 -8 27.667 -8 45c0 82.667 53.333 178.667 160 288s203 164 289 164
c85.333 0 155.666 -36.333 210.999 -109c46 -60.667 69 -121.667 69 -183c0 -28 -6.33301 -45.667 -19 -53c-8.66699 -5.33301 -24.5 -9 -47.5 -11s-52.167 -3 -87.5 -3c-28 0 -73 1 -135 3s-106.333 3 -133 3c-67.333 0 -106 -4.66699 -116 -14
c-16.667 -14.667 -30 -29.667 -40 -45s-15.5 -27.5 -16.5 -36.5s-1.5 -15.5 -1.5 -19.5v-7c0 -28 9.66699 -48.333 29 -61c16.667 -10.667 42.334 -16 77.001 -16c19.333 0 86.333 8 201 24c57.333 8 102.333 12 135 12c17.333 0 41.666 8.5 72.999 25.5s53 25.5 65 25.5
c5.33301 0 10.666 -1 15.999 -3c15.333 -6 29.666 -17.167 42.999 -33.5s20 -31.833 20 -46.5c0 -10.667 -4.33301 -20 -13 -28zM608.004 390.001c2 6 4.00098 14.335 6.00098 25.002s3 18 3 22c0 21.333 -6 38 -18 50c-16 15.333 -42.667 23 -80 23
c-8.66699 0 -17.834 -0.333008 -27.501 -1s-22 -2.33398 -37 -5.00098s-45.333 -20.834 -91 -54.501s-68.5 -56.5 -68.5 -68.5c0 -3.33301 2.66699 -5 8 -5h105c63.333 0 112 0.833008 146 2.5s52 5.5 54 11.5zM558.005 888.003c3.33301 -20 -11.001 -45.667 -43.001 -77
c-12 -12 -27.667 -26.333 -47 -43c-5.33301 -4.66699 -14.5 -8.66699 -27.5 -12s-26.833 -5 -41.5 -5c-16 0 -28.667 2.5 -38 7.5s-13.666 13.167 -12.999 24.5c2 16.667 12.333 37.167 31 61.5s40.667 47.166 66 68.499c14.667 11.333 31.667 17 51 17
c16 0 29.833 -3.66699 41.5 -11s18.5 -17.666 20.5 -30.999z" />
    <glyph glyph-name="ecircumflex" unicode="&#xea;" horiz-adv-x="880" 
d="M818 73c-36.667 -30.667 -92.3301 -56.833 -166.997 -78.5s-150.667 -32.5 -228 -32.5c-88 0 -163 14 -225 42c-72.667 32.667 -123 82 -151 148c-5.33301 12.667 -8 27.667 -8 45c0 82.667 53.333 178.667 160 288s203 164 289 164
c85.333 0 155.666 -36.333 210.999 -109c46 -60.667 69 -121.667 69 -183c0 -28 -6.33301 -45.667 -19 -53c-8.66699 -5.33301 -24.5 -9 -47.5 -11s-52.167 -3 -87.5 -3c-28 0 -73 1 -135 3s-106.333 3 -133 3c-67.333 0 -106 -4.66699 -116 -14
c-16.667 -14.667 -30 -29.667 -40 -45s-15.5 -27.5 -16.5 -36.5s-1.5 -15.5 -1.5 -19.5v-7c0 -28 9.66699 -48.333 29 -61c16.667 -10.667 42.334 -16 77.001 -16c19.333 0 86.333 8 201 24c57.333 8 102.333 12 135 12c17.333 0 41.666 8.5 72.999 25.5s53 25.5 65 25.5
c5.33301 0 10.666 -1 15.999 -3c15.333 -6 29.666 -17.167 42.999 -33.5s20 -31.833 20 -46.5c0 -10.667 -4.33301 -20 -13 -28zM608.004 390.001c2 6 4.00098 14.335 6.00098 25.002s3 18 3 22c0 21.333 -6 38 -18 50c-16 15.333 -42.667 23 -80 23
c-8.66699 0 -17.834 -0.333008 -27.501 -1s-22 -2.33398 -37 -5.00098s-45.333 -20.834 -91 -54.501s-68.5 -56.5 -68.5 -68.5c0 -3.33301 2.66699 -5 8 -5h105c63.333 0 112 0.833008 146 2.5s52 5.5 54 11.5zM569.005 748.003l-14.001 -29.0039l-19 -4
c-1.33301 12 -2.66602 21.667 -3.99902 29c-9.33301 44.667 -23.333 80.334 -42 107.001l-55 -65c-32 -47.333 -48.667 -74.666 -50 -81.999c-4.66699 2 -9 4 -13 6c-7.33301 4.66699 -14.333 9.66699 -21 15c1.33301 6 2.83301 13.333 4.5 22s2.5 17.334 2.5 26.001
c0 7.33301 -1.33301 13.333 -4 18c18 27.333 32.667 48.333 44 63c35.333 45.333 66 75 92 89c4 2 12 -1.66699 24 -11c4 -2.66699 9.66699 -7.66699 17 -15c-1.33301 -3.33301 -2.33301 -5.66602 -3 -6.99902c-3.33301 -6.66699 -6.33301 -11.667 -9 -15
c9.33301 -19.333 16 -35.333 20 -48c13.333 -38 20 -72.333 20 -103z" />
    <glyph glyph-name="edieresis" unicode="&#xeb;" horiz-adv-x="912" 
d="M828 73c-36.667 -30.667 -92.3301 -56.833 -166.997 -78.5s-150.667 -32.5 -228 -32.5c-88 0 -163 14 -225 42c-72.667 32.667 -123 82 -151 148c-5.33301 12.667 -8 27.667 -8 45c0 82.667 53.333 178.667 160 288s203 164 289 164
c85.333 0 155.666 -36.333 210.999 -109c46 -60.667 69 -121.667 69 -183c0 -28 -6.33301 -45.667 -19 -53c-8.66699 -5.33301 -24.5 -9 -47.5 -11s-52.167 -3 -87.5 -3c-28 0 -73 1 -135 3s-106.333 3 -133 3c-67.333 0 -106 -4.66699 -116 -14
c-16.667 -14.667 -30 -29.667 -40 -45s-15.5 -27.5 -16.5 -36.5s-1.5 -15.5 -1.5 -19.5v-7c0 -28 9.66699 -48.333 29 -61c16.667 -10.667 42.334 -16 77.001 -16c19.333 0 86.333 8 201 24c57.333 8 102.333 12 135 12c17.333 0 41.666 8.5 72.999 25.5s53 25.5 65 25.5
c5.33301 0 10.666 -1 15.999 -3c15.333 -6 29.666 -17.167 42.999 -33.5s20 -31.833 20 -46.5c0 -10.667 -4.33301 -20 -13 -28zM618.004 390.001c2 6 4.00098 14.335 6.00098 25.002s3 18 3 22c0 21.333 -6 38 -18 50c-16 15.333 -42.667 23 -80 23
c-8.66699 0 -17.834 -0.333008 -27.501 -1s-22 -2.33398 -37 -5.00098s-45.333 -20.834 -91 -54.501s-68.5 -56.5 -68.5 -68.5c0 -3.33301 2.66699 -5 8 -5h105c63.333 0 112 0.833008 146 2.5s52 5.5 54 11.5zM484.005 888.003c3.33301 -20 -11.001 -45.667 -43.001 -77
c-12 -12 -27.667 -26.333 -47 -43c-5.33301 -4.66699 -14.5 -8.66699 -27.5 -12s-26.833 -5 -41.5 -5c-16 0 -28.667 2.5 -38 7.5s-13.666 13.167 -12.999 24.5c2 16.667 12.333 37.167 31 61.5s40.667 47.166 66 68.499c14.667 11.333 31.667 17 51 17
c16 0 29.833 -3.66699 41.5 -11s18.5 -17.666 20.5 -30.999zM743.004 881.003c3.33301 -20 -11.001 -45.667 -43.001 -77c-12 -12 -27.667 -26.333 -47 -43c-5.33301 -4.66699 -14.5 -8.66699 -27.5 -12s-26.833 -5 -41.5 -5c-16 0 -28.667 2.5 -38 7.5
s-13.666 13.167 -12.999 24.5c2 16.667 12.333 37.167 31 61.5s40.667 47.166 66 68.499c14.667 11.333 31.667 17 51 17c16 0 29.833 -3.66699 41.5 -11s18.5 -17.666 20.5 -30.999z" />
    <glyph glyph-name="igrave" unicode="&#xec;" horiz-adv-x="434" 
d="M394 810c0 -12.667 -4.66895 -21.666 -14.002 -26.999s-21.666 -8 -36.999 -8c-14 0 -27.667 1.66699 -41 5s-22.666 7.33301 -27.999 12c-30.667 26.667 -51 45.667 -61 57c-22 24.667 -31.667 45.667 -29 63c2 13.333 9 23.666 21 30.999s26 11 42 11
c20 0 36.667 -5.66699 50 -17c28 -23.333 51.167 -46.333 69.5 -69s27.5 -42 27.5 -58zM370.998 23.001c0.666992 -2.66699 1.33398 -4.99805 2.00098 -6.99805v-5c0 -12.667 -10.667 -19 -32 -19c-13.333 0 -32.833 2.83301 -58.5 8.5s-49.167 11.167 -70.5 16.5
c-54 10.667 -94 46.334 -120 107.001c-22 50.667 -33 115 -33 193c0 69.333 7.66699 133.166 23 191.499s31.166 89.666 47.499 93.999s31.833 6.5 46.5 6.5c48.667 0 89 -22.333 121 -67c6 -8.66699 9 -20.334 9 -35.001c0 -5.33301 -1.66699 -24.166 -5 -56.499
s-5 -55.5 -5 -69.5c0 -46 4.66699 -93.667 14 -143c12 -64.667 32.333 -136.334 61 -215.001z" />
    <glyph glyph-name="iacute" unicode="&#xed;" horiz-adv-x="427" 
d="M361 23c0.666992 -2.66699 1.33398 -4.99805 2.00098 -6.99805v-5c0 -12.667 -10.667 -19 -32 -19c-13.333 0 -32.833 2.83301 -58.5 8.5s-49.167 11.167 -70.5 16.5c-54 10.667 -94 46.334 -120 107.001c-22 50.667 -33 115 -33 193
c0 69.333 7.66699 133.166 23 191.499s31.166 89.666 47.499 93.999s31.833 6.5 46.5 6.5c48.667 0 89 -22.333 121 -67c6 -8.66699 9 -20.334 9 -35.001c0 -5.33301 -1.66699 -24.166 -5 -56.499s-5 -55.5 -5 -69.5c0 -46 4.66699 -93.667 14 -143
c12 -64.667 32.333 -136.334 61 -215.001zM382 952.002c3.33301 -20 -11.001 -45.667 -43.001 -77c-12 -12 -27.667 -26.333 -47 -43c-5.33301 -4.66699 -14.5 -8.66699 -27.5 -12s-26.833 -5 -41.5 -5c-16 0 -28.667 2.5 -38 7.5s-13.666 13.167 -12.999 24.5
c2 16.667 12.333 37.167 31 61.5s40.667 47.166 66 68.499c14.667 11.333 31.667 17 51 17c16 0 29.833 -3.66699 41.5 -11s18.5 -17.666 20.5 -30.999z" />
    <glyph glyph-name="icircumflex" unicode="&#xee;" horiz-adv-x="406" 
d="M361 23c0.666992 -2.66699 1.33398 -4.99805 2.00098 -6.99805v-5c0 -12.667 -10.667 -19 -32 -19c-13.333 0 -32.833 2.83301 -58.5 8.5s-49.167 11.167 -70.5 16.5c-54 10.667 -94 46.334 -120 107.001c-22 50.667 -33 115 -33 193
c0 69.333 7.66699 133.166 23 191.499s31.166 89.666 47.499 93.999s31.833 6.5 46.5 6.5c48.667 0 89 -22.333 121 -67c6 -8.66699 9 -20.334 9 -35.001c0 -5.33301 -1.66699 -24.166 -5 -56.499s-5 -55.5 -5 -69.5c0 -46 4.66699 -93.667 14 -143
c12 -64.667 32.333 -136.334 61 -215.001zM337 827.002l-14.001 -29.0039l-19 -4c-1.33301 12 -2.66602 21.667 -3.99902 29c-9.33301 44.667 -23.333 80.334 -42 107.001l-55 -65c-32 -47.333 -48.667 -74.666 -50 -81.999c-4.66699 2 -9 4 -13 6
c-7.33301 4.66699 -14.333 9.66699 -21 15c1.33301 6 2.83301 13.333 4.5 22s2.5 17.334 2.5 26.001c0 7.33301 -1.33301 13.333 -4 18c18 27.333 32.667 48.333 44 63c35.333 45.333 66 75 92 89c4 2 12 -1.66699 24 -11c4 -2.66699 9.66699 -7.66699 17 -15
c-1.33301 -3.33301 -2.33301 -5.66602 -3 -6.99902c-3.33301 -6.66699 -6.33301 -11.667 -9 -15c9.33301 -19.333 16 -35.333 20 -48c13.333 -38 20 -72.333 20 -103z" />
    <glyph glyph-name="idieresis" unicode="&#xef;" horiz-adv-x="595" 
d="M462 37c0.666992 -2.66699 1.33398 -4.99805 2.00098 -6.99805v-5c0 -12.667 -10.667 -19 -32 -19c-13.333 0 -32.833 2.83301 -58.5 8.5s-49.167 11.167 -70.5 16.5c-54 10.667 -94 46.334 -120 107.001c-22 50.667 -33 115 -33 193
c0 69.333 7.66699 133.166 23 191.499s31.166 89.666 47.499 93.999s31.833 6.5 46.5 6.5c48.667 0 89 -22.333 121 -67c6 -8.66699 9 -20.334 9 -35.001c0 -5.33301 -1.66699 -24.166 -5 -56.499s-5 -55.5 -5 -69.5c0 -46 4.66699 -93.667 14 -143
c12 -64.667 32.333 -136.334 61 -215.001zM273 965.002c3.33301 -20 -11.001 -45.667 -43.001 -77c-12 -12 -27.667 -26.333 -47 -43c-5.33301 -4.66699 -14.5 -8.66699 -27.5 -12s-26.833 -5 -41.5 -5c-16 0 -28.667 2.5 -38 7.5s-13.666 13.167 -12.999 24.5
c2 16.667 12.333 37.167 31 61.5s40.667 47.166 66 68.499c14.667 11.333 31.667 17 51 17c16 0 29.833 -3.66699 41.5 -11s18.5 -17.666 20.5 -30.999zM531.999 958.002c3.33301 -20 -11.001 -45.667 -43.001 -77c-12 -12 -27.667 -26.333 -47 -43
c-5.33301 -4.66699 -14.5 -8.66699 -27.5 -12s-26.833 -5 -41.5 -5c-16 0 -28.667 2.5 -38 7.5s-13.666 13.167 -12.999 24.5c2 16.667 12.333 37.167 31 61.5s40.667 47.166 66 68.499c14.667 11.333 31.667 17 51 17c16 0 29.833 -3.66699 41.5 -11
s18.5 -17.666 20.5 -30.999z" />
    <glyph glyph-name="ntilde" unicode="&#xf1;" horiz-adv-x="768" 
d="M682 29c-1.33301 -11.333 -7.50586 -20.1709 -18.5059 -26.5039s-23.167 -9.5 -36.5 -9.5c-5.33301 0 -9.33301 0.333008 -12 1c-79.333 12 -119.666 18.333 -120.999 19c-46 13.333 -70.667 38 -74 74c-0.666992 6.66699 -1 13.667 -1 21v17
c0 50 9.16699 107.833 27.5 173.5l56.5 201.5c0 15.333 -6.33301 23 -19 23c-2.66699 0 -6.66699 -0.666992 -12 -2c-50.667 -13.333 -106.667 -41.666 -168 -84.999c-56 -40 -84 -66.333 -84 -79c0 -38.667 7.83301 -92.667 23.5 -162l48.5 -214c0 -6 -0.666992 -10 -2 -12
s-3.66602 -2.33301 -6.99902 -1c-14 6 -46.333 14.667 -97 26c-89.333 20 -134 36.333 -134 49c0 114.667 1.83301 223.834 5.5 327.501s8.83398 172.5 15.501 206.5c3.33301 16 11.833 28.167 25.5 36.5s30.167 12.5 49.5 12.5c24.667 0 47.334 -7 68.001 -21
c4.66699 -3.33301 7 -10.666 7 -21.999c-2.66699 -22 -4 -35.667 -4 -41c2 -1.33301 4.33301 -2.33301 7 -3c33.333 24 72 44.667 116 62c56.667 22.667 109 34 157 34c25.333 0 49.333 -3.16699 72 -9.5s44.334 -16.5 65.001 -30.5c26 -18.667 44.667 -40.334 56 -65.001
s17 -52.334 17 -83.001c0 -25.333 -12.333 -92.666 -37 -201.999c-12 -53.333 -18 -96.666 -18 -129.999c0 -16 0.666992 -29.167 2 -39.5s6.33301 -19.166 15 -26.499s12.334 -14 11.001 -20zM185.994 820.995c23.333 21.333 43.832 36.333 61.499 45s33.5 13 47.5 13
c10.667 0 20.667 -2 30 -6l28 -12l57 -25.5c11.333 -5 21.666 -7.5 30.999 -7.5c30.667 0 55 2.33301 73 7c34.667 9.33301 56 26.333 64 51c-4 -19.333 -8.33301 -34.333 -13 -45c-15.333 -32 -39.666 -53.667 -72.999 -65c-14.667 -4.66699 -30 -7 -46 -7
c-24 0 -49.667 6.33301 -77 19c-16 8 -31.667 16.333 -47 25c-8 3.33301 -19.667 6.5 -35 9.5s-31.666 4.5 -48.999 4.5c-16.667 0 -34 -2 -52 -6z" />
    <glyph glyph-name="ograve" unicode="&#xf2;" horiz-adv-x="768" 
d="M715 361c2 -12 3 -24.333 3 -37c0 -86 -41 -164 -123 -234c-77.333 -66 -159 -99 -245 -99c-16.667 0 -31.334 1.33301 -44.001 4c-31.333 6 -55.5 11.833 -72.5 17.5s-39.833 15.167 -68.5 28.5c-38.667 18 -67.5 47.667 -86.5 89s-28.5 89 -28.5 143
c0 95.333 23 182 69 260c49.333 84 108 126 176 126c106.667 0 198 -24.667 274 -74c82.667 -54 131.334 -128.667 146.001 -224zM510 331c6.66699 20 10.002 40.999 10.002 62.999c0 42 -12.333 80.333 -37 115s-57.334 56.667 -98.001 66
c-37.333 8 -78.666 -29.167 -123.999 -111.5s-68 -158.5 -68 -228.5c0 -24 3.16699 -43.667 9.5 -59s17.166 -26.666 32.499 -33.999c10.667 -5.33301 24 -8 40 -8c43.333 0 89.166 19.833 137.499 59.5s80.833 85.5 97.5 137.5zM486.002 792.999
c0 -12.667 -4.66895 -21.666 -14.002 -26.999s-21.666 -8 -36.999 -8c-14 0 -27.667 1.66699 -41 5s-22.666 7.33301 -27.999 12c-30.667 26.667 -51 45.667 -61 57c-22 24.667 -31.667 45.667 -29 63c2 13.333 9 23.666 21 30.999s26 11 42 11c20 0 36.667 -5.66699 50 -17
c28 -23.333 51.167 -46.333 69.5 -69s27.5 -42 27.5 -58z" />
    <glyph glyph-name="oacute" unicode="&#xf3;" horiz-adv-x="776" 
d="M715 361c2 -12 3 -24.333 3 -37c0 -86 -41 -164 -123 -234c-77.333 -66 -159 -99 -245 -99c-16.667 0 -31.334 1.33301 -44.001 4c-31.333 6 -55.5 11.833 -72.5 17.5s-39.833 15.167 -68.5 28.5c-38.667 18 -67.5 47.667 -86.5 89s-28.5 89 -28.5 143
c0 95.333 23 182 69 260c49.333 84 108 126 176 126c106.667 0 198 -24.667 274 -74c82.667 -54 131.334 -128.667 146.001 -224zM510 331c6.66699 20 10.002 40.999 10.002 62.999c0 42 -12.333 80.333 -37 115s-57.334 56.667 -98.001 66
c-37.333 8 -78.666 -29.167 -123.999 -111.5s-68 -158.5 -68 -228.5c0 -24 3.16699 -43.667 9.5 -59s17.166 -26.666 32.499 -33.999c10.667 -5.33301 24 -8 40 -8c43.333 0 89.166 19.833 137.499 59.5s80.833 85.5 97.5 137.5zM491.002 887.999
c3.33301 -20 -11.001 -45.667 -43.001 -77c-12 -12 -27.667 -26.333 -47 -43c-5.33301 -4.66699 -14.5 -8.66699 -27.5 -12s-26.833 -5 -41.5 -5c-16 0 -28.667 2.5 -38 7.5s-13.666 13.167 -12.999 24.5c2 16.667 12.333 37.167 31 61.5s40.667 47.166 66 68.499
c14.667 11.333 31.667 17 51 17c16 0 29.833 -3.66699 41.5 -11s18.5 -17.666 20.5 -30.999z" />
    <glyph glyph-name="ocircumflex" unicode="&#xf4;" horiz-adv-x="768" 
d="M705 361c2 -12 3 -24.333 3 -37c0 -86 -41 -164 -123 -234c-77.333 -66 -159 -99 -245 -99c-16.667 0 -31.334 1.33301 -44.001 4c-31.333 6 -55.5 11.833 -72.5 17.5s-39.833 15.167 -68.5 28.5c-38.667 18 -67.5 47.667 -86.5 89s-28.5 89 -28.5 143
c0 95.333 23 182 69 260c49.333 84 108 126 176 126c106.667 0 198 -24.667 274 -74c82.667 -54 131.334 -128.667 146.001 -224zM500 331c6.66699 20 10.002 40.999 10.002 62.999c0 42 -12.333 80.333 -37 115s-57.334 56.667 -98.001 66
c-37.333 8 -78.666 -29.167 -123.999 -111.5s-68 -158.5 -68 -228.5c0 -24 3.16699 -43.667 9.5 -59s17.166 -26.666 32.499 -33.999c10.667 -5.33301 24 -8 40 -8c43.333 0 89.166 19.833 137.499 59.5s80.833 85.5 97.5 137.5zM499.002 768.999l-14.001 -29.0039l-19 -4
c-1.33301 12 -2.66602 21.667 -3.99902 29c-9.33301 44.667 -23.333 80.334 -42 107.001l-55 -65c-32 -47.333 -48.667 -74.666 -50 -81.999c-4.66699 2 -9 4 -13 6c-7.33301 4.66699 -14.333 9.66699 -21 15c1.33301 6 2.83301 13.333 4.5 22s2.5 17.334 2.5 26.001
c0 7.33301 -1.33301 13.333 -4 18c18 27.333 32.667 48.333 44 63c35.333 45.333 66 75 92 89c4 2 12 -1.66699 24 -11c4 -2.66699 9.66699 -7.66699 17 -15c-1.33301 -3.33301 -2.33301 -5.66602 -3 -6.99902c-3.33301 -6.66699 -6.33301 -11.667 -9 -15
c9.33301 -19.333 16 -35.333 20 -48c13.333 -38 20 -72.333 20 -103z" />
    <glyph glyph-name="otilde" unicode="&#xf5;" horiz-adv-x="760" 
d="M715 361c2 -12 3 -24.333 3 -37c0 -86 -41 -164 -123 -234c-77.333 -66 -159 -99 -245 -99c-16.667 0 -31.334 1.33301 -44.001 4c-31.333 6 -55.5 11.833 -72.5 17.5s-39.833 15.167 -68.5 28.5c-38.667 18 -67.5 47.667 -86.5 89s-28.5 89 -28.5 143
c0 95.333 23 182 69 260c49.333 84 108 126 176 126c106.667 0 198 -24.667 274 -74c82.667 -54 131.334 -128.667 146.001 -224zM510 331c6.66699 20 10.002 40.999 10.002 62.999c0 42 -12.333 80.333 -37 115s-57.334 56.667 -98.001 66
c-37.333 8 -78.666 -29.167 -123.999 -111.5s-68 -158.5 -68 -228.5c0 -24 3.16699 -43.667 9.5 -59s17.166 -26.666 32.499 -33.999c10.667 -5.33301 24 -8 40 -8c43.333 0 89.166 19.833 137.499 59.5s80.833 85.5 97.5 137.5zM186.002 820.999
c23.333 21.333 43.832 36.333 61.499 45s33.5 13 47.5 13c10.667 0 20.667 -2 30 -6l28 -12l57 -25.5c11.333 -5 21.666 -7.5 30.999 -7.5c30.667 0 55 2.33301 73 7c34.667 9.33301 56 26.333 64 51c-4 -19.333 -8.33301 -34.333 -13 -45
c-15.333 -32 -39.666 -53.667 -72.999 -65c-14.667 -4.66699 -30 -7 -46 -7c-24 0 -49.667 6.33301 -77 19c-16 8 -31.667 16.333 -47 25c-8 3.33301 -19.667 6.5 -35 9.5s-31.666 4.5 -48.999 4.5c-16.667 0 -34 -2 -52 -6z" />
    <glyph glyph-name="odieresis" unicode="&#xf6;" horiz-adv-x="760" 
d="M715 361c2 -12 3 -24.333 3 -37c0 -86 -41 -164 -123 -234c-77.333 -66 -159 -99 -245 -99c-16.667 0 -31.334 1.33301 -44.001 4c-31.333 6 -55.5 11.833 -72.5 17.5s-39.833 15.167 -68.5 28.5c-38.667 18 -67.5 47.667 -86.5 89s-28.5 89 -28.5 143
c0 95.333 23 182 69 260c49.333 84 108 126 176 126c106.667 0 198 -24.667 274 -74c82.667 -54 131.334 -128.667 146.001 -224zM510 331c6.66699 20 10.002 40.999 10.002 62.999c0 42 -12.333 80.333 -37 115s-57.334 56.667 -98.001 66
c-37.333 8 -78.666 -29.167 -123.999 -111.5s-68 -158.5 -68 -228.5c0 -24 3.16699 -43.667 9.5 -59s17.166 -26.666 32.499 -33.999c10.667 -5.33301 24 -8 40 -8c43.333 0 89.166 19.833 137.499 59.5s80.833 85.5 97.5 137.5zM379.002 894.999
c3.33301 -20 -11.001 -45.667 -43.001 -77c-12 -12 -27.667 -26.333 -47 -43c-5.33301 -4.66699 -14.5 -8.66699 -27.5 -12s-26.833 -5 -41.5 -5c-16 0 -28.667 2.5 -38 7.5s-13.666 13.167 -12.999 24.5c2 16.667 12.333 37.167 31 61.5s40.667 47.166 66 68.499
c14.667 11.333 31.667 17 51 17c16 0 29.833 -3.66699 41.5 -11s18.5 -17.666 20.5 -30.999zM638.001 887.999c3.33301 -20 -11.001 -45.667 -43.001 -77c-12 -12 -27.667 -26.333 -47 -43c-5.33301 -4.66699 -14.5 -8.66699 -27.5 -12s-26.833 -5 -41.5 -5
c-16 0 -28.667 2.5 -38 7.5s-13.666 13.167 -12.999 24.5c2 16.667 12.333 37.167 31 61.5s40.667 47.166 66 68.499c14.667 11.333 31.667 17 51 17c16 0 29.833 -3.66699 41.5 -11s18.5 -17.666 20.5 -30.999z" />
    <glyph glyph-name="ugrave" unicode="&#xf9;" horiz-adv-x="808" 
d="M707 635c16 -18.667 27.501 -47.668 34.501 -87.001s10.5 -85.333 10.5 -138c0 -63.333 -4.66699 -122.666 -14 -177.999s-21 -91.333 -35 -108c-32.667 -40.667 -75.834 -73.334 -129.501 -98.001s-111.5 -37 -173.5 -37c-16 0 -28.333 0.333008 -37 1
s-21.334 2.66699 -38.001 6c-91.333 16 -161.666 77.667 -210.999 185c-40 87.333 -60 184.333 -60 291c0 47.333 4.66699 86.333 14 117s21.333 45 36 43c4 -0.666992 10.667 -1 20 -1s24 1 44 3s34 3 42 3c15.333 0 26.5 -2.33301 33.5 -7s9.5 -13.334 7.5 -26.001
c-6 -46 -9 -97 -9 -153c0 -105.333 9.66699 -192.666 29 -261.999c23.333 -82.667 56 -124 98 -124c6 0 10.333 0.333008 13 1c59.333 11.333 101.666 40 126.999 86c20.667 38 31 88.667 31 152c0 42 -5.5 97.333 -16.5 166s-16.5 109.334 -16.5 122.001
c0 24.667 5.66699 38 17 40l82.5 22.5c18.333 5 32.833 7.5 43.5 7.5s20.834 -2 30.501 -6s18.5 -11 26.5 -21zM496.001 792.999c0 -12.667 -4.66895 -21.666 -14.002 -26.999s-21.666 -8 -36.999 -8c-14 0 -27.667 1.66699 -41 5s-22.666 7.33301 -27.999 12
c-30.667 26.667 -51 45.667 -61 57c-22 24.667 -31.667 45.667 -29 63c2 13.333 9 23.666 21 30.999s26 11 42 11c20 0 36.667 -5.66699 50 -17c28 -23.333 51.167 -46.333 69.5 -69s27.5 -42 27.5 -58z" />
    <glyph glyph-name="uacute" unicode="&#xfa;" horiz-adv-x="792" 
d="M697 635c16 -18.667 27.501 -47.668 34.501 -87.001s10.5 -85.333 10.5 -138c0 -63.333 -4.66699 -122.666 -14 -177.999s-21 -91.333 -35 -108c-32.667 -40.667 -75.834 -73.334 -129.501 -98.001s-111.5 -37 -173.5 -37c-16 0 -28.333 0.333008 -37 1
s-21.334 2.66699 -38.001 6c-91.333 16 -161.666 77.667 -210.999 185c-40 87.333 -60 184.333 -60 291c0 47.333 4.66699 86.333 14 117s21.333 45 36 43c4 -0.666992 10.667 -1 20 -1s24 1 44 3s34 3 42 3c15.333 0 26.5 -2.33301 33.5 -7s9.5 -13.334 7.5 -26.001
c-6 -46 -9 -97 -9 -153c0 -105.333 9.66699 -192.666 29 -261.999c23.333 -82.667 56 -124 98 -124c6 0 10.333 0.333008 13 1c59.333 11.333 101.666 40 126.999 86c20.667 38 31 88.667 31 152c0 42 -5.5 97.333 -16.5 166s-16.5 109.334 -16.5 122.001
c0 24.667 5.66699 38 17 40l82.5 22.5c18.333 5 32.833 7.5 43.5 7.5s20.834 -2 30.501 -6s18.5 -11 26.5 -21zM491.001 887.999c3.33301 -20 -11.001 -45.667 -43.001 -77c-12 -12 -27.667 -26.333 -47 -43c-5.33301 -4.66699 -14.5 -8.66699 -27.5 -12
s-26.833 -5 -41.5 -5c-16 0 -28.667 2.5 -38 7.5s-13.666 13.167 -12.999 24.5c2 16.667 12.333 37.167 31 61.5s40.667 47.166 66 68.499c14.667 11.333 31.667 17 51 17c16 0 29.833 -3.66699 41.5 -11s18.5 -17.666 20.5 -30.999z" />
    </font>
</defs>
</svg>
