<?xml version="1.0" standalone="no"?>
<!DOCTYPE svg PUBLIC "-//W3C//DTD SVG 1.1//EN" "http://www.w3.org/Graphics/SVG/1.1/DTD/svg11.dtd" >
<svg>
<metadata>
Created by FontForge 20090914 at Thu Apr 25 14:18:46 2013
 By www-data
(c) Jakob Fischer at www.pizzadude.dk - DO NOT DISTRIBUTE WITHOUT AUTHOR'S PERMISSION!
</metadata>
<defs>
<font id="JellyBelly" horiz-adv-x="500" >
  <font-face 
    font-family="JellyBelly"
    font-weight="400"
    font-stretch="normal"
    units-per-em="1000"
    panose-1="0 0 4 0 0 0 0 0 0 0"
    ascent="800"
    descent="-200"
    x-height="448"
    cap-height="600"
    bbox="-30.001 -109 761.088 800"
    underline-thickness="20"
    underline-position="-123"
    unicode-range="U+0020-U+007A"
  />
<missing-glyph 
d="M63 0v800h375v-800h-375zM125 63h250v675h-250v-675z" />
    <glyph glyph-name=".notdef" 
d="M63 0v800h375v-800h-375zM125 63h250v675h-250v-675z" />
    <glyph glyph-name="space" unicode=" " 
 />
    <glyph glyph-name="exclam" unicode="!" horiz-adv-x="299" 
d="M187 250l-38 10.002l-2 -1l-31 17c-3.33301 5.33301 -6.33301 26.166 -9 62.499s-6.66699 59.833 -12 70.5c-28.667 60.667 -43 103.667 -43 129c0 58 56.333 87 169 87c66 0 99.333 -17.667 100 -53c-2.66699 -8 -7 -20.333 -13 -37l-16 -41l-28 -118
c-13.333 -56.667 -25.333 -92.334 -36 -107.001c-4 -4.66699 -12 -9 -24 -13zM310 169.002c0 -28.667 -6.66699 -56.999 -20 -84.999c-16.667 -34.667 -37.334 -52 -62.001 -52c-12.667 0 -36.334 5.33301 -71.001 16c-32 9.33301 -55.333 17.666 -70 24.999
c-34.667 16.667 -52.334 35 -53.001 55c-1.33301 30.667 7.83398 56.5 27.501 77.5s44.834 31.5 75.501 31.5h25c22.667 -0.666992 31.334 -1 26.001 -1c41.333 0 68.333 -2 81 -6c27.333 -8.66699 41 -29 41 -61z" />
    <glyph glyph-name="quotedbl" unicode="&#x22;" horiz-adv-x="465" 
d="M470 580c0 -22.667 -7.99902 -60.6641 -23.999 -113.997c-18 -60.667 -34.333 -92.334 -49 -95.001c-11.333 -2 -26.666 -1 -45.999 3c-22.667 4.66699 -34.334 11.334 -35.001 20.001c-0.666992 7.33301 2.66602 32.666 9.99902 75.999c0 -0.666992 -11.333 7 -34 23
s-34 31 -34 45c0 7.33301 2 17.166 6 29.499s6.33301 21.166 7 26.499c4 30.667 17 55.167 39 73.5s48.667 27.5 80 27.5c34 0 56.667 -11.333 68 -34c8 -16 12 -43 12 -81zM264.001 614.003c0.666992 -35.333 -7.33203 -81.6699 -23.999 -139.003
c-20 -69.333 -42.667 -102 -68 -98c-14.667 2.66699 -28.334 8 -41.001 16c-16.667 10.667 -23.667 22.334 -21 35.001c0.666992 2 4.33398 15.667 11.001 41c0.666992 3.33301 -7 11.833 -23 25.5s-25 23.834 -27 30.501c-1.33301 12 -2 24 -2 36
c0 32 6.66699 61.333 20 88c7.33301 14.667 17.666 25 30.999 31c3.33301 1.33301 17.333 5 42 11c12 2.66699 25 3.66699 39 3c18 -1.33301 30.333 -4.5 37 -9.5s12.667 -15.667 18 -32s8 -29.166 8 -38.499z" />
    <glyph glyph-name="numbersign" unicode="#" horiz-adv-x="704" 
d="M719 450l-2.99707 -2.99512c0 -27.333 -9.33301 -43.333 -28 -48c-22.667 -1.33301 -45.667 -2.33301 -69 -3l-9 -38l4 -8l45 -6c20.667 -4.66699 31.667 -13.334 33 -26.001c4.66699 -38.667 7 -62.334 7 -71.001c0 -20.667 -9.66699 -35 -29 -43
c-6.66699 -2.66699 -25.334 -6 -56.001 -10c-3.33301 -5.33301 -7.33301 -26 -12 -62c-2.66699 -22 -14.334 -33 -35.001 -33c-8 0 -17.333 1.33301 -28 4l-3 -3c-1.33301 1.33301 -3 2.33301 -5 3c-2.66699 1.33301 -4.33398 1.33301 -5.00098 0
c-10 4 -29.667 9.33301 -59 16c-25.333 6 -44.666 12.667 -57.999 20c-2 16 -7 39 -15 69l-30 12c-2.66699 -22 -5 -37.333 -7 -46c-4 -24 -8.66699 -37 -14 -39c-9.33301 -3.33301 -21.333 -5 -36 -5c-54 0 -109 13.667 -165 41l-12 20
c7.33301 35.333 10.666 54 9.99902 56c-24 2.66699 -39.333 6.66699 -46 12c-9.33301 6.66699 -14 21.334 -14 44.001l2 3c-2 33.333 2.33301 58.666 13 75.999c8.66699 4.66699 24 7.66699 46 9c0.666992 -1.33301 12.334 -3.33301 35.001 -6l10 18
c-8.66699 2.66699 -21.334 4.33398 -38.001 5.00098s-29 2 -37 4l-24 20c-5.33301 32.667 -8 51 -8 55c0 21.333 11 32 33 32c6.66699 0 15 -1 25 -3c0 2 1.33301 2.66699 4 2c2 -0.666992 3.33301 -1.66699 4 -3l30 -5l11 5c12 49.333 25.667 82.333 41 99
c22 23.333 58.667 35 110 35c18.667 0 28 -15 28 -45c0 -8 -1 -19.667 -3 -35s-3 -27 -3 -35c0 -4.66699 0.333008 -8 1 -10c12.667 -8.66699 31 -16.667 55 -24c4.66699 6 10 25.667 16 59s11 54.666 15 63.999c31.333 17.333 64 26.333 98 27c42 0.666992 63 -12 63 -38
c0 -6.66699 -1 -16.334 -3 -29.001s-3 -22.334 -3 -29.001c0 -12.667 2.33301 -23.334 7 -32.001l75 -12c20 -8 32 -28 36 -60zM360.003 426.005c-6 -24.667 -8.66699 -41.333 -8 -50c6.66699 -6 26 -13.667 58 -23c12.667 22 19 37 19 45c0 7.33301 -11.333 13.333 -34 18
c-3.33301 0.666992 -15 4 -35 10z" />
    <glyph glyph-name="dollar" unicode="$" horiz-adv-x="503" 
d="M455 428c-28.667 22 -57 32.9971 -85 32.9971c-24.667 0 -49 -9 -73 -27c0.666992 -4.66699 19.667 -12 57 -22c43.333 -11.333 67.333 -18 72 -20c51.333 -24.667 77 -54.334 77 -89.001c0 -47.333 -43 -98.666 -129 -153.999c1.33301 -41.333 1 -69.333 -1 -84
c-5.33301 -39.333 -19.666 -59 -42.999 -59c-20.667 0 -51 13 -91 39l-29 19c-10.667 6.66699 -17.667 14 -21 22c0.666992 18 1.33398 39.667 2.00098 65l-64 27c-17.333 9.33301 -26 22 -26 38c0 13.333 5 31.333 15 54c7.33301 3.33301 17 5 29 5c8 0 20.333 -1 37 -3
s29 -3 37 -3c18 0 27 6 27 18l-99 47c-33.333 16 -50 43 -50 81c0 43.333 17.333 79 52 107c14 11.333 47.667 23.333 101 36c1.33301 16 1.66602 44.667 0.999023 86c9.33301 16.667 26.833 31.834 52.5 45.501s48.167 20.5 67.5 20.5c18 0 31 -6 39 -18
c5.33301 -11.333 8 -26.666 8 -45.999c0 -7.33301 -0.833008 -18.666 -2.5 -33.999s-2.5 -26.666 -2.5 -33.999c39.333 -26 60.666 -40.333 63.999 -43c18.667 -16.667 32.334 -38.334 41.001 -65.001c1.33301 -6.66699 -6.83398 -15.5 -24.501 -26.5
s-30.5 -16.167 -38.5 -15.5z" />
    <glyph glyph-name="percent" unicode="%" horiz-adv-x="502" 
d="M519 394c0 -22.667 -13.335 -63 -40.002 -121c-28.667 -62.667 -53 -94 -73 -94c-3.33301 0 -10.166 4.33301 -20.499 13s-17.166 15 -20.499 19c-6.66699 8 -10 17.333 -10 28c0 16 9.33301 48 28 96s33.667 78 45 90c4 3.33301 11.333 5 22 5c13.333 0 27.333 -3 42 -9
c18 -7.33301 27 -16.333 27 -27zM468.998 587c0 -33.333 -34.667 -120.001 -104 -260.001s-112 -210 -128 -210c-26.667 -0.666992 -51.667 19.333 -75 60c-18 31.333 -27 51.666 -27 60.999c0 22 20.667 59.333 62 112c24 30.667 68.333 104.334 133 221.001
c10 18.667 20 30.834 30 36.501s25.333 8.5 46 8.5c42 0 63 -9.66699 63 -29zM260.998 509.999c0 -7.33301 -10.666 -28.834 -31.999 -64.501s-36 -57.5 -44 -65.5c-16.667 -16.667 -32.334 -25.667 -47.001 -27c-10 -0.666992 -22.167 9.33301 -36.5 30
s-21.5 36.334 -21.5 47.001c0 26 12.667 53.167 38 81.5s51 42.5 77 42.5c13.333 0 27 -4 41 -12c16.667 -9.33301 25 -20 25 -32z" />
    <glyph glyph-name="ampersand" unicode="&#x26;" horiz-adv-x="442" 
d="M456 224c-1.33301 -14 -14.001 -34.8359 -38.001 -62.5029s-43 -42.5 -57 -44.5c-13.333 -2 -35.333 8.66699 -66 32c-53.333 -38 -99.666 -57 -138.999 -57c-32 0 -56.333 12 -73 36c-14.667 20.667 -22 47.667 -22 81c0 30.667 6.66699 60.834 20 90.501
s31.666 52.834 54.999 69.501c-17.333 14 -38 41.667 -62 83s-36 72 -36 92c0 34.667 28.667 61 86 79c42 13.333 85 20 129 20c42.667 0 79.334 -5 110.001 -15c46.667 -15.333 70 -39.666 70 -72.999c0 -19.333 -18.667 -50 -56 -92c-30.667 -34.667 -58 -61 -82 -79v-3
l23 -19c35.333 18.667 61.333 28 78 28c7.33301 0 13.333 -1.66699 18 -5c7.33301 -13.333 15 -32.333 23 -57l-34 -54c13.333 -7.33301 31 -24 53 -50zM277.999 482.997c-17.333 10.667 -32.002 14.667 -44.002 12c-3.33301 -0.666992 -8.66602 -6.5 -15.999 -17.5
s-11 -18.5 -11 -22.5v-5c24.667 -9.33301 40.334 -14 47.001 -14c8.66699 0 16.667 15.667 24 47zM204.997 279.997c-2.66699 10.667 -8.66699 19.667 -18 27c-3.33301 -1.33301 -6.5 -4.5 -9.5 -9.5s-3.83301 -9.16699 -2.5 -12.5c6.66699 -4.66699 13 -7 19 -7
c4 0 7.66699 0.666992 11 2z" />
    <glyph glyph-name="quotesingle" unicode="'" horiz-adv-x="264" 
d="M283 685c0.666992 -35.333 -7.33203 -81.666 -23.999 -138.999c-20 -69.333 -42.667 -102 -68 -98c-14 2 -27.667 7.33301 -41 16c-16.667 10.667 -23.667 22 -21 34c2 10 5.66699 24 11 42c0.666992 3.33301 -7 11.333 -23 24s-24.667 23 -26 31c-2 12.667 -3 25 -3 37
c0 31.333 6.66699 60.666 20 87.999c6.66699 13.333 17 23.333 31 30c9.33301 4 23.333 8 42 12c9.33301 2 22.333 2.66699 39 2c17.333 -0.666992 29.666 -3.16699 36.999 -7.5s13.5 -14.833 18.5 -31.5s7.5 -30 7.5 -40z" />
    <glyph glyph-name="parenleft" unicode="(" horiz-adv-x="374" 
d="M250 329c8.66699 -39.333 16.0049 -65.6641 22.0049 -78.9971c11.333 -24.667 29 -45.334 53 -62.001c50.667 -35.333 76 -59.333 76 -72c0 -28 -21 -49.667 -63 -65c-32.667 -12 -65.334 -18 -98.001 -18c-62.667 0 -113.334 16.333 -152.001 49
c-42 34.667 -63.333 82.667 -64 144c-2.66699 161.333 44.666 285.666 141.999 372.999c15.333 14 41.666 29.333 78.999 46c44.667 20 81 30 109 30c31.333 0 47 -14 47 -42c0 -9.33301 -4.33301 -20.333 -13 -33s-17.334 -21.667 -26.001 -27
c-34.667 -20.667 -62 -49.334 -82 -86.001s-30 -75.667 -30 -117v-41z" />
    <glyph glyph-name="parenright" unicode=")" horiz-adv-x="404" 
d="M417 367c0 -99.333 -31.332 -182.669 -93.999 -250.002c-64 -69.333 -145.333 -104 -244 -104c-4.66699 0 -10.334 2.33301 -17.001 7s-11 9.33398 -13 14.001c-4 10 -6 19.333 -6 28c0 20 13.333 41.667 40 65c35.333 30.667 59 55.334 71 74.001
c25.333 37.333 36 82.333 32 135c-4 59.333 -18 113 -42 161c-7.33301 14 -29.333 32.667 -66 56c-32 20 -48 36.667 -48 50c0 44 32 66 96 66c67.333 0 130 -24.667 188 -74c68.667 -58.667 103 -134.667 103 -228z" />
    <glyph glyph-name="asterisk" unicode="*" horiz-adv-x="430" 
d="M310 467c24.667 -22 37.001 -43.335 37.001 -64.002c0 -14 -5 -25.5 -15 -34.5s-22 -13.5 -36 -13.5c-17.333 0 -34 8 -50 24l-25 24c-5.33301 0 -16.333 -8.5 -33 -25.5s-30.334 -25.5 -41.001 -25.5c-8 0 -17.667 3 -29 9s-17.833 12.333 -19.5 19
s-2.5 13.334 -2.5 20.001c0 10 4.66699 21.167 14 33.5s14 19.5 14 21.5c0 6.66699 -9.33301 13.334 -28 20.001l-38 12c-6 7.33301 -9 15.333 -9 24c0 15.333 9 34 27 56c10 2.66699 26.333 5 49 7c7.33301 -3.33301 18.666 -7 33.999 -11l3 -3l7 4
c-1.33301 7.33301 -2 14 -2 20c0 26 13.333 39 40 39c10 0 21.333 -2.66699 34 -8c16 -6 24.333 -12.833 25 -20.5s2.33398 -17.834 5.00098 -30.501c38 11.333 57.667 17 59 17c23.333 -0.666992 35 -8 35 -22c0 -12.667 -8 -29 -24 -49
c-18.667 -23.333 -29 -37.666 -31 -42.999z" />
    <glyph glyph-name="plus" unicode="+" horiz-adv-x="485" 
d="M399 243c4 -34 5.00098 -56.6689 3.00098 -68.002c-62 -16 -116.333 -24 -163 -24c-21.333 0 -33 2.66699 -35 8s-3 13 -3 23c1.33301 35.333 0.333008 53 -3 53c-12 -1.33301 -27.667 -0.666016 -47 2.00098c-25.333 3.33301 -38.333 8.66602 -39 15.999
c-2 16 -2.33301 41.333 -1 76c1.33301 38.667 6.66602 60.667 15.999 66c3.33301 2.66699 28 5.33398 74 8.00098c4 11.333 6.66699 28.333 8 51s3.33301 39 6 49c8.66699 4.66699 21.667 8.33398 39 11.001s29.666 5.66699 36.999 9l2 -3c26 3.33301 45 5 57 5
c22 0 35 -7.33301 39 -22l7 -80l4 -5c50.667 0.666992 81.334 -11.333 92.001 -36c5.33301 -12 8 -47.667 8 -107c0 -10 -14 -17.333 -42 -22z" />
    <glyph glyph-name="comma" unicode="," horiz-adv-x="285" 
d="M253 164c0 -23.333 -7.99902 -61.3311 -23.999 -113.998c-18 -60.667 -34.333 -92.334 -49 -95.001c-11.333 -2 -26.666 -1 -45.999 3c-22 4.66699 -33.667 11.334 -35 20.001c-0.666992 5.33301 2.66602 30.666 9.99902 75.999c0.666992 3.33301 -9 10.333 -29 21
s-31 17.667 -33 21c-3.33301 9.33301 -5.33301 18 -6 26c0 4 2.16699 13 6.5 27s6.5 23.667 6.5 29c4 28.667 18.167 53.167 42.5 73.5s50.833 30.5 79.5 30.5c28 0 49.333 -11.667 64 -35c9.33301 -14.667 13.666 -42.334 12.999 -83.001z" />
    <glyph glyph-name="hyphen" unicode="-" horiz-adv-x="595" 
d="M229 420c38 4 82.001 6 132.001 6c67.333 -0.666992 111.666 0 132.999 2c16 1.33301 34 -0.666992 54 -6c25.333 -6.66699 37 -17 35 -31c7.33301 -14.667 11 -36 11 -64c0 -40 -8 -64.667 -24 -74c-34.667 -20 -104 -30 -208 -30c-97.333 0 -149.333 13 -156 39
c-5.33301 21.333 -5 54.333 1 99c4 27.333 11.333 47 22 59z" />
    <glyph glyph-name="hyphen" unicode="&#x2010;" horiz-adv-x="595" 
d="M229 420c38 4 82.001 6 132.001 6c67.333 -0.666992 111.666 0 132.999 2c16 1.33301 34 -0.666992 54 -6c25.333 -6.66699 37 -17 35 -31c7.33301 -14.667 11 -36 11 -64c0 -40 -8 -64.667 -24 -74c-34.667 -20 -104 -30 -208 -30c-97.333 0 -149.333 13 -156 39
c-5.33301 21.333 -5 54.333 1 99c4 27.333 11.333 47 22 59z" />
    <glyph glyph-name="period" unicode="." horiz-adv-x="388" 
d="M323 167c0.666992 -18 -3.33691 -41.333 -12.0039 -70c-9.33301 -31.333 -19.666 -52.333 -30.999 -63c-5.33301 -4.66699 -13.666 -7 -24.999 -7c-13.333 0 -29 2.33301 -47 7c-7.33301 2 -20.333 5.33301 -39 10l-62 10c-25.333 4.66699 -44.166 11 -56.499 19
s-18.5 17.333 -18.5 28c0 16 5.33301 35.667 16 59c11.333 26 23.333 41.667 36 47s38.334 8 77.001 8c72 0 119.667 -6 143 -18c12 -6 18.333 -16 19 -30z" />
    <glyph glyph-name="slash" unicode="/" horiz-adv-x="513" 
d="M377 708c4 2 9.33398 3 16.001 3c23.333 0 54.333 -11 93 -33c42.667 -23.333 64 -45.333 64 -66c0 -7.33301 -49.333 -97.333 -148 -270l-218 -381c-20.667 -36 -40.667 -54 -60 -54c-12.667 0 -30.334 11.167 -53.001 33.5s-34 39.5 -34 51.5
c0 14.667 51.333 130.167 154 346.5s164.667 339.5 186 369.5z" />
    <glyph glyph-name="zero" unicode="0" horiz-adv-x="488" 
d="M500 335c0 -76 -25.166 -137.5 -75.499 -184.5s-113.5 -70.5 -189.5 -70.5c-62.667 0 -113.667 16.333 -153 49c-42.667 34.667 -64 82.667 -64 144c0 82.667 27.333 156.667 82 222c58 68.667 127.667 103 209 103c67.333 0 117.666 -28.667 150.999 -86
c26.667 -46 40 -105 40 -177zM361.001 236c0 40 -15.667 60.002 -47 60.002c-28.667 0 -71 -12.333 -127 -37c-6.66699 -5.33301 -13.667 -10.333 -21 -15c-4.66699 -4.66699 -7 -12 -7 -22c0 -29.333 34.333 -44 103 -44c40.667 0 69 4.66699 85 14
c3.33301 1.33301 6.5 7.66602 9.5 18.999s4.5 19.666 4.5 24.999z" />
    <glyph glyph-name="one" unicode="1" horiz-adv-x="313" 
d="M103 457l-44 8.00195c-17.333 3.33301 -26 13 -26 29c0 36 10 60 30 72c33.333 20.667 83 31 149 31c59.333 0 93.333 -12.667 102 -38c2 -6 3 -19.667 3 -41c0 -46.667 -4 -117.834 -12 -213.501s-12 -143.834 -12 -144.501c-11.333 -74 -30.666 -111 -57.999 -111
c-24.667 0 -62.834 18.667 -114.501 56s-83.5 68 -95.5 92c-2.66699 5.33301 -4 12.333 -4 21c0 26.667 11.667 68.667 35 126z" />
    <glyph glyph-name="two" unicode="2" horiz-adv-x="458" 
d="M321 271c11.333 -6 34.333 -15.332 69 -27.999c16 -5.33301 36 -14 60 -26c10.667 -8 16 -20.667 16 -38c0 -20.667 -11.667 -75.334 -35 -164.001c-7.33301 -3.33301 -20.333 -5 -39 -5c-61.333 0 -125.333 9.33301 -192 28l-2 -2l-104 25c-49.333 12 -74 29.667 -74 53
c0 30.667 16.667 70 50 118c12.667 18 46.334 60.333 101.001 127c42.667 52 70 90.667 82 116c-6 2.66699 -14.333 2.66699 -25 0c-10 -2.66699 -17 -6 -21 -10c-0.666992 -11.333 -6.66699 -37.333 -18 -78c-16.667 -15.333 -37.334 -23 -62.001 -23
c-30 0 -55.667 10.167 -77 30.5s-32 45.5 -32 75.5c0 42.667 17 74 51 94c19.333 10.667 56.333 21.667 111 33c65.333 13.333 120.333 20 165 20c86.667 0 130 -19.667 130 -59c0 -28 -13 -64 -39 -108c-8.66699 -14 -33.667 -49.667 -75 -107
c-26.667 -36.667 -40 -60.667 -40 -72z" />
    <glyph glyph-name="three" unicode="3" horiz-adv-x="497" 
d="M221 267l11.002 17.999c0 10 -5.83301 25 -17.5 45s-17.834 34.667 -18.501 44c-0.666992 8.66699 12.666 30.667 39.999 66c33.333 43.333 51 67 53 71l-17 6l-23 -6c-1.33301 -25.333 -6.66602 -44.333 -15.999 -57c-6 -8 -21.667 -14.667 -47 -20
c-19.333 -4 -37 -6 -53 -6c-80.667 0 -121 35.333 -121 106c0 38 14.667 63.333 44 76c11.333 4.66699 44 11.334 98 20.001c63.333 10 125.333 15 186 15c104 0 156 -15.333 156 -46c0 -20 -15.5 -58.167 -46.5 -114.5s-46.167 -90.5 -45.5 -102.5
c29.333 -32.667 59.333 -70.667 90 -114c18 -26 27 -55.333 27 -88c0 -51.333 -22.333 -93.333 -67 -126c-40 -30 -86.667 -45 -140 -45c-100 0 -188.333 49.333 -265 148c-14.667 18.667 -22 37.667 -22 57c0 26.667 12 48.667 36 66c21.333 16 45.666 24 72.999 24
c8 0 21.833 -6.16699 41.5 -18.5s34.167 -18.5 43.5 -18.5z" />
    <glyph glyph-name="four" unicode="4" horiz-adv-x="503" 
d="M352 185c-8 -18 -17 -50.3359 -27 -97.0029c-9.33301 -42 -20 -73.667 -32 -95c-14.667 -4.66699 -27.667 -7 -39 -7c-42 0 -63 36 -63 108c0 10.667 0.5 26.167 1.5 46.5s1.5 35.833 1.5 46.5c-15.333 0.666992 -36.333 -1 -63 -5c-30 -4 -51.333 -6 -64 -6
c-14 0 -25.333 1.66699 -34 5c-8 14.667 -12 49.334 -12 104.001c0 46.667 3.33301 102 10 166c8.66699 82.667 20 134.334 34 155.001c3.33301 4.66699 20.666 10.5 51.999 17.5s52 10.5 62 10.5l26 -18c0 -26 -8.33301 -59.333 -25 -100
c-18.667 -45.333 -29.334 -77.666 -32.001 -96.999c10.667 0 26.167 1.16699 46.5 3.5s35.833 3.5 46.5 3.5c1.33301 24.667 5 61.667 11 111c10.667 13.333 35.334 30 74.001 50c43.333 22.667 76.666 34 99.999 34c20 0 30 -9 30 -27c0 -14.667 -3.33301 -34 -10 -58
c-7.33301 -28 -11.666 -47 -12.999 -57c22 2 35 3 39 3c30.667 0 46 -9 46 -27c0 -38 -5.66699 -87 -17 -147c-7.33301 -39.333 -12.666 -63 -15.999 -71c-10 -28.667 -25.667 -45 -47 -49c-3.33301 -0.666992 -32 -1.66699 -86 -3z" />
    <glyph glyph-name="five" unicode="5" horiz-adv-x="524" 
d="M117 8c-11.333 68 -16.998 123.333 -16.998 166c0 32 4 52 12 60c1.33301 2 29 7.33301 83 16c49.333 8 74 18.667 74 32c0 12 -29.667 27 -89 45l-109 32c-12.667 5.33301 -26.667 50.666 -42 135.999l-24 132c6 13.333 16.333 22 31 26c4.66699 0.666992 18.667 3 42 7
c104.667 17.333 170.334 26 197.001 26c92 0 138 -37.667 138 -113c0 -14.667 -1.66699 -30.667 -5 -48c-8.66699 -12.667 -28.334 -19 -59.001 -19c-18.667 0 -45.834 3 -81.501 9s-62.167 10 -79.5 12c-5.33301 -5.33301 -7.66602 -13.666 -6.99902 -24.999
s3 -20.333 7 -27c17.333 -6 46.666 -11.333 87.999 -16c38.667 -4 67.667 -10 87 -18c60.667 -26 107.5 -65.333 140.5 -118s49.5 -112.667 49.5 -180c0 -48.667 -4.33301 -76.334 -13 -83.001c-34.667 -28 -88.667 -43.667 -162 -47l-202 -10
c-26.667 -1.33301 -46.334 0.333984 -59.001 5.00098z" />
    <glyph glyph-name="six" unicode="6" horiz-adv-x="485" 
d="M40 178l-2.99902 3.00098c-14 37.333 -21 78.666 -21 123.999c0 30 3.33301 57 10 81c22 79.333 55.667 143.666 101 192.999c54 57.333 118.667 86 194 86c37.333 0 73 -8.66699 107 -26c41.333 -21.333 62 -49 62 -83c0 -29.333 -15.333 -53.666 -46 -72.999
c-26.667 -17.333 -55.334 -26 -86.001 -26c-35.333 0 -67.333 12.667 -96 38c-10 8.66699 -16 13 -18 13l-39 -34l-5 -24l143 -14c84 -16 132.333 -57 145 -123c3.33301 -17.333 5 -35.666 5 -54.999c0 -68.667 -23.5 -126.334 -70.5 -173.001s-104.833 -70 -173.5 -70
c-103.333 0 -173 54.333 -209 163zM320.001 344.001c-10 5.33301 -17.668 8 -23.001 8c-25.333 0 -57.666 -10 -96.999 -30c-44.667 -22.667 -64.667 -45.667 -60 -69c4 -4 15 -6 33 -6s43 2.33301 75 7c30 4.66699 47.333 7.66699 52 9c20 6.66699 30 18.667 30 36
c0 14 -3.33301 29 -10 45z" />
    <glyph glyph-name="seven" unicode="7" horiz-adv-x="389" 
d="M249 461c-5.33301 1.33301 -11.666 1.99902 -18.999 1.99902c-18 0 -44.5 -4 -79.5 -12s-61.5 -12 -79.5 -12c-40 0 -60 17.333 -60 52c-0.666992 55.333 6.66602 103.666 21.999 144.999c15.333 12.667 43.333 19 84 19c14 0 33.333 -1 58 -3l48 -4
c126.667 -10.667 190 -37.334 190 -80.001c0 -58 -13 -125.667 -39 -203l-68 -198c-4 -16 -12 -45.167 -24 -87.5s-27 -66.166 -45 -71.499l-4 -2c-20.667 -2.66699 -53.167 13.833 -97.5 49.5s-66.5 63.834 -66.5 84.501c0 14.667 26.667 66.334 80 155.001z" />
    <glyph glyph-name="eight" unicode="8" horiz-adv-x="566" 
d="M71 384c-24 28 -36.001 55.332 -36.001 81.999c0 49.333 35.333 92 106 128c64.667 32.667 134 49 208 49c40 0 73.667 -6.33301 101 -19c36.667 -16.667 55 -42.667 55 -78l-1 -1c1.33301 -21.333 -5.33398 -58 -20.001 -110
c4.66699 -7.33301 14.334 -16.666 29.001 -27.999c17.333 -12.667 28 -21.334 32 -26.001c22.667 -24.667 34 -55.667 34 -93c0 -83.333 -27 -150.166 -81 -200.499s-123 -75.5 -207 -75.5c-56.667 0 -108.667 12.333 -156 37
c-49.333 25.333 -88.666 61.666 -117.999 108.999c-6 9.33301 -9 22 -9 38c0 48.667 21 111.334 63 188.001zM197.999 443.999c30 -5.33301 57.999 -8 83.999 -8h35c26.667 0 42.834 2.33301 48.501 7s8.5 19.667 8.5 45c0 8 -1.66699 15.667 -5 23
c-0.666992 1.33301 -7 3.83301 -19 7.5s-19.333 5.5 -22 5.5c-17.333 0 -38.333 -3.66699 -63 -11c-27.333 -8 -46.333 -17 -57 -27c-6.66699 -6.66699 -10 -20.667 -10 -42zM401.998 270.999c0 12.667 -13.3359 24.0029 -40.0029 34.0029
c-71.333 26.667 -121.666 40 -150.999 40c-7.33301 0 -14.166 -7.33301 -20.499 -22s-9.5 -26.334 -9.5 -35.001c0 -12.667 4.66699 -22.334 14 -29.001c4 -2.66699 14.333 -7.33398 31 -14.001c70.667 -27.333 115.334 -41 134.001 -41c9.33301 0 16.333 3.33301 21 10
c2 2 5.66699 9.66699 11 23c6.66699 16.667 10 28 10 34z" />
    <glyph glyph-name="nine" unicode="9" horiz-adv-x="476" 
d="M136 64c-2 7.33301 -2.99902 14.668 -2.99902 22.001c0 16 8 33.333 24 52c20 23.333 32 40.333 36 51c-18 6.66699 -44.667 18 -80 34c-72 40.667 -108 103.334 -108 188.001c0 62.667 19.667 118 59 166c41.333 52 92.666 78 153.999 78c44 0 89 -15.667 135 -47
c89.333 -61.333 134 -146.333 134 -255c0 -52.667 -10.5 -108.334 -31.5 -167.001s-47.833 -109.667 -80.5 -153c-28 -37.333 -49 -56 -63 -56c-22.667 0 -53.667 10.667 -93 32c-31.333 17.333 -59 35.666 -83 54.999zM305.001 293.002c6 19.333 8.99902 29.667 8.99902 31
c0 7.33301 -9 17.666 -27 30.999s-31.667 21.5 -41 24.5s-19 4.5 -29 4.5c-8 0 -15.667 -3 -23 -9s-11 -13 -11 -21c0 -13.333 18 -28.666 54 -45.999c27.333 -13.333 45.333 -20 54 -20c4.66699 0 9.33398 1.66699 14.001 5z" />
    <glyph glyph-name="colon" unicode=":" horiz-adv-x="415" 
d="M422 405c0.666992 -7.33301 -0.5 -20.833 -3.5 -40.5s-5.83301 -32.167 -8.5 -37.5c-6.66699 -11.333 -38.667 -18.666 -96 -21.999c-47.333 -2.66699 -83 -2.33398 -107 0.999023c-37.333 5.33301 -59.333 10 -66 14c-12.667 8 -18 27.333 -16 58l1 15
c2 32 8 52.667 18 62c8 8 51 12 129 12c80.667 0 126.667 -6.33301 138 -19c7.33301 -8 11 -22.333 11 -43zM399 233c0 -39.333 -6.66895 -67.001 -20.002 -83.001c-14.667 -18.667 -41 -28 -79 -28c-12 0 -29 0.666992 -51 2c-24 1.33301 -41 2 -51 2
c-33.333 0.666992 -55 3.66699 -65 9c-15.333 8.66699 -22.666 27.334 -21.999 56.001c0 14 3.66699 30.333 11 49c8 22 17.333 34.667 28 38c26.667 8.66699 65.334 13 116.001 13c88.667 0 133 -19.333 133 -58z" />
    <glyph glyph-name="semicolon" unicode=";" horiz-adv-x="394" 
d="M402 450c0.666992 -20 -3 -43.667 -11 -71c-8.66699 -29.333 -19.334 -50 -32.001 -62c-4.66699 -4.66699 -13 -7 -25 -7c-13.333 0 -41.666 5.66699 -84.999 17l-62 10c-50.667 8 -76 23.333 -76 46c0 16 5.5 36.5 16.5 61.5s23 40.167 36 45.5s38.833 8 77.5 8
c72 0 119.667 -6 143 -18c11.333 -6 17.333 -16 18 -30zM224 140c-7.33301 6.66699 -23.001 11.001 -47.001 13.001c-28 2.66699 -46.667 5.66699 -56 9c-18 6.66699 -27 19 -27 37c0 4.66699 3.33301 20 10 46s11 40 13 42c14 14.667 45.667 22 95 22
c76.667 0 125 -15.333 145 -46c8.66699 -13.333 13 -37 13 -71c0 -29.333 -3.66699 -57 -11 -83c-11.333 -38.667 -27.666 -58 -48.999 -58c-62 0 -93 19.333 -93 58c0 9.33301 2.33301 19.666 7 30.999z" />
    <glyph glyph-name="less" unicode="&#x3c;" horiz-adv-x="350" 
d="M284 311c0 0.666992 12.668 -19.332 38.001 -59.999s38 -69.334 38 -86.001c0 -17.333 -9.66699 -26 -29 -26c-28 0 -71.333 18.333 -130 55c-61.333 38.667 -92.666 70 -93.999 94c-0.666992 16.667 9.66602 40 30.999 70c10 14 36.333 33.333 79 58
c47.333 27.333 82.666 41 105.999 41c16.667 0 25 -7.33301 25 -22c0 -22 -21.333 -63.333 -64 -124z" />
    <glyph glyph-name="equal" unicode="=" horiz-adv-x="583" 
d="M173 369c-1.33301 2.66699 -1.99902 7 -1.99902 13c0 7.33301 1.33301 18.5 4 33.5s4 26.167 4 33.5v30c0 36 14 53.333 42 52c22 -2 64 -5 126 -9c23.333 0 65.666 -0.666992 126.999 -2c65.333 -2 102 -11.667 110 -29c3.33301 -7.33301 5 -17.333 5 -30
c0 -25.333 -5.66699 -51.333 -17 -78c-14 -32.667 -31.667 -49 -53 -49c-14.667 0 -36.667 -1.66699 -66 -5s-51.333 -5 -66 -5c-8.66699 0 -22 0.666992 -40 2s-31.333 2 -40 2c-4 0.666992 -11.667 0.666992 -23 0s-21.333 -1 -30 -1c-54 0 -81 14 -81 42zM595.001 227
l-1.99707 -1c1.33301 -36.667 -2.66699 -68 -12 -94c-4.66699 -12.667 -10.334 -20.334 -17.001 -23.001c-36.667 -15.333 -114.334 -23 -233.001 -23h-94c-26 2 -44 10.333 -54 25c-12 16 -18 44.333 -18 85c0 30 3 51.667 9 65c9.33301 18.667 27.333 28.334 54 29.001h85
c70 1.33301 118.667 1 146 -1c23.333 -1.33301 47.666 -2.33301 72.999 -3c34 -4 53.667 -14.333 59 -31c2 -6 3.33301 -15.333 4 -28z" />
    <glyph glyph-name="greater" unicode="&#x3e;" horiz-adv-x="429" 
d="M254 321c-16 20 -33 43 -51 69c-6.66699 10 -10 21.667 -10 35c0 22.667 14.667 34 44 34c32 0 73 -11.667 123 -35c57.333 -26.667 86 -53.667 86 -81c0 -26.667 -30.833 -61.834 -92.5 -105.501s-107.167 -65.5 -136.5 -65.5c-18 0 -27 9.66699 -27 29
c0 18.667 10.667 43.334 32 74.001z" />
    <glyph glyph-name="question" unicode="?" horiz-adv-x="487" 
d="M263 443c-28.667 -20 -52 -30.0029 -70 -30.0029c-2.66699 0 -18.334 1.66699 -47.001 5c-41.333 4.66699 -62 32 -62 82c0 40 7 67.667 21 83c12 13.333 48.667 24.333 110 33c45.333 6.66699 85.333 10 120 10c86 0 139.333 -16 160 -48
c6 -9.33301 9 -26.666 9 -51.999c0 -63.333 -13.333 -127.666 -40 -192.999c-32 -78 -72.333 -120.667 -121 -128c-26 -4 -59 2 -99 18c-44.667 18 -67 39.333 -67 64c0 10.667 13.333 29.667 40 57c22 22.667 40.667 38.667 56 48c12 7.33301 23.5 21.833 34.5 43.5
s16.5 39.834 16.5 54.501c0 16.667 -7 25 -21 25c-17.333 0.666992 -28.666 -5.33301 -33.999 -18c-0.666992 -13.333 -2.66699 -31.333 -6 -54zM410 82.9971c-10 -56.667 -36.998 -85 -80.998 -85c-16 0 -43.667 5 -83 15c-44.667 11.333 -76.334 24 -95.001 38
c-28 20.667 -42 50 -42 88c0 42.667 32 64 96 64c41.333 0 84.666 -9.66699 129.999 -29c56.667 -24 81.667 -54.333 75 -91z" />
    <glyph glyph-name="at" unicode="@" horiz-adv-x="579" 
d="M433 305l19.002 11c0 10.667 -3 26 -9 46c-6.66699 22.667 -13.334 35 -20.001 37c-3.33301 0.666992 -8 1 -14 1c-24 0 -57.333 -6.66699 -100 -20c-46.667 -14 -76.334 -28.333 -89.001 -43c-5.33301 -6 -8.33301 -20 -9 -42c-0.666992 -26.667 0 -52 2 -76
c3.33301 -40 10.333 -59.333 21 -58c6.66699 0.666992 29.667 6 69 16c29.333 7.33301 52.333 11 69 11c40 0 66.667 -20 80 -60c-4.66699 -32.667 -26.667 -57 -66 -73c-30.667 -12.667 -65.334 -19 -104.001 -19c-42 0 -81 6.66699 -117 20
c-42.667 16 -74.167 39.167 -94.5 69.5s-30.166 89.5 -29.499 177.5s32.334 162.167 95.001 222.5s138.334 90.5 227.001 90.5c66.667 0 120 -19.5 160 -58.5s62.667 -91.833 68 -158.5l-18 -121c-10.667 -64.667 -29.334 -98 -56.001 -100
c-30.667 -2 -78.334 8 -143.001 30c-72.667 25.333 -109 50 -109 74c0 48 32.667 72 98 72c16.667 0 30 -4.66699 40 -14zM384.002 267c-0.666992 4.66699 -4.16699 10.166 -10.5 16.499s-11.833 9.5 -16.5 9.5c-14 0 -21 -2.66699 -21 -8c0 -1.33301 0.666992 -3 2 -5
s2 -3.33301 2 -4c16.667 -3.33301 31 -7.66602 43 -12.999z" />
    <glyph glyph-name="A" unicode="A" horiz-adv-x="571" 
d="M363 206c-36.667 -18 -54.998 -31.334 -54.998 -40.001c0 -4 2.33301 -13.333 7 -28s7 -26 7 -34l-21 -29c-23.333 -10 -51 -15 -83 -15c-26.667 0 -61.667 4.33301 -105 13c-63.333 12.667 -95 53 -95 121c0 77.333 34.667 165.666 104 264.999
c72 102.667 144.667 160.667 218 174c15.333 2.66699 48.666 -11.333 99.999 -42c41.333 -24.667 77 -81.667 107 -171c26 -77.333 39 -145.333 39 -204c0 -69.333 -17.333 -113.666 -52 -132.999c-6.66699 -2.66699 -15.334 -4 -26.001 -4c-23.333 0 -52.333 7 -87 21
c-41.333 16.667 -62 34.334 -62 53.001c0 4.66699 0.833008 13 2.5 25s2.16699 21.333 1.5 28zM365.002 288.999c-0.666992 15.333 -6.66699 36.001 -18 62.001c-10.667 2 -21 -7.66699 -31 -29c-8.66699 -18 -13 -33.333 -13 -46v-15c20 3.33301 40.667 12.666 62 27.999z
" />
    <glyph glyph-name="B" unicode="B" horiz-adv-x="488" 
d="M412 327c0.666992 -2 15.002 -20.333 43.002 -55c19.333 -24 29 -44 29 -60c0 -29.333 -51 -64.666 -153 -105.999c-92.667 -37.333 -159.334 -56 -200.001 -56c-19.333 0 -31.333 4.33301 -36 13c-18.667 36 -37.334 112.333 -56.001 229
c-16.667 105.333 -25 185.333 -25 240c0 20 1.33301 35 4 45c6 23.333 41.333 35 106 35c52 0 116 -7 192 -21c65.333 -12 108 -22.333 128 -31c42.667 -18.667 64 -44.334 64 -77.001c0 -30 -16 -63.667 -48 -101zM296.002 400l-15 -52c33.333 13.333 50 24.666 50 33.999
c0 4.66699 -4.33301 8.83398 -13 12.501s-16 5.5 -22 5.5zM250.002 255c-7.33301 -15.333 -11.667 -29.333 -13 -42c32 6.66699 48 13.667 48 21c0 4 -11.667 11 -35 21z" />
    <glyph glyph-name="C" unicode="C" horiz-adv-x="460" 
d="M285 260c16.667 0 39.3359 -1.66602 68.0029 -4.99902c21.333 -7.33301 32 -19.333 32 -36c0 -23.333 -17.333 -50 -52 -80s-64 -45 -88 -45c-4.66699 0 -8.33398 1 -11.001 3c-12.667 -4 -25.334 -6 -38.001 -6c-52.667 0 -96.334 26.667 -131.001 80
c-30.667 46.667 -46 98 -46 154c0 93.333 41.667 163.333 125 210c66.667 37.333 151 56 253 56c26.667 0 46 -3.66699 58 -11c16 -10 24 -48.667 24 -116c0 -65.333 -6.33301 -104.333 -19 -117c-0.666992 -0.666992 -34 -4.33398 -100 -11.001
c-62.667 -6 -95.334 -15.333 -98.001 -28c-1.33301 -6 -1.66602 -16 -0.999023 -30c0.666992 -16.667 4.33398 -25 11.001 -25c3.33301 0 7.66602 2.33301 12.999 7z" />
    <glyph glyph-name="D" unicode="D" horiz-adv-x="488" 
d="M507 404c0 -48.667 -26 -103.334 -78 -164.001c-48 -55.333 -96.333 -93.666 -145 -114.999c-67.333 -29.333 -103 -44 -107 -44c-16 0 -49.667 77 -101 231c-46 137.333 -68 219.333 -66 246c2 34 45 51 129 51c85.333 0 165 -17.333 239 -52c86 -40 129 -91 129 -153z
M264 297c-3.33301 -15.333 -8 -40.667 -14 -76h5c24.667 16 37 30.333 37 43c0 11.333 -9.33301 22.333 -28 33z" />
    <glyph glyph-name="E" unicode="E" horiz-adv-x="436" 
d="M250 358l-3.00098 -10.999l9 -5l45 2c28 1.33301 42 -10 42 -34c0 -8 -1.33301 -18 -4 -30c-8.66699 -8.66699 -27.667 -16.334 -57 -23.001c-33.333 -7.33301 -53.666 -13.333 -60.999 -18v-10l8 -5c34.667 7.33301 63 11 85 11c32.667 0.666992 53 0 61 -2
c20 -4 31.333 -16 34 -36c2.66699 -19.333 -35 -41.333 -113 -66c-70 -22 -123 -33 -159 -33c-4 0 -7 0.333008 -9 1c-13.333 18 -33.666 76.333 -60.999 175l-37 126c-14.667 52.667 -22 95 -22 127c0 8.66699 0.666992 16.667 2 24
c3.33301 18.667 65.666 35.667 186.999 51c95.333 12 163.333 18 204 18c7.33301 0 15.666 -1.66699 24.999 -5c12 -4 18.667 -8.66699 20 -14c6.66699 -22.667 9.66699 -51.667 9 -87c-0.666992 -48 -3 -76 -7 -84c-7.33301 -14.667 -30.666 -27 -69.999 -37z" />
    <glyph glyph-name="F" unicode="F" horiz-adv-x="449" 
d="M234 320c40 4 65.668 5.99609 77.001 5.99609c27.333 0 50.666 -6.66699 69.999 -20c0.666992 -39.333 0.333984 -65.333 -0.999023 -78c-4 -38 -16.333 -57 -37 -57c-14.667 0 -36.667 4.33301 -66 13c-32.667 10 -55 15.667 -67 17l-29 -60
c-14 -22 -31.667 -33 -53 -33c-38.667 0 -64.667 10.667 -78 32c-2.66699 4.66699 -7.66699 36.334 -15 95.001c-5.33301 44 -9.66602 96.667 -12.999 158c-1.33301 24.667 -2 44 -2 58c0 82 31 132 93 150c9.33301 2.66699 60 6.66699 152 12s143 7 153 5
c19.333 -3.33301 31.666 -8.66602 36.999 -15.999c8.66699 -23.333 13 -61.333 13 -114c0 -47.333 -4.66699 -79.666 -14 -96.999c-6.66699 -12 -29 -20 -67 -24c-18.667 -1.33301 -52.334 -4.66602 -101.001 -9.99902c-34.667 -4.66699 -52 -17 -52 -37z" />
    <glyph glyph-name="G" unicode="G" 
d="M238 285c12 36 29.335 59.332 52.002 69.999c18.667 8.66699 53 13 103 13c23.333 0 33.666 -6.33301 30.999 -19l-35 -182c-20 -103.333 -34.667 -158.666 -44 -165.999c-4.66699 -2.66699 -15 -4.66699 -31 -6c-14.667 -1.33301 -25.334 -1 -32.001 1
c-14.667 22 -30 61.333 -46 118l-103 27c-34.667 12 -62.667 34.667 -84 68c-28.667 44.667 -43 88.667 -43 132c0 87.333 53 164 159 230c94 58.667 185.333 88 274 88c62.667 0 94.667 -18.333 96 -55c0.666992 -16.667 -11 -52 -35 -106
c-24.667 -56 -42.667 -84.333 -54 -85c-24.667 -2 -68.667 -6 -132 -12c-50 -5.33301 -86 -26.333 -108 -63c-8 -13.333 -12 -23 -12 -29c0 -8 14.667 -16 44 -24z" />
    <glyph glyph-name="H" unicode="H" horiz-adv-x="505" 
d="M538 547l-2.00293 -1.99805c0 -29.333 -12 -78.333 -36 -147c-22 -62.667 -45.333 -116.667 -70 -162c-42.667 -78 -81.667 -113.333 -117 -106c-10.667 2 -17.667 23 -21 63l-6 78l-18 9c-2 -12 -3 -25.667 -3 -41c0 -4.66699 1 -25.667 3 -63
c1.33301 -25.333 1 -46 -1 -62c-1.33301 -6 -12.666 -17.333 -33.999 -34c-1.33301 -1.33301 -7.83301 -4.5 -19.5 -9.5s-18.167 -7.16699 -19.5 -6.5c-17.333 3.33301 -52.666 76 -105.999 218c-51.333 138 -77 221 -77 249c0.666992 32 22.667 58 66 78
c34.667 16.667 70.334 25 107.001 25c31.333 0 51 -6.66699 59 -20c4 -7.33301 8.66699 -39 14 -95c5.33301 -62.667 9.33301 -99.334 12 -110.001l14 -10h4c4.66699 7.33301 7 33.666 7 78.999v86c0 22 3.5 36.667 10.5 44s21.5 11 43.5 11c28 0 63.333 -6.33301 106 -19
c51.333 -15.333 79.333 -33 84 -53z" />
    <glyph glyph-name="I" unicode="I" horiz-adv-x="229" 
d="M25 360l2.00098 2c4 38 8.33301 75.667 13 113c7.33301 57.333 14.666 91 21.999 101c12 16 46 24 102 24c18.667 0 31.334 -9 38.001 -27c5.33301 -14 13.166 -68 23.499 -162s14.833 -149.667 13.5 -167c-2 -24.667 -23.167 -57.5 -63.5 -98.5s-72.5 -61.5 -96.5 -61.5
c-37.333 0 -56 66.667 -56 200c0 -5.33301 0.666992 20 2 76z" />
    <glyph glyph-name="J" unicode="J" horiz-adv-x="310" 
d="M224 645l30.0029 -13c17.333 -28.667 33 -82 47 -160c12 -67.333 18 -123 18 -167c0 -23.333 -2 -55 -6 -95c-4.66699 -47.333 -10.334 -78.333 -17.001 -93c-19.333 -43.333 -51 -65 -95 -65c-32.667 0 -68.334 12 -107.001 36c-44 27.333 -66 59 -66 95
c0 15.333 12.667 27.166 38 35.499s37.666 18.5 36.999 30.5c-1.33301 42.667 -15.833 104.5 -43.5 185.5s-41.5 115.833 -41.5 104.5c2 14.667 6.66699 25.334 14 32.001c4 4 14.333 10.667 31 20c51.333 29.333 105 47.333 161 54z" />
    <glyph glyph-name="K" unicode="K" horiz-adv-x="416" 
d="M346 315c29.333 -95.333 44.0029 -151.667 44.0029 -169c0 -12 -6.33301 -28.667 -19 -50c-13.333 -23.333 -25.333 -35 -36 -35c-7.33301 0 -26.333 17.667 -57 53c-22.667 26 -40.667 48.667 -54 68c-2.66699 -2.66699 -7 -17 -13 -43
c-6.66699 -28 -11.667 -45.333 -15 -52c-10.667 -18.667 -26.334 -28 -47.001 -28c-39.333 0 -74.666 76 -105.999 228c-25.333 122.667 -38 219 -38 289c0 19.333 8.16699 36.666 24.5 51.999s34.166 23 53.499 23c6 0 10.333 -1 13 -3l14 4l6 -3c28 5.33301 52 8 72 8
c57.333 0 86 -24.667 86 -74c0 -17.333 -7.66699 -61.666 -23 -132.999h2c41.333 37.333 62.666 56.333 63.999 57c24.667 22 50 33 76 33c8 0 16.333 -16.667 25 -50c8 -29.333 11.667 -50 11 -62c-0.666992 -18.667 -11.334 -39 -32.001 -61
c-9.33301 -10 -26.333 -27.333 -51 -52z" />
    <glyph glyph-name="L" unicode="L" horiz-adv-x="298" 
d="M250 262c35.333 -35.333 52.999 -60.6641 52.999 -75.9971c0 -24.667 -20.5 -54.834 -61.5 -90.501s-74.5 -54.167 -100.5 -55.5c-36.667 32.667 -67 103.667 -91 213c-20.667 94 -31 187 -31 279c0 41.333 2.33301 71.333 7 90c6.66699 26.667 51.667 40 135 40
c32 0 62.667 -3.66699 92 -11c43.333 -10.667 65.333 -27.334 66 -50.001c0.666992 -34.667 -10.666 -88.334 -33.999 -161.001c-24 -74.667 -36 -129 -36 -163c0 -5.33301 0.333008 -10.333 1 -15z" />
    <glyph glyph-name="M" unicode="M" horiz-adv-x="738" 
d="M471 248c-16 -10.667 -39.998 -38.668 -71.998 -84.001c-38.667 -54.667 -71.334 -82 -98.001 -82c-22 0 -46.667 22 -74 66c-36.667 59.333 -56 90 -58 92c-15.333 -38 -23.666 -58.333 -24.999 -61c-13.333 -26 -27.666 -39 -42.999 -39s-36.333 12.833 -63 38.5
s-39 45.834 -37 60.501c5.33301 38.667 30.333 103 75 193s81 149 109 177c4 1.33301 8.33301 2 13 2c32 0 68.667 -35.333 110 -106c4.66699 -8 30 -57.667 76 -149c7.33301 7.33301 29 54 65 140c31.333 74.667 57.333 112 78 112c24 -12.667 68.667 -53.667 134 -123
c68.667 -72.667 102 -118 100 -136c-2.66699 -22 -16.334 -49.333 -41.001 -82l-59 -75c-33.333 -43.333 -57.333 -65 -72 -65c-16.667 0 -38.334 16.667 -65.001 50c-2.66699 3.33301 -20.334 27 -53.001 71z" />
    <glyph glyph-name="N" unicode="N" horiz-adv-x="514" 
d="M256 221c-2 -3.33301 -2.99805 -8.66504 -2.99805 -15.998s0.833008 -18.333 2.5 -33s2.5 -25.667 2.5 -33c0 -30.667 -12 -46.334 -36 -47.001c-23.333 -0.666992 -62 8.66602 -116 27.999c-60 21.333 -91.333 42.666 -94 63.999c-3.33301 24.667 4 86.334 22 185.001
c16 87.333 30 150.666 42 189.999c9.33301 30 14 45.333 14 46c8.66699 20 19 30 31 30c28.667 0 69.667 -34.333 123 -103l107 -142c0.666992 2.66699 1 6.33398 1 11.001c0 12 -2 31 -6 57l-8 52c-3.33301 22.667 10.334 34 41.001 34c23.333 0 53.666 -8 90.999 -24
c43.333 -18.667 64 -37.667 62 -57c-6.66699 -58 -19.334 -124.333 -38.001 -199c-26.667 -107.333 -51.334 -161 -74.001 -161c-16 0 -43.333 16.667 -82 50c-48 41.333 -75.333 64 -82 68z" />
    <glyph glyph-name="O" unicode="O" horiz-adv-x="535" 
d="M547 376c2 -18 -2.33398 -40.333 -13.001 -67c-23.333 -58.667 -55.666 -105 -96.999 -139c-45.333 -36.667 -98 -55 -158 -55c-68.667 0 -129.667 22.333 -183 67c-56 46.667 -84 103.667 -84 171c0 12 1.33301 25.333 4 40c12.667 70 44.5 125.833 95.5 167.5
s112.167 62.5 183.5 62.5c48 0 109.667 -26.333 185 -79c36.667 -25.333 59 -81.333 67 -168zM388.999 453l-34.999 -46c-6 -7.33301 -17.333 -22.333 -34 -45c-4.66699 -6.66699 -12 -21.667 -22 -45l-4 -3c-8.66699 -34 -13 -55.667 -13 -65c0 -20.667 7.33301 -31 22 -31
c9.33301 0 23.666 2.83301 42.999 8.5s32 11.167 38 16.5c23.333 22 35 62 35 120c0 46 -10 76 -30 90z" />
    <glyph glyph-name="P" unicode="P" horiz-adv-x="501" 
d="M251 199l-20.999 -80c-12.667 -36 -28.334 -54 -47.001 -54c-26 0 -60.667 70.667 -104 212c-40.667 132 -61 223 -61 273c0 6 0.333008 10.333 1 13c7.33301 14.667 49.333 29 126 43c62.667 11.333 109.334 17 140.001 17c167.333 0 251 -48.667 251 -146
c0 -56 -34.333 -113.667 -103 -173c-58.667 -50.667 -119.334 -85.667 -182.001 -105zM299.001 345c-9.33301 8 -20.665 12 -33.998 12c-4 0 -7.33301 -0.666992 -10 -2c-0.666992 -3.33301 -1.33398 -8.33301 -2.00098 -15c-0.666992 -8 -0.666992 -18.667 0 -32
c0.666992 -12.667 1 -17.667 1 -15c10 2.66699 20.167 9.5 30.5 20.5s15.166 21.5 14.499 31.5z" />
    <glyph glyph-name="Q" unicode="Q" horiz-adv-x="537" 
d="M424 155l0.999023 -2.99902c14 -4.66699 26.667 -19 38 -43c10 -20.667 15 -39.667 15 -57c0 -24.667 -9.16699 -45.334 -27.5 -62.001s-39.833 -25 -64.5 -25c-44 0 -74 22.667 -90 68l23 54c-10 5.33301 -20.333 8 -31 8c-6.66699 0 -13.334 -1 -20.001 -3l-19 8l-6 15
c-151.333 25.333 -227 91.666 -227 198.999c0 62 23.5 124.833 70.5 188.5s100.167 105.834 159.5 126.501c22.667 8 44.334 12 65.001 12c66.667 0 123.334 -28.333 170.001 -85c44.667 -53.333 67 -114 67 -182c0 -90 -41.333 -163 -124 -219zM320.999 252.001
c14.667 0 31.333 3.33301 50 10c21.333 7.33301 35.833 15.833 43.5 25.5s14.167 29.5 19.5 59.5c4.66699 25.333 7 47 7 65c0 20.667 -2.66699 34.667 -8 42c-1.33301 2 -6 4.5 -14 7.5s-13.333 4.5 -16 4.5c-13.333 0 -23 -6 -29 -18c-4 -14 -12.333 -41.333 -25 -82
c-18.667 -58 -28 -96 -28 -114z" />
    <glyph glyph-name="R" unicode="R" horiz-adv-x="520" 
d="M405 221c54.667 0 90.667 -7 108 -21c7.33301 -6 11 -19 11 -39c0 -45.333 -12.333 -79.333 -37 -102c-9.33301 -8.66699 -21.333 -13 -36 -13c-30.667 0 -72.667 17.667 -126 53c-43.333 28.667 -76 55 -98 79c-20 -40 -31.667 -62.667 -35 -68
c-18 -28 -36.667 -42 -56 -42c-36 0 -73.333 126.333 -112 379c-7.33301 48 -11 73.667 -11 77c0 20.667 4.33301 33.667 13 39c38.667 24.667 85.667 37 141 37c72.667 0 148.667 -21.333 228 -64c91.333 -49.333 137 -107.333 137 -174
c0 -56.667 -42.333 -103.667 -127 -141zM258 336c-4.66699 -24.667 -8.33301 -44.667 -11 -60c42.667 6.66699 64 17 64 31c0 6.66699 -7.16699 13.667 -21.5 21s-24.833 10 -31.5 8z" />
    <glyph glyph-name="S" unicode="S" horiz-adv-x="479" 
d="M177 270c4.66699 7.33301 7 13.999 7 19.999c0 14 -15.333 28.333 -46 43c-44 21.333 -72 36.333 -84 45c-30 22 -45 48.667 -45 80c0 28.667 13.333 63.667 40 105c30 46.667 88.333 70 175 70c80.667 0 150 -16 208 -48c27.333 -15.333 41 -33.666 41 -54.999
c0 -20.667 -10.667 -37.334 -32 -50.001c-18 -11.333 -38 -17 -60 -17c-24.667 0 -44 8.66699 -58 26c-16 28 -25.667 44 -29 48c-13.333 16.667 -29 25 -47 25c-17.333 0 -26 -7.33301 -26 -22c0 -28 23.667 -53.667 71 -77c75.333 -37.333 119 -60.666 131 -69.999
c46.667 -34.667 70 -79.667 70 -135c0 -31.333 -14.667 -63.666 -44 -96.999c-25.333 -29.333 -54.333 -51.333 -87 -66c-44 -20 -88 -30 -132 -30c-82 0 -148 34 -198 102c-11.333 15.333 -17 36.666 -17 63.999c0 22.667 4 42 12 58c10.667 21.333 26 32 46 32
c14 0 31.667 -6.66699 53 -20c30 -18.667 47 -29 51 -31z" />
    <glyph glyph-name="T" unicode="T" horiz-adv-x="567" 
d="M430 504c-7.33301 -8.66699 -16.334 -48.002 -27.001 -118.002c-10.667 -67.333 -15 -109.666 -13 -126.999c44.667 -7.33301 67 -18 67 -32c0 -28 -25 -59.667 -75 -95c-47.333 -34.667 -85.666 -52 -114.999 -52c-21.333 0 -39 7 -53 21
c-46 44.667 -69 112.667 -69 204c0 20.667 1.66699 42.334 5 65.001c0.666992 4 4 21.333 10 52c4.66699 21.333 7 39 7 53c0 3.33301 -0.666992 5.33301 -2 6c-58 -18.667 -95.333 -28 -112 -28c-12 0 -22.667 1.66699 -32 5c-5.33301 18.667 -8 35 -8 49
c0 27.333 12 48 36 62c14.667 8.66699 38.667 17 72 25c1.33301 0.666992 3 1 5 1c46 10 69.667 14.333 71 13c42 13.333 99.667 26.333 173 39c76 12.667 134.333 18.667 175 18s61 -20.667 61 -60c0 -42.667 -8.33301 -80.667 -25 -114
c-5.33301 -10.667 -17.333 -16 -36 -16c-20.667 0 -59 9.66699 -115 29z" />
    <glyph glyph-name="U" unicode="U" horiz-adv-x="501" 
d="M40 598c12.667 13.333 29.3311 23.3369 49.998 30.0039c12.667 3.33301 31.334 8.66602 56.001 15.999c36 11.333 62.333 17 79 17c42.667 0 64 -25.667 64 -77c0 -32.667 -8.83301 -80.834 -26.5 -144.501s-26.5 -111.834 -26.5 -144.501c0 -38.667 15.333 -58 46 -58
c47.333 0 71 16 71 48c0 18.667 -9.5 50 -28.5 94s-28.5 75.333 -28.5 94c0 38.667 29 58 87 58c46.667 0 82 -24.667 106 -74c19.333 -39.333 29 -84.666 29 -135.999c0 -38 -5.33301 -70.333 -16 -97c-18.667 -46.667 -59 -88.334 -121 -125.001
s-118.667 -54.334 -170 -53.001c-125.333 3.33301 -188 89 -188 257c0 2.66699 1 20.667 3 54c2.66699 39.333 4.33398 72.333 5.00098 99c1.33301 32.667 4.33301 80 9 142z" />
    <glyph glyph-name="V" unicode="V" horiz-adv-x="497" 
d="M242 85l-134.999 225.001c-64 106.667 -96 180.667 -96 222c0 32 21.667 60.667 65 86c34 20 70.667 33 110 39c21.333 3.33301 39.333 -9.33398 54 -38.001c8.66699 -16 19.667 -47 33 -93c12 -40.667 23 -66.334 33 -77.001c2.66699 0.666992 18.667 15.334 48 44.001
s48.666 43 57.999 43c12 0 34.167 -9 66.5 -27s48.5 -32 48.5 -42c0 -22 -40.5 -92 -121.5 -210s-127.5 -177 -139.5 -177c-6.66699 0 -14.667 1.66699 -24 5z" />
    <glyph glyph-name="W" unicode="W" horiz-adv-x="717" 
d="M419 255l-9.00098 -19.002c-8.66699 -20.667 -24.667 -56 -48 -106c-30 -63.333 -54.333 -95 -73 -95c-26.667 0 -80.667 64 -162 192s-122 209.667 -122 245c0 19.333 16.667 44 50 74c7.33301 6 32.666 25.667 75.999 59c22 16.667 43 25 63 25
c8 0 15.333 -1.66699 22 -5c11.333 -17.333 21 -48.666 29 -93.999c10 -56 17 -89.667 21 -101c8.66699 6.66699 22.5 25.834 41.5 57.501s33.5 52.167 43.5 61.5c38.667 8.66699 66 13 82 13c20.667 0 33.667 -9.33301 39 -28c11.333 -39.333 21.333 -66.333 30 -81
c10.667 10 21.334 28.333 32.001 55c6.66699 17.333 27.334 36 62.001 56l66 38c28 16 50.667 24 68 24c18 0 27 -8.33301 27 -25c0 -38 -23.667 -125 -71 -261c-44 -126 -77.333 -209.333 -100 -250c-7.33301 -13.333 -17 -20.333 -29 -21
c-17.333 -1.33301 -42.333 25 -75 79c-12 19.333 -33 55 -63 107z" />
    <glyph glyph-name="X" unicode="X" horiz-adv-x="524" 
d="M448 356c63.333 -115.333 94.9971 -184.333 94.9971 -207c0 -18.667 -10.333 -28 -31 -28c-30 0 -83.333 18.333 -160 55c-67.333 -116 -109.666 -174 -126.999 -174c-16.667 0 -47.5 30 -92.5 90s-67.5 99.667 -67.5 119c0 14 9 29.667 27 47
c6.66699 5.33301 21.334 18 44.001 38l-75 54c-30 22.667 -45 47 -45 73c0 22 14.5 65.333 43.5 130s51.833 104.667 68.5 120c19.333 4 55 -24 107 -84l97 -114c6.66699 0.666992 36.334 19.667 89.001 57s81.667 56 87 56c25.333 0 38 -11.333 38 -34
c0 -29.333 -14 -66 -42 -110z" />
    <glyph glyph-name="Y" unicode="Y" horiz-adv-x="540" 
d="M427 -6l-3.00195 2.99902c-34 -4 -86.333 12 -157 48c-74 38 -111 72.333 -111 103c0 6 13.333 45 40 117l-5 6c-6 0 -36.333 2.33301 -91 7c-56.667 4.66699 -85 47.334 -85 128.001c0 49.333 11 112.666 33 189.999c26 25.333 54.667 48 86 68
c42.667 27.333 79 41 109 41c27.333 0 47.333 -12 60 -36c-2.66699 -20 -9 -53.333 -19 -100c-8 -37.333 -12 -63.666 -12 -78.999c0 -29.333 12.667 -44 38 -44c22 0 56.333 11 103 33c-25.333 63.333 -38 105.333 -38 126c0 6 0.333008 11.333 1 16
c40 8.66699 63 12 69 10c76.667 -24 115 -63.333 115 -118c0 -11.333 -0.333008 -19.333 -1 -24c-4.66699 -32 -9.66699 -54.667 -15 -68c-8 -20 -22.667 -38 -44 -54c-11.333 -6 -24.666 -13.667 -39.999 -23c-20 -12.667 -30.333 -21.667 -31 -27
c-1.33301 -22.667 3.33398 -61 14.001 -115c11.333 -56 17 -96.333 17 -121c0 -46 -11 -75 -33 -87z" />
    <glyph glyph-name="Z" unicode="Z" horiz-adv-x="502" 
d="M509 46c-30 -4 -62.001 -6.00098 -96.001 -6.00098c-53.333 0 -129.333 7.66699 -228 23c-73.333 11.333 -121.333 24 -144 38c-16.667 10 -25 26 -25 48c0 30 16.333 73 49 129c18.667 32 48.667 78.667 90 140c34 50.667 51.667 81.667 53 93
c-5.33301 4.66699 -31.666 13 -78.999 25c-41.333 10.667 -61.666 21 -60.999 31c1.33301 25.333 7 43.333 17 54c6.66699 6.66699 35.334 12.334 86.001 17.001c36.667 3.33301 67.667 5 93 5c139.333 0 209 -26.333 209 -79c0 -22.667 -25.5 -79.667 -76.5 -171
s-76.5 -147.333 -76.5 -168c45.333 4 79.666 6 102.999 6c67.333 0 104.333 -10.333 111 -31c3.33301 -9.33301 3.33301 -30.333 0 -63c-2.66699 -30 -4.33398 -46 -5.00098 -48c-3.33301 -18.667 -10 -33 -20 -43z" />
    <glyph glyph-name="bracketleft" unicode="[" horiz-adv-x="280" 
d="M218 521c-2.66699 -4.66699 -3.33203 -60.335 -1.99902 -167.002c1.33301 -101.333 2.66602 -160.666 3.99902 -177.999c5.33301 -3.33301 16 -5.83301 32 -7.5s26.667 -4.5 32 -8.5s8 -16.667 8 -38c0 -20.667 -2.33301 -34.5 -7 -41.5s-16.667 -13.833 -36 -20.5
c-82 -28.667 -140 -43 -174 -43c-15.333 0 -26.666 2.66699 -33.999 8c-12.667 9.33301 -19 85 -19 227c0 46 1.33301 124.667 4 236l3 125c0 -5.33301 -0.333008 8.66699 -1 42c0 18.667 6.66699 28 20 28c25.333 0 69.666 -7.33301 132.999 -22
c72.667 -16.667 111 -31.667 115 -45c1.33301 -7.33301 2 -24.666 2 -51.999c0 -17.333 -9 -28 -27 -32z" />
    <glyph glyph-name="backslash" unicode="\" horiz-adv-x="513" 
d="M550 -8c0 -12.667 -11.3291 -29.999 -33.9961 -51.999s-40.334 -33 -53.001 -33c-20.667 0 -60.667 51.667 -120 155l-104 188l-149 253c-38.667 65.333 -56.334 101.666 -53.001 108.999c12.667 28.667 48 58.667 106 90c13.333 7.33301 25.666 11 36.999 11
c27.333 0 68.666 -56.667 123.999 -170l90 -202c104 -222.667 156 -339 156 -349z" />
    <glyph glyph-name="bracketright" unicode="]" horiz-adv-x="344" 
d="M41 56c-3.33301 8.66699 -5.00098 18.668 -5.00098 30.001c0 20.667 4.66699 38.667 14 54c4.66699 4.66699 20.834 10.834 48.501 18.501s45.167 14.167 52.5 19.5c2 10.667 3 22 3 34c0 26.667 -4.33301 57.667 -13 93l3 2l-6 14c0.666992 2 -3.33301 55.667 -12 161
l-3 4c-27.333 1.33301 -44.333 2.33301 -51 3c-19.333 2 -35 7 -47 15c-4.66699 13.333 -7 28 -7 44c0 24.667 6 42.667 18 54c8 7.33301 31.333 11 70 11c34.667 0 76 -3.66699 124 -11c44 -6.66699 73.333 -14.834 88 -24.501s23 -25.834 25 -48.501c0 2 0 -29 0 -93
c0 -196 -7.66699 -312.333 -23 -349c-11.333 -26.667 -56 -40.667 -134 -42l-73 -1c-34 -0.666992 -58 3.33301 -72 12z" />
    <glyph glyph-name="a" unicode="a" horiz-adv-x="355" 
d="M159 286l-1.99902 21c-6 3.33301 -27.667 9.33301 -65 18c-32 7.33301 -50.333 16 -55 26c-12.667 26.667 -19 50 -19 70c0 9.33301 2.33301 28.333 7 57c3.33301 20.667 33.666 31 90.999 31c37.333 0 75 -4.33301 113 -13c46.667 -10.667 80.667 -25.334 102 -44.001
c18.667 -16.667 28 -46 28 -88c0 -40.667 -12.333 -97.667 -37 -171c-28.667 -86 -58.667 -129 -90 -129c-40.667 0 -81.667 8.33301 -123 25c-51.333 20.667 -77 46.334 -77 77.001c0 17.333 9.33301 36 28 56c13.333 14 46.333 35.333 99 64zM155.001 159
c22 -4.66699 34.001 -7 36.001 -7c16.667 0 25 10 25 30c0 4 -3.83301 7.83301 -11.5 11.5s-13.834 5.5 -18.501 5.5c-13.333 0 -22 -7.66699 -26 -23z" />
    <glyph glyph-name="b" unicode="b" horiz-adv-x="334" 
d="M350 263l-0.998047 -3.00195c-2 -54 -21.333 -99.5 -58 -136.5s-81.667 -55.5 -135 -55.5c-30.667 0 -57.334 7.83301 -80.001 23.5s-37 38 -43 67s-9 69.5 -9 121.5c0 96.667 10 179.667 30 249c25.333 88 63 133 113 135c28 0.666992 55.667 -3.33301 83 -12
c36 -12 54 -30 54 -54c0 -17.333 -15.667 -58.333 -47 -123c-30 -61.333 -43.667 -96 -41 -104c31.333 -6 48.666 -8.33301 51.999 -7c30 -9.33301 50.333 -20.666 61 -33.999s17.667 -35.666 21 -66.999zM217.002 210.998c-4 14.667 -9.66797 23 -17.001 25
c-10 0.666992 -20.333 1.66699 -31 3c-5.33301 -16 -9 -28.333 -11 -37c10.667 0 30.334 3 59.001 9z" />
    <glyph glyph-name="c" unicode="c" horiz-adv-x="304" 
d="M143 287c0.666992 -14.667 11 -22 31 -22c-3.33301 0 -3 0.333008 1 1h16h19c41.333 0 62 -25 62 -75c0 -38.667 -29.667 -58 -89 -58c-39.333 0 -73.333 7 -102 21c-18 8.66699 -33.167 24.667 -45.5 48s-18.833 45.666 -19.5 66.999c0.666992 10.667 0.666992 23 0 37
c10 56 22 97.667 36 125l3 2c10 21.333 32.333 39 67 53c30.667 12.667 59.667 19 87 19c67.333 0 101 -30.667 101 -92c0 -35.333 -4 -59.333 -12 -72c-12.667 -20 -38 -31.667 -76 -35c-42.667 -3.33301 -69 -9.66602 -79 -18.999z" />
    <glyph glyph-name="d" unicode="d" horiz-adv-x="358" 
d="M151 381l26 7.00195l-18 90c-8 39.333 -12 69 -12 89c0 46 29.667 69 89 69c34 0 68.333 -6.66699 103 -20c22.667 -8.66699 34 -44.334 34 -107.001c0 -60.667 -12.333 -138 -37 -232c-31.333 -118.667 -67.333 -178.667 -108 -180
c-29.333 -0.666992 -61.666 5.66602 -96.999 18.999c-79.333 30.667 -119 70.667 -119 120c0 34 17.667 68 53 102c31.333 30 57.666 45 78.999 45c2.66699 0 5 -0.666992 7 -2zM186 274.002h-19c-2 0 -5.83301 -2.16699 -11.5 -6.5s-8.5 -7.5 -8.5 -9.5
c0 -4.66699 3.83301 -10.167 11.5 -16.5s14.5 -10.5 20.5 -12.5c0.666992 10 3 25 7 45z" />
    <glyph glyph-name="e" unicode="e" horiz-adv-x="337" 
d="M209 220c16.667 -26 25.002 -40.666 25.002 -43.999c0 -8.66699 -10 -20.667 -30 -36s-34.667 -23 -44 -23c-18.667 0 -43.834 10 -75.501 30s-50.167 38.667 -55.5 56c-7.33301 23.333 -11 46.333 -11 69c0 62 23.333 113.667 70 155
c44 39.333 97.667 60.666 161 63.999c27.333 1.33301 51.666 -12.667 72.999 -42c20 -26.667 30 -54 30 -82c0 -62 -47.667 -111 -143 -147zM227.002 326.001c0 15.333 -5 23.001 -15 23.001c-37.333 0 -59 -5.66699 -65 -17c-1.33301 -2.66699 -1.33301 -12.334 0 -29.001
c5.33301 -0.666992 32 7 80 23z" />
    <glyph glyph-name="f" unicode="f" horiz-adv-x="290" 
d="M199 408c-8 -9.33301 -12 -31.002 -12 -65.002l48 -6c12 -4 18 -17 18 -39c0 -47.333 -11.333 -80.666 -34 -99.999c1.33301 1.33301 2 2.33301 2 3c0 1.33301 -0.666992 2.33301 -2 3c-0.666992 -1.33301 -1.66699 -2.66602 -3 -3.99902l-6 3l-6 -4
c-0.666992 3.33301 -2 5 -4 5c-1.33301 0 -3 -1.66699 -5 -5l-7 3c-2 -0.666992 -4.33301 -1 -7 -1l-7 -3c-1.33301 -22 -6 -55 -14 -99l-48 -19c-9.33301 -3.33301 -18.333 13.667 -27 51c-10 42 -17.333 64.333 -22 67c-9.33301 3.33301 -22.333 10.333 -39 21
c-9.33301 8.66699 -14 33 -14 73c0 16 3.33301 25.333 10 28l33 2c0.666992 2 -3 27 -11 75c-6 36 -9 67.667 -9 95c0 59.333 20.333 96.333 61 111c22.667 8 84.334 12 185.001 12c47.333 0 77.666 -7.66699 90.999 -23c1.33301 -16 -4.66699 -46 -18 -90
c-14.667 -48 -27.667 -73.667 -39 -77c-25.333 -3.33301 -63.333 -9 -114 -17z" />
    <glyph glyph-name="g" unicode="g" horiz-adv-x="394" 
d="M320 339c4.66699 -15.333 6.99805 -29.332 6.99805 -41.999c0 -40 -24 -66.667 -72 -80c-19.333 -5.33301 -61.666 -10 -126.999 -14l-3 -2l22 -13c89.333 0 146 -12 170 -36c14 -14 21 -27.333 21 -40c0 -8.66699 -3 -19 -9 -31
c-22 -42.667 -36.333 -68.334 -43 -77.001c-19.333 -24.667 -44 -37 -74 -37c-71.333 0 -107 17.333 -107 52c0 19.333 10 45.333 30 78c-0.666992 5.33301 -17 12.666 -49 21.999c-25.333 8 -39.333 12.333 -42 13c-16 8 -24 19 -24 33c0 12 1.66699 26 5 42l7 34
c-21.333 10 -34.666 17 -39.999 21c-13.333 10.667 -20 23.334 -20 38.001c0 60 46.333 105 139 135c68 22 140.667 33 218 33c10.667 -5.33301 19.667 -18 27 -38c6.66699 -16.667 10 -32 10 -46c0 -13.333 -15.333 -28.333 -46 -45zM228.998 321.001
c-16 6 -34.668 9.00098 -56.001 9.00098c-15.333 0 -32 -1.66699 -50 -5c4 -30 11.333 -45 22 -45c6.66699 0 16.5 0.5 29.5 1.5s22.833 1.5 29.5 1.5c12.667 0 20.334 3.33301 23.001 10c1.33301 3.33301 2 12.666 2 27.999z" />
    <glyph glyph-name="h" unicode="h" horiz-adv-x="348" 
d="M156 258l-3.99902 -4c-4 -64 -6.66699 -99 -8 -105c-8.66699 -41.333 -27.334 -62 -56.001 -62c-7.33301 0 -15.666 1.33301 -24.999 4c-4.66699 11.333 -14.334 85.333 -29.001 222l-26 243c-2 20 10.667 30 38 30c22.667 0 54 -7 94 -21c34.667 -12 52.667 -20 54 -24
c2 -12.667 3 -26 3 -40c0 -22 -6.33301 -64.333 -19 -127l3 -2c126 6.66699 189 -41.333 189 -144c0 -22.667 -6.66699 -56.334 -20 -101.001c-15.333 -52 -31.333 -78 -48 -78c-10.667 0 -33 9.83301 -67 29.5s-51.667 33.834 -53 42.501c-1.33301 12 0 28.333 4 49
c4.66699 23.333 7 39.333 7 48c0 22.667 -12.333 36 -37 40z" />
    <glyph glyph-name="i" unicode="i" horiz-adv-x="230" 
d="M22 397c-4 28 -6 43.332 -6 45.999c2 36 53 54 153 54c26.667 0 44.667 -8 54 -24c7.33301 -12.667 11 -33 11 -61c0 -17.333 -3 -29.666 -9 -36.999s-18 -11 -36 -11c-71.333 -0.666992 -127 10.333 -167 33zM22 313.999c2 18.667 7.33398 31.334 16.001 38.001
c2 2 10.5 4.66699 25.5 8s24.833 5 29.5 5c16 0 38 -4 66 -12c31.333 -8.66699 50.666 -17.834 57.999 -27.501s11 -31.167 11 -64.5c0 -46 -5.33301 -90.333 -16 -133c-12 -48 -26 -71.667 -42 -71c-30 0.666992 -59.667 7.66699 -89 21c-38 16.667 -56.333 38 -55 64
c0.666992 12.667 8 34 22 64s21 52 21 66c0 6.66699 -7.16699 13 -21.5 19s-22.833 13.667 -25.5 23z" />
    <glyph glyph-name="j" unicode="j" horiz-adv-x="252" 
d="M23 379c-1.33301 46 2.66699 79 12 99c6 12.667 25 19 57 19c15.333 0 35.5 -2.33301 60.5 -7s40.5 -9 46.5 -13c10.667 -7.33301 15 -21 13 -41c-1.33301 -18 -5.33301 -43.333 -12 -76c-6 -14.667 -16.333 -22 -31 -22c-16 0 -41.333 4.66699 -76 14
c-38 10 -61.333 19 -70 27zM43 -104c-6.66699 16 -9.99902 30 -9.99902 42c0 10.667 5.83301 26.834 17.5 48.501s17.5 38.5 17.5 50.5c0 -2 -3.33301 16.667 -10 56l-3 3c-10.667 48 -23.334 97 -38.001 147c-9.33301 1.33301 -23.333 5.66602 -42 12.999
c-2.66699 14 -4.33398 25.667 -5.00098 35c0 16 4.33301 26 13 30c6 2.66699 34.667 6 86 10c34 2.66699 53.333 4 58 4c28.667 0 48.834 -6.83301 60.501 -20.5s18.5 -35.167 20.5 -64.5c0.666992 -9.33301 3.66699 -33 9 -71c4 -28 6 -51.667 6 -71
c0 -36.667 -13 -74 -39 -112c-48 -70 -88.667 -105 -122 -105c-6.66699 0 -13 1.66699 -19 5z" />
    <glyph glyph-name="k" unicode="k" horiz-adv-x="305" 
d="M321 257l-66.002 -40.999c7.33301 -36.667 11 -67 11 -91c0 -32.667 -10 -51.667 -30 -57c-20 14 -51.667 45.667 -95 95c-0.666992 -0.666992 -7.66699 -18.334 -21 -53.001c-10 -25.333 -20.667 -38 -32 -38c-20.667 0 -39.667 53 -57 159c-14 86 -21 152 -21 198
c0 38 3.33301 62.667 10 74c8 14 28.333 26.667 61 38c28.667 10 51.334 15 68.001 15c38 0 57 -18 57 -54c0 -20 -2.66699 -50.167 -8 -90.5s-8 -70.5 -8 -90.5l3 -1c40.667 16 69.334 24 86.001 24c29.333 0 44 -19.667 44 -59c0 -8.66699 -0.666992 -18 -2 -28z" />
    <glyph glyph-name="l" unicode="l" horiz-adv-x="201" 
d="M212 500c3.33301 -28 -7.66699 -99.499 -33 -214.499s-45.333 -184.167 -60 -207.5c-6 -9.33301 -16.333 -14 -31 -14c-13.333 0 -23.333 10.333 -30 31c-1.33301 1.33301 -4.66602 17 -9.99902 47c-21.333 113.333 -32 217 -32 311c0 33.333 1.33301 53.666 4 60.999
c6 17.333 23.667 31 53 41c22.667 8 45.667 12 69 12c41.333 0 63.666 -13.667 66.999 -41z" />
    <glyph glyph-name="m" unicode="m" horiz-adv-x="561" 
d="M373 317l-3.99902 1.99805c-10.667 -14 -20 -41.667 -28 -83c-9.33301 -46 -17.333 -76 -24 -90c-10 -20.667 -24.667 -31 -44 -31c-18.667 0 -35.334 29.333 -50.001 88c-12 48 -18 85.667 -18 113l-3 2c-12.667 -3.33301 -24.334 -21.666 -35.001 -54.999
c-4.66699 -16.667 -14 -46.334 -28 -89.001c-10.667 -31.333 -25.667 -47 -45 -47s-38.333 31 -57 93c-17.333 57.333 -26 109.333 -26 156c0 26.667 3.66699 42.334 11 47.001c12 7.33301 32.833 15.666 62.5 24.999s51.167 14 64.5 14s22.666 -7 27.999 -21
c2.66699 -5.33301 5.33398 -17.666 8.00098 -36.999c10 -1.33301 28.667 1.33398 56 8.00098c30.667 7.33301 51 11 61 11c24.667 0 40.334 -10.333 47.001 -31c73.333 36.667 123.333 55 150 55c17.333 0 33.666 -5 48.999 -15c18 -12 27 -26 27 -42
c0.666992 -26 -13.666 -81 -42.999 -165c-30.667 -89.333 -56 -134 -76 -134h-5c-20.667 6 -37.667 39.333 -51 100z" />
    <glyph glyph-name="n" unicode="n" horiz-adv-x="398" 
d="M184 358l0.000976562 -113.001c0 -71.333 -12.333 -107 -37 -107c-18.667 0 -46 13.5 -82 40.5s-54 49.5 -54 67.5c0 26 13.667 70.333 41 133c30 69.333 56.333 104 79 104c20.667 0 34.667 -2.33301 42 -7s14 -16.667 20 -36c12 0 37.833 5.5 77.5 16.5
s68.5 16.5 86.5 16.5c34.667 0 52 -12.333 52 -37c0 -36 -10.667 -94.667 -32 -176c-24.667 -94 -48.667 -141 -72 -141c-20.667 0 -35.334 21 -44.001 63c-4 22 -12 61 -24 117c-9.33301 40.667 -27 60.334 -53 59.001z" />
    <glyph glyph-name="o" unicode="o" horiz-adv-x="348" 
d="M313 171c-23.333 -10.667 -42 -15.999 -56 -15.999c-26 0 -65.667 5.66699 -119 17c-49.333 10.667 -79 18.667 -89 24c-25.333 13.333 -38 38 -38 74c0 29.333 5.66699 63.666 17 102.999c13.333 45.333 29 75 47 89c60.667 8 100.667 12 120 12
c45.333 0 86.333 -10.333 123 -31l4 1c0.666992 -4.66699 6 -16 16 -34s15 -36.333 15 -55c0 -58.667 -13.333 -120 -40 -184zM249 309.001c-3.33301 5.33301 -20.333 15.6689 -51 31.002c-28 14 -47.333 22.333 -58 25c-8 -14.667 -12 -26.334 -12 -35.001
c0 -12.667 14.333 -27.334 43 -44.001s50 -25 64 -25c3.33301 0 5.33301 1 6 3c8 12 10.667 27 8 45z" />
    <glyph glyph-name="p" unicode="p" horiz-adv-x="337" 
d="M214 167c-4 0 -17.001 -0.666992 -39.001 -2c-4.66699 -18 -14 -50.333 -28 -97c-14 -44 -34.333 -63.667 -61 -59c-45.333 8 -68 84.667 -68 230c0 -4.66699 0 -1.66699 0 9c0.666992 13.333 1 30.333 1 51v42l-3 30c-1.33301 12.667 -2 28 -2 46
c0 40 6.66699 62.333 20 67c8 2.66699 19.667 4 35 4c23.333 0 60.333 -3.66699 111 -11c54.667 -8 94.667 -21 120 -39c32.667 -24 49 -61 49 -111c0 -20 -3 -46 -9 -78c-7.33301 -38.667 -28.666 -62 -63.999 -70c-11.333 -2 -32 -6 -62 -12zM185.999 315
c-2.66699 -13.333 -4.00098 -26.332 -4.00098 -38.999c4.66699 -0.666992 12.834 0.666016 24.501 3.99902s17.5 7 17.5 11c0 9.33301 -12.667 17.333 -38 24z" />
    <glyph glyph-name="q" unicode="q" horiz-adv-x="389" 
d="M211 -13c-6.66699 14.667 -15 41.6689 -25 81.002c-37.333 13.333 -56 28 -56 44c0 14.667 17.667 32.667 53 54v7c-20.667 5.33301 -46 12.333 -76 21c-32.667 11.333 -55.667 23.666 -69 36.999c-18 17.333 -27 41.333 -27 72c0 60 23.667 106 71 138
c40.667 28 92.334 42 155.001 42c34 0 66 -5 96 -15c42 -14 63 -34.667 63 -62c0 -20 -10.333 -61.667 -31 -125l-40 -122l21 -6c2 1.33301 5.66699 2 11 2c31.333 0 47 -12 47 -36c0 -30.667 -17 -49 -51 -55c-14 -2.66699 -30.333 -5.33398 -49 -8.00098l-15 -43
c-10.667 -28.667 -25 -43 -43 -43c-10.667 0 -22.334 5.66699 -35.001 17zM210 330.002h-4l-6 -3c-11.333 -4 -17 -8 -17 -12c0 -3.33301 2.16699 -7.83301 6.5 -13.5s7.83301 -8.5 10.5 -8.5c4.66699 0 8 12.333 10 37z" />
    <glyph glyph-name="r" unicode="r" horiz-adv-x="317" 
d="M195 284c-1.33301 -41.333 -2.66211 -85.999 -3.99512 -133.999c-0.666992 -18 -6.83398 -33.5 -18.501 -46.5s-26.167 -19.5 -43.5 -19.5c-21.333 0 -36 9.33301 -44 28c-16.667 39.333 -31.334 87.666 -44.001 144.999l-34 150l11 42
c43.333 15.333 81.666 23 114.999 23c32 0 49.333 -9.33301 52 -28c22 8 49 12 81 12c46.667 0 70 -12.667 70 -38c0 -22 -9.33301 -59.333 -28 -112c-9.33301 -13.333 -24.333 -20 -45 -20c-4.66699 0 -11.834 0.5 -21.501 1.5s-16.834 1.5 -21.501 1.5
c-10.667 0 -19 -1.66699 -25 -5z" />
    <glyph glyph-name="s" unicode="s" horiz-adv-x="320" 
d="M214 384l-1.00098 -3.00293c0.666992 -0.666992 1.33398 -1.66699 2.00098 -3c5.33301 -7.33301 17 -19.333 35 -36c16 -14 27 -26.333 33 -37c16 -28.667 22.333 -52.667 19 -72c-14 -78 -88.333 -114 -223 -108c-11.333 0.666992 -23.666 3.33398 -36.999 8.00098
c-17.333 6 -24.666 13.667 -21.999 23l15 54c7.33301 6 17.333 9 30 9c4 0 10 -0.333008 18 -1s14 -1 18 -1c12.667 0 23 2.66699 31 8c0 7.33301 -10.667 16.333 -32 27c-32 16.667 -52 27.667 -60 33c-21.333 14.667 -32.333 32.667 -33 54
c-0.666992 18.667 11.666 40.334 36.999 65.001c19.333 18.667 40.666 34 63.999 46c18.667 9.33301 49 14 91 14c87.333 0 131 -18.667 131 -56c0 -8.66699 -2.66699 -17 -8 -25c-6.66699 -10 -14 -14 -22 -12c-8 1.33301 -22.667 4 -44 8
c-23.333 4.66699 -37.333 6.33398 -42 5.00098z" />
    <glyph glyph-name="t" unicode="t" horiz-adv-x="282" 
d="M215 266c-7.33301 -18 -11.0029 -31.002 -11.0029 -39.002c0 -6.66699 4.66699 -11 14 -13c12 -2.66699 19 -5 21 -7c8 -7.33301 12 -21.666 12 -42.999c0 -14 -13.833 -29.5 -41.5 -46.5s-49.167 -25.5 -64.5 -25.5c-19.333 0 -36.333 27.667 -51 83
c-1.33301 4 -8.66602 40.333 -21.999 109l-4 3c-45.333 -1.33301 -68 11.334 -68 38.001c0 13.333 5.33301 31 16 53c11.333 9.33301 28.333 15 51 17c-9.33301 70 -14 108 -14 114c0 38 20.667 68 62 90c34 17.333 72 26 114 26c18 0 27 -20.667 27 -62
c0 -28 -5.66699 -76 -17 -144c20.667 -8 32.667 -13 36 -15c12.667 -7.33301 19.334 -17 20.001 -29c2 -42 -2.33301 -68.667 -13 -80c-3.33301 -3.33301 -25.666 -13 -66.999 -29z" />
    <glyph glyph-name="u" unicode="u" horiz-adv-x="322" 
d="M236 164c-22.667 -16 -36.333 -25 -41 -27c-12 -5.33301 -28.667 -8 -50 -8c-40.667 0 -71 4.66699 -91 14c-29.333 13.333 -44 37.666 -44 72.999c0 17.333 2.66699 40 8 68c8 42 12.667 68.667 14 80c4 32.667 16.667 59.834 38 81.501s48 32.5 80 32.5
c16 0 30.333 -3.33301 43 -10c16 -8 24 -19.333 24 -34c0 -22.667 -11.5 -55.5 -34.5 -98.5s-34.833 -75.5 -35.5 -97.5c10 -5.33301 19 -8 27 -8c15.333 0 27.333 11 36 33l25 64c12 22.667 27.667 34 47 34c30.667 0 47 -64.333 49 -193c0 -18 -1 -29.667 -3 -35
c-4 -9.33301 -13.667 -14 -29 -14c-18.667 0 -32 3.33301 -40 10c-4 3.33301 -11.667 15 -23 35z" />
    <glyph glyph-name="v" unicode="v" horiz-adv-x="327" 
d="M211 312c10 11.333 25.332 24.335 45.999 39.002c23.333 16.667 40.333 25 51 25c21.333 0 32 -11.333 32 -34c0 -38.667 -21.333 -87.334 -64 -146.001c-45.333 -60.667 -86.333 -91 -123 -91c-9.33301 0 -17.666 2.66699 -24.999 8
c-17.333 12.667 -41.333 53.667 -72 123s-46 115.666 -46 138.999c0 22.667 11.667 42.334 35 59.001c45.333 32.667 78.666 49 99.999 49c20 0 33.333 -19.333 40 -58c10.667 -58.667 19.334 -96.334 26.001 -113.001z" />
    <glyph glyph-name="w" unicode="w" horiz-adv-x="477" 
d="M247 248c-19.333 -38 -32.334 -62.001 -39.001 -72.001c-20 -30.667 -39.667 -46 -59 -46c-36 0 -69.333 38.333 -100 115c-28 68.667 -40.333 122.667 -37 162c1.33301 21.333 16 33.333 44 36c18.667 2 36.334 -7.66699 53.001 -29c5.33301 -6.66699 18 -24 38 -52
c12 18.667 27.667 40.334 47 65.001c17.333 14 34.333 21 51 21c30 0 63 -25.667 99 -77c56 38 92.333 57 109 57c8.66699 0 17.5 -7.16699 26.5 -21.5s13.5 -26.166 13.5 -35.499c0 -18.667 -19.333 -58.334 -58 -119.001s-66 -91.667 -82 -93
c-18.667 -2 -54 27.667 -106 89z" />
    <glyph glyph-name="x" unicode="x" horiz-adv-x="347" 
d="M272 290l0.999023 -2.00195c10 -5.33301 23.667 -20.5 41 -45.5s26 -42.833 26 -53.5c0 -10 -10.667 -26.667 -32 -50s-37 -35.333 -47 -36c-14 -0.666992 -30 8.66602 -48 27.999l-41 44c-49.333 -46 -86.333 -69 -111 -69c-8 0 -17.833 5.66699 -29.5 17
s-17.5 21.333 -17.5 30c-0.666992 11.333 8.83301 34.5 28.5 69.5s29.5 56.833 29.5 65.5c0 12.667 -5.83301 32.834 -17.5 60.501s-17.5 48.834 -17.5 63.501c0 10 1.33301 20 4 30c11.333 3.33301 22 5 32 5c16.667 0 34.334 -5 53.001 -15
c7.33301 -4 24.333 -15.333 51 -34l32 52c14 18.667 30.667 28 50 28c15.333 0 35.333 -8 60 -24s37 -31.333 37 -46c0 -15.333 -28 -54.666 -84 -117.999z" />
    <glyph glyph-name="y" unicode="y" horiz-adv-x="370" 
d="M111 99c-3.33301 9.33301 -4.99902 16.998 -4.99902 22.998c0 12 8.66699 20.333 26 25l42 6c9.33301 16 15.666 28.333 18.999 37l-142 25c-30.667 8 -46 33 -46 75c0 26.667 4.66699 67 14 121c20 16 43.333 31 70 45c32.667 17.333 58 26 76 26
c15.333 0 23 -16.333 23 -49c0 -16.667 -6 -59 -18 -127c-2 -10.667 4 -19.667 18 -27c3.33301 -1.33301 14.666 -5.33301 33.999 -12c12 39.333 17.333 86 16 140c3.33301 10.667 7 21.334 11 32.001c2.66699 4 18.334 6 47.001 6c23.333 0 40.333 -3 51 -9
c18 -10 27 -48.667 27 -116c0 -69.333 -8.66699 -134.666 -26 -195.999c-19.333 -68.667 -43 -103 -71 -103c-54 0 -109.333 26 -166 78z" />
    <glyph glyph-name="z" unicode="z" horiz-adv-x="324" 
d="M333 246c-9.33301 -47.333 -20.001 -78.9971 -32.001 -94.9971c-17.333 -22.667 -46.666 -34 -87.999 -34c-11.333 0 -29.5 0.333008 -54.5 1s-44.167 1 -57.5 1c-43.333 -0.666992 -65 21.666 -65 66.999c0 32 10.667 65 32 99l56 90c-4 0.666992 -7.33301 1 -10 1
c-6 0 -14 -4.5 -24 -13.5s-18.667 -13.5 -26 -13.5c-12 0 -28.667 6 -50 18c-1.33301 14 -2 26.667 -2 38c0 30.667 5.33301 52 16 64c14.667 16 43.334 28.333 86.001 37c32.667 6.66699 64 10 94 10c77.333 0 116 -18 116 -54c0 -18.667 -22.5 -51.334 -67.5 -98.001
s-66.833 -74 -65.5 -82c47.333 -0.666992 73.666 -1.33398 78.999 -2.00098c33.333 -4 54.333 -15.333 63 -34z" />
    <glyph glyph-name=".null" horiz-adv-x="0" 
 />
    <glyph glyph-name="nonmarkingreturn" 
 />
    <glyph glyph-name="glyph91" 
 />
    <glyph glyph-name="glyph92" 
 />
    <glyph glyph-name="glyph91" 
 />
    <glyph glyph-name="glyph92" 
 />
  </font>
</defs>
</svg>
